<?xml version="1.0" encoding="utf-8" standalone="no"?>
<!DOCTYPE svg PUBLIC "-//W3C//DTD SVG 1.1//EN"
  "http://www.w3.org/Graphics/SVG/1.1/DTD/svg11.dtd">
<!-- Created with matplotlib (https://matplotlib.org/) -->
<svg height="504pt" version="1.1" viewBox="0 0 1152 504" width="1152pt" xmlns="http://www.w3.org/2000/svg" xmlns:xlink="http://www.w3.org/1999/xlink">
 <defs>
  <style type="text/css">
*{stroke-linecap:butt;stroke-linejoin:round;white-space:pre;}
  </style>
 </defs>
 <g id="figure_1">
  <g id="patch_1">
   <path d="M 0 504 
L 1152 504 
L 1152 0 
L 0 0 
z
" style="fill:#ffffff;"/>
  </g>
  <g id="axes_1">
   <g id="patch_2">
    <path d="M 53.8 215.6 
L 570.6 215.6 
L 570.6 26.8 
L 53.8 26.8 
z
" style="fill:#ffffff;"/>
   </g>
   <g id="matplotlib.axis_1">
    <g id="xtick_1">
     <g id="line2d_1">
      <defs>
       <path d="M 0 0 
L 0 3.5 
" id="m1f912125b3" style="stroke:#000000;stroke-width:0.8;"/>
      </defs>
      <g>
       <use style="stroke:#000000;stroke-width:0.8;" x="72.545271" xlink:href="#m1f912125b3" y="215.6"/>
      </g>
     </g>
     <g id="text_1">
      <!-- 0 -->
      <defs>
       <path d="M 31.78125 66.40625 
Q 24.171875 66.40625 20.328125 58.90625 
Q 16.5 51.421875 16.5 36.375 
Q 16.5 21.390625 20.328125 13.890625 
Q 24.171875 6.390625 31.78125 6.390625 
Q 39.453125 6.390625 43.28125 13.890625 
Q 47.125 21.390625 47.125 36.375 
Q 47.125 51.421875 43.28125 58.90625 
Q 39.453125 66.40625 31.78125 66.40625 
z
M 31.78125 74.21875 
Q 44.046875 74.21875 50.515625 64.515625 
Q 56.984375 54.828125 56.984375 36.375 
Q 56.984375 17.96875 50.515625 8.265625 
Q 44.046875 -1.421875 31.78125 -1.421875 
Q 19.53125 -1.421875 13.0625 8.265625 
Q 6.59375 17.96875 6.59375 36.375 
Q 6.59375 54.828125 13.0625 64.515625 
Q 19.53125 74.21875 31.78125 74.21875 
z
" id="DejaVuSans-48"/>
      </defs>
      <g transform="translate(69.364021 230.198437)scale(0.1 -0.1)">
       <use xlink:href="#DejaVuSans-48"/>
      </g>
     </g>
    </g>
    <g id="xtick_2">
     <g id="line2d_2">
      <g>
       <use style="stroke:#000000;stroke-width:0.8;" x="167.458035" xlink:href="#m1f912125b3" y="215.6"/>
      </g>
     </g>
     <g id="text_2">
      <!-- 20 -->
      <defs>
       <path d="M 19.1875 8.296875 
L 53.609375 8.296875 
L 53.609375 0 
L 7.328125 0 
L 7.328125 8.296875 
Q 12.9375 14.109375 22.625 23.890625 
Q 32.328125 33.6875 34.8125 36.53125 
Q 39.546875 41.84375 41.421875 45.53125 
Q 43.3125 49.21875 43.3125 52.78125 
Q 43.3125 58.59375 39.234375 62.25 
Q 35.15625 65.921875 28.609375 65.921875 
Q 23.96875 65.921875 18.8125 64.3125 
Q 13.671875 62.703125 7.8125 59.421875 
L 7.8125 69.390625 
Q 13.765625 71.78125 18.9375 73 
Q 24.125 74.21875 28.421875 74.21875 
Q 39.75 74.21875 46.484375 68.546875 
Q 53.21875 62.890625 53.21875 53.421875 
Q 53.21875 48.921875 51.53125 44.890625 
Q 49.859375 40.875 45.40625 35.40625 
Q 44.1875 33.984375 37.640625 27.21875 
Q 31.109375 20.453125 19.1875 8.296875 
z
" id="DejaVuSans-50"/>
      </defs>
      <g transform="translate(161.095535 230.198437)scale(0.1 -0.1)">
       <use xlink:href="#DejaVuSans-50"/>
       <use x="63.623047" xlink:href="#DejaVuSans-48"/>
      </g>
     </g>
    </g>
    <g id="xtick_3">
     <g id="line2d_3">
      <g>
       <use style="stroke:#000000;stroke-width:0.8;" x="262.370799" xlink:href="#m1f912125b3" y="215.6"/>
      </g>
     </g>
     <g id="text_3">
      <!-- 40 -->
      <defs>
       <path d="M 37.796875 64.3125 
L 12.890625 25.390625 
L 37.796875 25.390625 
z
M 35.203125 72.90625 
L 47.609375 72.90625 
L 47.609375 25.390625 
L 58.015625 25.390625 
L 58.015625 17.1875 
L 47.609375 17.1875 
L 47.609375 0 
L 37.796875 0 
L 37.796875 17.1875 
L 4.890625 17.1875 
L 4.890625 26.703125 
z
" id="DejaVuSans-52"/>
      </defs>
      <g transform="translate(256.008299 230.198437)scale(0.1 -0.1)">
       <use xlink:href="#DejaVuSans-52"/>
       <use x="63.623047" xlink:href="#DejaVuSans-48"/>
      </g>
     </g>
    </g>
    <g id="xtick_4">
     <g id="line2d_4">
      <g>
       <use style="stroke:#000000;stroke-width:0.8;" x="357.283563" xlink:href="#m1f912125b3" y="215.6"/>
      </g>
     </g>
     <g id="text_4">
      <!-- 60 -->
      <defs>
       <path d="M 33.015625 40.375 
Q 26.375 40.375 22.484375 35.828125 
Q 18.609375 31.296875 18.609375 23.390625 
Q 18.609375 15.53125 22.484375 10.953125 
Q 26.375 6.390625 33.015625 6.390625 
Q 39.65625 6.390625 43.53125 10.953125 
Q 47.40625 15.53125 47.40625 23.390625 
Q 47.40625 31.296875 43.53125 35.828125 
Q 39.65625 40.375 33.015625 40.375 
z
M 52.59375 71.296875 
L 52.59375 62.3125 
Q 48.875 64.0625 45.09375 64.984375 
Q 41.3125 65.921875 37.59375 65.921875 
Q 27.828125 65.921875 22.671875 59.328125 
Q 17.53125 52.734375 16.796875 39.40625 
Q 19.671875 43.65625 24.015625 45.921875 
Q 28.375 48.1875 33.59375 48.1875 
Q 44.578125 48.1875 50.953125 41.515625 
Q 57.328125 34.859375 57.328125 23.390625 
Q 57.328125 12.15625 50.6875 5.359375 
Q 44.046875 -1.421875 33.015625 -1.421875 
Q 20.359375 -1.421875 13.671875 8.265625 
Q 6.984375 17.96875 6.984375 36.375 
Q 6.984375 53.65625 15.1875 63.9375 
Q 23.390625 74.21875 37.203125 74.21875 
Q 40.921875 74.21875 44.703125 73.484375 
Q 48.484375 72.75 52.59375 71.296875 
z
" id="DejaVuSans-54"/>
      </defs>
      <g transform="translate(350.921063 230.198437)scale(0.1 -0.1)">
       <use xlink:href="#DejaVuSans-54"/>
       <use x="63.623047" xlink:href="#DejaVuSans-48"/>
      </g>
     </g>
    </g>
    <g id="xtick_5">
     <g id="line2d_5">
      <g>
       <use style="stroke:#000000;stroke-width:0.8;" x="452.196327" xlink:href="#m1f912125b3" y="215.6"/>
      </g>
     </g>
     <g id="text_5">
      <!-- 80 -->
      <defs>
       <path d="M 31.78125 34.625 
Q 24.75 34.625 20.71875 30.859375 
Q 16.703125 27.09375 16.703125 20.515625 
Q 16.703125 13.921875 20.71875 10.15625 
Q 24.75 6.390625 31.78125 6.390625 
Q 38.8125 6.390625 42.859375 10.171875 
Q 46.921875 13.96875 46.921875 20.515625 
Q 46.921875 27.09375 42.890625 30.859375 
Q 38.875 34.625 31.78125 34.625 
z
M 21.921875 38.8125 
Q 15.578125 40.375 12.03125 44.71875 
Q 8.5 49.078125 8.5 55.328125 
Q 8.5 64.0625 14.71875 69.140625 
Q 20.953125 74.21875 31.78125 74.21875 
Q 42.671875 74.21875 48.875 69.140625 
Q 55.078125 64.0625 55.078125 55.328125 
Q 55.078125 49.078125 51.53125 44.71875 
Q 48 40.375 41.703125 38.8125 
Q 48.828125 37.15625 52.796875 32.3125 
Q 56.78125 27.484375 56.78125 20.515625 
Q 56.78125 9.90625 50.3125 4.234375 
Q 43.84375 -1.421875 31.78125 -1.421875 
Q 19.734375 -1.421875 13.25 4.234375 
Q 6.78125 9.90625 6.78125 20.515625 
Q 6.78125 27.484375 10.78125 32.3125 
Q 14.796875 37.15625 21.921875 38.8125 
z
M 18.3125 54.390625 
Q 18.3125 48.734375 21.84375 45.5625 
Q 25.390625 42.390625 31.78125 42.390625 
Q 38.140625 42.390625 41.71875 45.5625 
Q 45.3125 48.734375 45.3125 54.390625 
Q 45.3125 60.0625 41.71875 63.234375 
Q 38.140625 66.40625 31.78125 66.40625 
Q 25.390625 66.40625 21.84375 63.234375 
Q 18.3125 60.0625 18.3125 54.390625 
z
" id="DejaVuSans-56"/>
      </defs>
      <g transform="translate(445.833827 230.198437)scale(0.1 -0.1)">
       <use xlink:href="#DejaVuSans-56"/>
       <use x="63.623047" xlink:href="#DejaVuSans-48"/>
      </g>
     </g>
    </g>
    <g id="xtick_6">
     <g id="line2d_6">
      <g>
       <use style="stroke:#000000;stroke-width:0.8;" x="547.109091" xlink:href="#m1f912125b3" y="215.6"/>
      </g>
     </g>
     <g id="text_6">
      <!-- 100 -->
      <defs>
       <path d="M 12.40625 8.296875 
L 28.515625 8.296875 
L 28.515625 63.921875 
L 10.984375 60.40625 
L 10.984375 69.390625 
L 28.421875 72.90625 
L 38.28125 72.90625 
L 38.28125 8.296875 
L 54.390625 8.296875 
L 54.390625 0 
L 12.40625 0 
z
" id="DejaVuSans-49"/>
      </defs>
      <g transform="translate(537.565341 230.198437)scale(0.1 -0.1)">
       <use xlink:href="#DejaVuSans-49"/>
       <use x="63.623047" xlink:href="#DejaVuSans-48"/>
       <use x="127.246094" xlink:href="#DejaVuSans-48"/>
      </g>
     </g>
    </g>
    <g id="text_7">
     <!-- Epochs -->
     <defs>
      <path d="M 9.8125 72.90625 
L 55.90625 72.90625 
L 55.90625 64.59375 
L 19.671875 64.59375 
L 19.671875 43.015625 
L 54.390625 43.015625 
L 54.390625 34.71875 
L 19.671875 34.71875 
L 19.671875 8.296875 
L 56.78125 8.296875 
L 56.78125 0 
L 9.8125 0 
z
" id="DejaVuSans-69"/>
      <path d="M 18.109375 8.203125 
L 18.109375 -20.796875 
L 9.078125 -20.796875 
L 9.078125 54.6875 
L 18.109375 54.6875 
L 18.109375 46.390625 
Q 20.953125 51.265625 25.265625 53.625 
Q 29.59375 56 35.59375 56 
Q 45.5625 56 51.78125 48.09375 
Q 58.015625 40.1875 58.015625 27.296875 
Q 58.015625 14.40625 51.78125 6.484375 
Q 45.5625 -1.421875 35.59375 -1.421875 
Q 29.59375 -1.421875 25.265625 0.953125 
Q 20.953125 3.328125 18.109375 8.203125 
z
M 48.6875 27.296875 
Q 48.6875 37.203125 44.609375 42.84375 
Q 40.53125 48.484375 33.40625 48.484375 
Q 26.265625 48.484375 22.1875 42.84375 
Q 18.109375 37.203125 18.109375 27.296875 
Q 18.109375 17.390625 22.1875 11.75 
Q 26.265625 6.109375 33.40625 6.109375 
Q 40.53125 6.109375 44.609375 11.75 
Q 48.6875 17.390625 48.6875 27.296875 
z
" id="DejaVuSans-112"/>
      <path d="M 30.609375 48.390625 
Q 23.390625 48.390625 19.1875 42.75 
Q 14.984375 37.109375 14.984375 27.296875 
Q 14.984375 17.484375 19.15625 11.84375 
Q 23.34375 6.203125 30.609375 6.203125 
Q 37.796875 6.203125 41.984375 11.859375 
Q 46.1875 17.53125 46.1875 27.296875 
Q 46.1875 37.015625 41.984375 42.703125 
Q 37.796875 48.390625 30.609375 48.390625 
z
M 30.609375 56 
Q 42.328125 56 49.015625 48.375 
Q 55.71875 40.765625 55.71875 27.296875 
Q 55.71875 13.875 49.015625 6.21875 
Q 42.328125 -1.421875 30.609375 -1.421875 
Q 18.84375 -1.421875 12.171875 6.21875 
Q 5.515625 13.875 5.515625 27.296875 
Q 5.515625 40.765625 12.171875 48.375 
Q 18.84375 56 30.609375 56 
z
" id="DejaVuSans-111"/>
      <path d="M 48.78125 52.59375 
L 48.78125 44.1875 
Q 44.96875 46.296875 41.140625 47.34375 
Q 37.3125 48.390625 33.40625 48.390625 
Q 24.65625 48.390625 19.8125 42.84375 
Q 14.984375 37.3125 14.984375 27.296875 
Q 14.984375 17.28125 19.8125 11.734375 
Q 24.65625 6.203125 33.40625 6.203125 
Q 37.3125 6.203125 41.140625 7.25 
Q 44.96875 8.296875 48.78125 10.40625 
L 48.78125 2.09375 
Q 45.015625 0.34375 40.984375 -0.53125 
Q 36.96875 -1.421875 32.421875 -1.421875 
Q 20.0625 -1.421875 12.78125 6.34375 
Q 5.515625 14.109375 5.515625 27.296875 
Q 5.515625 40.671875 12.859375 48.328125 
Q 20.21875 56 33.015625 56 
Q 37.15625 56 41.109375 55.140625 
Q 45.0625 54.296875 48.78125 52.59375 
z
" id="DejaVuSans-99"/>
      <path d="M 54.890625 33.015625 
L 54.890625 0 
L 45.90625 0 
L 45.90625 32.71875 
Q 45.90625 40.484375 42.875 44.328125 
Q 39.84375 48.1875 33.796875 48.1875 
Q 26.515625 48.1875 22.3125 43.546875 
Q 18.109375 38.921875 18.109375 30.90625 
L 18.109375 0 
L 9.078125 0 
L 9.078125 75.984375 
L 18.109375 75.984375 
L 18.109375 46.1875 
Q 21.34375 51.125 25.703125 53.5625 
Q 30.078125 56 35.796875 56 
Q 45.21875 56 50.046875 50.171875 
Q 54.890625 44.34375 54.890625 33.015625 
z
" id="DejaVuSans-104"/>
      <path d="M 44.28125 53.078125 
L 44.28125 44.578125 
Q 40.484375 46.53125 36.375 47.5 
Q 32.28125 48.484375 27.875 48.484375 
Q 21.1875 48.484375 17.84375 46.4375 
Q 14.5 44.390625 14.5 40.28125 
Q 14.5 37.15625 16.890625 35.375 
Q 19.28125 33.59375 26.515625 31.984375 
L 29.59375 31.296875 
Q 39.15625 29.25 43.1875 25.515625 
Q 47.21875 21.78125 47.21875 15.09375 
Q 47.21875 7.46875 41.1875 3.015625 
Q 35.15625 -1.421875 24.609375 -1.421875 
Q 20.21875 -1.421875 15.453125 -0.5625 
Q 10.6875 0.296875 5.421875 2 
L 5.421875 11.28125 
Q 10.40625 8.6875 15.234375 7.390625 
Q 20.0625 6.109375 24.8125 6.109375 
Q 31.15625 6.109375 34.5625 8.28125 
Q 37.984375 10.453125 37.984375 14.40625 
Q 37.984375 18.0625 35.515625 20.015625 
Q 33.0625 21.96875 24.703125 23.78125 
L 21.578125 24.515625 
Q 13.234375 26.265625 9.515625 29.90625 
Q 5.8125 33.546875 5.8125 39.890625 
Q 5.8125 47.609375 11.28125 51.796875 
Q 16.75 56 26.8125 56 
Q 31.78125 56 36.171875 55.265625 
Q 40.578125 54.546875 44.28125 53.078125 
z
" id="DejaVuSans-115"/>
     </defs>
     <g transform="translate(294.284375 243.876562)scale(0.1 -0.1)">
      <use xlink:href="#DejaVuSans-69"/>
      <use x="63.183594" xlink:href="#DejaVuSans-112"/>
      <use x="126.660156" xlink:href="#DejaVuSans-111"/>
      <use x="187.841797" xlink:href="#DejaVuSans-99"/>
      <use x="242.822266" xlink:href="#DejaVuSans-104"/>
      <use x="306.201172" xlink:href="#DejaVuSans-115"/>
     </g>
    </g>
   </g>
   <g id="matplotlib.axis_2">
    <g id="ytick_1">
     <g id="line2d_7">
      <defs>
       <path d="M 0 0 
L -3.5 0 
" id="m5d0ec8bff3" style="stroke:#000000;stroke-width:0.8;"/>
      </defs>
      <g>
       <use style="stroke:#000000;stroke-width:0.8;" x="53.8" xlink:href="#m5d0ec8bff3" y="194.693352"/>
      </g>
     </g>
     <g id="text_8">
      <!-- 20% -->
      <defs>
       <path d="M 72.703125 32.078125 
Q 68.453125 32.078125 66.03125 28.46875 
Q 63.625 24.859375 63.625 18.40625 
Q 63.625 12.0625 66.03125 8.421875 
Q 68.453125 4.78125 72.703125 4.78125 
Q 76.859375 4.78125 79.265625 8.421875 
Q 81.6875 12.0625 81.6875 18.40625 
Q 81.6875 24.8125 79.265625 28.4375 
Q 76.859375 32.078125 72.703125 32.078125 
z
M 72.703125 38.28125 
Q 80.421875 38.28125 84.953125 32.90625 
Q 89.5 27.546875 89.5 18.40625 
Q 89.5 9.28125 84.9375 3.921875 
Q 80.375 -1.421875 72.703125 -1.421875 
Q 64.890625 -1.421875 60.34375 3.921875 
Q 55.8125 9.28125 55.8125 18.40625 
Q 55.8125 27.59375 60.375 32.9375 
Q 64.9375 38.28125 72.703125 38.28125 
z
M 22.3125 68.015625 
Q 18.109375 68.015625 15.6875 64.375 
Q 13.28125 60.75 13.28125 54.390625 
Q 13.28125 47.953125 15.671875 44.328125 
Q 18.0625 40.71875 22.3125 40.71875 
Q 26.5625 40.71875 28.96875 44.328125 
Q 31.390625 47.953125 31.390625 54.390625 
Q 31.390625 60.6875 28.953125 64.34375 
Q 26.515625 68.015625 22.3125 68.015625 
z
M 66.40625 74.21875 
L 74.21875 74.21875 
L 28.609375 -1.421875 
L 20.796875 -1.421875 
z
M 22.3125 74.21875 
Q 30.03125 74.21875 34.609375 68.875 
Q 39.203125 63.53125 39.203125 54.390625 
Q 39.203125 45.171875 34.640625 39.84375 
Q 30.078125 34.515625 22.3125 34.515625 
Q 14.546875 34.515625 10.03125 39.859375 
Q 5.515625 45.21875 5.515625 54.390625 
Q 5.515625 63.484375 10.046875 68.84375 
Q 14.59375 74.21875 22.3125 74.21875 
z
" id="DejaVuSans-37"/>
      </defs>
      <g transform="translate(24.573438 198.492571)scale(0.1 -0.1)">
       <use xlink:href="#DejaVuSans-50"/>
       <use x="63.623047" xlink:href="#DejaVuSans-48"/>
       <use x="127.246094" xlink:href="#DejaVuSans-37"/>
      </g>
     </g>
    </g>
    <g id="ytick_2">
     <g id="line2d_8">
      <g>
       <use style="stroke:#000000;stroke-width:0.8;" x="53.8" xlink:href="#m5d0ec8bff3" y="169.633623"/>
      </g>
     </g>
     <g id="text_9">
      <!-- 30% -->
      <defs>
       <path d="M 40.578125 39.3125 
Q 47.65625 37.796875 51.625 33 
Q 55.609375 28.21875 55.609375 21.1875 
Q 55.609375 10.40625 48.1875 4.484375 
Q 40.765625 -1.421875 27.09375 -1.421875 
Q 22.515625 -1.421875 17.65625 -0.515625 
Q 12.796875 0.390625 7.625 2.203125 
L 7.625 11.71875 
Q 11.71875 9.328125 16.59375 8.109375 
Q 21.484375 6.890625 26.8125 6.890625 
Q 36.078125 6.890625 40.9375 10.546875 
Q 45.796875 14.203125 45.796875 21.1875 
Q 45.796875 27.640625 41.28125 31.265625 
Q 36.765625 34.90625 28.71875 34.90625 
L 20.21875 34.90625 
L 20.21875 43.015625 
L 29.109375 43.015625 
Q 36.375 43.015625 40.234375 45.921875 
Q 44.09375 48.828125 44.09375 54.296875 
Q 44.09375 59.90625 40.109375 62.90625 
Q 36.140625 65.921875 28.71875 65.921875 
Q 24.65625 65.921875 20.015625 65.03125 
Q 15.375 64.15625 9.8125 62.3125 
L 9.8125 71.09375 
Q 15.4375 72.65625 20.34375 73.4375 
Q 25.25 74.21875 29.59375 74.21875 
Q 40.828125 74.21875 47.359375 69.109375 
Q 53.90625 64.015625 53.90625 55.328125 
Q 53.90625 49.265625 50.4375 45.09375 
Q 46.96875 40.921875 40.578125 39.3125 
z
" id="DejaVuSans-51"/>
      </defs>
      <g transform="translate(24.573438 173.432841)scale(0.1 -0.1)">
       <use xlink:href="#DejaVuSans-51"/>
       <use x="63.623047" xlink:href="#DejaVuSans-48"/>
       <use x="127.246094" xlink:href="#DejaVuSans-37"/>
      </g>
     </g>
    </g>
    <g id="ytick_3">
     <g id="line2d_9">
      <g>
       <use style="stroke:#000000;stroke-width:0.8;" x="53.8" xlink:href="#m5d0ec8bff3" y="144.573893"/>
      </g>
     </g>
     <g id="text_10">
      <!-- 40% -->
      <g transform="translate(24.573438 148.373112)scale(0.1 -0.1)">
       <use xlink:href="#DejaVuSans-52"/>
       <use x="63.623047" xlink:href="#DejaVuSans-48"/>
       <use x="127.246094" xlink:href="#DejaVuSans-37"/>
      </g>
     </g>
    </g>
    <g id="ytick_4">
     <g id="line2d_10">
      <g>
       <use style="stroke:#000000;stroke-width:0.8;" x="53.8" xlink:href="#m5d0ec8bff3" y="119.514164"/>
      </g>
     </g>
     <g id="text_11">
      <!-- 50% -->
      <defs>
       <path d="M 10.796875 72.90625 
L 49.515625 72.90625 
L 49.515625 64.59375 
L 19.828125 64.59375 
L 19.828125 46.734375 
Q 21.96875 47.46875 24.109375 47.828125 
Q 26.265625 48.1875 28.421875 48.1875 
Q 40.625 48.1875 47.75 41.5 
Q 54.890625 34.8125 54.890625 23.390625 
Q 54.890625 11.625 47.5625 5.09375 
Q 40.234375 -1.421875 26.90625 -1.421875 
Q 22.3125 -1.421875 17.546875 -0.640625 
Q 12.796875 0.140625 7.71875 1.703125 
L 7.71875 11.625 
Q 12.109375 9.234375 16.796875 8.0625 
Q 21.484375 6.890625 26.703125 6.890625 
Q 35.15625 6.890625 40.078125 11.328125 
Q 45.015625 15.765625 45.015625 23.390625 
Q 45.015625 31 40.078125 35.4375 
Q 35.15625 39.890625 26.703125 39.890625 
Q 22.75 39.890625 18.8125 39.015625 
Q 14.890625 38.140625 10.796875 36.28125 
z
" id="DejaVuSans-53"/>
      </defs>
      <g transform="translate(24.573438 123.313383)scale(0.1 -0.1)">
       <use xlink:href="#DejaVuSans-53"/>
       <use x="63.623047" xlink:href="#DejaVuSans-48"/>
       <use x="127.246094" xlink:href="#DejaVuSans-37"/>
      </g>
     </g>
    </g>
    <g id="ytick_5">
     <g id="line2d_11">
      <g>
       <use style="stroke:#000000;stroke-width:0.8;" x="53.8" xlink:href="#m5d0ec8bff3" y="94.454435"/>
      </g>
     </g>
     <g id="text_12">
      <!-- 60% -->
      <g transform="translate(24.573438 98.253654)scale(0.1 -0.1)">
       <use xlink:href="#DejaVuSans-54"/>
       <use x="63.623047" xlink:href="#DejaVuSans-48"/>
       <use x="127.246094" xlink:href="#DejaVuSans-37"/>
      </g>
     </g>
    </g>
    <g id="ytick_6">
     <g id="line2d_12">
      <g>
       <use style="stroke:#000000;stroke-width:0.8;" x="53.8" xlink:href="#m5d0ec8bff3" y="69.394706"/>
      </g>
     </g>
     <g id="text_13">
      <!-- 70% -->
      <defs>
       <path d="M 8.203125 72.90625 
L 55.078125 72.90625 
L 55.078125 68.703125 
L 28.609375 0 
L 18.3125 0 
L 43.21875 64.59375 
L 8.203125 64.59375 
z
" id="DejaVuSans-55"/>
      </defs>
      <g transform="translate(24.573438 73.193924)scale(0.1 -0.1)">
       <use xlink:href="#DejaVuSans-55"/>
       <use x="63.623047" xlink:href="#DejaVuSans-48"/>
       <use x="127.246094" xlink:href="#DejaVuSans-37"/>
      </g>
     </g>
    </g>
    <g id="ytick_7">
     <g id="line2d_13">
      <g>
       <use style="stroke:#000000;stroke-width:0.8;" x="53.8" xlink:href="#m5d0ec8bff3" y="44.334976"/>
      </g>
     </g>
     <g id="text_14">
      <!-- 80% -->
      <g transform="translate(24.573438 48.134195)scale(0.1 -0.1)">
       <use xlink:href="#DejaVuSans-56"/>
       <use x="63.623047" xlink:href="#DejaVuSans-48"/>
       <use x="127.246094" xlink:href="#DejaVuSans-37"/>
      </g>
     </g>
    </g>
    <g id="text_15">
     <!-- Validation accuracy -->
     <defs>
      <path d="M 28.609375 0 
L 0.78125 72.90625 
L 11.078125 72.90625 
L 34.1875 11.53125 
L 57.328125 72.90625 
L 67.578125 72.90625 
L 39.796875 0 
z
" id="DejaVuSans-86"/>
      <path d="M 34.28125 27.484375 
Q 23.390625 27.484375 19.1875 25 
Q 14.984375 22.515625 14.984375 16.5 
Q 14.984375 11.71875 18.140625 8.90625 
Q 21.296875 6.109375 26.703125 6.109375 
Q 34.1875 6.109375 38.703125 11.40625 
Q 43.21875 16.703125 43.21875 25.484375 
L 43.21875 27.484375 
z
M 52.203125 31.203125 
L 52.203125 0 
L 43.21875 0 
L 43.21875 8.296875 
Q 40.140625 3.328125 35.546875 0.953125 
Q 30.953125 -1.421875 24.3125 -1.421875 
Q 15.921875 -1.421875 10.953125 3.296875 
Q 6 8.015625 6 15.921875 
Q 6 25.140625 12.171875 29.828125 
Q 18.359375 34.515625 30.609375 34.515625 
L 43.21875 34.515625 
L 43.21875 35.40625 
Q 43.21875 41.609375 39.140625 45 
Q 35.0625 48.390625 27.6875 48.390625 
Q 23 48.390625 18.546875 47.265625 
Q 14.109375 46.140625 10.015625 43.890625 
L 10.015625 52.203125 
Q 14.9375 54.109375 19.578125 55.046875 
Q 24.21875 56 28.609375 56 
Q 40.484375 56 46.34375 49.84375 
Q 52.203125 43.703125 52.203125 31.203125 
z
" id="DejaVuSans-97"/>
      <path d="M 9.421875 75.984375 
L 18.40625 75.984375 
L 18.40625 0 
L 9.421875 0 
z
" id="DejaVuSans-108"/>
      <path d="M 9.421875 54.6875 
L 18.40625 54.6875 
L 18.40625 0 
L 9.421875 0 
z
M 9.421875 75.984375 
L 18.40625 75.984375 
L 18.40625 64.59375 
L 9.421875 64.59375 
z
" id="DejaVuSans-105"/>
      <path d="M 45.40625 46.390625 
L 45.40625 75.984375 
L 54.390625 75.984375 
L 54.390625 0 
L 45.40625 0 
L 45.40625 8.203125 
Q 42.578125 3.328125 38.25 0.953125 
Q 33.9375 -1.421875 27.875 -1.421875 
Q 17.96875 -1.421875 11.734375 6.484375 
Q 5.515625 14.40625 5.515625 27.296875 
Q 5.515625 40.1875 11.734375 48.09375 
Q 17.96875 56 27.875 56 
Q 33.9375 56 38.25 53.625 
Q 42.578125 51.265625 45.40625 46.390625 
z
M 14.796875 27.296875 
Q 14.796875 17.390625 18.875 11.75 
Q 22.953125 6.109375 30.078125 6.109375 
Q 37.203125 6.109375 41.296875 11.75 
Q 45.40625 17.390625 45.40625 27.296875 
Q 45.40625 37.203125 41.296875 42.84375 
Q 37.203125 48.484375 30.078125 48.484375 
Q 22.953125 48.484375 18.875 42.84375 
Q 14.796875 37.203125 14.796875 27.296875 
z
" id="DejaVuSans-100"/>
      <path d="M 18.3125 70.21875 
L 18.3125 54.6875 
L 36.8125 54.6875 
L 36.8125 47.703125 
L 18.3125 47.703125 
L 18.3125 18.015625 
Q 18.3125 11.328125 20.140625 9.421875 
Q 21.96875 7.515625 27.59375 7.515625 
L 36.8125 7.515625 
L 36.8125 0 
L 27.59375 0 
Q 17.1875 0 13.234375 3.875 
Q 9.28125 7.765625 9.28125 18.015625 
L 9.28125 47.703125 
L 2.6875 47.703125 
L 2.6875 54.6875 
L 9.28125 54.6875 
L 9.28125 70.21875 
z
" id="DejaVuSans-116"/>
      <path d="M 54.890625 33.015625 
L 54.890625 0 
L 45.90625 0 
L 45.90625 32.71875 
Q 45.90625 40.484375 42.875 44.328125 
Q 39.84375 48.1875 33.796875 48.1875 
Q 26.515625 48.1875 22.3125 43.546875 
Q 18.109375 38.921875 18.109375 30.90625 
L 18.109375 0 
L 9.078125 0 
L 9.078125 54.6875 
L 18.109375 54.6875 
L 18.109375 46.1875 
Q 21.34375 51.125 25.703125 53.5625 
Q 30.078125 56 35.796875 56 
Q 45.21875 56 50.046875 50.171875 
Q 54.890625 44.34375 54.890625 33.015625 
z
" id="DejaVuSans-110"/>
      <path id="DejaVuSans-32"/>
      <path d="M 8.5 21.578125 
L 8.5 54.6875 
L 17.484375 54.6875 
L 17.484375 21.921875 
Q 17.484375 14.15625 20.5 10.265625 
Q 23.53125 6.390625 29.59375 6.390625 
Q 36.859375 6.390625 41.078125 11.03125 
Q 45.3125 15.671875 45.3125 23.6875 
L 45.3125 54.6875 
L 54.296875 54.6875 
L 54.296875 0 
L 45.3125 0 
L 45.3125 8.40625 
Q 42.046875 3.421875 37.71875 1 
Q 33.40625 -1.421875 27.6875 -1.421875 
Q 18.265625 -1.421875 13.375 4.4375 
Q 8.5 10.296875 8.5 21.578125 
z
M 31.109375 56 
z
" id="DejaVuSans-117"/>
      <path d="M 41.109375 46.296875 
Q 39.59375 47.171875 37.8125 47.578125 
Q 36.03125 48 33.890625 48 
Q 26.265625 48 22.1875 43.046875 
Q 18.109375 38.09375 18.109375 28.8125 
L 18.109375 0 
L 9.078125 0 
L 9.078125 54.6875 
L 18.109375 54.6875 
L 18.109375 46.1875 
Q 20.953125 51.171875 25.484375 53.578125 
Q 30.03125 56 36.53125 56 
Q 37.453125 56 38.578125 55.875 
Q 39.703125 55.765625 41.0625 55.515625 
z
" id="DejaVuSans-114"/>
      <path d="M 32.171875 -5.078125 
Q 28.375 -14.84375 24.75 -17.8125 
Q 21.140625 -20.796875 15.09375 -20.796875 
L 7.90625 -20.796875 
L 7.90625 -13.28125 
L 13.1875 -13.28125 
Q 16.890625 -13.28125 18.9375 -11.515625 
Q 21 -9.765625 23.484375 -3.21875 
L 25.09375 0.875 
L 2.984375 54.6875 
L 12.5 54.6875 
L 29.59375 11.921875 
L 46.6875 54.6875 
L 56.203125 54.6875 
z
" id="DejaVuSans-121"/>
     </defs>
     <g transform="translate(18.49375 170.421094)rotate(-90)scale(0.1 -0.1)">
      <use xlink:href="#DejaVuSans-86"/>
      <use x="68.298828" xlink:href="#DejaVuSans-97"/>
      <use x="129.578125" xlink:href="#DejaVuSans-108"/>
      <use x="157.361328" xlink:href="#DejaVuSans-105"/>
      <use x="185.144531" xlink:href="#DejaVuSans-100"/>
      <use x="248.621094" xlink:href="#DejaVuSans-97"/>
      <use x="309.900391" xlink:href="#DejaVuSans-116"/>
      <use x="349.109375" xlink:href="#DejaVuSans-105"/>
      <use x="376.892578" xlink:href="#DejaVuSans-111"/>
      <use x="438.074219" xlink:href="#DejaVuSans-110"/>
      <use x="501.453125" xlink:href="#DejaVuSans-32"/>
      <use x="533.240234" xlink:href="#DejaVuSans-97"/>
      <use x="594.519531" xlink:href="#DejaVuSans-99"/>
      <use x="649.5" xlink:href="#DejaVuSans-99"/>
      <use x="704.480469" xlink:href="#DejaVuSans-117"/>
      <use x="767.859375" xlink:href="#DejaVuSans-114"/>
      <use x="808.972656" xlink:href="#DejaVuSans-97"/>
      <use x="870.251953" xlink:href="#DejaVuSans-99"/>
      <use x="925.232422" xlink:href="#DejaVuSans-121"/>
     </g>
    </g>
   </g>
   <g id="line2d_14">
    <path clip-path="url(#p8defb746a5)" d="M 77.290909 197.973897 
L 82.036547 199.545827 
L 86.782185 199.249665 
L 91.527824 198.999067 
L 96.273462 207.018182 
L 101.0191 173.392583 
L 105.764738 166.079701 
L 110.510376 170.795483 
L 115.256015 164.32552 
L 120.001653 164.826708 
L 124.747291 141.270567 
L 129.492929 147.193778 
L 134.238567 142.728589 
L 138.984206 140.404862 
L 143.729844 148.583449 
L 148.475482 113.659297 
L 153.22112 127.966124 
L 157.966758 102.951968 
L 162.712397 106.46033 
L 167.458035 104.523883 
L 172.203673 98.167828 
L 176.949311 98.691809 
L 181.694949 169.018524 
L 186.440588 86.982074 
L 191.186226 88.713484 
L 195.931864 86.594794 
L 200.677502 88.599576 
L 205.42314 84.726698 
L 210.168779 83.838229 
L 214.914417 79.942572 
L 219.660055 78.689587 
L 224.405693 76.069709 
L 229.151331 78.871846 
L 233.89697 76.411432 
L 238.642608 70.465436 
L 243.388246 69.964247 
L 248.133884 77.413823 
L 252.879522 62.446321 
L 257.625161 63.471491 
L 262.370799 65.544624 
L 267.116437 73.153664 
L 271.862075 62.53745 
L 276.607713 61.238908 
L 281.353352 61.876782 
L 286.09899 59.894793 
L 290.844628 54.951188 
L 295.590266 57.50273 
L 300.335904 60.41876 
L 305.081543 61.831225 
L 309.827181 51.488383 
L 314.572819 58.960753 
L 319.318457 60.737705 
L 324.064096 50.463213 
L 328.809734 51.533955 
L 333.555372 51.8529 
L 338.30101 48.276188 
L 343.046648 54.677815 
L 347.792287 50.28097 
L 352.537925 52.581904 
L 357.283563 47.843335 
L 362.029201 53.789332 
L 366.774839 44.334973 
L 371.520478 43.811007 
L 376.266116 46.248627 
L 381.011754 44.927291 
L 385.757392 46.567571 
L 390.50303 43.697099 
L 395.248669 42.96808 
L 399.994307 48.595132 
L 404.739945 43.583191 
L 409.485583 42.42132 
L 414.231221 45.360143 
L 418.97686 43.947693 
L 423.722498 41.282243 
L 428.468136 40.803833 
L 433.213774 40.712704 
L 437.959412 40.917741 
L 442.705051 43.697099 
L 447.450689 42.466892 
L 452.196327 41.965689 
L 456.941965 43.856564 
L 461.687603 36.315859 
L 466.433242 39.049645 
L 471.17888 37.181564 
L 475.924518 42.42132 
L 480.670156 42.854173 
L 485.415794 42.694708 
L 490.161433 39.687534 
L 494.907071 37.842232 
L 499.652709 44.289416 
L 504.398347 38.457327 
L 509.143985 43.719878 
L 513.889624 37.933361 
L 518.635262 36.794283 
L 523.3809 35.472947 
L 528.126538 37.910567 
L 532.872176 43.195896 
L 537.617815 35.9058 
L 542.363453 35.541283 
L 547.109091 35.381818 
" style="fill:none;stroke:#0000ff;stroke-linecap:square;stroke-width:1.5;"/>
   </g>
   <g id="line2d_15">
    <path clip-path="url(#p8defb746a5)" d="M 77.290909 199.249665 
L 82.036547 199.249665 
L 86.782185 199.249665 
L 91.527824 199.249665 
L 96.273462 197.518266 
L 101.0191 178.791812 
L 105.764738 174.281066 
L 110.510376 198.361185 
L 115.256015 166.968177 
L 120.001653 167.013741 
L 124.747291 153.937121 
L 129.492929 141.88567 
L 134.238567 142.227394 
L 138.984206 142.136265 
L 143.729844 133.114766 
L 148.475482 121.063308 
L 153.22112 122.202393 
L 157.966758 103.79488 
L 162.712397 104.318861 
L 167.458035 101.380038 
L 172.203673 92.928071 
L 176.949311 90.194285 
L 181.694949 89.100765 
L 186.440588 79.281904 
L 191.186226 79.691978 
L 195.931864 77.322694 
L 200.677502 79.942572 
L 205.42314 79.236347 
L 210.168779 70.647694 
L 214.914417 74.725594 
L 219.660055 71.080546 
L 224.405693 65.749661 
L 229.151331 67.139332 
L 233.89697 64.58779 
L 238.642608 70.579343 
L 243.388246 60.96552 
L 248.133884 64.610568 
L 252.879522 64.906734 
L 257.625161 62.423542 
L 262.370799 59.963129 
L 267.116437 70.693251 
L 271.862075 58.45955 
L 276.607713 56.682583 
L 281.353352 62.924745 
L 286.09899 59.029088 
L 290.844628 56.318081 
L 295.590266 53.926018 
L 300.335904 64.405546 
L 305.081543 56.591468 
L 309.827181 53.857667 
L 314.572819 49.665859 
L 319.318457 51.30614 
L 324.064096 51.511177 
L 328.809734 50.440435 
L 333.555372 51.761771 
L 338.30101 54.928409 
L 343.046648 48.822948 
L 347.792287 48.686261 
L 352.537925 52.786941 
L 357.283563 48.595132 
L 362.029201 48.70904 
L 366.774839 45.223457 
L 371.520478 44.380545 
L 376.266116 46.909295 
L 381.011754 44.995641 
L 385.757392 43.856564 
L 390.50303 43.287025 
L 395.248669 42.079597 
L 399.994307 43.104767 
L 404.739945 41.829003 
L 409.485583 44.881734 
L 414.231221 41.282243 
L 418.97686 44.836176 
L 423.722498 41.942911 
L 428.468136 41.122778 
L 433.213774 43.036431 
L 437.959412 40.234294 
L 442.705051 40.84939 
L 447.450689 40.894962 
L 452.196327 38.115604 
L 456.941965 40.257073 
L 461.687603 38.297863 
L 466.433242 38.799051 
L 471.17888 37.956139 
L 475.924518 37.409379 
L 480.670156 43.970472 
L 485.415794 43.833785 
L 490.161433 37.044877 
L 494.907071 37.113213 
L 499.652709 38.320641 
L 504.398347 35.837449 
L 509.143985 41.00887 
L 513.889624 36.83984 
L 518.635262 38.434549 
L 523.3809 37.500508 
L 528.126538 35.791892 
L 532.872176 36.612025 
L 537.617815 36.885398 
L 542.363453 36.520896 
L 547.109091 35.769099 
" style="fill:none;stroke:#ff0000;stroke-linecap:square;stroke-width:1.5;"/>
   </g>
   <g id="patch_3">
    <path d="M 53.8 215.6 
L 53.8 26.8 
" style="fill:none;stroke:#000000;stroke-linecap:square;stroke-linejoin:miter;stroke-width:0.8;"/>
   </g>
   <g id="patch_4">
    <path d="M 570.6 215.6 
L 570.6 26.8 
" style="fill:none;stroke:#000000;stroke-linecap:square;stroke-linejoin:miter;stroke-width:0.8;"/>
   </g>
   <g id="patch_5">
    <path d="M 53.8 215.6 
L 570.6 215.6 
" style="fill:none;stroke:#000000;stroke-linecap:square;stroke-linejoin:miter;stroke-width:0.8;"/>
   </g>
   <g id="patch_6">
    <path d="M 53.8 26.8 
L 570.6 26.8 
" style="fill:none;stroke:#000000;stroke-linecap:square;stroke-linejoin:miter;stroke-width:0.8;"/>
   </g>
   <g id="text_16">
    <!-- Training with 40% of weights watermarked -->
    <defs>
     <path d="M -0.296875 72.90625 
L 61.375 72.90625 
L 61.375 64.59375 
L 35.5 64.59375 
L 35.5 0 
L 25.59375 0 
L 25.59375 64.59375 
L -0.296875 64.59375 
z
" id="DejaVuSans-84"/>
     <path d="M 45.40625 27.984375 
Q 45.40625 37.75 41.375 43.109375 
Q 37.359375 48.484375 30.078125 48.484375 
Q 22.859375 48.484375 18.828125 43.109375 
Q 14.796875 37.75 14.796875 27.984375 
Q 14.796875 18.265625 18.828125 12.890625 
Q 22.859375 7.515625 30.078125 7.515625 
Q 37.359375 7.515625 41.375 12.890625 
Q 45.40625 18.265625 45.40625 27.984375 
z
M 54.390625 6.78125 
Q 54.390625 -7.171875 48.1875 -13.984375 
Q 42 -20.796875 29.203125 -20.796875 
Q 24.46875 -20.796875 20.265625 -20.09375 
Q 16.0625 -19.390625 12.109375 -17.921875 
L 12.109375 -9.1875 
Q 16.0625 -11.328125 19.921875 -12.34375 
Q 23.78125 -13.375 27.78125 -13.375 
Q 36.625 -13.375 41.015625 -8.765625 
Q 45.40625 -4.15625 45.40625 5.171875 
L 45.40625 9.625 
Q 42.625 4.78125 38.28125 2.390625 
Q 33.9375 0 27.875 0 
Q 17.828125 0 11.671875 7.65625 
Q 5.515625 15.328125 5.515625 27.984375 
Q 5.515625 40.671875 11.671875 48.328125 
Q 17.828125 56 27.875 56 
Q 33.9375 56 38.28125 53.609375 
Q 42.625 51.21875 45.40625 46.390625 
L 45.40625 54.6875 
L 54.390625 54.6875 
z
" id="DejaVuSans-103"/>
     <path d="M 4.203125 54.6875 
L 13.1875 54.6875 
L 24.421875 12.015625 
L 35.59375 54.6875 
L 46.1875 54.6875 
L 57.421875 12.015625 
L 68.609375 54.6875 
L 77.59375 54.6875 
L 63.28125 0 
L 52.6875 0 
L 40.921875 44.828125 
L 29.109375 0 
L 18.5 0 
z
" id="DejaVuSans-119"/>
     <path d="M 37.109375 75.984375 
L 37.109375 68.5 
L 28.515625 68.5 
Q 23.6875 68.5 21.796875 66.546875 
Q 19.921875 64.59375 19.921875 59.515625 
L 19.921875 54.6875 
L 34.71875 54.6875 
L 34.71875 47.703125 
L 19.921875 47.703125 
L 19.921875 0 
L 10.890625 0 
L 10.890625 47.703125 
L 2.296875 47.703125 
L 2.296875 54.6875 
L 10.890625 54.6875 
L 10.890625 58.5 
Q 10.890625 67.625 15.140625 71.796875 
Q 19.390625 75.984375 28.609375 75.984375 
z
" id="DejaVuSans-102"/>
     <path d="M 56.203125 29.59375 
L 56.203125 25.203125 
L 14.890625 25.203125 
Q 15.484375 15.921875 20.484375 11.0625 
Q 25.484375 6.203125 34.421875 6.203125 
Q 39.59375 6.203125 44.453125 7.46875 
Q 49.3125 8.734375 54.109375 11.28125 
L 54.109375 2.78125 
Q 49.265625 0.734375 44.1875 -0.34375 
Q 39.109375 -1.421875 33.890625 -1.421875 
Q 20.796875 -1.421875 13.15625 6.1875 
Q 5.515625 13.8125 5.515625 26.8125 
Q 5.515625 40.234375 12.765625 48.109375 
Q 20.015625 56 32.328125 56 
Q 43.359375 56 49.78125 48.890625 
Q 56.203125 41.796875 56.203125 29.59375 
z
M 47.21875 32.234375 
Q 47.125 39.59375 43.09375 43.984375 
Q 39.0625 48.390625 32.421875 48.390625 
Q 24.90625 48.390625 20.390625 44.140625 
Q 15.875 39.890625 15.1875 32.171875 
z
" id="DejaVuSans-101"/>
     <path d="M 52 44.1875 
Q 55.375 50.25 60.0625 53.125 
Q 64.75 56 71.09375 56 
Q 79.640625 56 84.28125 50.015625 
Q 88.921875 44.046875 88.921875 33.015625 
L 88.921875 0 
L 79.890625 0 
L 79.890625 32.71875 
Q 79.890625 40.578125 77.09375 44.375 
Q 74.3125 48.1875 68.609375 48.1875 
Q 61.625 48.1875 57.5625 43.546875 
Q 53.515625 38.921875 53.515625 30.90625 
L 53.515625 0 
L 44.484375 0 
L 44.484375 32.71875 
Q 44.484375 40.625 41.703125 44.40625 
Q 38.921875 48.1875 33.109375 48.1875 
Q 26.21875 48.1875 22.15625 43.53125 
Q 18.109375 38.875 18.109375 30.90625 
L 18.109375 0 
L 9.078125 0 
L 9.078125 54.6875 
L 18.109375 54.6875 
L 18.109375 46.1875 
Q 21.1875 51.21875 25.484375 53.609375 
Q 29.78125 56 35.6875 56 
Q 41.65625 56 45.828125 52.96875 
Q 50 49.953125 52 44.1875 
z
" id="DejaVuSans-109"/>
     <path d="M 9.078125 75.984375 
L 18.109375 75.984375 
L 18.109375 31.109375 
L 44.921875 54.6875 
L 56.390625 54.6875 
L 27.390625 29.109375 
L 57.625 0 
L 45.90625 0 
L 18.109375 26.703125 
L 18.109375 0 
L 9.078125 0 
z
" id="DejaVuSans-107"/>
    </defs>
    <g transform="translate(182.86625 20.8)scale(0.12 -0.12)">
     <use xlink:href="#DejaVuSans-84"/>
     <use x="60.865234" xlink:href="#DejaVuSans-114"/>
     <use x="101.978516" xlink:href="#DejaVuSans-97"/>
     <use x="163.257812" xlink:href="#DejaVuSans-105"/>
     <use x="191.041016" xlink:href="#DejaVuSans-110"/>
     <use x="254.419922" xlink:href="#DejaVuSans-105"/>
     <use x="282.203125" xlink:href="#DejaVuSans-110"/>
     <use x="345.582031" xlink:href="#DejaVuSans-103"/>
     <use x="409.058594" xlink:href="#DejaVuSans-32"/>
     <use x="440.845703" xlink:href="#DejaVuSans-119"/>
     <use x="522.632812" xlink:href="#DejaVuSans-105"/>
     <use x="550.416016" xlink:href="#DejaVuSans-116"/>
     <use x="589.625" xlink:href="#DejaVuSans-104"/>
     <use x="653.003906" xlink:href="#DejaVuSans-32"/>
     <use x="684.791016" xlink:href="#DejaVuSans-52"/>
     <use x="748.414062" xlink:href="#DejaVuSans-48"/>
     <use x="812.037109" xlink:href="#DejaVuSans-37"/>
     <use x="907.056641" xlink:href="#DejaVuSans-32"/>
     <use x="938.84375" xlink:href="#DejaVuSans-111"/>
     <use x="1000.025391" xlink:href="#DejaVuSans-102"/>
     <use x="1035.230469" xlink:href="#DejaVuSans-32"/>
     <use x="1067.017578" xlink:href="#DejaVuSans-119"/>
     <use x="1148.804688" xlink:href="#DejaVuSans-101"/>
     <use x="1210.328125" xlink:href="#DejaVuSans-105"/>
     <use x="1238.111328" xlink:href="#DejaVuSans-103"/>
     <use x="1301.587891" xlink:href="#DejaVuSans-104"/>
     <use x="1364.966797" xlink:href="#DejaVuSans-116"/>
     <use x="1404.175781" xlink:href="#DejaVuSans-115"/>
     <use x="1456.275391" xlink:href="#DejaVuSans-32"/>
     <use x="1488.0625" xlink:href="#DejaVuSans-119"/>
     <use x="1569.849609" xlink:href="#DejaVuSans-97"/>
     <use x="1631.128906" xlink:href="#DejaVuSans-116"/>
     <use x="1670.337891" xlink:href="#DejaVuSans-101"/>
     <use x="1731.861328" xlink:href="#DejaVuSans-114"/>
     <use x="1772.958984" xlink:href="#DejaVuSans-109"/>
     <use x="1870.371094" xlink:href="#DejaVuSans-97"/>
     <use x="1931.650391" xlink:href="#DejaVuSans-114"/>
     <use x="1972.763672" xlink:href="#DejaVuSans-107"/>
     <use x="2030.626953" xlink:href="#DejaVuSans-101"/>
     <use x="2092.150391" xlink:href="#DejaVuSans-100"/>
    </g>
   </g>
   <g id="legend_1">
    <g id="patch_7">
     <path d="M 60.8 64.15625 
L 169.976562 64.15625 
Q 171.976562 64.15625 171.976562 62.15625 
L 171.976562 33.8 
Q 171.976562 31.8 169.976562 31.8 
L 60.8 31.8 
Q 58.8 31.8 58.8 33.8 
L 58.8 62.15625 
Q 58.8 64.15625 60.8 64.15625 
z
" style="fill:#ffffff;opacity:0.8;stroke:#cccccc;stroke-linejoin:miter;"/>
    </g>
    <g id="line2d_16">
     <path d="M 62.8 39.898437 
L 82.8 39.898437 
" style="fill:none;stroke:#0000ff;stroke-linecap:square;stroke-width:1.5;"/>
    </g>
    <g id="line2d_17"/>
    <g id="text_17">
     <!-- Honest training -->
     <defs>
      <path d="M 9.8125 72.90625 
L 19.671875 72.90625 
L 19.671875 43.015625 
L 55.515625 43.015625 
L 55.515625 72.90625 
L 65.375 72.90625 
L 65.375 0 
L 55.515625 0 
L 55.515625 34.71875 
L 19.671875 34.71875 
L 19.671875 0 
L 9.8125 0 
z
" id="DejaVuSans-72"/>
     </defs>
     <g transform="translate(90.8 43.398437)scale(0.1 -0.1)">
      <use xlink:href="#DejaVuSans-72"/>
      <use x="75.195312" xlink:href="#DejaVuSans-111"/>
      <use x="136.376953" xlink:href="#DejaVuSans-110"/>
      <use x="199.755859" xlink:href="#DejaVuSans-101"/>
      <use x="261.279297" xlink:href="#DejaVuSans-115"/>
      <use x="313.378906" xlink:href="#DejaVuSans-116"/>
      <use x="352.587891" xlink:href="#DejaVuSans-32"/>
      <use x="384.375" xlink:href="#DejaVuSans-116"/>
      <use x="423.583984" xlink:href="#DejaVuSans-114"/>
      <use x="464.697266" xlink:href="#DejaVuSans-97"/>
      <use x="525.976562" xlink:href="#DejaVuSans-105"/>
      <use x="553.759766" xlink:href="#DejaVuSans-110"/>
      <use x="617.138672" xlink:href="#DejaVuSans-105"/>
      <use x="644.921875" xlink:href="#DejaVuSans-110"/>
      <use x="708.300781" xlink:href="#DejaVuSans-103"/>
     </g>
    </g>
    <g id="line2d_18">
     <path d="M 62.8 54.576562 
L 82.8 54.576562 
" style="fill:none;stroke:#ff0000;stroke-linecap:square;stroke-width:1.5;"/>
    </g>
    <g id="line2d_19"/>
    <g id="text_18">
     <!-- Transfer attack -->
     <g transform="translate(90.8 58.076562)scale(0.1 -0.1)">
      <use xlink:href="#DejaVuSans-84"/>
      <use x="60.865234" xlink:href="#DejaVuSans-114"/>
      <use x="101.978516" xlink:href="#DejaVuSans-97"/>
      <use x="163.257812" xlink:href="#DejaVuSans-110"/>
      <use x="226.636719" xlink:href="#DejaVuSans-115"/>
      <use x="278.736328" xlink:href="#DejaVuSans-102"/>
      <use x="313.941406" xlink:href="#DejaVuSans-101"/>
      <use x="375.464844" xlink:href="#DejaVuSans-114"/>
      <use x="416.578125" xlink:href="#DejaVuSans-32"/>
      <use x="448.365234" xlink:href="#DejaVuSans-97"/>
      <use x="509.644531" xlink:href="#DejaVuSans-116"/>
      <use x="548.853516" xlink:href="#DejaVuSans-116"/>
      <use x="588.0625" xlink:href="#DejaVuSans-97"/>
      <use x="649.341797" xlink:href="#DejaVuSans-99"/>
      <use x="704.322266" xlink:href="#DejaVuSans-107"/>
     </g>
    </g>
   </g>
  </g>
  <g id="axes_2">
   <g id="patch_8">
    <path d="M 624.4 215.6 
L 1141.2 215.6 
L 1141.2 26.8 
L 624.4 26.8 
z
" style="fill:#ffffff;"/>
   </g>
   <g id="matplotlib.axis_3">
    <g id="xtick_7">
     <g id="line2d_20">
      <g>
       <use style="stroke:#000000;stroke-width:0.8;" x="643.145271" xlink:href="#m1f912125b3" y="215.6"/>
      </g>
     </g>
     <g id="text_19">
      <!-- 0 -->
      <g transform="translate(639.964021 230.198437)scale(0.1 -0.1)">
       <use xlink:href="#DejaVuSans-48"/>
      </g>
     </g>
    </g>
    <g id="xtick_8">
     <g id="line2d_21">
      <g>
       <use style="stroke:#000000;stroke-width:0.8;" x="738.058035" xlink:href="#m1f912125b3" y="215.6"/>
      </g>
     </g>
     <g id="text_20">
      <!-- 20 -->
      <g transform="translate(731.695535 230.198437)scale(0.1 -0.1)">
       <use xlink:href="#DejaVuSans-50"/>
       <use x="63.623047" xlink:href="#DejaVuSans-48"/>
      </g>
     </g>
    </g>
    <g id="xtick_9">
     <g id="line2d_22">
      <g>
       <use style="stroke:#000000;stroke-width:0.8;" x="832.970799" xlink:href="#m1f912125b3" y="215.6"/>
      </g>
     </g>
     <g id="text_21">
      <!-- 40 -->
      <g transform="translate(826.608299 230.198437)scale(0.1 -0.1)">
       <use xlink:href="#DejaVuSans-52"/>
       <use x="63.623047" xlink:href="#DejaVuSans-48"/>
      </g>
     </g>
    </g>
    <g id="xtick_10">
     <g id="line2d_23">
      <g>
       <use style="stroke:#000000;stroke-width:0.8;" x="927.883563" xlink:href="#m1f912125b3" y="215.6"/>
      </g>
     </g>
     <g id="text_22">
      <!-- 60 -->
      <g transform="translate(921.521063 230.198437)scale(0.1 -0.1)">
       <use xlink:href="#DejaVuSans-54"/>
       <use x="63.623047" xlink:href="#DejaVuSans-48"/>
      </g>
     </g>
    </g>
    <g id="xtick_11">
     <g id="line2d_24">
      <g>
       <use style="stroke:#000000;stroke-width:0.8;" x="1022.796327" xlink:href="#m1f912125b3" y="215.6"/>
      </g>
     </g>
     <g id="text_23">
      <!-- 80 -->
      <g transform="translate(1016.433827 230.198437)scale(0.1 -0.1)">
       <use xlink:href="#DejaVuSans-56"/>
       <use x="63.623047" xlink:href="#DejaVuSans-48"/>
      </g>
     </g>
    </g>
    <g id="xtick_12">
     <g id="line2d_25">
      <g>
       <use style="stroke:#000000;stroke-width:0.8;" x="1117.709091" xlink:href="#m1f912125b3" y="215.6"/>
      </g>
     </g>
     <g id="text_24">
      <!-- 100 -->
      <g transform="translate(1108.165341 230.198437)scale(0.1 -0.1)">
       <use xlink:href="#DejaVuSans-49"/>
       <use x="63.623047" xlink:href="#DejaVuSans-48"/>
       <use x="127.246094" xlink:href="#DejaVuSans-48"/>
      </g>
     </g>
    </g>
    <g id="text_25">
     <!-- Epochs -->
     <g transform="translate(864.884375 243.876562)scale(0.1 -0.1)">
      <use xlink:href="#DejaVuSans-69"/>
      <use x="63.183594" xlink:href="#DejaVuSans-112"/>
      <use x="126.660156" xlink:href="#DejaVuSans-111"/>
      <use x="187.841797" xlink:href="#DejaVuSans-99"/>
      <use x="242.822266" xlink:href="#DejaVuSans-104"/>
      <use x="306.201172" xlink:href="#DejaVuSans-115"/>
     </g>
    </g>
   </g>
   <g id="matplotlib.axis_4">
    <g id="ytick_8">
     <g id="line2d_26">
      <g>
       <use style="stroke:#000000;stroke-width:0.8;" x="624.4" xlink:href="#m5d0ec8bff3" y="204.799693"/>
      </g>
     </g>
     <g id="text_26">
      <!-- 10% -->
      <g transform="translate(595.173437 208.598911)scale(0.1 -0.1)">
       <use xlink:href="#DejaVuSans-49"/>
       <use x="63.623047" xlink:href="#DejaVuSans-48"/>
       <use x="127.246094" xlink:href="#DejaVuSans-37"/>
      </g>
     </g>
    </g>
    <g id="ytick_9">
     <g id="line2d_27">
      <g>
       <use style="stroke:#000000;stroke-width:0.8;" x="624.4" xlink:href="#m5d0ec8bff3" y="180.637931"/>
      </g>
     </g>
     <g id="text_27">
      <!-- 20% -->
      <g transform="translate(595.173437 184.43715)scale(0.1 -0.1)">
       <use xlink:href="#DejaVuSans-50"/>
       <use x="63.623047" xlink:href="#DejaVuSans-48"/>
       <use x="127.246094" xlink:href="#DejaVuSans-37"/>
      </g>
     </g>
    </g>
    <g id="ytick_10">
     <g id="line2d_28">
      <g>
       <use style="stroke:#000000;stroke-width:0.8;" x="624.4" xlink:href="#m5d0ec8bff3" y="156.476169"/>
      </g>
     </g>
     <g id="text_28">
      <!-- 30% -->
      <g transform="translate(595.173437 160.275388)scale(0.1 -0.1)">
       <use xlink:href="#DejaVuSans-51"/>
       <use x="63.623047" xlink:href="#DejaVuSans-48"/>
       <use x="127.246094" xlink:href="#DejaVuSans-37"/>
      </g>
     </g>
    </g>
    <g id="ytick_11">
     <g id="line2d_29">
      <g>
       <use style="stroke:#000000;stroke-width:0.8;" x="624.4" xlink:href="#m5d0ec8bff3" y="132.314407"/>
      </g>
     </g>
     <g id="text_29">
      <!-- 40% -->
      <g transform="translate(595.173437 136.113626)scale(0.1 -0.1)">
       <use xlink:href="#DejaVuSans-52"/>
       <use x="63.623047" xlink:href="#DejaVuSans-48"/>
       <use x="127.246094" xlink:href="#DejaVuSans-37"/>
      </g>
     </g>
    </g>
    <g id="ytick_12">
     <g id="line2d_30">
      <g>
       <use style="stroke:#000000;stroke-width:0.8;" x="624.4" xlink:href="#m5d0ec8bff3" y="108.152646"/>
      </g>
     </g>
     <g id="text_30">
      <!-- 50% -->
      <g transform="translate(595.173437 111.951864)scale(0.1 -0.1)">
       <use xlink:href="#DejaVuSans-53"/>
       <use x="63.623047" xlink:href="#DejaVuSans-48"/>
       <use x="127.246094" xlink:href="#DejaVuSans-37"/>
      </g>
     </g>
    </g>
    <g id="ytick_13">
     <g id="line2d_31">
      <g>
       <use style="stroke:#000000;stroke-width:0.8;" x="624.4" xlink:href="#m5d0ec8bff3" y="83.990884"/>
      </g>
     </g>
     <g id="text_31">
      <!-- 60% -->
      <g transform="translate(595.173437 87.790103)scale(0.1 -0.1)">
       <use xlink:href="#DejaVuSans-54"/>
       <use x="63.623047" xlink:href="#DejaVuSans-48"/>
       <use x="127.246094" xlink:href="#DejaVuSans-37"/>
      </g>
     </g>
    </g>
    <g id="ytick_14">
     <g id="line2d_32">
      <g>
       <use style="stroke:#000000;stroke-width:0.8;" x="624.4" xlink:href="#m5d0ec8bff3" y="59.829122"/>
      </g>
     </g>
     <g id="text_32">
      <!-- 70% -->
      <g transform="translate(595.173437 63.628341)scale(0.1 -0.1)">
       <use xlink:href="#DejaVuSans-55"/>
       <use x="63.623047" xlink:href="#DejaVuSans-48"/>
       <use x="127.246094" xlink:href="#DejaVuSans-37"/>
      </g>
     </g>
    </g>
    <g id="ytick_15">
     <g id="line2d_33">
      <g>
       <use style="stroke:#000000;stroke-width:0.8;" x="624.4" xlink:href="#m5d0ec8bff3" y="35.66736"/>
      </g>
     </g>
     <g id="text_33">
      <!-- 80% -->
      <g transform="translate(595.173437 39.466579)scale(0.1 -0.1)">
       <use xlink:href="#DejaVuSans-56"/>
       <use x="63.623047" xlink:href="#DejaVuSans-48"/>
       <use x="127.246094" xlink:href="#DejaVuSans-37"/>
      </g>
     </g>
    </g>
    <g id="text_34">
     <!-- Validation accuracy -->
     <g transform="translate(589.09375 170.421094)rotate(-90)scale(0.1 -0.1)">
      <use xlink:href="#DejaVuSans-86"/>
      <use x="68.298828" xlink:href="#DejaVuSans-97"/>
      <use x="129.578125" xlink:href="#DejaVuSans-108"/>
      <use x="157.361328" xlink:href="#DejaVuSans-105"/>
      <use x="185.144531" xlink:href="#DejaVuSans-100"/>
      <use x="248.621094" xlink:href="#DejaVuSans-97"/>
      <use x="309.900391" xlink:href="#DejaVuSans-116"/>
      <use x="349.109375" xlink:href="#DejaVuSans-105"/>
      <use x="376.892578" xlink:href="#DejaVuSans-111"/>
      <use x="438.074219" xlink:href="#DejaVuSans-110"/>
      <use x="501.453125" xlink:href="#DejaVuSans-32"/>
      <use x="533.240234" xlink:href="#DejaVuSans-97"/>
      <use x="594.519531" xlink:href="#DejaVuSans-99"/>
      <use x="649.5" xlink:href="#DejaVuSans-99"/>
      <use x="704.480469" xlink:href="#DejaVuSans-117"/>
      <use x="767.859375" xlink:href="#DejaVuSans-114"/>
      <use x="808.972656" xlink:href="#DejaVuSans-97"/>
      <use x="870.251953" xlink:href="#DejaVuSans-99"/>
      <use x="925.232422" xlink:href="#DejaVuSans-121"/>
     </g>
    </g>
   </g>
   <g id="line2d_34">
    <path clip-path="url(#p77f658486e)" d="M 647.890909 185.030977 
L 652.636547 184.987049 
L 657.382185 185.030977 
L 662.127824 185.009015 
L 666.873462 185.030977 
L 671.6191 185.030977 
L 676.364738 185.009015 
L 681.110376 185.030977 
L 685.856015 185.009015 
L 690.601653 176.486501 
L 695.347291 192.25754 
L 700.092929 184.328092 
L 704.838567 187.447155 
L 709.584206 184.459881 
L 714.329844 184.152369 
L 719.075482 170.687678 
L 723.82112 144.724768 
L 728.566758 144.614942 
L 733.312397 134.92827 
L 738.058035 123.594206 
L 742.803673 117.773416 
L 747.549311 109.031254 
L 752.294949 106.637043 
L 757.040588 94.314544 
L 761.786226 90.448669 
L 766.531864 91.041724 
L 771.277502 85.023252 
L 776.02314 82.716904 
L 780.768779 76.962009 
L 785.514417 77.86258 
L 790.260055 75.907672 
L 795.005693 77.489177 
L 799.751331 76.544667 
L 804.49697 77.093797 
L 809.242608 74.062591 
L 813.988246 71.975896 
L 818.733884 73.930803 
L 823.479522 72.96433 
L 828.225161 67.890368 
L 832.970799 71.360878 
L 837.716437 69.032554 
L 842.462075 73.447574 
L 847.207713 67.143548 
L 851.953352 63.826789 
L 856.69899 74.677623 
L 861.444628 64.771299 
L 866.190266 69.537759 
L 870.935904 65.803673 
L 875.681543 65.430255 
L 880.427181 63.299635 
L 885.172819 72.305374 
L 889.918457 63.453386 
L 894.664096 61.212925 
L 899.409734 64.573609 
L 904.155372 60.290392 
L 908.90101 57.830279 
L 913.646648 63.475348 
L 918.392287 56.073061 
L 923.137925 59.851087 
L 927.883563 52.822218 
L 932.629201 54.162093 
L 937.374839 53.591 
L 942.120478 54.689261 
L 946.866116 55.282316 
L 951.611754 58.137795 
L 956.357392 52.229148 
L 961.10303 51.592154 
L 965.848669 49.263844 
L 970.594307 45.859235 
L 975.339945 43.662714 
L 980.085583 46.562117 
L 984.831221 46.869632 
L 989.57686 53.151696 
L 994.322498 46.562117 
L 999.068136 43.816464 
L 1003.813774 46.891595 
L 1008.559412 44.255769 
L 1013.305051 43.201433 
L 1018.050689 44.387557 
L 1022.796327 42.893917 
L 1027.541965 47.704316 
L 1032.287603 42.696241 
L 1037.033242 42.806067 
L 1041.77888 39.533247 
L 1046.524518 45.310105 
L 1051.270156 42.23496 
L 1056.015794 45.266166 
L 1060.761433 37.863879 
L 1065.507071 39.050004 
L 1070.252709 42.915893 
L 1074.998347 40.126302 
L 1079.743985 42.476589 
L 1084.489624 37.92978 
L 1089.235262 38.984117 
L 1093.9809 39.51127 
L 1098.726538 37.732091 
L 1103.472176 37.600302 
L 1108.217815 35.381818 
L 1112.963453 36.567928 
L 1117.709091 38.061569 
" style="fill:none;stroke:#0000ff;stroke-linecap:square;stroke-width:1.5;"/>
   </g>
   <g id="line2d_35">
    <path clip-path="url(#p77f658486e)" d="M 647.890909 206.996216 
L 652.636547 207.018182 
L 657.382185 206.534947 
L 662.127824 182.263359 
L 666.873462 168.600982 
L 671.6191 161.637999 
L 676.364738 180.901514 
L 681.110376 160.21026 
L 685.856015 157.574434 
L 690.601653 159.617198 
L 695.347291 174.421768 
L 700.092929 150.150178 
L 704.838567 146.262333 
L 709.584206 141.232296 
L 714.329844 138.838084 
L 719.075482 130.688977 
L 723.82112 131.919033 
L 728.566758 125.285529 
L 733.312397 122.957219 
L 738.058035 122.693635 
L 742.803673 112.545696 
L 747.549311 106.373466 
L 752.294949 110.458993 
L 757.040588 106.483292 
L 761.786226 98.312223 
L 766.531864 100.025501 
L 771.277502 96.59893 
L 776.02314 94.951539 
L 780.768779 85.704171 
L 785.514417 86.472953 
L 790.260055 85.440594 
L 795.005693 85.220942 
L 799.751331 81.420953 
L 804.49697 83.793203 
L 809.242608 83.156208 
L 813.988246 74.436009 
L 818.733884 78.499574 
L 823.479522 75.731959 
L 828.225161 75.841785 
L 832.970799 77.57704 
L 837.716437 73.864916 
L 842.462075 75.775884 
L 847.207713 73.337748 
L 851.953352 72.788617 
L 856.69899 71.712319 
L 861.444628 63.89269 
L 866.190266 75.358542 
L 870.935904 74.875313 
L 875.681543 70.416368 
L 880.427181 67.3632 
L 885.172819 63.738939 
L 889.918457 64.463783 
L 894.664096 65.627945 
L 899.409734 63.585174 
L 904.155372 59.785186 
L 908.90101 60.927386 
L 913.646648 59.192131 
L 918.392287 55.436082 
L 923.137925 56.029137 
L 927.883563 63.211771 
L 932.629201 60.312354 
L 937.374839 55.501969 
L 942.120478 52.712392 
L 946.866116 56.182887 
L 951.611754 51.614116 
L 956.357392 55.260354 
L 961.10303 50.384067 
L 965.848669 52.888105 
L 970.594307 57.061496 
L 975.339945 50.801409 
L 980.085583 53.722789 
L 984.831221 58.423348 
L 989.57686 53.173658 
L 994.322498 51.35054 
L 999.068136 49.044192 
L 1003.813774 47.770203 
L 1008.559412 52.602566 
L 1013.305051 47.023383 
L 1018.050689 48.407198 
L 1022.796327 51.723943 
L 1027.541965 48.846502 
L 1032.287603 44.980627 
L 1037.033242 46.562117 
L 1041.77888 42.674264 
L 1046.524518 43.77254 
L 1051.270156 45.288128 
L 1056.015794 51.438403 
L 1060.761433 46.759806 
L 1065.507071 46.693905 
L 1070.252709 43.025719 
L 1074.998347 40.719372 
L 1079.743985 46.628018 
L 1084.489624 41.422253 
L 1089.235262 39.35752 
L 1093.9809 41.707806 
L 1098.726538 40.148265 
L 1103.472176 38.434986 
L 1108.217815 41.773693 
L 1112.963453 37.797992 
L 1117.709091 36.743656 
" style="fill:none;stroke:#ff0000;stroke-linecap:square;stroke-width:1.5;"/>
   </g>
   <g id="patch_9">
    <path d="M 624.4 215.6 
L 624.4 26.8 
" style="fill:none;stroke:#000000;stroke-linecap:square;stroke-linejoin:miter;stroke-width:0.8;"/>
   </g>
   <g id="patch_10">
    <path d="M 1141.2 215.6 
L 1141.2 26.8 
" style="fill:none;stroke:#000000;stroke-linecap:square;stroke-linejoin:miter;stroke-width:0.8;"/>
   </g>
   <g id="patch_11">
    <path d="M 624.4 215.6 
L 1141.2 215.6 
" style="fill:none;stroke:#000000;stroke-linecap:square;stroke-linejoin:miter;stroke-width:0.8;"/>
   </g>
   <g id="patch_12">
    <path d="M 624.4 26.8 
L 1141.2 26.8 
" style="fill:none;stroke:#000000;stroke-linecap:square;stroke-linejoin:miter;stroke-width:0.8;"/>
   </g>
   <g id="text_35">
    <!-- Training with 50% of weights watermarked -->
    <g transform="translate(753.46625 20.8)scale(0.12 -0.12)">
     <use xlink:href="#DejaVuSans-84"/>
     <use x="60.865234" xlink:href="#DejaVuSans-114"/>
     <use x="101.978516" xlink:href="#DejaVuSans-97"/>
     <use x="163.257812" xlink:href="#DejaVuSans-105"/>
     <use x="191.041016" xlink:href="#DejaVuSans-110"/>
     <use x="254.419922" xlink:href="#DejaVuSans-105"/>
     <use x="282.203125" xlink:href="#DejaVuSans-110"/>
     <use x="345.582031" xlink:href="#DejaVuSans-103"/>
     <use x="409.058594" xlink:href="#DejaVuSans-32"/>
     <use x="440.845703" xlink:href="#DejaVuSans-119"/>
     <use x="522.632812" xlink:href="#DejaVuSans-105"/>
     <use x="550.416016" xlink:href="#DejaVuSans-116"/>
     <use x="589.625" xlink:href="#DejaVuSans-104"/>
     <use x="653.003906" xlink:href="#DejaVuSans-32"/>
     <use x="684.791016" xlink:href="#DejaVuSans-53"/>
     <use x="748.414062" xlink:href="#DejaVuSans-48"/>
     <use x="812.037109" xlink:href="#DejaVuSans-37"/>
     <use x="907.056641" xlink:href="#DejaVuSans-32"/>
     <use x="938.84375" xlink:href="#DejaVuSans-111"/>
     <use x="1000.025391" xlink:href="#DejaVuSans-102"/>
     <use x="1035.230469" xlink:href="#DejaVuSans-32"/>
     <use x="1067.017578" xlink:href="#DejaVuSans-119"/>
     <use x="1148.804688" xlink:href="#DejaVuSans-101"/>
     <use x="1210.328125" xlink:href="#DejaVuSans-105"/>
     <use x="1238.111328" xlink:href="#DejaVuSans-103"/>
     <use x="1301.587891" xlink:href="#DejaVuSans-104"/>
     <use x="1364.966797" xlink:href="#DejaVuSans-116"/>
     <use x="1404.175781" xlink:href="#DejaVuSans-115"/>
     <use x="1456.275391" xlink:href="#DejaVuSans-32"/>
     <use x="1488.0625" xlink:href="#DejaVuSans-119"/>
     <use x="1569.849609" xlink:href="#DejaVuSans-97"/>
     <use x="1631.128906" xlink:href="#DejaVuSans-116"/>
     <use x="1670.337891" xlink:href="#DejaVuSans-101"/>
     <use x="1731.861328" xlink:href="#DejaVuSans-114"/>
     <use x="1772.958984" xlink:href="#DejaVuSans-109"/>
     <use x="1870.371094" xlink:href="#DejaVuSans-97"/>
     <use x="1931.650391" xlink:href="#DejaVuSans-114"/>
     <use x="1972.763672" xlink:href="#DejaVuSans-107"/>
     <use x="2030.626953" xlink:href="#DejaVuSans-101"/>
     <use x="2092.150391" xlink:href="#DejaVuSans-100"/>
    </g>
   </g>
   <g id="legend_2">
    <g id="patch_13">
     <path d="M 631.4 64.15625 
L 740.576562 64.15625 
Q 742.576562 64.15625 742.576562 62.15625 
L 742.576562 33.8 
Q 742.576562 31.8 740.576562 31.8 
L 631.4 31.8 
Q 629.4 31.8 629.4 33.8 
L 629.4 62.15625 
Q 629.4 64.15625 631.4 64.15625 
z
" style="fill:#ffffff;opacity:0.8;stroke:#cccccc;stroke-linejoin:miter;"/>
    </g>
    <g id="line2d_36">
     <path d="M 633.4 39.898437 
L 653.4 39.898437 
" style="fill:none;stroke:#0000ff;stroke-linecap:square;stroke-width:1.5;"/>
    </g>
    <g id="line2d_37"/>
    <g id="text_36">
     <!-- Honest training -->
     <g transform="translate(661.4 43.398437)scale(0.1 -0.1)">
      <use xlink:href="#DejaVuSans-72"/>
      <use x="75.195312" xlink:href="#DejaVuSans-111"/>
      <use x="136.376953" xlink:href="#DejaVuSans-110"/>
      <use x="199.755859" xlink:href="#DejaVuSans-101"/>
      <use x="261.279297" xlink:href="#DejaVuSans-115"/>
      <use x="313.378906" xlink:href="#DejaVuSans-116"/>
      <use x="352.587891" xlink:href="#DejaVuSans-32"/>
      <use x="384.375" xlink:href="#DejaVuSans-116"/>
      <use x="423.583984" xlink:href="#DejaVuSans-114"/>
      <use x="464.697266" xlink:href="#DejaVuSans-97"/>
      <use x="525.976562" xlink:href="#DejaVuSans-105"/>
      <use x="553.759766" xlink:href="#DejaVuSans-110"/>
      <use x="617.138672" xlink:href="#DejaVuSans-105"/>
      <use x="644.921875" xlink:href="#DejaVuSans-110"/>
      <use x="708.300781" xlink:href="#DejaVuSans-103"/>
     </g>
    </g>
    <g id="line2d_38">
     <path d="M 633.4 54.576562 
L 653.4 54.576562 
" style="fill:none;stroke:#ff0000;stroke-linecap:square;stroke-width:1.5;"/>
    </g>
    <g id="line2d_39"/>
    <g id="text_37">
     <!-- Transfer attack -->
     <g transform="translate(661.4 58.076562)scale(0.1 -0.1)">
      <use xlink:href="#DejaVuSans-84"/>
      <use x="60.865234" xlink:href="#DejaVuSans-114"/>
      <use x="101.978516" xlink:href="#DejaVuSans-97"/>
      <use x="163.257812" xlink:href="#DejaVuSans-110"/>
      <use x="226.636719" xlink:href="#DejaVuSans-115"/>
      <use x="278.736328" xlink:href="#DejaVuSans-102"/>
      <use x="313.941406" xlink:href="#DejaVuSans-101"/>
      <use x="375.464844" xlink:href="#DejaVuSans-114"/>
      <use x="416.578125" xlink:href="#DejaVuSans-32"/>
      <use x="448.365234" xlink:href="#DejaVuSans-97"/>
      <use x="509.644531" xlink:href="#DejaVuSans-116"/>
      <use x="548.853516" xlink:href="#DejaVuSans-116"/>
      <use x="588.0625" xlink:href="#DejaVuSans-97"/>
      <use x="649.341797" xlink:href="#DejaVuSans-99"/>
      <use x="704.322266" xlink:href="#DejaVuSans-107"/>
     </g>
    </g>
   </g>
  </g>
  <g id="axes_3">
   <g id="patch_14">
    <path d="M 53.8 462.2 
L 570.6 462.2 
L 570.6 273.4 
L 53.8 273.4 
z
" style="fill:#ffffff;"/>
   </g>
   <g id="matplotlib.axis_5">
    <g id="xtick_13">
     <g id="line2d_40">
      <g>
       <use style="stroke:#000000;stroke-width:0.8;" x="72.545271" xlink:href="#m1f912125b3" y="462.2"/>
      </g>
     </g>
     <g id="text_38">
      <!-- 0 -->
      <g transform="translate(69.364021 476.798437)scale(0.1 -0.1)">
       <use xlink:href="#DejaVuSans-48"/>
      </g>
     </g>
    </g>
    <g id="xtick_14">
     <g id="line2d_41">
      <g>
       <use style="stroke:#000000;stroke-width:0.8;" x="167.458035" xlink:href="#m1f912125b3" y="462.2"/>
      </g>
     </g>
     <g id="text_39">
      <!-- 20 -->
      <g transform="translate(161.095535 476.798437)scale(0.1 -0.1)">
       <use xlink:href="#DejaVuSans-50"/>
       <use x="63.623047" xlink:href="#DejaVuSans-48"/>
      </g>
     </g>
    </g>
    <g id="xtick_15">
     <g id="line2d_42">
      <g>
       <use style="stroke:#000000;stroke-width:0.8;" x="262.370799" xlink:href="#m1f912125b3" y="462.2"/>
      </g>
     </g>
     <g id="text_40">
      <!-- 40 -->
      <g transform="translate(256.008299 476.798437)scale(0.1 -0.1)">
       <use xlink:href="#DejaVuSans-52"/>
       <use x="63.623047" xlink:href="#DejaVuSans-48"/>
      </g>
     </g>
    </g>
    <g id="xtick_16">
     <g id="line2d_43">
      <g>
       <use style="stroke:#000000;stroke-width:0.8;" x="357.283563" xlink:href="#m1f912125b3" y="462.2"/>
      </g>
     </g>
     <g id="text_41">
      <!-- 60 -->
      <g transform="translate(350.921063 476.798437)scale(0.1 -0.1)">
       <use xlink:href="#DejaVuSans-54"/>
       <use x="63.623047" xlink:href="#DejaVuSans-48"/>
      </g>
     </g>
    </g>
    <g id="xtick_17">
     <g id="line2d_44">
      <g>
       <use style="stroke:#000000;stroke-width:0.8;" x="452.196327" xlink:href="#m1f912125b3" y="462.2"/>
      </g>
     </g>
     <g id="text_42">
      <!-- 80 -->
      <g transform="translate(445.833827 476.798437)scale(0.1 -0.1)">
       <use xlink:href="#DejaVuSans-56"/>
       <use x="63.623047" xlink:href="#DejaVuSans-48"/>
      </g>
     </g>
    </g>
    <g id="xtick_18">
     <g id="line2d_45">
      <g>
       <use style="stroke:#000000;stroke-width:0.8;" x="547.109091" xlink:href="#m1f912125b3" y="462.2"/>
      </g>
     </g>
     <g id="text_43">
      <!-- 100 -->
      <g transform="translate(537.565341 476.798437)scale(0.1 -0.1)">
       <use xlink:href="#DejaVuSans-49"/>
       <use x="63.623047" xlink:href="#DejaVuSans-48"/>
       <use x="127.246094" xlink:href="#DejaVuSans-48"/>
      </g>
     </g>
    </g>
    <g id="text_44">
     <!-- Epochs -->
     <g transform="translate(294.284375 490.476562)scale(0.1 -0.1)">
      <use xlink:href="#DejaVuSans-69"/>
      <use x="63.183594" xlink:href="#DejaVuSans-112"/>
      <use x="126.660156" xlink:href="#DejaVuSans-111"/>
      <use x="187.841797" xlink:href="#DejaVuSans-99"/>
      <use x="242.822266" xlink:href="#DejaVuSans-104"/>
      <use x="306.201172" xlink:href="#DejaVuSans-115"/>
     </g>
    </g>
   </g>
   <g id="matplotlib.axis_6">
    <g id="ytick_16">
     <g id="line2d_46">
      <g>
       <use style="stroke:#000000;stroke-width:0.8;" x="53.8" xlink:href="#m5d0ec8bff3" y="451.629755"/>
      </g>
     </g>
     <g id="text_45">
      <!-- 10% -->
      <g transform="translate(24.573438 455.428974)scale(0.1 -0.1)">
       <use xlink:href="#DejaVuSans-49"/>
       <use x="63.623047" xlink:href="#DejaVuSans-48"/>
       <use x="127.246094" xlink:href="#DejaVuSans-37"/>
      </g>
     </g>
    </g>
    <g id="ytick_17">
     <g id="line2d_47">
      <g>
       <use style="stroke:#000000;stroke-width:0.8;" x="53.8" xlink:href="#m5d0ec8bff3" y="425.897168"/>
      </g>
     </g>
     <g id="text_46">
      <!-- 20% -->
      <g transform="translate(24.573438 429.696386)scale(0.1 -0.1)">
       <use xlink:href="#DejaVuSans-50"/>
       <use x="63.623047" xlink:href="#DejaVuSans-48"/>
       <use x="127.246094" xlink:href="#DejaVuSans-37"/>
      </g>
     </g>
    </g>
    <g id="ytick_18">
     <g id="line2d_48">
      <g>
       <use style="stroke:#000000;stroke-width:0.8;" x="53.8" xlink:href="#m5d0ec8bff3" y="400.16458"/>
      </g>
     </g>
     <g id="text_47">
      <!-- 30% -->
      <g transform="translate(24.573438 403.963799)scale(0.1 -0.1)">
       <use xlink:href="#DejaVuSans-51"/>
       <use x="63.623047" xlink:href="#DejaVuSans-48"/>
       <use x="127.246094" xlink:href="#DejaVuSans-37"/>
      </g>
     </g>
    </g>
    <g id="ytick_19">
     <g id="line2d_49">
      <g>
       <use style="stroke:#000000;stroke-width:0.8;" x="53.8" xlink:href="#m5d0ec8bff3" y="374.431993"/>
      </g>
     </g>
     <g id="text_48">
      <!-- 40% -->
      <g transform="translate(24.573438 378.231212)scale(0.1 -0.1)">
       <use xlink:href="#DejaVuSans-52"/>
       <use x="63.623047" xlink:href="#DejaVuSans-48"/>
       <use x="127.246094" xlink:href="#DejaVuSans-37"/>
      </g>
     </g>
    </g>
    <g id="ytick_20">
     <g id="line2d_50">
      <g>
       <use style="stroke:#000000;stroke-width:0.8;" x="53.8" xlink:href="#m5d0ec8bff3" y="348.699406"/>
      </g>
     </g>
     <g id="text_49">
      <!-- 50% -->
      <g transform="translate(24.573438 352.498625)scale(0.1 -0.1)">
       <use xlink:href="#DejaVuSans-53"/>
       <use x="63.623047" xlink:href="#DejaVuSans-48"/>
       <use x="127.246094" xlink:href="#DejaVuSans-37"/>
      </g>
     </g>
    </g>
    <g id="ytick_21">
     <g id="line2d_51">
      <g>
       <use style="stroke:#000000;stroke-width:0.8;" x="53.8" xlink:href="#m5d0ec8bff3" y="322.966819"/>
      </g>
     </g>
     <g id="text_50">
      <!-- 60% -->
      <g transform="translate(24.573438 326.766037)scale(0.1 -0.1)">
       <use xlink:href="#DejaVuSans-54"/>
       <use x="63.623047" xlink:href="#DejaVuSans-48"/>
       <use x="127.246094" xlink:href="#DejaVuSans-37"/>
      </g>
     </g>
    </g>
    <g id="ytick_22">
     <g id="line2d_52">
      <g>
       <use style="stroke:#000000;stroke-width:0.8;" x="53.8" xlink:href="#m5d0ec8bff3" y="297.234231"/>
      </g>
     </g>
     <g id="text_51">
      <!-- 70% -->
      <g transform="translate(24.573438 301.03345)scale(0.1 -0.1)">
       <use xlink:href="#DejaVuSans-55"/>
       <use x="63.623047" xlink:href="#DejaVuSans-48"/>
       <use x="127.246094" xlink:href="#DejaVuSans-37"/>
      </g>
     </g>
    </g>
    <g id="text_52">
     <!-- Validation accuracy -->
     <g transform="translate(18.49375 417.021094)rotate(-90)scale(0.1 -0.1)">
      <use xlink:href="#DejaVuSans-86"/>
      <use x="68.298828" xlink:href="#DejaVuSans-97"/>
      <use x="129.578125" xlink:href="#DejaVuSans-108"/>
      <use x="157.361328" xlink:href="#DejaVuSans-105"/>
      <use x="185.144531" xlink:href="#DejaVuSans-100"/>
      <use x="248.621094" xlink:href="#DejaVuSans-97"/>
      <use x="309.900391" xlink:href="#DejaVuSans-116"/>
      <use x="349.109375" xlink:href="#DejaVuSans-105"/>
      <use x="376.892578" xlink:href="#DejaVuSans-111"/>
      <use x="438.074219" xlink:href="#DejaVuSans-110"/>
      <use x="501.453125" xlink:href="#DejaVuSans-32"/>
      <use x="533.240234" xlink:href="#DejaVuSans-97"/>
      <use x="594.519531" xlink:href="#DejaVuSans-99"/>
      <use x="649.5" xlink:href="#DejaVuSans-99"/>
      <use x="704.480469" xlink:href="#DejaVuSans-117"/>
      <use x="767.859375" xlink:href="#DejaVuSans-114"/>
      <use x="808.972656" xlink:href="#DejaVuSans-97"/>
      <use x="870.251953" xlink:href="#DejaVuSans-99"/>
      <use x="925.232422" xlink:href="#DejaVuSans-121"/>
     </g>
    </g>
   </g>
   <g id="line2d_53">
    <path clip-path="url(#p0c337bbf1f)" d="M 77.290909 429.078652 
L 82.036547 430.575819 
L 86.782185 430.786361 
L 91.527824 428.166313 
L 96.273462 414.878943 
L 101.0191 413.849637 
L 105.764738 414.200536 
L 110.510376 411.837814 
L 115.256015 411.486916 
L 120.001653 411.065839 
L 124.747291 410.621372 
L 129.492929 407.697209 
L 134.238567 404.656088 
L 138.984206 409.19438 
L 143.729844 407.650421 
L 148.475482 424.002314 
L 153.22112 420.235998 
L 157.966758 418.902582 
L 162.712397 417.475593 
L 167.458035 404.819843 
L 172.203673 402.457121 
L 176.949311 392.725521 
L 181.694949 402.106222 
L 186.440588 387.976688 
L 191.186226 396.187727 
L 195.931864 391.251749 
L 200.677502 390.971028 
L 205.42314 387.649187 
L 210.168779 353.214307 
L 214.914417 357.588844 
L 219.660055 346.617405 
L 224.405693 342.476792 
L 229.151331 346.898117 
L 233.89697 356.653115 
L 238.642608 343.529488 
L 243.388246 343.950572 
L 248.133884 341.845181 
L 252.879522 333.91487 
L 257.625161 329.750867 
L 262.370799 341.751605 
L 267.116437 364.419679 
L 271.862075 333.751108 
L 276.607713 328.347273 
L 281.353352 332.721802 
L 286.09899 330.171936 
L 290.844628 340.418196 
L 295.590266 324.604355 
L 300.335904 362.01017 
L 305.081543 329.891223 
L 309.827181 326.031339 
L 314.572819 315.106687 
L 319.318457 324.066304 
L 324.064096 322.66271 
L 328.809734 322.6861 
L 333.555372 325.890983 
L 338.30101 322.966813 
L 343.046648 315.808484 
L 347.792287 317.703334 
L 352.537925 313.048076 
L 357.283563 313.91362 
L 362.029201 311.878414 
L 366.774839 310.825718 
L 371.520478 315.059892 
L 376.266116 302.146815 
L 381.011754 312.814144 
L 385.757392 302.100034 
L 390.50303 306.825462 
L 395.248669 301.561984 
L 399.994307 315.270434 
L 404.739945 303.246306 
L 409.485583 308.158886 
L 414.231221 306.54475 
L 418.97686 311.808228 
L 423.722498 298.240135 
L 428.468136 295.900811 
L 433.213774 299.596949 
L 437.959412 297.561743 
L 442.705051 301.234475 
L 447.450689 301.936272 
L 452.196327 299.363016 
L 456.941965 294.567402 
L 461.687603 295.362775 
L 466.433242 300.298746 
L 471.17888 290.567146 
L 475.924518 293.070232 
L 480.670156 291.573061 
L 485.415794 294.637573 
L 490.161433 296.626013 
L 494.907071 291.245553 
L 499.652709 290.801078 
L 504.398347 289.678212 
L 509.143985 297.257625 
L 513.889624 295.924216 
L 518.635262 290.613942 
L 523.3809 288.485145 
L 528.126538 291.385909 
L 532.872176 285.163311 
L 537.617815 288.414974 
L 542.363453 284.765617 
L 547.109091 285.818312 
" style="fill:none;stroke:#0000ff;stroke-linecap:square;stroke-width:1.5;"/>
   </g>
   <g id="line2d_54">
    <path clip-path="url(#p0c337bbf1f)" d="M 77.290909 430.50564 
L 82.036547 429.686877 
L 86.782185 453.618182 
L 91.527824 442.880674 
L 96.273462 431.675302 
L 101.0191 428.096134 
L 105.764738 424.516967 
L 110.510376 388.117052 
L 115.256015 406.995412 
L 120.001653 390.058689 
L 124.747291 377.660265 
L 129.492929 382.596243 
L 134.238567 379.859232 
L 138.984206 375.69523 
L 143.729844 376.818104 
L 148.475482 364.138959 
L 153.22112 363.577518 
L 157.966758 364.209137 
L 162.712397 360.021744 
L 167.458035 355.319699 
L 172.203673 348.792982 
L 176.949311 353.44824 
L 181.694949 350.126398 
L 186.440588 348.301727 
L 191.186226 355.24952 
L 195.931864 344.441827 
L 200.677502 343.435927 
L 205.42314 334.031836 
L 210.168779 330.943919 
L 214.914417 331.996615 
L 219.660055 334.335939 
L 224.405693 330.499445 
L 229.151331 327.59868 
L 233.89697 331.411784 
L 238.642608 328.394053 
L 243.388246 326.545984 
L 248.133884 319.925691 
L 252.879522 319.27069 
L 257.625161 324.463983 
L 262.370799 325.352932 
L 267.116437 320.744455 
L 271.862075 315.200263 
L 276.607713 322.756286 
L 281.353352 322.335201 
L 286.09899 314.030586 
L 290.844628 317.141893 
L 295.590266 310.053735 
L 300.335904 317.703334 
L 305.081543 311.176617 
L 309.827181 309.585871 
L 314.572819 308.01853 
L 319.318457 312.486635 
L 324.064096 305.164545 
L 328.809734 304.532934 
L 333.555372 313.165042 
L 338.30101 315.668128 
L 343.046648 310.825718 
L 347.792287 299.76071 
L 352.537925 305.328307 
L 357.283563 309.047835 
L 362.029201 303.620595 
L 366.774839 303.480238 
L 371.520478 301.094119 
L 376.266116 299.573558 
L 381.011754 306.076885 
L 385.757392 301.491798 
L 390.50303 298.006202 
L 395.248669 299.807491 
L 399.994307 296.509047 
L 404.739945 301.632169 
L 409.485583 295.900811 
L 414.231221 296.275115 
L 418.97686 299.19927 
L 423.722498 293.514706 
L 428.468136 291.175383 
L 433.213774 294.169708 
L 437.959412 295.620098 
L 442.705051 292.906485 
L 447.450689 293.000046 
L 452.196327 287.526025 
L 456.941965 291.573061 
L 461.687603 289.958925 
L 466.433242 290.894654 
L 471.17888 290.98823 
L 475.924518 295.549912 
L 480.670156 287.104956 
L 485.415794 292.204673 
L 490.161433 290.496976 
L 494.907071 286.660481 
L 499.652709 284.438124 
L 504.398347 285.841718 
L 509.143985 290.96484 
L 513.889624 286.192617 
L 518.635262 285.046345 
L 523.3809 283.712921 
L 528.126538 286.707262 
L 532.872176 282.075394 
L 537.617815 283.432208 
L 542.363453 283.268462 
L 547.109091 281.981818 
" style="fill:none;stroke:#ff0000;stroke-linecap:square;stroke-width:1.5;"/>
   </g>
   <g id="patch_15">
    <path d="M 53.8 462.2 
L 53.8 273.4 
" style="fill:none;stroke:#000000;stroke-linecap:square;stroke-linejoin:miter;stroke-width:0.8;"/>
   </g>
   <g id="patch_16">
    <path d="M 570.6 462.2 
L 570.6 273.4 
" style="fill:none;stroke:#000000;stroke-linecap:square;stroke-linejoin:miter;stroke-width:0.8;"/>
   </g>
   <g id="patch_17">
    <path d="M 53.8 462.2 
L 570.6 462.2 
" style="fill:none;stroke:#000000;stroke-linecap:square;stroke-linejoin:miter;stroke-width:0.8;"/>
   </g>
   <g id="patch_18">
    <path d="M 53.8 273.4 
L 570.6 273.4 
" style="fill:none;stroke:#000000;stroke-linecap:square;stroke-linejoin:miter;stroke-width:0.8;"/>
   </g>
   <g id="text_53">
    <!-- Training with 60% of weights watermarked -->
    <g transform="translate(182.86625 267.4)scale(0.12 -0.12)">
     <use xlink:href="#DejaVuSans-84"/>
     <use x="60.865234" xlink:href="#DejaVuSans-114"/>
     <use x="101.978516" xlink:href="#DejaVuSans-97"/>
     <use x="163.257812" xlink:href="#DejaVuSans-105"/>
     <use x="191.041016" xlink:href="#DejaVuSans-110"/>
     <use x="254.419922" xlink:href="#DejaVuSans-105"/>
     <use x="282.203125" xlink:href="#DejaVuSans-110"/>
     <use x="345.582031" xlink:href="#DejaVuSans-103"/>
     <use x="409.058594" xlink:href="#DejaVuSans-32"/>
     <use x="440.845703" xlink:href="#DejaVuSans-119"/>
     <use x="522.632812" xlink:href="#DejaVuSans-105"/>
     <use x="550.416016" xlink:href="#DejaVuSans-116"/>
     <use x="589.625" xlink:href="#DejaVuSans-104"/>
     <use x="653.003906" xlink:href="#DejaVuSans-32"/>
     <use x="684.791016" xlink:href="#DejaVuSans-54"/>
     <use x="748.414062" xlink:href="#DejaVuSans-48"/>
     <use x="812.037109" xlink:href="#DejaVuSans-37"/>
     <use x="907.056641" xlink:href="#DejaVuSans-32"/>
     <use x="938.84375" xlink:href="#DejaVuSans-111"/>
     <use x="1000.025391" xlink:href="#DejaVuSans-102"/>
     <use x="1035.230469" xlink:href="#DejaVuSans-32"/>
     <use x="1067.017578" xlink:href="#DejaVuSans-119"/>
     <use x="1148.804688" xlink:href="#DejaVuSans-101"/>
     <use x="1210.328125" xlink:href="#DejaVuSans-105"/>
     <use x="1238.111328" xlink:href="#DejaVuSans-103"/>
     <use x="1301.587891" xlink:href="#DejaVuSans-104"/>
     <use x="1364.966797" xlink:href="#DejaVuSans-116"/>
     <use x="1404.175781" xlink:href="#DejaVuSans-115"/>
     <use x="1456.275391" xlink:href="#DejaVuSans-32"/>
     <use x="1488.0625" xlink:href="#DejaVuSans-119"/>
     <use x="1569.849609" xlink:href="#DejaVuSans-97"/>
     <use x="1631.128906" xlink:href="#DejaVuSans-116"/>
     <use x="1670.337891" xlink:href="#DejaVuSans-101"/>
     <use x="1731.861328" xlink:href="#DejaVuSans-114"/>
     <use x="1772.958984" xlink:href="#DejaVuSans-109"/>
     <use x="1870.371094" xlink:href="#DejaVuSans-97"/>
     <use x="1931.650391" xlink:href="#DejaVuSans-114"/>
     <use x="1972.763672" xlink:href="#DejaVuSans-107"/>
     <use x="2030.626953" xlink:href="#DejaVuSans-101"/>
     <use x="2092.150391" xlink:href="#DejaVuSans-100"/>
    </g>
   </g>
   <g id="legend_3">
    <g id="patch_19">
     <path d="M 60.8 310.75625 
L 169.976562 310.75625 
Q 171.976562 310.75625 171.976562 308.75625 
L 171.976562 280.4 
Q 171.976562 278.4 169.976562 278.4 
L 60.8 278.4 
Q 58.8 278.4 58.8 280.4 
L 58.8 308.75625 
Q 58.8 310.75625 60.8 310.75625 
z
" style="fill:#ffffff;opacity:0.8;stroke:#cccccc;stroke-linejoin:miter;"/>
    </g>
    <g id="line2d_55">
     <path d="M 62.8 286.498437 
L 82.8 286.498437 
" style="fill:none;stroke:#0000ff;stroke-linecap:square;stroke-width:1.5;"/>
    </g>
    <g id="line2d_56"/>
    <g id="text_54">
     <!-- Honest training -->
     <g transform="translate(90.8 289.998437)scale(0.1 -0.1)">
      <use xlink:href="#DejaVuSans-72"/>
      <use x="75.195312" xlink:href="#DejaVuSans-111"/>
      <use x="136.376953" xlink:href="#DejaVuSans-110"/>
      <use x="199.755859" xlink:href="#DejaVuSans-101"/>
      <use x="261.279297" xlink:href="#DejaVuSans-115"/>
      <use x="313.378906" xlink:href="#DejaVuSans-116"/>
      <use x="352.587891" xlink:href="#DejaVuSans-32"/>
      <use x="384.375" xlink:href="#DejaVuSans-116"/>
      <use x="423.583984" xlink:href="#DejaVuSans-114"/>
      <use x="464.697266" xlink:href="#DejaVuSans-97"/>
      <use x="525.976562" xlink:href="#DejaVuSans-105"/>
      <use x="553.759766" xlink:href="#DejaVuSans-110"/>
      <use x="617.138672" xlink:href="#DejaVuSans-105"/>
      <use x="644.921875" xlink:href="#DejaVuSans-110"/>
      <use x="708.300781" xlink:href="#DejaVuSans-103"/>
     </g>
    </g>
    <g id="line2d_57">
     <path d="M 62.8 301.176562 
L 82.8 301.176562 
" style="fill:none;stroke:#ff0000;stroke-linecap:square;stroke-width:1.5;"/>
    </g>
    <g id="line2d_58"/>
    <g id="text_55">
     <!-- Transfer attack -->
     <g transform="translate(90.8 304.676562)scale(0.1 -0.1)">
      <use xlink:href="#DejaVuSans-84"/>
      <use x="60.865234" xlink:href="#DejaVuSans-114"/>
      <use x="101.978516" xlink:href="#DejaVuSans-97"/>
      <use x="163.257812" xlink:href="#DejaVuSans-110"/>
      <use x="226.636719" xlink:href="#DejaVuSans-115"/>
      <use x="278.736328" xlink:href="#DejaVuSans-102"/>
      <use x="313.941406" xlink:href="#DejaVuSans-101"/>
      <use x="375.464844" xlink:href="#DejaVuSans-114"/>
      <use x="416.578125" xlink:href="#DejaVuSans-32"/>
      <use x="448.365234" xlink:href="#DejaVuSans-97"/>
      <use x="509.644531" xlink:href="#DejaVuSans-116"/>
      <use x="548.853516" xlink:href="#DejaVuSans-116"/>
      <use x="588.0625" xlink:href="#DejaVuSans-97"/>
      <use x="649.341797" xlink:href="#DejaVuSans-99"/>
      <use x="704.322266" xlink:href="#DejaVuSans-107"/>
     </g>
    </g>
   </g>
  </g>
  <g id="axes_4">
   <g id="patch_20">
    <path d="M 624.4 462.2 
L 1141.2 462.2 
L 1141.2 273.4 
L 624.4 273.4 
z
" style="fill:#ffffff;"/>
   </g>
   <g id="matplotlib.axis_7">
    <g id="xtick_19">
     <g id="line2d_59">
      <g>
       <use style="stroke:#000000;stroke-width:0.8;" x="643.145271" xlink:href="#m1f912125b3" y="462.2"/>
      </g>
     </g>
     <g id="text_56">
      <!-- 0 -->
      <g transform="translate(639.964021 476.798437)scale(0.1 -0.1)">
       <use xlink:href="#DejaVuSans-48"/>
      </g>
     </g>
    </g>
    <g id="xtick_20">
     <g id="line2d_60">
      <g>
       <use style="stroke:#000000;stroke-width:0.8;" x="738.058035" xlink:href="#m1f912125b3" y="462.2"/>
      </g>
     </g>
     <g id="text_57">
      <!-- 20 -->
      <g transform="translate(731.695535 476.798437)scale(0.1 -0.1)">
       <use xlink:href="#DejaVuSans-50"/>
       <use x="63.623047" xlink:href="#DejaVuSans-48"/>
      </g>
     </g>
    </g>
    <g id="xtick_21">
     <g id="line2d_61">
      <g>
       <use style="stroke:#000000;stroke-width:0.8;" x="832.970799" xlink:href="#m1f912125b3" y="462.2"/>
      </g>
     </g>
     <g id="text_58">
      <!-- 40 -->
      <g transform="translate(826.608299 476.798437)scale(0.1 -0.1)">
       <use xlink:href="#DejaVuSans-52"/>
       <use x="63.623047" xlink:href="#DejaVuSans-48"/>
      </g>
     </g>
    </g>
    <g id="xtick_22">
     <g id="line2d_62">
      <g>
       <use style="stroke:#000000;stroke-width:0.8;" x="927.883563" xlink:href="#m1f912125b3" y="462.2"/>
      </g>
     </g>
     <g id="text_59">
      <!-- 60 -->
      <g transform="translate(921.521063 476.798437)scale(0.1 -0.1)">
       <use xlink:href="#DejaVuSans-54"/>
       <use x="63.623047" xlink:href="#DejaVuSans-48"/>
      </g>
     </g>
    </g>
    <g id="xtick_23">
     <g id="line2d_63">
      <g>
       <use style="stroke:#000000;stroke-width:0.8;" x="1022.796327" xlink:href="#m1f912125b3" y="462.2"/>
      </g>
     </g>
     <g id="text_60">
      <!-- 80 -->
      <g transform="translate(1016.433827 476.798437)scale(0.1 -0.1)">
       <use xlink:href="#DejaVuSans-56"/>
       <use x="63.623047" xlink:href="#DejaVuSans-48"/>
      </g>
     </g>
    </g>
    <g id="xtick_24">
     <g id="line2d_64">
      <g>
       <use style="stroke:#000000;stroke-width:0.8;" x="1117.709091" xlink:href="#m1f912125b3" y="462.2"/>
      </g>
     </g>
     <g id="text_61">
      <!-- 100 -->
      <g transform="translate(1108.165341 476.798437)scale(0.1 -0.1)">
       <use xlink:href="#DejaVuSans-49"/>
       <use x="63.623047" xlink:href="#DejaVuSans-48"/>
       <use x="127.246094" xlink:href="#DejaVuSans-48"/>
      </g>
     </g>
    </g>
    <g id="text_62">
     <!-- Epochs -->
     <g transform="translate(864.884375 490.476562)scale(0.1 -0.1)">
      <use xlink:href="#DejaVuSans-69"/>
      <use x="63.183594" xlink:href="#DejaVuSans-112"/>
      <use x="126.660156" xlink:href="#DejaVuSans-111"/>
      <use x="187.841797" xlink:href="#DejaVuSans-99"/>
      <use x="242.822266" xlink:href="#DejaVuSans-104"/>
      <use x="306.201172" xlink:href="#DejaVuSans-115"/>
     </g>
    </g>
   </g>
   <g id="matplotlib.axis_8">
    <g id="ytick_23">
     <g id="line2d_65">
      <g>
       <use style="stroke:#000000;stroke-width:0.8;" x="624.4" xlink:href="#m5d0ec8bff3" y="442.15676"/>
      </g>
     </g>
     <g id="text_63">
      <!-- 20% -->
      <g transform="translate(595.173437 445.955979)scale(0.1 -0.1)">
       <use xlink:href="#DejaVuSans-50"/>
       <use x="63.623047" xlink:href="#DejaVuSans-48"/>
       <use x="127.246094" xlink:href="#DejaVuSans-37"/>
      </g>
     </g>
    </g>
    <g id="ytick_24">
     <g id="line2d_66">
      <g>
       <use style="stroke:#000000;stroke-width:0.8;" x="624.4" xlink:href="#m5d0ec8bff3" y="407.329236"/>
      </g>
     </g>
     <g id="text_64">
      <!-- 30% -->
      <g transform="translate(595.173437 411.128455)scale(0.1 -0.1)">
       <use xlink:href="#DejaVuSans-51"/>
       <use x="63.623047" xlink:href="#DejaVuSans-48"/>
       <use x="127.246094" xlink:href="#DejaVuSans-37"/>
      </g>
     </g>
    </g>
    <g id="ytick_25">
     <g id="line2d_67">
      <g>
       <use style="stroke:#000000;stroke-width:0.8;" x="624.4" xlink:href="#m5d0ec8bff3" y="372.501712"/>
      </g>
     </g>
     <g id="text_65">
      <!-- 40% -->
      <g transform="translate(595.173437 376.300931)scale(0.1 -0.1)">
       <use xlink:href="#DejaVuSans-52"/>
       <use x="63.623047" xlink:href="#DejaVuSans-48"/>
       <use x="127.246094" xlink:href="#DejaVuSans-37"/>
      </g>
     </g>
    </g>
    <g id="ytick_26">
     <g id="line2d_68">
      <g>
       <use style="stroke:#000000;stroke-width:0.8;" x="624.4" xlink:href="#m5d0ec8bff3" y="337.674188"/>
      </g>
     </g>
     <g id="text_66">
      <!-- 50% -->
      <g transform="translate(595.173437 341.473407)scale(0.1 -0.1)">
       <use xlink:href="#DejaVuSans-53"/>
       <use x="63.623047" xlink:href="#DejaVuSans-48"/>
       <use x="127.246094" xlink:href="#DejaVuSans-37"/>
      </g>
     </g>
    </g>
    <g id="ytick_27">
     <g id="line2d_69">
      <g>
       <use style="stroke:#000000;stroke-width:0.8;" x="624.4" xlink:href="#m5d0ec8bff3" y="302.846664"/>
      </g>
     </g>
     <g id="text_67">
      <!-- 60% -->
      <g transform="translate(595.173437 306.645883)scale(0.1 -0.1)">
       <use xlink:href="#DejaVuSans-54"/>
       <use x="63.623047" xlink:href="#DejaVuSans-48"/>
       <use x="127.246094" xlink:href="#DejaVuSans-37"/>
      </g>
     </g>
    </g>
    <g id="text_68">
     <!-- Validation accuracy -->
     <g transform="translate(589.09375 417.021094)rotate(-90)scale(0.1 -0.1)">
      <use xlink:href="#DejaVuSans-86"/>
      <use x="68.298828" xlink:href="#DejaVuSans-97"/>
      <use x="129.578125" xlink:href="#DejaVuSans-108"/>
      <use x="157.361328" xlink:href="#DejaVuSans-105"/>
      <use x="185.144531" xlink:href="#DejaVuSans-100"/>
      <use x="248.621094" xlink:href="#DejaVuSans-97"/>
      <use x="309.900391" xlink:href="#DejaVuSans-116"/>
      <use x="349.109375" xlink:href="#DejaVuSans-105"/>
      <use x="376.892578" xlink:href="#DejaVuSans-111"/>
      <use x="438.074219" xlink:href="#DejaVuSans-110"/>
      <use x="501.453125" xlink:href="#DejaVuSans-32"/>
      <use x="533.240234" xlink:href="#DejaVuSans-97"/>
      <use x="594.519531" xlink:href="#DejaVuSans-99"/>
      <use x="649.5" xlink:href="#DejaVuSans-99"/>
      <use x="704.480469" xlink:href="#DejaVuSans-117"/>
      <use x="767.859375" xlink:href="#DejaVuSans-114"/>
      <use x="808.972656" xlink:href="#DejaVuSans-97"/>
      <use x="870.251953" xlink:href="#DejaVuSans-99"/>
      <use x="925.232422" xlink:href="#DejaVuSans-121"/>
     </g>
    </g>
   </g>
   <g id="line2d_70">
    <path clip-path="url(#p1890a7d799)" d="M 647.890909 448.489035 
L 652.636547 447.190918 
L 657.382185 448.489035 
L 662.127824 432.784991 
L 666.873462 433.354894 
L 671.6191 442.505035 
L 676.364738 438.642347 
L 681.110376 431.676839 
L 685.856015 430.885305 
L 690.601653 432.246746 
L 695.347291 430.916967 
L 700.092929 431.075274 
L 704.838567 429.175593 
L 709.584206 430.75866 
L 714.329844 428.795654 
L 719.075482 424.77466 
L 723.82112 424.964629 
L 728.566758 423.571526 
L 733.312397 423.698175 
L 738.058035 421.766826 
L 742.803673 450.895304 
L 747.549311 453.618182 
L 752.294949 441.90347 
L 757.040588 439.528863 
L 761.786226 445.164593 
L 766.531864 431.645182 
L 771.277502 434.11477 
L 776.02314 425.027949 
L 780.768779 416.637685 
L 785.514417 406.790997 
L 790.260055 380.037121 
L 795.005693 382.126776 
L 799.751331 371.931807 
L 804.49697 382.253415 
L 809.242608 364.016458 
L 813.988246 356.702679 
L 818.733884 363.193267 
L 823.479522 358.950641 
L 828.225161 354.929647 
L 832.970799 359.20393 
L 837.716437 349.325575 
L 842.462075 353.853157 
L 847.207713 341.663525 
L 851.953352 347.647525 
L 856.69899 340.048789 
L 861.444628 354.644691 
L 866.190266 337.199267 
L 870.935904 337.547538 
L 875.681543 340.333746 
L 880.427181 337.29426 
L 885.172819 326.244422 
L 889.918457 332.006801 
L 894.664096 324.408076 
L 899.409734 326.719342 
L 904.155372 325.07296 
L 908.90101 333.114948 
L 913.646648 321.938482 
L 918.392287 323.584864 
L 923.137925 317.220936 
L 927.883563 319.025625 
L 932.629201 317.094286 
L 937.374839 309.590532 
L 942.120478 311.77517 
L 946.866116 311.521892 
L 951.611754 304.999636 
L 956.357392 305.727855 
L 961.10303 307.152616 
L 965.848669 307.500887 
L 970.594307 302.56172 
L 975.339945 299.522213 
L 980.085583 304.524716 
L 984.831221 303.321576 
L 989.57686 303.163269 
L 994.322498 298.445723 
L 999.068136 298.60403 
L 1003.813774 300.313747 
L 1008.559412 295.501229 
L 1013.305051 300.345404 
L 1018.050689 297.812496 
L 1022.796327 298.983978 
L 1027.541965 292.873329 
L 1032.287603 290.81534 
L 1037.033242 290.46707 
L 1041.77888 286.414408 
L 1046.524518 293.949819 
L 1051.270156 289.928814 
L 1056.015794 292.493401 
L 1060.761433 287.110949 
L 1065.507071 287.775854 
L 1070.252709 285.147954 
L 1074.998347 286.794336 
L 1079.743985 297.970803 
L 1084.489624 287.490898 
L 1089.235262 290.118778 
L 1093.9809 283.058288 
L 1098.726538 285.43291 
L 1103.472176 288.725695 
L 1108.217815 283.02663 
L 1112.963453 281.981818 
L 1117.709091 284.134778 
" style="fill:none;stroke:#0000ff;stroke-linecap:square;stroke-width:1.5;"/>
   </g>
   <g id="line2d_71">
    <path clip-path="url(#p1890a7d799)" d="M 647.890909 448.489035 
L 652.636547 448.489035 
L 657.382185 448.489035 
L 662.127824 448.489035 
L 666.873462 448.489035 
L 671.6191 448.489035 
L 676.364738 448.489035 
L 681.110376 448.489035 
L 685.856015 448.520697 
L 690.601653 447.254243 
L 695.347291 448.489035 
L 700.092929 448.489035 
L 704.838567 446.114433 
L 709.584206 447.570857 
L 714.329844 447.760826 
L 719.075482 448.489035 
L 723.82112 442.821648 
L 728.566758 432.721667 
L 733.312397 427.782489 
L 738.058035 429.872145 
L 742.803673 420.943635 
L 747.549311 421.323563 
L 752.294949 419.392225 
L 757.040588 418.189095 
L 761.786226 424.489709 
L 766.531864 422.621685 
L 771.277502 419.80382 
L 776.02314 418.505709 
L 780.768779 443.264906 
L 785.514417 409.703844 
L 790.260055 436.711004 
L 795.005693 431.201918 
L 799.751331 397.925807 
L 804.49697 398.337403 
L 809.242608 420.975292 
L 813.988246 417.935796 
L 818.733884 420.722004 
L 823.479522 384.311404 
L 828.225161 371.646851 
L 832.970799 381.271918 
L 837.716437 376.902642 
L 842.462075 372.311746 
L 847.207713 376.047784 
L 851.953352 375.984469 
L 856.69899 369.082285 
L 861.444628 369.683845 
L 866.190266 362.243426 
L 870.935904 359.552201 
L 875.681543 357.272581 
L 880.427181 357.177599 
L 885.172819 353.21993 
L 889.918457 356.417733 
L 894.664096 349.990469 
L 899.409734 345.272923 
L 904.155372 351.225256 
L 908.90101 345.747844 
L 913.646648 345.842826 
L 918.392287 341.12528 
L 923.137925 339.035624 
L 927.883563 330.423733 
L 932.629201 337.135953 
L 937.374839 346.127782 
L 942.120478 325.167932 
L 946.866116 325.07296 
L 951.611754 328.935637 
L 956.357392 321.336912 
L 961.10303 319.152274 
L 965.848669 323.078286 
L 970.594307 318.993967 
L 975.339945 320.102115 
L 980.085583 321.875147 
L 984.831221 326.181108 
L 989.57686 319.912151 
L 994.322498 316.746015 
L 999.068136 323.933155 
L 1003.813774 312.820003 
L 1008.559412 323.363243 
L 1013.305051 318.740689 
L 1018.050689 316.619366 
L 1022.796327 310.667023 
L 1027.541965 305.601206 
L 1032.287603 308.260764 
L 1037.033242 312.788346 
L 1041.77888 304.936322 
L 1046.524518 317.822506 
L 1051.270156 301.611879 
L 1056.015794 302.56172 
L 1060.761433 309.748839 
L 1065.507071 303.321576 
L 1070.252709 310.445401 
L 1074.998347 304.524716 
L 1079.743985 296.166114 
L 1084.489624 305.474556 
L 1089.235262 296.102778 
L 1093.9809 292.398408 
L 1098.726538 293.348249 
L 1103.472176 295.944472 
L 1108.217815 295.754508 
L 1112.963453 297.812496 
L 1117.709091 296.989305 
" style="fill:none;stroke:#ff0000;stroke-linecap:square;stroke-width:1.5;"/>
   </g>
   <g id="patch_21">
    <path d="M 624.4 462.2 
L 624.4 273.4 
" style="fill:none;stroke:#000000;stroke-linecap:square;stroke-linejoin:miter;stroke-width:0.8;"/>
   </g>
   <g id="patch_22">
    <path d="M 1141.2 462.2 
L 1141.2 273.4 
" style="fill:none;stroke:#000000;stroke-linecap:square;stroke-linejoin:miter;stroke-width:0.8;"/>
   </g>
   <g id="patch_23">
    <path d="M 624.4 462.2 
L 1141.2 462.2 
" style="fill:none;stroke:#000000;stroke-linecap:square;stroke-linejoin:miter;stroke-width:0.8;"/>
   </g>
   <g id="patch_24">
    <path d="M 624.4 273.4 
L 1141.2 273.4 
" style="fill:none;stroke:#000000;stroke-linecap:square;stroke-linejoin:miter;stroke-width:0.8;"/>
   </g>
   <g id="text_69">
    <!-- Training with 70% of weights watermarked -->
    <g transform="translate(753.46625 267.4)scale(0.12 -0.12)">
     <use xlink:href="#DejaVuSans-84"/>
     <use x="60.865234" xlink:href="#DejaVuSans-114"/>
     <use x="101.978516" xlink:href="#DejaVuSans-97"/>
     <use x="163.257812" xlink:href="#DejaVuSans-105"/>
     <use x="191.041016" xlink:href="#DejaVuSans-110"/>
     <use x="254.419922" xlink:href="#DejaVuSans-105"/>
     <use x="282.203125" xlink:href="#DejaVuSans-110"/>
     <use x="345.582031" xlink:href="#DejaVuSans-103"/>
     <use x="409.058594" xlink:href="#DejaVuSans-32"/>
     <use x="440.845703" xlink:href="#DejaVuSans-119"/>
     <use x="522.632812" xlink:href="#DejaVuSans-105"/>
     <use x="550.416016" xlink:href="#DejaVuSans-116"/>
     <use x="589.625" xlink:href="#DejaVuSans-104"/>
     <use x="653.003906" xlink:href="#DejaVuSans-32"/>
     <use x="684.791016" xlink:href="#DejaVuSans-55"/>
     <use x="748.414062" xlink:href="#DejaVuSans-48"/>
     <use x="812.037109" xlink:href="#DejaVuSans-37"/>
     <use x="907.056641" xlink:href="#DejaVuSans-32"/>
     <use x="938.84375" xlink:href="#DejaVuSans-111"/>
     <use x="1000.025391" xlink:href="#DejaVuSans-102"/>
     <use x="1035.230469" xlink:href="#DejaVuSans-32"/>
     <use x="1067.017578" xlink:href="#DejaVuSans-119"/>
     <use x="1148.804688" xlink:href="#DejaVuSans-101"/>
     <use x="1210.328125" xlink:href="#DejaVuSans-105"/>
     <use x="1238.111328" xlink:href="#DejaVuSans-103"/>
     <use x="1301.587891" xlink:href="#DejaVuSans-104"/>
     <use x="1364.966797" xlink:href="#DejaVuSans-116"/>
     <use x="1404.175781" xlink:href="#DejaVuSans-115"/>
     <use x="1456.275391" xlink:href="#DejaVuSans-32"/>
     <use x="1488.0625" xlink:href="#DejaVuSans-119"/>
     <use x="1569.849609" xlink:href="#DejaVuSans-97"/>
     <use x="1631.128906" xlink:href="#DejaVuSans-116"/>
     <use x="1670.337891" xlink:href="#DejaVuSans-101"/>
     <use x="1731.861328" xlink:href="#DejaVuSans-114"/>
     <use x="1772.958984" xlink:href="#DejaVuSans-109"/>
     <use x="1870.371094" xlink:href="#DejaVuSans-97"/>
     <use x="1931.650391" xlink:href="#DejaVuSans-114"/>
     <use x="1972.763672" xlink:href="#DejaVuSans-107"/>
     <use x="2030.626953" xlink:href="#DejaVuSans-101"/>
     <use x="2092.150391" xlink:href="#DejaVuSans-100"/>
    </g>
   </g>
   <g id="legend_4">
    <g id="patch_25">
     <path d="M 631.4 310.75625 
L 740.576562 310.75625 
Q 742.576562 310.75625 742.576562 308.75625 
L 742.576562 280.4 
Q 742.576562 278.4 740.576562 278.4 
L 631.4 278.4 
Q 629.4 278.4 629.4 280.4 
L 629.4 308.75625 
Q 629.4 310.75625 631.4 310.75625 
z
" style="fill:#ffffff;opacity:0.8;stroke:#cccccc;stroke-linejoin:miter;"/>
    </g>
    <g id="line2d_72">
     <path d="M 633.4 286.498437 
L 653.4 286.498437 
" style="fill:none;stroke:#0000ff;stroke-linecap:square;stroke-width:1.5;"/>
    </g>
    <g id="line2d_73"/>
    <g id="text_70">
     <!-- Honest training -->
     <g transform="translate(661.4 289.998437)scale(0.1 -0.1)">
      <use xlink:href="#DejaVuSans-72"/>
      <use x="75.195312" xlink:href="#DejaVuSans-111"/>
      <use x="136.376953" xlink:href="#DejaVuSans-110"/>
      <use x="199.755859" xlink:href="#DejaVuSans-101"/>
      <use x="261.279297" xlink:href="#DejaVuSans-115"/>
      <use x="313.378906" xlink:href="#DejaVuSans-116"/>
      <use x="352.587891" xlink:href="#DejaVuSans-32"/>
      <use x="384.375" xlink:href="#DejaVuSans-116"/>
      <use x="423.583984" xlink:href="#DejaVuSans-114"/>
      <use x="464.697266" xlink:href="#DejaVuSans-97"/>
      <use x="525.976562" xlink:href="#DejaVuSans-105"/>
      <use x="553.759766" xlink:href="#DejaVuSans-110"/>
      <use x="617.138672" xlink:href="#DejaVuSans-105"/>
      <use x="644.921875" xlink:href="#DejaVuSans-110"/>
      <use x="708.300781" xlink:href="#DejaVuSans-103"/>
     </g>
    </g>
    <g id="line2d_74">
     <path d="M 633.4 301.176562 
L 653.4 301.176562 
" style="fill:none;stroke:#ff0000;stroke-linecap:square;stroke-width:1.5;"/>
    </g>
    <g id="line2d_75"/>
    <g id="text_71">
     <!-- Transfer attack -->
     <g transform="translate(661.4 304.676562)scale(0.1 -0.1)">
      <use xlink:href="#DejaVuSans-84"/>
      <use x="60.865234" xlink:href="#DejaVuSans-114"/>
      <use x="101.978516" xlink:href="#DejaVuSans-97"/>
      <use x="163.257812" xlink:href="#DejaVuSans-110"/>
      <use x="226.636719" xlink:href="#DejaVuSans-115"/>
      <use x="278.736328" xlink:href="#DejaVuSans-102"/>
      <use x="313.941406" xlink:href="#DejaVuSans-101"/>
      <use x="375.464844" xlink:href="#DejaVuSans-114"/>
      <use x="416.578125" xlink:href="#DejaVuSans-32"/>
      <use x="448.365234" xlink:href="#DejaVuSans-97"/>
      <use x="509.644531" xlink:href="#DejaVuSans-116"/>
      <use x="548.853516" xlink:href="#DejaVuSans-116"/>
      <use x="588.0625" xlink:href="#DejaVuSans-97"/>
      <use x="649.341797" xlink:href="#DejaVuSans-99"/>
      <use x="704.322266" xlink:href="#DejaVuSans-107"/>
     </g>
    </g>
   </g>
  </g>
 </g>
 <defs>
  <clipPath id="p8defb746a5">
   <rect height="188.8" width="516.8" x="53.8" y="26.8"/>
  </clipPath>
  <clipPath id="p77f658486e">
   <rect height="188.8" width="516.8" x="624.4" y="26.8"/>
  </clipPath>
  <clipPath id="p0c337bbf1f">
   <rect height="188.8" width="516.8" x="53.8" y="273.4"/>
  </clipPath>
  <clipPath id="p1890a7d799">
   <rect height="188.8" width="516.8" x="624.4" y="273.4"/>
  </clipPath>
 </defs>
</svg>
