<?xml version="1.0" encoding="utf-8" standalone="no"?>
<!DOCTYPE svg PUBLIC "-//W3C//DTD SVG 1.1//EN"
  "http://www.w3.org/Graphics/SVG/1.1/DTD/svg11.dtd">
<!-- Created with matplotlib (https://matplotlib.org/) -->
<svg height="504pt" version="1.1" viewBox="0 0 1152 504" width="1152pt" xmlns="http://www.w3.org/2000/svg" xmlns:xlink="http://www.w3.org/1999/xlink">
 <defs>
  <style type="text/css">
*{stroke-linecap:butt;stroke-linejoin:round;}
  </style>
 </defs>
 <g id="figure_1">
  <g id="patch_1">
   <path d="M 0 504 
L 1152 504 
L 1152 0 
L 0 0 
z
" style="fill:#ffffff;"/>
  </g>
  <g id="axes_1">
   <g id="patch_2">
    <path d="M 144 441 
L 549.818182 441 
L 549.818182 60.48 
L 144 60.48 
z
" style="fill:#ffffff;"/>
   </g>
   <g id="matplotlib.axis_1">
    <g id="xtick_1">
     <g id="line2d_1">
      <defs>
       <path d="M 0 0 
L 0 3.5 
" id="mf42cb8a674" style="stroke:#000000;stroke-width:0.8;"/>
      </defs>
      <g>
       <use style="stroke:#000000;stroke-width:0.8;" x="154.917187" xlink:href="#mf42cb8a674" y="441"/>
      </g>
     </g>
     <g id="text_1">
      <!-- 0 -->
      <defs>
       <path d="M 31.78125 66.40625 
Q 24.171875 66.40625 20.328125 58.90625 
Q 16.5 51.421875 16.5 36.375 
Q 16.5 21.390625 20.328125 13.890625 
Q 24.171875 6.390625 31.78125 6.390625 
Q 39.453125 6.390625 43.28125 13.890625 
Q 47.125 21.390625 47.125 36.375 
Q 47.125 51.421875 43.28125 58.90625 
Q 39.453125 66.40625 31.78125 66.40625 
z
M 31.78125 74.21875 
Q 44.046875 74.21875 50.515625 64.515625 
Q 56.984375 54.828125 56.984375 36.375 
Q 56.984375 17.96875 50.515625 8.265625 
Q 44.046875 -1.421875 31.78125 -1.421875 
Q 19.53125 -1.421875 13.0625 8.265625 
Q 6.59375 17.96875 6.59375 36.375 
Q 6.59375 54.828125 13.0625 64.515625 
Q 19.53125 74.21875 31.78125 74.21875 
z
" id="DejaVuSans-48"/>
      </defs>
      <g transform="translate(151.735937 455.598437)scale(0.1 -0.1)">
       <use xlink:href="#DejaVuSans-48"/>
      </g>
     </g>
    </g>
    <g id="xtick_2">
     <g id="line2d_2">
      <g>
       <use style="stroke:#000000;stroke-width:0.8;" x="230.20813" xlink:href="#mf42cb8a674" y="441"/>
      </g>
     </g>
     <g id="text_2">
      <!-- 10 -->
      <defs>
       <path d="M 12.40625 8.296875 
L 28.515625 8.296875 
L 28.515625 63.921875 
L 10.984375 60.40625 
L 10.984375 69.390625 
L 28.421875 72.90625 
L 38.28125 72.90625 
L 38.28125 8.296875 
L 54.390625 8.296875 
L 54.390625 0 
L 12.40625 0 
z
" id="DejaVuSans-49"/>
      </defs>
      <g transform="translate(223.84563 455.598437)scale(0.1 -0.1)">
       <use xlink:href="#DejaVuSans-49"/>
       <use x="63.623047" xlink:href="#DejaVuSans-48"/>
      </g>
     </g>
    </g>
    <g id="xtick_3">
     <g id="line2d_3">
      <g>
       <use style="stroke:#000000;stroke-width:0.8;" x="305.499072" xlink:href="#mf42cb8a674" y="441"/>
      </g>
     </g>
     <g id="text_3">
      <!-- 20 -->
      <defs>
       <path d="M 19.1875 8.296875 
L 53.609375 8.296875 
L 53.609375 0 
L 7.328125 0 
L 7.328125 8.296875 
Q 12.9375 14.109375 22.625 23.890625 
Q 32.328125 33.6875 34.8125 36.53125 
Q 39.546875 41.84375 41.421875 45.53125 
Q 43.3125 49.21875 43.3125 52.78125 
Q 43.3125 58.59375 39.234375 62.25 
Q 35.15625 65.921875 28.609375 65.921875 
Q 23.96875 65.921875 18.8125 64.3125 
Q 13.671875 62.703125 7.8125 59.421875 
L 7.8125 69.390625 
Q 13.765625 71.78125 18.9375 73 
Q 24.125 74.21875 28.421875 74.21875 
Q 39.75 74.21875 46.484375 68.546875 
Q 53.21875 62.890625 53.21875 53.421875 
Q 53.21875 48.921875 51.53125 44.890625 
Q 49.859375 40.875 45.40625 35.40625 
Q 44.1875 33.984375 37.640625 27.21875 
Q 31.109375 20.453125 19.1875 8.296875 
z
" id="DejaVuSans-50"/>
      </defs>
      <g transform="translate(299.136572 455.598437)scale(0.1 -0.1)">
       <use xlink:href="#DejaVuSans-50"/>
       <use x="63.623047" xlink:href="#DejaVuSans-48"/>
      </g>
     </g>
    </g>
    <g id="xtick_4">
     <g id="line2d_4">
      <g>
       <use style="stroke:#000000;stroke-width:0.8;" x="380.790015" xlink:href="#mf42cb8a674" y="441"/>
      </g>
     </g>
     <g id="text_4">
      <!-- 30 -->
      <defs>
       <path d="M 40.578125 39.3125 
Q 47.65625 37.796875 51.625 33 
Q 55.609375 28.21875 55.609375 21.1875 
Q 55.609375 10.40625 48.1875 4.484375 
Q 40.765625 -1.421875 27.09375 -1.421875 
Q 22.515625 -1.421875 17.65625 -0.515625 
Q 12.796875 0.390625 7.625 2.203125 
L 7.625 11.71875 
Q 11.71875 9.328125 16.59375 8.109375 
Q 21.484375 6.890625 26.8125 6.890625 
Q 36.078125 6.890625 40.9375 10.546875 
Q 45.796875 14.203125 45.796875 21.1875 
Q 45.796875 27.640625 41.28125 31.265625 
Q 36.765625 34.90625 28.71875 34.90625 
L 20.21875 34.90625 
L 20.21875 43.015625 
L 29.109375 43.015625 
Q 36.375 43.015625 40.234375 45.921875 
Q 44.09375 48.828125 44.09375 54.296875 
Q 44.09375 59.90625 40.109375 62.90625 
Q 36.140625 65.921875 28.71875 65.921875 
Q 24.65625 65.921875 20.015625 65.03125 
Q 15.375 64.15625 9.8125 62.3125 
L 9.8125 71.09375 
Q 15.4375 72.65625 20.34375 73.4375 
Q 25.25 74.21875 29.59375 74.21875 
Q 40.828125 74.21875 47.359375 69.109375 
Q 53.90625 64.015625 53.90625 55.328125 
Q 53.90625 49.265625 50.4375 45.09375 
Q 46.96875 40.921875 40.578125 39.3125 
z
" id="DejaVuSans-51"/>
      </defs>
      <g transform="translate(374.427515 455.598437)scale(0.1 -0.1)">
       <use xlink:href="#DejaVuSans-51"/>
       <use x="63.623047" xlink:href="#DejaVuSans-48"/>
      </g>
     </g>
    </g>
    <g id="xtick_5">
     <g id="line2d_5">
      <g>
       <use style="stroke:#000000;stroke-width:0.8;" x="456.080958" xlink:href="#mf42cb8a674" y="441"/>
      </g>
     </g>
     <g id="text_5">
      <!-- 40 -->
      <defs>
       <path d="M 37.796875 64.3125 
L 12.890625 25.390625 
L 37.796875 25.390625 
z
M 35.203125 72.90625 
L 47.609375 72.90625 
L 47.609375 25.390625 
L 58.015625 25.390625 
L 58.015625 17.1875 
L 47.609375 17.1875 
L 47.609375 0 
L 37.796875 0 
L 37.796875 17.1875 
L 4.890625 17.1875 
L 4.890625 26.703125 
z
" id="DejaVuSans-52"/>
      </defs>
      <g transform="translate(449.718458 455.598437)scale(0.1 -0.1)">
       <use xlink:href="#DejaVuSans-52"/>
       <use x="63.623047" xlink:href="#DejaVuSans-48"/>
      </g>
     </g>
    </g>
    <g id="xtick_6">
     <g id="line2d_6">
      <g>
       <use style="stroke:#000000;stroke-width:0.8;" x="531.371901" xlink:href="#mf42cb8a674" y="441"/>
      </g>
     </g>
     <g id="text_6">
      <!-- 50 -->
      <defs>
       <path d="M 10.796875 72.90625 
L 49.515625 72.90625 
L 49.515625 64.59375 
L 19.828125 64.59375 
L 19.828125 46.734375 
Q 21.96875 47.46875 24.109375 47.828125 
Q 26.265625 48.1875 28.421875 48.1875 
Q 40.625 48.1875 47.75 41.5 
Q 54.890625 34.8125 54.890625 23.390625 
Q 54.890625 11.625 47.5625 5.09375 
Q 40.234375 -1.421875 26.90625 -1.421875 
Q 22.3125 -1.421875 17.546875 -0.640625 
Q 12.796875 0.140625 7.71875 1.703125 
L 7.71875 11.625 
Q 12.109375 9.234375 16.796875 8.0625 
Q 21.484375 6.890625 26.703125 6.890625 
Q 35.15625 6.890625 40.078125 11.328125 
Q 45.015625 15.765625 45.015625 23.390625 
Q 45.015625 31 40.078125 35.4375 
Q 35.15625 39.890625 26.703125 39.890625 
Q 22.75 39.890625 18.8125 39.015625 
Q 14.890625 38.140625 10.796875 36.28125 
z
" id="DejaVuSans-53"/>
      </defs>
      <g transform="translate(525.009401 455.598437)scale(0.1 -0.1)">
       <use xlink:href="#DejaVuSans-53"/>
       <use x="63.623047" xlink:href="#DejaVuSans-48"/>
      </g>
     </g>
    </g>
    <g id="text_7">
     <!-- Epochs -->
     <defs>
      <path d="M 9.8125 72.90625 
L 55.90625 72.90625 
L 55.90625 64.59375 
L 19.671875 64.59375 
L 19.671875 43.015625 
L 54.390625 43.015625 
L 54.390625 34.71875 
L 19.671875 34.71875 
L 19.671875 8.296875 
L 56.78125 8.296875 
L 56.78125 0 
L 9.8125 0 
z
" id="DejaVuSans-69"/>
      <path d="M 18.109375 8.203125 
L 18.109375 -20.796875 
L 9.078125 -20.796875 
L 9.078125 54.6875 
L 18.109375 54.6875 
L 18.109375 46.390625 
Q 20.953125 51.265625 25.265625 53.625 
Q 29.59375 56 35.59375 56 
Q 45.5625 56 51.78125 48.09375 
Q 58.015625 40.1875 58.015625 27.296875 
Q 58.015625 14.40625 51.78125 6.484375 
Q 45.5625 -1.421875 35.59375 -1.421875 
Q 29.59375 -1.421875 25.265625 0.953125 
Q 20.953125 3.328125 18.109375 8.203125 
z
M 48.6875 27.296875 
Q 48.6875 37.203125 44.609375 42.84375 
Q 40.53125 48.484375 33.40625 48.484375 
Q 26.265625 48.484375 22.1875 42.84375 
Q 18.109375 37.203125 18.109375 27.296875 
Q 18.109375 17.390625 22.1875 11.75 
Q 26.265625 6.109375 33.40625 6.109375 
Q 40.53125 6.109375 44.609375 11.75 
Q 48.6875 17.390625 48.6875 27.296875 
z
" id="DejaVuSans-112"/>
      <path d="M 30.609375 48.390625 
Q 23.390625 48.390625 19.1875 42.75 
Q 14.984375 37.109375 14.984375 27.296875 
Q 14.984375 17.484375 19.15625 11.84375 
Q 23.34375 6.203125 30.609375 6.203125 
Q 37.796875 6.203125 41.984375 11.859375 
Q 46.1875 17.53125 46.1875 27.296875 
Q 46.1875 37.015625 41.984375 42.703125 
Q 37.796875 48.390625 30.609375 48.390625 
z
M 30.609375 56 
Q 42.328125 56 49.015625 48.375 
Q 55.71875 40.765625 55.71875 27.296875 
Q 55.71875 13.875 49.015625 6.21875 
Q 42.328125 -1.421875 30.609375 -1.421875 
Q 18.84375 -1.421875 12.171875 6.21875 
Q 5.515625 13.875 5.515625 27.296875 
Q 5.515625 40.765625 12.171875 48.375 
Q 18.84375 56 30.609375 56 
z
" id="DejaVuSans-111"/>
      <path d="M 48.78125 52.59375 
L 48.78125 44.1875 
Q 44.96875 46.296875 41.140625 47.34375 
Q 37.3125 48.390625 33.40625 48.390625 
Q 24.65625 48.390625 19.8125 42.84375 
Q 14.984375 37.3125 14.984375 27.296875 
Q 14.984375 17.28125 19.8125 11.734375 
Q 24.65625 6.203125 33.40625 6.203125 
Q 37.3125 6.203125 41.140625 7.25 
Q 44.96875 8.296875 48.78125 10.40625 
L 48.78125 2.09375 
Q 45.015625 0.34375 40.984375 -0.53125 
Q 36.96875 -1.421875 32.421875 -1.421875 
Q 20.0625 -1.421875 12.78125 6.34375 
Q 5.515625 14.109375 5.515625 27.296875 
Q 5.515625 40.671875 12.859375 48.328125 
Q 20.21875 56 33.015625 56 
Q 37.15625 56 41.109375 55.140625 
Q 45.0625 54.296875 48.78125 52.59375 
z
" id="DejaVuSans-99"/>
      <path d="M 54.890625 33.015625 
L 54.890625 0 
L 45.90625 0 
L 45.90625 32.71875 
Q 45.90625 40.484375 42.875 44.328125 
Q 39.84375 48.1875 33.796875 48.1875 
Q 26.515625 48.1875 22.3125 43.546875 
Q 18.109375 38.921875 18.109375 30.90625 
L 18.109375 0 
L 9.078125 0 
L 9.078125 75.984375 
L 18.109375 75.984375 
L 18.109375 46.1875 
Q 21.34375 51.125 25.703125 53.5625 
Q 30.078125 56 35.796875 56 
Q 45.21875 56 50.046875 50.171875 
Q 54.890625 44.34375 54.890625 33.015625 
z
" id="DejaVuSans-104"/>
      <path d="M 44.28125 53.078125 
L 44.28125 44.578125 
Q 40.484375 46.53125 36.375 47.5 
Q 32.28125 48.484375 27.875 48.484375 
Q 21.1875 48.484375 17.84375 46.4375 
Q 14.5 44.390625 14.5 40.28125 
Q 14.5 37.15625 16.890625 35.375 
Q 19.28125 33.59375 26.515625 31.984375 
L 29.59375 31.296875 
Q 39.15625 29.25 43.1875 25.515625 
Q 47.21875 21.78125 47.21875 15.09375 
Q 47.21875 7.46875 41.1875 3.015625 
Q 35.15625 -1.421875 24.609375 -1.421875 
Q 20.21875 -1.421875 15.453125 -0.5625 
Q 10.6875 0.296875 5.421875 2 
L 5.421875 11.28125 
Q 10.40625 8.6875 15.234375 7.390625 
Q 20.0625 6.109375 24.8125 6.109375 
Q 31.15625 6.109375 34.5625 8.28125 
Q 37.984375 10.453125 37.984375 14.40625 
Q 37.984375 18.0625 35.515625 20.015625 
Q 33.0625 21.96875 24.703125 23.78125 
L 21.578125 24.515625 
Q 13.234375 26.265625 9.515625 29.90625 
Q 5.8125 33.546875 5.8125 39.890625 
Q 5.8125 47.609375 11.28125 51.796875 
Q 16.75 56 26.8125 56 
Q 31.78125 56 36.171875 55.265625 
Q 40.578125 54.546875 44.28125 53.078125 
z
" id="DejaVuSans-115"/>
     </defs>
     <g transform="translate(328.993466 469.276563)scale(0.1 -0.1)">
      <use xlink:href="#DejaVuSans-69"/>
      <use x="63.183594" xlink:href="#DejaVuSans-112"/>
      <use x="126.660156" xlink:href="#DejaVuSans-111"/>
      <use x="187.841797" xlink:href="#DejaVuSans-99"/>
      <use x="242.822266" xlink:href="#DejaVuSans-104"/>
      <use x="306.201172" xlink:href="#DejaVuSans-115"/>
     </g>
    </g>
   </g>
   <g id="matplotlib.axis_2">
    <g id="ytick_1">
     <g id="line2d_7">
      <defs>
       <path d="M 0 0 
L -3.5 0 
" id="m3041a43677" style="stroke:#000000;stroke-width:0.8;"/>
      </defs>
      <g>
       <use style="stroke:#000000;stroke-width:0.8;" x="144" xlink:href="#m3041a43677" y="423.703637"/>
      </g>
     </g>
     <g id="text_8">
      <!-- 0.1 -->
      <defs>
       <path d="M 10.6875 12.40625 
L 21 12.40625 
L 21 0 
L 10.6875 0 
z
" id="DejaVuSans-46"/>
      </defs>
      <g transform="translate(121.096875 427.502856)scale(0.1 -0.1)">
       <use xlink:href="#DejaVuSans-48"/>
       <use x="63.623047" xlink:href="#DejaVuSans-46"/>
       <use x="95.410156" xlink:href="#DejaVuSans-49"/>
      </g>
     </g>
    </g>
    <g id="ytick_2">
     <g id="line2d_8">
      <g>
       <use style="stroke:#000000;stroke-width:0.8;" x="144" xlink:href="#m3041a43677" y="379.251404"/>
      </g>
     </g>
     <g id="text_9">
      <!-- 0.2 -->
      <g transform="translate(121.096875 383.050623)scale(0.1 -0.1)">
       <use xlink:href="#DejaVuSans-48"/>
       <use x="63.623047" xlink:href="#DejaVuSans-46"/>
       <use x="95.410156" xlink:href="#DejaVuSans-50"/>
      </g>
     </g>
    </g>
    <g id="ytick_3">
     <g id="line2d_9">
      <g>
       <use style="stroke:#000000;stroke-width:0.8;" x="144" xlink:href="#m3041a43677" y="334.799171"/>
      </g>
     </g>
     <g id="text_10">
      <!-- 0.3 -->
      <g transform="translate(121.096875 338.59839)scale(0.1 -0.1)">
       <use xlink:href="#DejaVuSans-48"/>
       <use x="63.623047" xlink:href="#DejaVuSans-46"/>
       <use x="95.410156" xlink:href="#DejaVuSans-51"/>
      </g>
     </g>
    </g>
    <g id="ytick_4">
     <g id="line2d_10">
      <g>
       <use style="stroke:#000000;stroke-width:0.8;" x="144" xlink:href="#m3041a43677" y="290.346939"/>
      </g>
     </g>
     <g id="text_11">
      <!-- 0.4 -->
      <g transform="translate(121.096875 294.146157)scale(0.1 -0.1)">
       <use xlink:href="#DejaVuSans-48"/>
       <use x="63.623047" xlink:href="#DejaVuSans-46"/>
       <use x="95.410156" xlink:href="#DejaVuSans-52"/>
      </g>
     </g>
    </g>
    <g id="ytick_5">
     <g id="line2d_11">
      <g>
       <use style="stroke:#000000;stroke-width:0.8;" x="144" xlink:href="#m3041a43677" y="245.894706"/>
      </g>
     </g>
     <g id="text_12">
      <!-- 0.5 -->
      <g transform="translate(121.096875 249.693924)scale(0.1 -0.1)">
       <use xlink:href="#DejaVuSans-48"/>
       <use x="63.623047" xlink:href="#DejaVuSans-46"/>
       <use x="95.410156" xlink:href="#DejaVuSans-53"/>
      </g>
     </g>
    </g>
    <g id="ytick_6">
     <g id="line2d_12">
      <g>
       <use style="stroke:#000000;stroke-width:0.8;" x="144" xlink:href="#m3041a43677" y="201.442473"/>
      </g>
     </g>
     <g id="text_13">
      <!-- 0.6 -->
      <defs>
       <path d="M 33.015625 40.375 
Q 26.375 40.375 22.484375 35.828125 
Q 18.609375 31.296875 18.609375 23.390625 
Q 18.609375 15.53125 22.484375 10.953125 
Q 26.375 6.390625 33.015625 6.390625 
Q 39.65625 6.390625 43.53125 10.953125 
Q 47.40625 15.53125 47.40625 23.390625 
Q 47.40625 31.296875 43.53125 35.828125 
Q 39.65625 40.375 33.015625 40.375 
z
M 52.59375 71.296875 
L 52.59375 62.3125 
Q 48.875 64.0625 45.09375 64.984375 
Q 41.3125 65.921875 37.59375 65.921875 
Q 27.828125 65.921875 22.671875 59.328125 
Q 17.53125 52.734375 16.796875 39.40625 
Q 19.671875 43.65625 24.015625 45.921875 
Q 28.375 48.1875 33.59375 48.1875 
Q 44.578125 48.1875 50.953125 41.515625 
Q 57.328125 34.859375 57.328125 23.390625 
Q 57.328125 12.15625 50.6875 5.359375 
Q 44.046875 -1.421875 33.015625 -1.421875 
Q 20.359375 -1.421875 13.671875 8.265625 
Q 6.984375 17.96875 6.984375 36.375 
Q 6.984375 53.65625 15.1875 63.9375 
Q 23.390625 74.21875 37.203125 74.21875 
Q 40.921875 74.21875 44.703125 73.484375 
Q 48.484375 72.75 52.59375 71.296875 
z
" id="DejaVuSans-54"/>
      </defs>
      <g transform="translate(121.096875 205.241692)scale(0.1 -0.1)">
       <use xlink:href="#DejaVuSans-48"/>
       <use x="63.623047" xlink:href="#DejaVuSans-46"/>
       <use x="95.410156" xlink:href="#DejaVuSans-54"/>
      </g>
     </g>
    </g>
    <g id="ytick_7">
     <g id="line2d_13">
      <g>
       <use style="stroke:#000000;stroke-width:0.8;" x="144" xlink:href="#m3041a43677" y="156.99024"/>
      </g>
     </g>
     <g id="text_14">
      <!-- 0.7 -->
      <defs>
       <path d="M 8.203125 72.90625 
L 55.078125 72.90625 
L 55.078125 68.703125 
L 28.609375 0 
L 18.3125 0 
L 43.21875 64.59375 
L 8.203125 64.59375 
z
" id="DejaVuSans-55"/>
      </defs>
      <g transform="translate(121.096875 160.789459)scale(0.1 -0.1)">
       <use xlink:href="#DejaVuSans-48"/>
       <use x="63.623047" xlink:href="#DejaVuSans-46"/>
       <use x="95.410156" xlink:href="#DejaVuSans-55"/>
      </g>
     </g>
    </g>
    <g id="ytick_8">
     <g id="line2d_14">
      <g>
       <use style="stroke:#000000;stroke-width:0.8;" x="144" xlink:href="#m3041a43677" y="112.538007"/>
      </g>
     </g>
     <g id="text_15">
      <!-- 0.8 -->
      <defs>
       <path d="M 31.78125 34.625 
Q 24.75 34.625 20.71875 30.859375 
Q 16.703125 27.09375 16.703125 20.515625 
Q 16.703125 13.921875 20.71875 10.15625 
Q 24.75 6.390625 31.78125 6.390625 
Q 38.8125 6.390625 42.859375 10.171875 
Q 46.921875 13.96875 46.921875 20.515625 
Q 46.921875 27.09375 42.890625 30.859375 
Q 38.875 34.625 31.78125 34.625 
z
M 21.921875 38.8125 
Q 15.578125 40.375 12.03125 44.71875 
Q 8.5 49.078125 8.5 55.328125 
Q 8.5 64.0625 14.71875 69.140625 
Q 20.953125 74.21875 31.78125 74.21875 
Q 42.671875 74.21875 48.875 69.140625 
Q 55.078125 64.0625 55.078125 55.328125 
Q 55.078125 49.078125 51.53125 44.71875 
Q 48 40.375 41.703125 38.8125 
Q 48.828125 37.15625 52.796875 32.3125 
Q 56.78125 27.484375 56.78125 20.515625 
Q 56.78125 9.90625 50.3125 4.234375 
Q 43.84375 -1.421875 31.78125 -1.421875 
Q 19.734375 -1.421875 13.25 4.234375 
Q 6.78125 9.90625 6.78125 20.515625 
Q 6.78125 27.484375 10.78125 32.3125 
Q 14.796875 37.15625 21.921875 38.8125 
z
M 18.3125 54.390625 
Q 18.3125 48.734375 21.84375 45.5625 
Q 25.390625 42.390625 31.78125 42.390625 
Q 38.140625 42.390625 41.71875 45.5625 
Q 45.3125 48.734375 45.3125 54.390625 
Q 45.3125 60.0625 41.71875 63.234375 
Q 38.140625 66.40625 31.78125 66.40625 
Q 25.390625 66.40625 21.84375 63.234375 
Q 18.3125 60.0625 18.3125 54.390625 
z
" id="DejaVuSans-56"/>
      </defs>
      <g transform="translate(121.096875 116.337226)scale(0.1 -0.1)">
       <use xlink:href="#DejaVuSans-48"/>
       <use x="63.623047" xlink:href="#DejaVuSans-46"/>
       <use x="95.410156" xlink:href="#DejaVuSans-56"/>
      </g>
     </g>
    </g>
    <g id="ytick_9">
     <g id="line2d_15">
      <g>
       <use style="stroke:#000000;stroke-width:0.8;" x="144" xlink:href="#m3041a43677" y="68.085774"/>
      </g>
     </g>
     <g id="text_16">
      <!-- 0.9 -->
      <defs>
       <path d="M 10.984375 1.515625 
L 10.984375 10.5 
Q 14.703125 8.734375 18.5 7.8125 
Q 22.3125 6.890625 25.984375 6.890625 
Q 35.75 6.890625 40.890625 13.453125 
Q 46.046875 20.015625 46.78125 33.40625 
Q 43.953125 29.203125 39.59375 26.953125 
Q 35.25 24.703125 29.984375 24.703125 
Q 19.046875 24.703125 12.671875 31.3125 
Q 6.296875 37.9375 6.296875 49.421875 
Q 6.296875 60.640625 12.9375 67.421875 
Q 19.578125 74.21875 30.609375 74.21875 
Q 43.265625 74.21875 49.921875 64.515625 
Q 56.59375 54.828125 56.59375 36.375 
Q 56.59375 19.140625 48.40625 8.859375 
Q 40.234375 -1.421875 26.421875 -1.421875 
Q 22.703125 -1.421875 18.890625 -0.6875 
Q 15.09375 0.046875 10.984375 1.515625 
z
M 30.609375 32.421875 
Q 37.25 32.421875 41.125 36.953125 
Q 45.015625 41.5 45.015625 49.421875 
Q 45.015625 57.28125 41.125 61.84375 
Q 37.25 66.40625 30.609375 66.40625 
Q 23.96875 66.40625 20.09375 61.84375 
Q 16.21875 57.28125 16.21875 49.421875 
Q 16.21875 41.5 20.09375 36.953125 
Q 23.96875 32.421875 30.609375 32.421875 
z
" id="DejaVuSans-57"/>
      </defs>
      <g transform="translate(121.096875 71.884993)scale(0.1 -0.1)">
       <use xlink:href="#DejaVuSans-48"/>
       <use x="63.623047" xlink:href="#DejaVuSans-46"/>
       <use x="95.410156" xlink:href="#DejaVuSans-57"/>
      </g>
     </g>
    </g>
    <g id="text_17">
     <!-- Validation accuracy -->
     <defs>
      <path d="M 28.609375 0 
L 0.78125 72.90625 
L 11.078125 72.90625 
L 34.1875 11.53125 
L 57.328125 72.90625 
L 67.578125 72.90625 
L 39.796875 0 
z
" id="DejaVuSans-86"/>
      <path d="M 34.28125 27.484375 
Q 23.390625 27.484375 19.1875 25 
Q 14.984375 22.515625 14.984375 16.5 
Q 14.984375 11.71875 18.140625 8.90625 
Q 21.296875 6.109375 26.703125 6.109375 
Q 34.1875 6.109375 38.703125 11.40625 
Q 43.21875 16.703125 43.21875 25.484375 
L 43.21875 27.484375 
z
M 52.203125 31.203125 
L 52.203125 0 
L 43.21875 0 
L 43.21875 8.296875 
Q 40.140625 3.328125 35.546875 0.953125 
Q 30.953125 -1.421875 24.3125 -1.421875 
Q 15.921875 -1.421875 10.953125 3.296875 
Q 6 8.015625 6 15.921875 
Q 6 25.140625 12.171875 29.828125 
Q 18.359375 34.515625 30.609375 34.515625 
L 43.21875 34.515625 
L 43.21875 35.40625 
Q 43.21875 41.609375 39.140625 45 
Q 35.0625 48.390625 27.6875 48.390625 
Q 23 48.390625 18.546875 47.265625 
Q 14.109375 46.140625 10.015625 43.890625 
L 10.015625 52.203125 
Q 14.9375 54.109375 19.578125 55.046875 
Q 24.21875 56 28.609375 56 
Q 40.484375 56 46.34375 49.84375 
Q 52.203125 43.703125 52.203125 31.203125 
z
" id="DejaVuSans-97"/>
      <path d="M 9.421875 75.984375 
L 18.40625 75.984375 
L 18.40625 0 
L 9.421875 0 
z
" id="DejaVuSans-108"/>
      <path d="M 9.421875 54.6875 
L 18.40625 54.6875 
L 18.40625 0 
L 9.421875 0 
z
M 9.421875 75.984375 
L 18.40625 75.984375 
L 18.40625 64.59375 
L 9.421875 64.59375 
z
" id="DejaVuSans-105"/>
      <path d="M 45.40625 46.390625 
L 45.40625 75.984375 
L 54.390625 75.984375 
L 54.390625 0 
L 45.40625 0 
L 45.40625 8.203125 
Q 42.578125 3.328125 38.25 0.953125 
Q 33.9375 -1.421875 27.875 -1.421875 
Q 17.96875 -1.421875 11.734375 6.484375 
Q 5.515625 14.40625 5.515625 27.296875 
Q 5.515625 40.1875 11.734375 48.09375 
Q 17.96875 56 27.875 56 
Q 33.9375 56 38.25 53.625 
Q 42.578125 51.265625 45.40625 46.390625 
z
M 14.796875 27.296875 
Q 14.796875 17.390625 18.875 11.75 
Q 22.953125 6.109375 30.078125 6.109375 
Q 37.203125 6.109375 41.296875 11.75 
Q 45.40625 17.390625 45.40625 27.296875 
Q 45.40625 37.203125 41.296875 42.84375 
Q 37.203125 48.484375 30.078125 48.484375 
Q 22.953125 48.484375 18.875 42.84375 
Q 14.796875 37.203125 14.796875 27.296875 
z
" id="DejaVuSans-100"/>
      <path d="M 18.3125 70.21875 
L 18.3125 54.6875 
L 36.8125 54.6875 
L 36.8125 47.703125 
L 18.3125 47.703125 
L 18.3125 18.015625 
Q 18.3125 11.328125 20.140625 9.421875 
Q 21.96875 7.515625 27.59375 7.515625 
L 36.8125 7.515625 
L 36.8125 0 
L 27.59375 0 
Q 17.1875 0 13.234375 3.875 
Q 9.28125 7.765625 9.28125 18.015625 
L 9.28125 47.703125 
L 2.6875 47.703125 
L 2.6875 54.6875 
L 9.28125 54.6875 
L 9.28125 70.21875 
z
" id="DejaVuSans-116"/>
      <path d="M 54.890625 33.015625 
L 54.890625 0 
L 45.90625 0 
L 45.90625 32.71875 
Q 45.90625 40.484375 42.875 44.328125 
Q 39.84375 48.1875 33.796875 48.1875 
Q 26.515625 48.1875 22.3125 43.546875 
Q 18.109375 38.921875 18.109375 30.90625 
L 18.109375 0 
L 9.078125 0 
L 9.078125 54.6875 
L 18.109375 54.6875 
L 18.109375 46.1875 
Q 21.34375 51.125 25.703125 53.5625 
Q 30.078125 56 35.796875 56 
Q 45.21875 56 50.046875 50.171875 
Q 54.890625 44.34375 54.890625 33.015625 
z
" id="DejaVuSans-110"/>
      <path id="DejaVuSans-32"/>
      <path d="M 8.5 21.578125 
L 8.5 54.6875 
L 17.484375 54.6875 
L 17.484375 21.921875 
Q 17.484375 14.15625 20.5 10.265625 
Q 23.53125 6.390625 29.59375 6.390625 
Q 36.859375 6.390625 41.078125 11.03125 
Q 45.3125 15.671875 45.3125 23.6875 
L 45.3125 54.6875 
L 54.296875 54.6875 
L 54.296875 0 
L 45.3125 0 
L 45.3125 8.40625 
Q 42.046875 3.421875 37.71875 1 
Q 33.40625 -1.421875 27.6875 -1.421875 
Q 18.265625 -1.421875 13.375 4.4375 
Q 8.5 10.296875 8.5 21.578125 
z
M 31.109375 56 
z
" id="DejaVuSans-117"/>
      <path d="M 41.109375 46.296875 
Q 39.59375 47.171875 37.8125 47.578125 
Q 36.03125 48 33.890625 48 
Q 26.265625 48 22.1875 43.046875 
Q 18.109375 38.09375 18.109375 28.8125 
L 18.109375 0 
L 9.078125 0 
L 9.078125 54.6875 
L 18.109375 54.6875 
L 18.109375 46.1875 
Q 20.953125 51.171875 25.484375 53.578125 
Q 30.03125 56 36.53125 56 
Q 37.453125 56 38.578125 55.875 
Q 39.703125 55.765625 41.0625 55.515625 
z
" id="DejaVuSans-114"/>
      <path d="M 32.171875 -5.078125 
Q 28.375 -14.84375 24.75 -17.8125 
Q 21.140625 -20.796875 15.09375 -20.796875 
L 7.90625 -20.796875 
L 7.90625 -13.28125 
L 13.1875 -13.28125 
Q 16.890625 -13.28125 18.9375 -11.515625 
Q 21 -9.765625 23.484375 -3.21875 
L 25.09375 0.875 
L 2.984375 54.6875 
L 12.5 54.6875 
L 29.59375 11.921875 
L 46.6875 54.6875 
L 56.203125 54.6875 
z
" id="DejaVuSans-121"/>
     </defs>
     <g transform="translate(115.017187 299.579063)rotate(-90)scale(0.1 -0.1)">
      <use xlink:href="#DejaVuSans-86"/>
      <use x="60.658203" xlink:href="#DejaVuSans-97"/>
      <use x="121.9375" xlink:href="#DejaVuSans-108"/>
      <use x="149.720703" xlink:href="#DejaVuSans-105"/>
      <use x="177.503906" xlink:href="#DejaVuSans-100"/>
      <use x="240.980469" xlink:href="#DejaVuSans-97"/>
      <use x="302.259766" xlink:href="#DejaVuSans-116"/>
      <use x="341.46875" xlink:href="#DejaVuSans-105"/>
      <use x="369.251953" xlink:href="#DejaVuSans-111"/>
      <use x="430.433594" xlink:href="#DejaVuSans-110"/>
      <use x="493.8125" xlink:href="#DejaVuSans-32"/>
      <use x="525.599609" xlink:href="#DejaVuSans-97"/>
      <use x="586.878906" xlink:href="#DejaVuSans-99"/>
      <use x="641.859375" xlink:href="#DejaVuSans-99"/>
      <use x="696.839844" xlink:href="#DejaVuSans-117"/>
      <use x="760.21875" xlink:href="#DejaVuSans-114"/>
      <use x="801.332031" xlink:href="#DejaVuSans-97"/>
      <use x="862.611328" xlink:href="#DejaVuSans-99"/>
      <use x="917.591797" xlink:href="#DejaVuSans-121"/>
     </g>
    </g>
   </g>
   <g id="line2d_16">
    <path clip-path="url(#pf564b38c1e)" d="M 162.446281 183.617127 
L 169.975375 140.276188 
L 177.50447 132.852678 
L 185.033564 113.427062 
L 192.562658 106.448042 
L 200.091752 105.647902 
L 207.620847 100.580354 
L 215.149941 98.09104 
L 222.679035 95.601699 
L 230.20813 97.557604 
L 237.737224 88.800519 
L 245.266318 89.111683 
L 252.795412 90.178528 
L 260.324507 89.600659 
L 267.853601 86.088933 
L 275.382695 86.133392 
L 282.91179 84.933168 
L 290.440884 84.888709 
L 297.969978 89.200576 
L 305.499072 93.956985 
L 313.028167 85.688849 
L 320.557261 86.222285 
L 328.086355 83.955216 
L 335.615449 84.666464 
L 343.144544 88.97833 
L 350.673638 81.110278 
L 358.202732 89.378387 
L 365.731827 86.355637 
L 373.260921 80.932466 
L 380.790015 82.666099 
L 388.319109 83.46624 
L 395.848204 85.95558 
L 403.377298 79.10994 
L 410.906392 82.710559 
L 418.435487 80.487949 
L 425.964581 81.510361 
L 433.493675 78.976561 
L 441.022769 80.265678 
L 448.551864 78.976561 
L 456.080958 80.176785 
L 463.610052 84.844276 
L 471.139147 77.776364 
L 478.668241 79.732268 
L 486.197335 79.776702 
L 493.726429 78.798776 
L 501.255524 78.487585 
L 508.784618 82.443854 
L 516.313712 79.732268 
L 523.842807 79.643349 
L 531.371901 81.554795 
" style="fill:none;stroke:#e5cf52;stroke-linecap:square;stroke-width:1.5;"/>
   </g>
   <g id="line2d_17">
    <path clip-path="url(#pf564b38c1e)" d="M 162.446281 364.44881 
L 169.975375 330.620665 
L 177.50447 300.037528 
L 185.033564 296.74806 
L 192.562658 266.965063 
L 200.091752 235.359527 
L 207.620847 227.269229 
L 215.149941 209.399434 
L 222.679035 207.976939 
L 230.20813 196.819431 
L 237.737224 181.794574 
L 245.266318 183.083691 
L 252.795412 170.370362 
L 260.324507 164.947191 
L 267.853601 161.346572 
L 275.382695 152.278295 
L 282.91179 158.94615 
L 290.440884 163.080205 
L 297.969978 135.964321 
L 305.499072 148.366512 
L 313.028167 127.785131 
L 320.557261 131.652454 
L 328.086355 138.898178 
L 335.615449 121.250655 
L 343.144544 119.561454 
L 350.673638 122.006336 
L 358.202732 129.296493 
L 365.731827 114.493907 
L 373.260921 118.45015 
L 380.790015 116.449812 
L 388.319109 122.361959 
L 395.848204 116.183081 
L 403.377298 110.359852 
L 410.906392 109.648604 
L 418.435487 104.98114 
L 425.964581 118.138985 
L 433.493675 106.670314 
L 441.022769 111.737861 
L 448.551864 106.403609 
L 456.080958 100.980438 
L 463.610052 108.403947 
L 471.139147 101.825011 
L 478.668241 106.625854 
L 486.197335 104.669949 
L 493.726429 104.003188 
L 501.255524 103.3364 
L 508.784618 100.091378 
L 516.313712 102.225095 
L 523.842807 101.336035 
L 531.371901 95.957323 
" style="fill:none;stroke:#c8b866;stroke-linecap:square;stroke-width:1.5;"/>
   </g>
   <g id="line2d_18">
    <path clip-path="url(#pf564b38c1e)" d="M 162.446281 372.850286 
L 169.975375 370.449864 
L 177.50447 344.756476 
L 185.033564 329.776065 
L 192.562658 318.929722 
L 200.091752 295.503403 
L 207.620847 265.18697 
L 215.149941 274.166327 
L 222.679035 239.137958 
L 230.20813 233.981518 
L 237.737224 220.823646 
L 245.266318 202.598227 
L 252.795412 187.928993 
L 260.324507 214.422522 
L 267.853601 207.532422 
L 275.382695 174.9045 
L 282.91179 171.481667 
L 290.440884 172.993055 
L 297.969978 168.903433 
L 305.499072 169.525762 
L 313.028167 177.882791 
L 320.557261 159.924076 
L 328.086355 160.23524 
L 335.615449 155.967833 
L 343.144544 144.588055 
L 350.673638 143.787914 
L 358.202732 149.877874 
L 365.731827 139.653859 
L 373.260921 142.365445 
L 380.790015 125.518062 
L 388.319109 134.541852 
L 395.848204 131.207938 
L 403.377298 126.584907 
L 410.906392 127.829564 
L 418.435487 124.49565 
L 425.964581 123.695509 
L 433.493675 127.029423 
L 441.022769 115.827483 
L 448.551864 118.005633 
L 456.080958 116.938788 
L 463.610052 117.827821 
L 471.139147 117.027681 
L 478.668241 114.716178 
L 486.197335 112.938085 
L 493.726429 111.56005 
L 501.255524 118.983585 
L 508.784618 112.626921 
L 516.313712 111.782321 
L 523.842807 111.293345 
L 531.371901 124.806814 
" style="fill:none;stroke:#aea371;stroke-linecap:square;stroke-width:1.5;"/>
   </g>
   <g id="line2d_19">
    <path clip-path="url(#pf564b38c1e)" d="M 162.446281 405.344868 
L 169.975375 398.099151 
L 177.50447 388.453018 
L 185.033564 379.295856 
L 192.562658 369.383006 
L 200.091752 349.023883 
L 207.620847 338.355352 
L 215.149941 337.199588 
L 222.679035 334.75472 
L 230.20813 319.99658 
L 237.737224 316.040324 
L 245.266318 301.41555 
L 252.795412 332.487651 
L 260.324507 274.655304 
L 267.853601 255.096321 
L 275.382695 262.20868 
L 282.91179 255.363026 
L 290.440884 253.09597 
L 297.969978 247.361634 
L 305.499072 244.872294 
L 313.028167 232.647941 
L 320.557261 215.93391 
L 328.086355 219.445637 
L 335.615449 211.577584 
L 343.144544 210.466279 
L 350.673638 206.510036 
L 358.202732 240.249263 
L 365.731827 203.53172 
L 373.260921 184.50616 
L 380.790015 183.572667 
L 388.319109 181.794574 
L 395.848204 175.704641 
L 403.377298 168.192212 
L 410.906392 168.503377 
L 418.435487 165.169462 
L 425.964581 194.641281 
L 433.493675 180.283212 
L 441.022769 173.037488 
L 448.551864 162.857933 
L 456.080958 154.945448 
L 463.610052 156.41235 
L 471.139147 163.035745 
L 478.668241 158.501607 
L 486.197335 154.678717 
L 493.726429 152.678379 
L 501.255524 155.701129 
L 508.784618 147.521912 
L 516.313712 141.787576 
L 523.842807 135.964321 
L 531.371901 141.565305 
" style="fill:none;stroke:#948e77;stroke-linecap:square;stroke-width:1.5;"/>
   </g>
   <g id="line2d_20">
    <path clip-path="url(#pf564b38c1e)" d="M 162.446281 405.567126 
L 169.975375 402.633276 
L 177.50447 388.364113 
L 185.033564 372.494662 
L 192.562658 362.981888 
L 200.091752 323.419401 
L 207.620847 312.528598 
L 215.149941 328.575854 
L 222.679035 308.883519 
L 230.20813 300.748762 
L 237.737224 296.34799 
L 245.266318 284.390342 
L 252.795412 289.680161 
L 260.324507 276.877913 
L 267.853601 277.144631 
L 275.382695 278.389288 
L 282.91179 277.455795 
L 290.440884 271.677 
L 297.969978 273.499539 
L 305.499072 287.546444 
L 313.028167 265.6315 
L 320.557261 253.273782 
L 328.086355 255.540838 
L 335.615449 248.161775 
L 343.144544 248.339574 
L 350.673638 236.915348 
L 358.202732 243.583177 
L 365.731827 242.294087 
L 373.260921 219.934613 
L 380.790015 218.601036 
L 388.319109 220.601374 
L 395.848204 220.645834 
L 403.377298 215.533827 
L 410.906392 219.801234 
L 418.435487 208.377022 
L 425.964581 229.091756 
L 433.493675 208.24367 
L 441.022769 209.04381 
L 448.551864 208.599294 
L 456.080958 216.867403 
L 463.610052 208.110317 
L 471.139147 201.220217 
L 478.668241 205.754329 
L 486.197335 192.640943 
L 493.726429 202.15371 
L 501.255524 195.441422 
L 508.784618 189.395922 
L 516.313712 184.772891 
L 523.842807 184.150562 
L 531.371901 196.508267 
" style="fill:none;stroke:#7c7b78;stroke-linecap:square;stroke-width:1.5;"/>
   </g>
   <g id="line2d_21">
    <path clip-path="url(#pf564b38c1e)" d="M 162.446281 402.366564 
L 169.975375 400.055049 
L 177.50447 390.231105 
L 185.033564 389.875488 
L 192.562658 368.00499 
L 200.091752 367.560466 
L 207.620847 339.288845 
L 215.149941 352.313351 
L 222.679035 319.907674 
L 230.20813 306.705356 
L 237.737224 310.572706 
L 245.266318 287.457538 
L 252.795412 286.079529 
L 260.324507 283.012319 
L 267.853601 277.855866 
L 275.382695 271.588094 
L 282.91179 260.919563 
L 290.440884 253.673852 
L 297.969978 252.65144 
L 305.499072 259.719352 
L 313.028167 244.650049 
L 320.557261 234.648279 
L 328.086355 233.759246 
L 335.615449 236.604184 
L 343.144544 235.581799 
L 350.673638 231.714449 
L 358.202732 236.29302 
L 365.731827 221.001458 
L 373.260921 222.379467 
L 380.790015 222.779551 
L 388.319109 216.067263 
L 395.848204 213.889086 
L 403.377298 209.221622 
L 410.906392 217.400812 
L 418.435487 203.353908 
L 425.964581 211.577584 
L 433.493675 212.955593 
L 441.022769 200.064453 
L 448.551864 198.108548 
L 456.080958 195.085798 
L 463.610052 200.820134 
L 471.139147 200.953486 
L 478.668241 201.35357 
L 486.197335 195.930398 
L 493.726429 187.973453 
L 501.255524 201.664734 
L 508.784618 191.796343 
L 516.313712 189.884898 
L 523.842807 190.240522 
L 531.371901 196.241562 
" style="fill:none;stroke:#666970;stroke-linecap:square;stroke-width:1.5;"/>
   </g>
   <g id="line2d_22">
    <path clip-path="url(#pf564b38c1e)" d="M 162.446281 413.257364 
L 169.975375 416.191211 
L 177.50447 400.410666 
L 185.033564 398.099151 
L 192.562658 391.075698 
L 200.091752 390.364464 
L 207.620847 372.094591 
L 215.149941 371.605622 
L 222.679035 353.602468 
L 230.20813 344.045241 
L 237.737224 338.799869 
L 245.266318 332.176486 
L 252.795412 337.644117 
L 260.324507 318.929722 
L 267.853601 317.596159 
L 275.382695 299.815269 
L 282.91179 301.993419 
L 290.440884 302.79356 
L 297.969978 292.436193 
L 305.499072 286.701857 
L 313.028167 274.210774 
L 320.557261 283.856906 
L 328.086355 270.032273 
L 335.615449 275.94442 
L 343.144544 285.412741 
L 350.673638 282.078826 
L 358.202732 262.875455 
L 365.731827 262.742102 
L 373.260921 251.629041 
L 380.790015 254.651791 
L 388.319109 256.696602 
L 395.848204 253.451581 
L 403.377298 239.760287 
L 410.906392 234.203763 
L 418.435487 239.27131 
L 425.964581 246.25033 
L 433.493675 229.669651 
L 441.022769 234.470494 
L 448.551864 229.980815 
L 456.080958 228.558346 
L 463.610052 240.871591 
L 471.139147 224.290913 
L 478.668241 227.580394 
L 486.197335 218.200953 
L 493.726429 233.714786 
L 501.255524 223.446339 
L 508.784618 223.624124 
L 516.313712 208.24367 
L 523.842807 211.044148 
L 531.371901 203.976263 
" style="fill:none;stroke:#4f576c;stroke-linecap:square;stroke-width:1.5;"/>
   </g>
   <g id="line2d_23">
    <path clip-path="url(#pf564b38c1e)" d="M 162.446281 411.301462 
L 169.975375 403.566775 
L 177.50447 403.477869 
L 185.033564 405.433767 
L 192.562658 399.343814 
L 200.091752 401.610877 
L 207.620847 397.254557 
L 215.149941 396.276611 
L 222.679035 392.54262 
L 230.20813 391.875839 
L 237.737224 393.031596 
L 245.266318 394.365166 
L 252.795412 392.053644 
L 260.324507 392.898238 
L 267.853601 387.563972 
L 275.382695 387.875136 
L 282.91179 381.474019 
L 290.440884 385.030192 
L 297.969978 382.451965 
L 305.499072 369.694177 
L 313.028167 379.918184 
L 320.557261 376.806528 
L 328.086355 368.093896 
L 335.615449 375.206254 
L 343.144544 369.160747 
L 350.673638 352.802327 
L 358.202732 356.002889 
L 365.731827 354.713772 
L 373.260921 346.845733 
L 380.790015 339.911173 
L 388.319109 343.4229 
L 395.848204 338.399798 
L 403.377298 343.734064 
L 410.906392 330.176135 
L 418.435487 332.13204 
L 425.964581 333.287791 
L 433.493675 334.443555 
L 441.022769 325.68647 
L 448.551864 331.376346 
L 456.080958 309.772566 
L 463.610052 326.708868 
L 471.139147 313.817715 
L 478.668241 319.685416 
L 486.197335 316.484854 
L 493.726429 322.485908 
L 501.255524 327.153385 
L 508.784618 316.12923 
L 516.313712 314.262245 
L 523.842807 309.194684 
L 531.371901 329.464901 
" style="fill:none;stroke:#35456c;stroke-linecap:square;stroke-width:1.5;"/>
   </g>
   <g id="line2d_24">
    <path clip-path="url(#pf564b38c1e)" d="M 162.446281 423.659183 
L 169.975375 418.413821 
L 177.50447 398.321409 
L 185.033564 394.631877 
L 192.562658 392.675979 
L 200.091752 390.764534 
L 207.620847 387.430613 
L 215.149941 385.252457 
L 222.679035 382.718676 
L 230.20813 382.985394 
L 237.737224 379.118051 
L 245.266318 375.650771 
L 252.795412 374.672825 
L 260.324507 370.983287 
L 267.853601 367.604919 
L 275.382695 367.382661 
L 282.91179 362.404006 
L 290.440884 365.204498 
L 297.969978 359.736874 
L 305.499072 355.469453 
L 313.028167 355.113843 
L 320.557261 350.268553 
L 328.086355 351.068694 
L 335.615449 345.778875 
L 343.144544 346.312297 
L 350.673638 344.445312 
L 358.202732 339.511103 
L 365.731827 334.799166 
L 373.260921 336.755071 
L 380.790015 334.132391 
L 388.319109 332.176486 
L 395.848204 330.220595 
L 403.377298 329.10929 
L 410.906392 329.420454 
L 418.435487 330.265041 
L 425.964581 327.642361 
L 433.493675 327.153385 
L 441.022769 325.419752 
L 448.551864 326.219892 
L 456.080958 323.641659 
L 463.610052 323.730565 
L 471.139147 324.619611 
L 478.668241 323.063777 
L 486.197335 320.841167 
L 493.726429 321.952472 
L 501.255524 321.996932 
L 508.784618 316.440394 
L 516.313712 322.530354 
L 523.842807 323.108236 
L 531.371901 315.818066 
" style="fill:none;stroke:#083370;stroke-linecap:square;stroke-width:1.5;"/>
   </g>
   <g id="line2d_25">
    <path clip-path="url(#pf564b38c1e)" d="M 162.446281 423.703636 
L 169.975375 423.703636 
L 177.50447 423.703636 
L 185.033564 423.703636 
L 192.562658 423.703636 
L 200.091752 423.703636 
L 207.620847 423.703636 
L 215.149941 423.703636 
L 222.679035 423.703636 
L 230.20813 423.703636 
L 237.737224 423.703636 
L 245.266318 423.703636 
L 252.795412 423.703636 
L 260.324507 423.703636 
L 267.853601 423.703636 
L 275.382695 423.703636 
L 282.91179 423.703636 
L 290.440884 423.703636 
L 297.969978 423.703636 
L 305.499072 423.703636 
L 313.028167 423.703636 
L 320.557261 423.703636 
L 328.086355 423.703636 
L 335.615449 423.703636 
L 343.144544 423.703636 
L 350.673638 423.703636 
L 358.202732 423.703636 
L 365.731827 423.703636 
L 373.260921 423.703636 
L 380.790015 423.703636 
L 388.319109 423.703636 
L 395.848204 423.703636 
L 403.377298 423.703636 
L 410.906392 423.703636 
L 418.435487 423.703636 
L 425.964581 423.703636 
L 433.493675 423.703636 
L 441.022769 423.703636 
L 448.551864 423.703636 
L 456.080958 423.703636 
L 463.610052 423.703636 
L 471.139147 423.703636 
L 478.668241 423.703636 
L 486.197335 423.703636 
L 493.726429 423.703636 
L 501.255524 423.703636 
L 508.784618 423.703636 
L 516.313712 423.703636 
L 523.842807 423.703636 
L 531.371901 423.703636 
" style="fill:none;stroke:#00224e;stroke-linecap:square;stroke-width:1.5;"/>
   </g>
   <g id="patch_3">
    <path d="M 144 441 
L 144 60.48 
" style="fill:none;stroke:#000000;stroke-linecap:square;stroke-linejoin:miter;stroke-width:0.8;"/>
   </g>
   <g id="patch_4">
    <path d="M 549.818182 441 
L 549.818182 60.48 
" style="fill:none;stroke:#000000;stroke-linecap:square;stroke-linejoin:miter;stroke-width:0.8;"/>
   </g>
   <g id="patch_5">
    <path d="M 144 441 
L 549.818182 441 
" style="fill:none;stroke:#000000;stroke-linecap:square;stroke-linejoin:miter;stroke-width:0.8;"/>
   </g>
   <g id="patch_6">
    <path d="M 144 60.48 
L 549.818182 60.48 
" style="fill:none;stroke:#000000;stroke-linecap:square;stroke-linejoin:miter;stroke-width:0.8;"/>
   </g>
   <g id="text_18">
    <!-- Accuracy for % of model frozen -->
    <defs>
     <path d="M 34.1875 63.1875 
L 20.796875 26.90625 
L 47.609375 26.90625 
z
M 28.609375 72.90625 
L 39.796875 72.90625 
L 67.578125 0 
L 57.328125 0 
L 50.6875 18.703125 
L 17.828125 18.703125 
L 11.1875 0 
L 0.78125 0 
z
" id="DejaVuSans-65"/>
     <path d="M 37.109375 75.984375 
L 37.109375 68.5 
L 28.515625 68.5 
Q 23.6875 68.5 21.796875 66.546875 
Q 19.921875 64.59375 19.921875 59.515625 
L 19.921875 54.6875 
L 34.71875 54.6875 
L 34.71875 47.703125 
L 19.921875 47.703125 
L 19.921875 0 
L 10.890625 0 
L 10.890625 47.703125 
L 2.296875 47.703125 
L 2.296875 54.6875 
L 10.890625 54.6875 
L 10.890625 58.5 
Q 10.890625 67.625 15.140625 71.796875 
Q 19.390625 75.984375 28.609375 75.984375 
z
" id="DejaVuSans-102"/>
     <path d="M 72.703125 32.078125 
Q 68.453125 32.078125 66.03125 28.46875 
Q 63.625 24.859375 63.625 18.40625 
Q 63.625 12.0625 66.03125 8.421875 
Q 68.453125 4.78125 72.703125 4.78125 
Q 76.859375 4.78125 79.265625 8.421875 
Q 81.6875 12.0625 81.6875 18.40625 
Q 81.6875 24.8125 79.265625 28.4375 
Q 76.859375 32.078125 72.703125 32.078125 
z
M 72.703125 38.28125 
Q 80.421875 38.28125 84.953125 32.90625 
Q 89.5 27.546875 89.5 18.40625 
Q 89.5 9.28125 84.9375 3.921875 
Q 80.375 -1.421875 72.703125 -1.421875 
Q 64.890625 -1.421875 60.34375 3.921875 
Q 55.8125 9.28125 55.8125 18.40625 
Q 55.8125 27.59375 60.375 32.9375 
Q 64.9375 38.28125 72.703125 38.28125 
z
M 22.3125 68.015625 
Q 18.109375 68.015625 15.6875 64.375 
Q 13.28125 60.75 13.28125 54.390625 
Q 13.28125 47.953125 15.671875 44.328125 
Q 18.0625 40.71875 22.3125 40.71875 
Q 26.5625 40.71875 28.96875 44.328125 
Q 31.390625 47.953125 31.390625 54.390625 
Q 31.390625 60.6875 28.953125 64.34375 
Q 26.515625 68.015625 22.3125 68.015625 
z
M 66.40625 74.21875 
L 74.21875 74.21875 
L 28.609375 -1.421875 
L 20.796875 -1.421875 
z
M 22.3125 74.21875 
Q 30.03125 74.21875 34.609375 68.875 
Q 39.203125 63.53125 39.203125 54.390625 
Q 39.203125 45.171875 34.640625 39.84375 
Q 30.078125 34.515625 22.3125 34.515625 
Q 14.546875 34.515625 10.03125 39.859375 
Q 5.515625 45.21875 5.515625 54.390625 
Q 5.515625 63.484375 10.046875 68.84375 
Q 14.59375 74.21875 22.3125 74.21875 
z
" id="DejaVuSans-37"/>
     <path d="M 52 44.1875 
Q 55.375 50.25 60.0625 53.125 
Q 64.75 56 71.09375 56 
Q 79.640625 56 84.28125 50.015625 
Q 88.921875 44.046875 88.921875 33.015625 
L 88.921875 0 
L 79.890625 0 
L 79.890625 32.71875 
Q 79.890625 40.578125 77.09375 44.375 
Q 74.3125 48.1875 68.609375 48.1875 
Q 61.625 48.1875 57.5625 43.546875 
Q 53.515625 38.921875 53.515625 30.90625 
L 53.515625 0 
L 44.484375 0 
L 44.484375 32.71875 
Q 44.484375 40.625 41.703125 44.40625 
Q 38.921875 48.1875 33.109375 48.1875 
Q 26.21875 48.1875 22.15625 43.53125 
Q 18.109375 38.875 18.109375 30.90625 
L 18.109375 0 
L 9.078125 0 
L 9.078125 54.6875 
L 18.109375 54.6875 
L 18.109375 46.1875 
Q 21.1875 51.21875 25.484375 53.609375 
Q 29.78125 56 35.6875 56 
Q 41.65625 56 45.828125 52.96875 
Q 50 49.953125 52 44.1875 
z
" id="DejaVuSans-109"/>
     <path d="M 56.203125 29.59375 
L 56.203125 25.203125 
L 14.890625 25.203125 
Q 15.484375 15.921875 20.484375 11.0625 
Q 25.484375 6.203125 34.421875 6.203125 
Q 39.59375 6.203125 44.453125 7.46875 
Q 49.3125 8.734375 54.109375 11.28125 
L 54.109375 2.78125 
Q 49.265625 0.734375 44.1875 -0.34375 
Q 39.109375 -1.421875 33.890625 -1.421875 
Q 20.796875 -1.421875 13.15625 6.1875 
Q 5.515625 13.8125 5.515625 26.8125 
Q 5.515625 40.234375 12.765625 48.109375 
Q 20.015625 56 32.328125 56 
Q 43.359375 56 49.78125 48.890625 
Q 56.203125 41.796875 56.203125 29.59375 
z
M 47.21875 32.234375 
Q 47.125 39.59375 43.09375 43.984375 
Q 39.0625 48.390625 32.421875 48.390625 
Q 24.90625 48.390625 20.390625 44.140625 
Q 15.875 39.890625 15.1875 32.171875 
z
" id="DejaVuSans-101"/>
     <path d="M 5.515625 54.6875 
L 48.1875 54.6875 
L 48.1875 46.484375 
L 14.40625 7.171875 
L 48.1875 7.171875 
L 48.1875 0 
L 4.296875 0 
L 4.296875 8.203125 
L 38.09375 47.515625 
L 5.515625 47.515625 
z
" id="DejaVuSans-122"/>
    </defs>
    <g transform="translate(252.804716 54.48)scale(0.12 -0.12)">
     <use xlink:href="#DejaVuSans-65"/>
     <use x="66.658203" xlink:href="#DejaVuSans-99"/>
     <use x="121.638672" xlink:href="#DejaVuSans-99"/>
     <use x="176.619141" xlink:href="#DejaVuSans-117"/>
     <use x="239.998047" xlink:href="#DejaVuSans-114"/>
     <use x="281.111328" xlink:href="#DejaVuSans-97"/>
     <use x="342.390625" xlink:href="#DejaVuSans-99"/>
     <use x="397.371094" xlink:href="#DejaVuSans-121"/>
     <use x="456.550781" xlink:href="#DejaVuSans-32"/>
     <use x="488.337891" xlink:href="#DejaVuSans-102"/>
     <use x="523.542969" xlink:href="#DejaVuSans-111"/>
     <use x="584.724609" xlink:href="#DejaVuSans-114"/>
     <use x="625.837891" xlink:href="#DejaVuSans-32"/>
     <use x="657.625" xlink:href="#DejaVuSans-37"/>
     <use x="752.644531" xlink:href="#DejaVuSans-32"/>
     <use x="784.431641" xlink:href="#DejaVuSans-111"/>
     <use x="845.613281" xlink:href="#DejaVuSans-102"/>
     <use x="880.818359" xlink:href="#DejaVuSans-32"/>
     <use x="912.605469" xlink:href="#DejaVuSans-109"/>
     <use x="1010.017578" xlink:href="#DejaVuSans-111"/>
     <use x="1071.199219" xlink:href="#DejaVuSans-100"/>
     <use x="1134.675781" xlink:href="#DejaVuSans-101"/>
     <use x="1196.199219" xlink:href="#DejaVuSans-108"/>
     <use x="1223.982422" xlink:href="#DejaVuSans-32"/>
     <use x="1255.769531" xlink:href="#DejaVuSans-102"/>
     <use x="1290.974609" xlink:href="#DejaVuSans-114"/>
     <use x="1329.837891" xlink:href="#DejaVuSans-111"/>
     <use x="1391.019531" xlink:href="#DejaVuSans-122"/>
     <use x="1443.509766" xlink:href="#DejaVuSans-101"/>
     <use x="1505.033203" xlink:href="#DejaVuSans-110"/>
    </g>
   </g>
   <g id="legend_1">
    <g id="patch_7">
     <path d="M 151 215.26125 
L 198.903125 215.26125 
Q 200.903125 215.26125 200.903125 213.26125 
L 200.903125 67.48 
Q 200.903125 65.48 198.903125 65.48 
L 151 65.48 
Q 149 65.48 149 67.48 
L 149 213.26125 
Q 149 215.26125 151 215.26125 
z
" style="fill:#ffffff;opacity:0.8;stroke:#cccccc;stroke-linejoin:miter;"/>
    </g>
    <g id="line2d_26">
     <path d="M 153 73.578438 
L 173 73.578438 
" style="fill:none;stroke:#e5cf52;stroke-linecap:square;stroke-width:1.5;"/>
    </g>
    <g id="line2d_27"/>
    <g id="text_19">
     <!-- 0.1 -->
     <g transform="translate(181 77.078438)scale(0.1 -0.1)">
      <use xlink:href="#DejaVuSans-48"/>
      <use x="63.623047" xlink:href="#DejaVuSans-46"/>
      <use x="95.410156" xlink:href="#DejaVuSans-49"/>
     </g>
    </g>
    <g id="line2d_28">
     <path d="M 153 88.256563 
L 173 88.256563 
" style="fill:none;stroke:#c8b866;stroke-linecap:square;stroke-width:1.5;"/>
    </g>
    <g id="line2d_29"/>
    <g id="text_20">
     <!-- 0.2 -->
     <g transform="translate(181 91.756563)scale(0.1 -0.1)">
      <use xlink:href="#DejaVuSans-48"/>
      <use x="63.623047" xlink:href="#DejaVuSans-46"/>
      <use x="95.410156" xlink:href="#DejaVuSans-50"/>
     </g>
    </g>
    <g id="line2d_30">
     <path d="M 153 102.934688 
L 173 102.934688 
" style="fill:none;stroke:#aea371;stroke-linecap:square;stroke-width:1.5;"/>
    </g>
    <g id="line2d_31"/>
    <g id="text_21">
     <!-- 0.3 -->
     <g transform="translate(181 106.434688)scale(0.1 -0.1)">
      <use xlink:href="#DejaVuSans-48"/>
      <use x="63.623047" xlink:href="#DejaVuSans-46"/>
      <use x="95.410156" xlink:href="#DejaVuSans-51"/>
     </g>
    </g>
    <g id="line2d_32">
     <path d="M 153 117.612813 
L 173 117.612813 
" style="fill:none;stroke:#948e77;stroke-linecap:square;stroke-width:1.5;"/>
    </g>
    <g id="line2d_33"/>
    <g id="text_22">
     <!-- 0.4 -->
     <g transform="translate(181 121.112813)scale(0.1 -0.1)">
      <use xlink:href="#DejaVuSans-48"/>
      <use x="63.623047" xlink:href="#DejaVuSans-46"/>
      <use x="95.410156" xlink:href="#DejaVuSans-52"/>
     </g>
    </g>
    <g id="line2d_34">
     <path d="M 153 132.290938 
L 173 132.290938 
" style="fill:none;stroke:#7c7b78;stroke-linecap:square;stroke-width:1.5;"/>
    </g>
    <g id="line2d_35"/>
    <g id="text_23">
     <!-- 0.5 -->
     <g transform="translate(181 135.790938)scale(0.1 -0.1)">
      <use xlink:href="#DejaVuSans-48"/>
      <use x="63.623047" xlink:href="#DejaVuSans-46"/>
      <use x="95.410156" xlink:href="#DejaVuSans-53"/>
     </g>
    </g>
    <g id="line2d_36">
     <path d="M 153 146.969063 
L 173 146.969063 
" style="fill:none;stroke:#666970;stroke-linecap:square;stroke-width:1.5;"/>
    </g>
    <g id="line2d_37"/>
    <g id="text_24">
     <!-- 0.6 -->
     <g transform="translate(181 150.469063)scale(0.1 -0.1)">
      <use xlink:href="#DejaVuSans-48"/>
      <use x="63.623047" xlink:href="#DejaVuSans-46"/>
      <use x="95.410156" xlink:href="#DejaVuSans-54"/>
     </g>
    </g>
    <g id="line2d_38">
     <path d="M 153 161.647188 
L 173 161.647188 
" style="fill:none;stroke:#4f576c;stroke-linecap:square;stroke-width:1.5;"/>
    </g>
    <g id="line2d_39"/>
    <g id="text_25">
     <!-- 0.7 -->
     <g transform="translate(181 165.147188)scale(0.1 -0.1)">
      <use xlink:href="#DejaVuSans-48"/>
      <use x="63.623047" xlink:href="#DejaVuSans-46"/>
      <use x="95.410156" xlink:href="#DejaVuSans-55"/>
     </g>
    </g>
    <g id="line2d_40">
     <path d="M 153 176.325313 
L 173 176.325313 
" style="fill:none;stroke:#35456c;stroke-linecap:square;stroke-width:1.5;"/>
    </g>
    <g id="line2d_41"/>
    <g id="text_26">
     <!-- 0.8 -->
     <g transform="translate(181 179.825313)scale(0.1 -0.1)">
      <use xlink:href="#DejaVuSans-48"/>
      <use x="63.623047" xlink:href="#DejaVuSans-46"/>
      <use x="95.410156" xlink:href="#DejaVuSans-56"/>
     </g>
    </g>
    <g id="line2d_42">
     <path d="M 153 191.003438 
L 173 191.003438 
" style="fill:none;stroke:#083370;stroke-linecap:square;stroke-width:1.5;"/>
    </g>
    <g id="line2d_43"/>
    <g id="text_27">
     <!-- 0.9 -->
     <g transform="translate(181 194.503438)scale(0.1 -0.1)">
      <use xlink:href="#DejaVuSans-48"/>
      <use x="63.623047" xlink:href="#DejaVuSans-46"/>
      <use x="95.410156" xlink:href="#DejaVuSans-57"/>
     </g>
    </g>
    <g id="line2d_44">
     <path d="M 153 205.681563 
L 173 205.681563 
" style="fill:none;stroke:#00224e;stroke-linecap:square;stroke-width:1.5;"/>
    </g>
    <g id="line2d_45"/>
    <g id="text_28">
     <!-- 1.0 -->
     <g transform="translate(181 209.181563)scale(0.1 -0.1)">
      <use xlink:href="#DejaVuSans-49"/>
      <use x="63.623047" xlink:href="#DejaVuSans-46"/>
      <use x="95.410156" xlink:href="#DejaVuSans-48"/>
     </g>
    </g>
   </g>
  </g>
  <g id="axes_2">
   <g id="patch_8">
    <path d="M 630.981818 441 
L 1036.8 441 
L 1036.8 60.48 
L 630.981818 60.48 
z
" style="fill:#ffffff;"/>
   </g>
   <g id="matplotlib.axis_3">
    <g id="xtick_7">
     <g id="line2d_46">
      <g>
       <use style="stroke:#000000;stroke-width:0.8;" x="641.899005" xlink:href="#mf42cb8a674" y="441"/>
      </g>
     </g>
     <g id="text_29">
      <!-- 0 -->
      <g transform="translate(638.717755 455.598437)scale(0.1 -0.1)">
       <use xlink:href="#DejaVuSans-48"/>
      </g>
     </g>
    </g>
    <g id="xtick_8">
     <g id="line2d_47">
      <g>
       <use style="stroke:#000000;stroke-width:0.8;" x="717.189948" xlink:href="#mf42cb8a674" y="441"/>
      </g>
     </g>
     <g id="text_30">
      <!-- 10 -->
      <g transform="translate(710.827448 455.598437)scale(0.1 -0.1)">
       <use xlink:href="#DejaVuSans-49"/>
       <use x="63.623047" xlink:href="#DejaVuSans-48"/>
      </g>
     </g>
    </g>
    <g id="xtick_9">
     <g id="line2d_48">
      <g>
       <use style="stroke:#000000;stroke-width:0.8;" x="792.480891" xlink:href="#mf42cb8a674" y="441"/>
      </g>
     </g>
     <g id="text_31">
      <!-- 20 -->
      <g transform="translate(786.118391 455.598437)scale(0.1 -0.1)">
       <use xlink:href="#DejaVuSans-50"/>
       <use x="63.623047" xlink:href="#DejaVuSans-48"/>
      </g>
     </g>
    </g>
    <g id="xtick_10">
     <g id="line2d_49">
      <g>
       <use style="stroke:#000000;stroke-width:0.8;" x="867.771833" xlink:href="#mf42cb8a674" y="441"/>
      </g>
     </g>
     <g id="text_32">
      <!-- 30 -->
      <g transform="translate(861.409333 455.598437)scale(0.1 -0.1)">
       <use xlink:href="#DejaVuSans-51"/>
       <use x="63.623047" xlink:href="#DejaVuSans-48"/>
      </g>
     </g>
    </g>
    <g id="xtick_11">
     <g id="line2d_50">
      <g>
       <use style="stroke:#000000;stroke-width:0.8;" x="943.062776" xlink:href="#mf42cb8a674" y="441"/>
      </g>
     </g>
     <g id="text_33">
      <!-- 40 -->
      <g transform="translate(936.700276 455.598437)scale(0.1 -0.1)">
       <use xlink:href="#DejaVuSans-52"/>
       <use x="63.623047" xlink:href="#DejaVuSans-48"/>
      </g>
     </g>
    </g>
    <g id="xtick_12">
     <g id="line2d_51">
      <g>
       <use style="stroke:#000000;stroke-width:0.8;" x="1018.353719" xlink:href="#mf42cb8a674" y="441"/>
      </g>
     </g>
     <g id="text_34">
      <!-- 50 -->
      <g transform="translate(1011.991219 455.598437)scale(0.1 -0.1)">
       <use xlink:href="#DejaVuSans-53"/>
       <use x="63.623047" xlink:href="#DejaVuSans-48"/>
      </g>
     </g>
    </g>
    <g id="text_35">
     <!-- Epochs -->
     <g transform="translate(815.975284 469.276563)scale(0.1 -0.1)">
      <use xlink:href="#DejaVuSans-69"/>
      <use x="63.183594" xlink:href="#DejaVuSans-112"/>
      <use x="126.660156" xlink:href="#DejaVuSans-111"/>
      <use x="187.841797" xlink:href="#DejaVuSans-99"/>
      <use x="242.822266" xlink:href="#DejaVuSans-104"/>
      <use x="306.201172" xlink:href="#DejaVuSans-115"/>
     </g>
    </g>
   </g>
   <g id="matplotlib.axis_4">
    <g id="ytick_10">
     <g id="line2d_52">
      <g>
       <use style="stroke:#000000;stroke-width:0.8;" x="630.981818" xlink:href="#m3041a43677" y="431.023674"/>
      </g>
     </g>
     <g id="text_36">
      <!-- 0.0 -->
      <g transform="translate(608.078693 434.822893)scale(0.1 -0.1)">
       <use xlink:href="#DejaVuSans-48"/>
       <use x="63.623047" xlink:href="#DejaVuSans-46"/>
       <use x="95.410156" xlink:href="#DejaVuSans-48"/>
      </g>
     </g>
    </g>
    <g id="ytick_11">
     <g id="line2d_53">
      <g>
       <use style="stroke:#000000;stroke-width:0.8;" x="630.981818" xlink:href="#m3041a43677" y="349.959645"/>
      </g>
     </g>
     <g id="text_37">
      <!-- 0.2 -->
      <g transform="translate(608.078693 353.758864)scale(0.1 -0.1)">
       <use xlink:href="#DejaVuSans-48"/>
       <use x="63.623047" xlink:href="#DejaVuSans-46"/>
       <use x="95.410156" xlink:href="#DejaVuSans-50"/>
      </g>
     </g>
    </g>
    <g id="ytick_12">
     <g id="line2d_54">
      <g>
       <use style="stroke:#000000;stroke-width:0.8;" x="630.981818" xlink:href="#m3041a43677" y="268.895617"/>
      </g>
     </g>
     <g id="text_38">
      <!-- 0.4 -->
      <g transform="translate(608.078693 272.694836)scale(0.1 -0.1)">
       <use xlink:href="#DejaVuSans-48"/>
       <use x="63.623047" xlink:href="#DejaVuSans-46"/>
       <use x="95.410156" xlink:href="#DejaVuSans-52"/>
      </g>
     </g>
    </g>
    <g id="ytick_13">
     <g id="line2d_55">
      <g>
       <use style="stroke:#000000;stroke-width:0.8;" x="630.981818" xlink:href="#m3041a43677" y="187.831589"/>
      </g>
     </g>
     <g id="text_39">
      <!-- 0.6 -->
      <g transform="translate(608.078693 191.630807)scale(0.1 -0.1)">
       <use xlink:href="#DejaVuSans-48"/>
       <use x="63.623047" xlink:href="#DejaVuSans-46"/>
       <use x="95.410156" xlink:href="#DejaVuSans-54"/>
      </g>
     </g>
    </g>
    <g id="ytick_14">
     <g id="line2d_56">
      <g>
       <use style="stroke:#000000;stroke-width:0.8;" x="630.981818" xlink:href="#m3041a43677" y="106.76756"/>
      </g>
     </g>
     <g id="text_40">
      <!-- 0.8 -->
      <g transform="translate(608.078693 110.566779)scale(0.1 -0.1)">
       <use xlink:href="#DejaVuSans-48"/>
       <use x="63.623047" xlink:href="#DejaVuSans-46"/>
       <use x="95.410156" xlink:href="#DejaVuSans-56"/>
      </g>
     </g>
    </g>
    <g id="text_41">
     <!-- Validation F1 score -->
     <defs>
      <path d="M 9.8125 72.90625 
L 51.703125 72.90625 
L 51.703125 64.59375 
L 19.671875 64.59375 
L 19.671875 43.109375 
L 48.578125 43.109375 
L 48.578125 34.8125 
L 19.671875 34.8125 
L 19.671875 0 
L 9.8125 0 
z
" id="DejaVuSans-70"/>
     </defs>
     <g transform="translate(601.999006 298.098594)rotate(-90)scale(0.1 -0.1)">
      <use xlink:href="#DejaVuSans-86"/>
      <use x="60.658203" xlink:href="#DejaVuSans-97"/>
      <use x="121.9375" xlink:href="#DejaVuSans-108"/>
      <use x="149.720703" xlink:href="#DejaVuSans-105"/>
      <use x="177.503906" xlink:href="#DejaVuSans-100"/>
      <use x="240.980469" xlink:href="#DejaVuSans-97"/>
      <use x="302.259766" xlink:href="#DejaVuSans-116"/>
      <use x="341.46875" xlink:href="#DejaVuSans-105"/>
      <use x="369.251953" xlink:href="#DejaVuSans-111"/>
      <use x="430.433594" xlink:href="#DejaVuSans-110"/>
      <use x="493.8125" xlink:href="#DejaVuSans-32"/>
      <use x="525.599609" xlink:href="#DejaVuSans-70"/>
      <use x="583.119141" xlink:href="#DejaVuSans-49"/>
      <use x="646.742188" xlink:href="#DejaVuSans-32"/>
      <use x="678.529297" xlink:href="#DejaVuSans-115"/>
      <use x="730.628906" xlink:href="#DejaVuSans-99"/>
      <use x="785.609375" xlink:href="#DejaVuSans-111"/>
      <use x="846.791016" xlink:href="#DejaVuSans-114"/>
      <use x="885.654297" xlink:href="#DejaVuSans-101"/>
     </g>
    </g>
   </g>
   <g id="line2d_57">
    <path clip-path="url(#p11bee51705)" d="M 649.428099 179.5577 
L 656.957193 135.855043 
L 664.486288 129.076964 
L 672.015382 112.828518 
L 679.544476 106.681156 
L 687.073571 105.737925 
L 694.602665 100.684271 
L 702.131759 96.320849 
L 709.660853 95.169367 
L 717.189948 96.637389 
L 724.719042 88.309328 
L 732.248136 89.059018 
L 739.777231 90.251762 
L 747.306325 89.320366 
L 754.835419 85.743153 
L 762.364513 85.744901 
L 769.893608 84.915284 
L 777.422702 85.15808 
L 784.951796 89.240285 
L 792.480891 93.595805 
L 800.009985 85.659835 
L 807.539079 85.985782 
L 815.068173 84.139347 
L 822.597268 84.462842 
L 830.126362 88.821377 
L 837.655456 81.533009 
L 845.184551 87.731926 
L 852.713645 87.377198 
L 860.242739 81.557138 
L 867.771833 82.648622 
L 875.300928 83.1728 
L 882.830022 85.918163 
L 890.359116 79.58564 
L 897.88821 83.279821 
L 905.417305 79.865671 
L 912.946399 81.647528 
L 920.475493 79.073521 
L 928.004588 80.327506 
L 935.533682 79.007068 
L 943.062776 79.938015 
L 950.59187 84.316918 
L 958.120965 77.776364 
L 965.650059 80.494672 
L 973.179153 79.941227 
L 980.708248 78.926105 
L 988.237342 78.968912 
L 995.766436 82.916096 
L 1003.29553 79.467542 
L 1010.824625 79.775115 
L 1018.353719 81.920206 
" style="fill:none;stroke:#e5cf52;stroke-linecap:square;stroke-width:1.5;"/>
   </g>
   <g id="line2d_58">
    <path clip-path="url(#p11bee51705)" d="M 649.428099 360.039433 
L 656.957193 320.449867 
L 664.486288 290.260151 
L 672.015382 283.553462 
L 679.544476 254.420385 
L 687.073571 223.558745 
L 694.602665 221.395486 
L 702.131759 202.081359 
L 709.660853 204.269102 
L 717.189948 192.49278 
L 724.719042 174.693924 
L 732.248136 175.245248 
L 739.777231 165.150309 
L 747.306325 160.436178 
L 754.835419 156.891025 
L 762.364513 149.318978 
L 769.893608 156.329173 
L 777.422702 157.569708 
L 784.951796 132.533702 
L 792.480891 144.208981 
L 800.009985 125.005294 
L 807.539079 130.484456 
L 815.068173 138.027973 
L 822.597268 120.637173 
L 830.126362 118.165677 
L 837.655456 121.47158 
L 845.184551 125.072706 
L 852.713645 113.553554 
L 860.242739 116.294966 
L 867.771833 115.609063 
L 875.300928 120.713946 
L 882.830022 116.056379 
L 890.359116 108.996954 
L 897.88821 109.113166 
L 905.417305 104.102449 
L 912.946399 115.983987 
L 920.475493 105.969431 
L 928.004588 111.064 
L 935.533682 104.827683 
L 943.062776 100.247955 
L 950.59187 108.585244 
L 958.120965 100.253419 
L 965.650059 106.437591 
L 973.179153 104.283111 
L 980.708248 103.433762 
L 988.237342 102.403541 
L 995.766436 100.01165 
L 1003.29553 100.607324 
L 1010.824625 101.816235 
L 1018.353719 95.098143 
" style="fill:none;stroke:#c8b866;stroke-linecap:square;stroke-width:1.5;"/>
   </g>
   <g id="line2d_59">
    <path clip-path="url(#p11bee51705)" d="M 649.428099 369.415631 
L 656.957193 363.359183 
L 664.486288 341.075332 
L 672.015382 315.223709 
L 679.544476 303.445727 
L 687.073571 285.046887 
L 694.602665 250.13123 
L 702.131759 258.110462 
L 709.660853 227.269928 
L 717.189948 222.026136 
L 724.719042 209.666937 
L 732.248136 192.120383 
L 739.777231 181.570573 
L 747.306325 204.849775 
L 754.835419 199.90908 
L 762.364513 170.591712 
L 769.893608 164.588277 
L 777.422702 167.80517 
L 784.951796 163.839147 
L 792.480891 162.493656 
L 800.009985 171.948401 
L 807.539079 156.097358 
L 815.068173 155.557592 
L 822.597268 149.335077 
L 830.126362 140.772127 
L 837.655456 140.420855 
L 845.184551 146.697861 
L 852.713645 138.204804 
L 860.242739 138.414491 
L 867.771833 124.212738 
L 875.300928 131.578463 
L 882.830022 129.339256 
L 890.359116 125.531399 
L 897.88821 126.42493 
L 905.417305 122.571223 
L 912.946399 121.477653 
L 920.475493 126.125173 
L 928.004588 114.09924 
L 935.533682 116.812759 
L 943.062776 115.769329 
L 950.59187 117.671101 
L 958.120965 115.451531 
L 965.650059 113.7263 
L 973.179153 112.552815 
L 980.708248 110.488599 
L 988.237342 117.687156 
L 995.766436 111.123 
L 1003.29553 110.214644 
L 1010.824625 110.630825 
L 1018.353719 123.577534 
" style="fill:none;stroke:#aea371;stroke-linecap:square;stroke-width:1.5;"/>
   </g>
   <g id="line2d_60">
    <path clip-path="url(#p11bee51705)" d="M 649.428099 397.490268 
L 656.957193 393.815018 
L 664.486288 380.470089 
L 672.015382 369.150674 
L 679.544476 362.450243 
L 687.073571 337.917657 
L 694.602665 322.245496 
L 702.131759 321.146133 
L 709.660853 324.081794 
L 717.189948 306.082682 
L 724.719042 299.269904 
L 732.248136 284.154497 
L 739.777231 311.374024 
L 747.306325 258.251973 
L 754.835419 243.116366 
L 762.364513 247.332993 
L 769.893608 239.919589 
L 777.422702 236.391255 
L 784.951796 233.717664 
L 792.480891 228.957887 
L 800.009985 218.833784 
L 807.539079 205.529184 
L 815.068173 207.455167 
L 822.597268 201.448182 
L 830.126362 199.100307 
L 837.655456 197.197316 
L 845.184551 226.588051 
L 852.713645 196.900779 
L 860.242739 177.499483 
L 867.771833 175.09021 
L 875.300928 173.367504 
L 882.830022 167.691591 
L 890.359116 162.032215 
L 897.88821 163.589243 
L 905.417305 158.672563 
L 912.946399 183.233125 
L 920.475493 173.996831 
L 928.004588 165.521224 
L 935.533682 156.791204 
L 943.062776 148.899069 
L 950.59187 151.79362 
L 958.120965 156.214034 
L 965.650059 154.316318 
L 973.179153 148.51374 
L 980.708248 147.616801 
L 988.237342 151.974661 
L 995.766436 142.792127 
L 1003.29553 138.301113 
L 1010.824625 132.920971 
L 1018.353719 136.984608 
" style="fill:none;stroke:#948e77;stroke-linecap:square;stroke-width:1.5;"/>
   </g>
   <g id="line2d_61">
    <path clip-path="url(#p11bee51705)" d="M 649.428099 397.499387 
L 656.957193 398.468529 
L 664.486288 385.149492 
L 672.015382 367.827126 
L 679.544476 357.154637 
L 687.073571 311.452349 
L 694.602665 303.248149 
L 702.131759 315.759115 
L 709.660853 300.041244 
L 717.189948 291.848832 
L 724.719042 283.815433 
L 732.248136 275.977 
L 739.777231 281.444449 
L 747.306325 267.635532 
L 754.835419 264.88877 
L 762.364513 268.54743 
L 769.893608 267.330154 
L 777.422702 258.680105 
L 784.951796 258.398137 
L 792.480891 276.12236 
L 800.009985 256.267316 
L 807.539079 247.867934 
L 815.068173 244.436296 
L 822.597268 238.478189 
L 830.126362 238.771518 
L 837.655456 229.854206 
L 845.184551 232.908885 
L 852.713645 232.044599 
L 860.242739 214.389668 
L 867.771833 211.580145 
L 875.300928 212.303737 
L 882.830022 211.419957 
L 890.359116 210.565789 
L 897.88821 215.356956 
L 905.417305 200.758018 
L 912.946399 221.454611 
L 920.475493 202.293011 
L 928.004588 202.944593 
L 935.533682 205.007642 
L 943.062776 208.454469 
L 950.59187 202.986267 
L 958.120965 195.277054 
L 965.650059 202.52972 
L 973.179153 186.953668 
L 980.708248 196.025353 
L 988.237342 187.566715 
L 995.766436 185.395631 
L 1003.29553 178.472006 
L 1010.824625 179.645055 
L 1018.353719 192.034429 
" style="fill:none;stroke:#7c7b78;stroke-linecap:square;stroke-width:1.5;"/>
   </g>
   <g id="line2d_62">
    <path clip-path="url(#p11bee51705)" d="M 649.428099 394.149692 
L 656.957193 390.574438 
L 664.486288 382.030742 
L 672.015382 379.609921 
L 679.544476 358.491234 
L 687.073571 358.740858 
L 694.602665 327.608664 
L 702.131759 338.111099 
L 709.660853 308.707771 
L 717.189948 295.775141 
L 724.719042 299.512332 
L 732.248136 273.727062 
L 739.777231 272.869787 
L 747.306325 268.184652 
L 754.835419 264.826881 
L 762.364513 260.224833 
L 769.893608 250.267761 
L 777.422702 241.997832 
L 784.951796 242.660936 
L 792.480891 248.801747 
L 800.009985 233.955833 
L 807.539079 223.416607 
L 815.068173 224.640026 
L 822.597268 224.76496 
L 830.126362 227.93637 
L 837.655456 222.683953 
L 845.184551 229.337666 
L 852.713645 212.194232 
L 860.242739 212.462015 
L 867.771833 210.759465 
L 875.300928 205.687419 
L 882.830022 205.414366 
L 890.359116 200.7666 
L 897.88821 208.793856 
L 905.417305 195.84794 
L 912.946399 202.42238 
L 920.475493 205.423179 
L 928.004588 193.112575 
L 935.533682 191.342398 
L 943.062776 187.328022 
L 950.59187 192.314318 
L 958.120965 193.468008 
L 965.650059 195.87585 
L 973.179153 189.173715 
L 980.708248 179.673274 
L 988.237342 194.023955 
L 995.766436 183.557715 
L 1003.29553 181.643168 
L 1010.824625 185.048105 
L 1018.353719 191.55265 
" style="fill:none;stroke:#666970;stroke-linecap:square;stroke-width:1.5;"/>
   </g>
   <g id="line2d_63">
    <path clip-path="url(#p11bee51705)" d="M 649.428099 405.484452 
L 656.957193 408.658935 
L 664.486288 393.655933 
L 672.015382 390.592471 
L 679.544476 380.056099 
L 687.073571 378.374338 
L 694.602665 357.654186 
L 702.131759 354.569035 
L 709.660853 338.652689 
L 717.189948 330.565329 
L 724.719042 324.20188 
L 732.248136 316.278415 
L 739.777231 321.495423 
L 747.306325 304.28714 
L 754.835419 302.546001 
L 762.364513 288.786679 
L 769.893608 290.370906 
L 777.422702 289.987885 
L 784.951796 278.275058 
L 792.480891 274.536957 
L 800.009985 262.921129 
L 807.539079 269.05341 
L 815.068173 258.52083 
L 822.597268 260.262684 
L 830.126362 270.112812 
L 837.655456 273.63945 
L 845.184551 252.540055 
L 852.713645 249.994342 
L 860.242739 242.067533 
L 867.771833 243.672632 
L 875.300928 245.242599 
L 882.830022 241.518272 
L 890.359116 230.258788 
L 897.88821 225.146856 
L 905.417305 229.663556 
L 912.946399 235.053961 
L 920.475493 222.165015 
L 928.004588 224.07986 
L 935.533682 221.139392 
L 943.062776 219.917809 
L 950.59187 232.543136 
L 958.120965 214.44355 
L 965.650059 220.884401 
L 973.179153 212.459366 
L 980.708248 223.347662 
L 988.237342 215.585021 
L 995.766436 215.625999 
L 1003.29553 202.486978 
L 1010.824625 202.680748 
L 1018.353719 197.396533 
" style="fill:none;stroke:#4f576c;stroke-linecap:square;stroke-width:1.5;"/>
   </g>
   <g id="line2d_64">
    <path clip-path="url(#p11bee51705)" d="M 649.428099 403.866619 
L 656.957193 392.852588 
L 664.486288 392.822814 
L 672.015382 396.449 
L 679.544476 389.687552 
L 687.073571 390.699467 
L 694.602665 384.999747 
L 702.131759 384.266989 
L 709.660853 380.919196 
L 717.189948 380.492049 
L 724.719042 382.277616 
L 732.248136 383.871892 
L 739.777231 382.727247 
L 747.306325 385.293505 
L 754.835419 375.549734 
L 762.364513 378.673466 
L 769.893608 370.571371 
L 777.422702 373.510082 
L 784.951796 373.342335 
L 792.480891 353.808962 
L 800.009985 370.269048 
L 807.539079 363.074546 
L 815.068173 352.976289 
L 822.597268 360.560034 
L 830.126362 354.441156 
L 837.655456 336.441319 
L 845.184551 342.369762 
L 852.713645 342.030481 
L 860.242739 335.204712 
L 867.771833 327.234709 
L 875.300928 331.152878 
L 882.830022 325.833796 
L 890.359116 332.598847 
L 897.88821 317.292626 
L 905.417305 319.866486 
L 912.946399 321.424646 
L 920.475493 323.323744 
L 928.004588 313.1165 
L 935.533682 319.820498 
L 943.062776 296.087488 
L 950.59187 314.591743 
L 958.120965 300.641651 
L 965.650059 307.84058 
L 973.179153 302.98504 
L 980.708248 310.413043 
L 988.237342 314.474097 
L 995.766436 304.585332 
L 1003.29553 300.65178 
L 1010.824625 296.77403 
L 1018.353719 317.824782 
" style="fill:none;stroke:#35456c;stroke-linecap:square;stroke-width:1.5;"/>
   </g>
   <g id="line2d_65">
    <path clip-path="url(#p11bee51705)" d="M 649.428099 422.510785 
L 656.957193 415.649028 
L 664.486288 406.252351 
L 672.015382 404.347533 
L 679.544476 402.90669 
L 687.073571 399.370066 
L 694.602665 393.879966 
L 702.131759 390.17438 
L 709.660853 390.338399 
L 717.189948 390.813325 
L 724.719042 386.681537 
L 732.248136 382.404871 
L 739.777231 381.334062 
L 747.306325 377.217709 
L 754.835419 372.335184 
L 762.364513 370.756663 
L 769.893608 366.837131 
L 777.422702 367.417268 
L 784.951796 362.937649 
L 792.480891 357.65008 
L 800.009985 355.014988 
L 807.539079 348.962897 
L 815.068173 348.652685 
L 822.597268 340.700452 
L 830.126362 342.282932 
L 837.655456 338.24539 
L 845.184551 332.374436 
L 852.713645 326.329312 
L 860.242739 329.280892 
L 867.771833 326.507078 
L 875.300928 323.023383 
L 882.830022 319.981578 
L 890.359116 319.793992 
L 897.88821 320.325931 
L 905.417305 319.788403 
L 912.946399 317.276632 
L 920.475493 316.128744 
L 928.004588 314.198252 
L 935.533682 314.585276 
L 943.062776 311.964922 
L 950.59187 312.722559 
L 958.120965 311.616245 
L 965.650059 310.512964 
L 973.179153 308.191479 
L 980.708248 309.13619 
L 988.237342 308.545065 
L 995.766436 304.306657 
L 1003.29553 309.225351 
L 1010.824625 309.21551 
L 1018.353719 302.909645 
" style="fill:none;stroke:#083370;stroke-linecap:square;stroke-width:1.5;"/>
   </g>
   <g id="line2d_66">
    <path clip-path="url(#p11bee51705)" d="M 649.428099 423.703636 
L 656.957193 423.703636 
L 664.486288 423.703636 
L 672.015382 423.703636 
L 679.544476 423.703636 
L 687.073571 423.703636 
L 694.602665 423.703636 
L 702.131759 423.703636 
L 709.660853 423.703636 
L 717.189948 423.703636 
L 724.719042 423.703636 
L 732.248136 423.703636 
L 739.777231 423.703636 
L 747.306325 423.703636 
L 754.835419 423.703636 
L 762.364513 423.703636 
L 769.893608 423.703636 
L 777.422702 423.703636 
L 784.951796 423.703636 
L 792.480891 423.703636 
L 800.009985 423.703636 
L 807.539079 423.703636 
L 815.068173 423.703636 
L 822.597268 423.703636 
L 830.126362 423.703636 
L 837.655456 423.703636 
L 845.184551 423.703636 
L 852.713645 423.703636 
L 860.242739 423.703636 
L 867.771833 423.703636 
L 875.300928 423.703636 
L 882.830022 423.703636 
L 890.359116 423.703636 
L 897.88821 423.703636 
L 905.417305 423.703636 
L 912.946399 423.703636 
L 920.475493 423.703636 
L 928.004588 423.703636 
L 935.533682 423.703636 
L 943.062776 423.703636 
L 950.59187 423.703636 
L 958.120965 423.703636 
L 965.650059 423.703636 
L 973.179153 423.703636 
L 980.708248 423.703636 
L 988.237342 423.703636 
L 995.766436 423.703636 
L 1003.29553 423.703636 
L 1010.824625 423.703636 
L 1018.353719 423.703636 
" style="fill:none;stroke:#00224e;stroke-linecap:square;stroke-width:1.5;"/>
   </g>
   <g id="patch_9">
    <path d="M 630.981818 441 
L 630.981818 60.48 
" style="fill:none;stroke:#000000;stroke-linecap:square;stroke-linejoin:miter;stroke-width:0.8;"/>
   </g>
   <g id="patch_10">
    <path d="M 1036.8 441 
L 1036.8 60.48 
" style="fill:none;stroke:#000000;stroke-linecap:square;stroke-linejoin:miter;stroke-width:0.8;"/>
   </g>
   <g id="patch_11">
    <path d="M 630.981818 441 
L 1036.8 441 
" style="fill:none;stroke:#000000;stroke-linecap:square;stroke-linejoin:miter;stroke-width:0.8;"/>
   </g>
   <g id="patch_12">
    <path d="M 630.981818 60.48 
L 1036.8 60.48 
" style="fill:none;stroke:#000000;stroke-linecap:square;stroke-linejoin:miter;stroke-width:0.8;"/>
   </g>
   <g id="text_42">
    <!-- F1 score as % of model frozen -->
    <g transform="translate(743.333097 54.48)scale(0.12 -0.12)">
     <use xlink:href="#DejaVuSans-70"/>
     <use x="57.519531" xlink:href="#DejaVuSans-49"/>
     <use x="121.142578" xlink:href="#DejaVuSans-32"/>
     <use x="152.929688" xlink:href="#DejaVuSans-115"/>
     <use x="205.029297" xlink:href="#DejaVuSans-99"/>
     <use x="260.009766" xlink:href="#DejaVuSans-111"/>
     <use x="321.191406" xlink:href="#DejaVuSans-114"/>
     <use x="360.054688" xlink:href="#DejaVuSans-101"/>
     <use x="421.578125" xlink:href="#DejaVuSans-32"/>
     <use x="453.365234" xlink:href="#DejaVuSans-97"/>
     <use x="514.644531" xlink:href="#DejaVuSans-115"/>
     <use x="566.744141" xlink:href="#DejaVuSans-32"/>
     <use x="598.53125" xlink:href="#DejaVuSans-37"/>
     <use x="693.550781" xlink:href="#DejaVuSans-32"/>
     <use x="725.337891" xlink:href="#DejaVuSans-111"/>
     <use x="786.519531" xlink:href="#DejaVuSans-102"/>
     <use x="821.724609" xlink:href="#DejaVuSans-32"/>
     <use x="853.511719" xlink:href="#DejaVuSans-109"/>
     <use x="950.923828" xlink:href="#DejaVuSans-111"/>
     <use x="1012.105469" xlink:href="#DejaVuSans-100"/>
     <use x="1075.582031" xlink:href="#DejaVuSans-101"/>
     <use x="1137.105469" xlink:href="#DejaVuSans-108"/>
     <use x="1164.888672" xlink:href="#DejaVuSans-32"/>
     <use x="1196.675781" xlink:href="#DejaVuSans-102"/>
     <use x="1231.880859" xlink:href="#DejaVuSans-114"/>
     <use x="1270.744141" xlink:href="#DejaVuSans-111"/>
     <use x="1331.925781" xlink:href="#DejaVuSans-122"/>
     <use x="1384.416016" xlink:href="#DejaVuSans-101"/>
     <use x="1445.939453" xlink:href="#DejaVuSans-110"/>
    </g>
   </g>
   <g id="legend_2">
    <g id="patch_13">
     <path d="M 637.981818 215.26125 
L 685.884943 215.26125 
Q 687.884943 215.26125 687.884943 213.26125 
L 687.884943 67.48 
Q 687.884943 65.48 685.884943 65.48 
L 637.981818 65.48 
Q 635.981818 65.48 635.981818 67.48 
L 635.981818 213.26125 
Q 635.981818 215.26125 637.981818 215.26125 
z
" style="fill:#ffffff;opacity:0.8;stroke:#cccccc;stroke-linejoin:miter;"/>
    </g>
    <g id="line2d_67">
     <path d="M 639.981818 73.578438 
L 659.981818 73.578438 
" style="fill:none;stroke:#e5cf52;stroke-linecap:square;stroke-width:1.5;"/>
    </g>
    <g id="line2d_68"/>
    <g id="text_43">
     <!-- 0.1 -->
     <g transform="translate(667.981818 77.078438)scale(0.1 -0.1)">
      <use xlink:href="#DejaVuSans-48"/>
      <use x="63.623047" xlink:href="#DejaVuSans-46"/>
      <use x="95.410156" xlink:href="#DejaVuSans-49"/>
     </g>
    </g>
    <g id="line2d_69">
     <path d="M 639.981818 88.256563 
L 659.981818 88.256563 
" style="fill:none;stroke:#c8b866;stroke-linecap:square;stroke-width:1.5;"/>
    </g>
    <g id="line2d_70"/>
    <g id="text_44">
     <!-- 0.2 -->
     <g transform="translate(667.981818 91.756563)scale(0.1 -0.1)">
      <use xlink:href="#DejaVuSans-48"/>
      <use x="63.623047" xlink:href="#DejaVuSans-46"/>
      <use x="95.410156" xlink:href="#DejaVuSans-50"/>
     </g>
    </g>
    <g id="line2d_71">
     <path d="M 639.981818 102.934688 
L 659.981818 102.934688 
" style="fill:none;stroke:#aea371;stroke-linecap:square;stroke-width:1.5;"/>
    </g>
    <g id="line2d_72"/>
    <g id="text_45">
     <!-- 0.3 -->
     <g transform="translate(667.981818 106.434688)scale(0.1 -0.1)">
      <use xlink:href="#DejaVuSans-48"/>
      <use x="63.623047" xlink:href="#DejaVuSans-46"/>
      <use x="95.410156" xlink:href="#DejaVuSans-51"/>
     </g>
    </g>
    <g id="line2d_73">
     <path d="M 639.981818 117.612813 
L 659.981818 117.612813 
" style="fill:none;stroke:#948e77;stroke-linecap:square;stroke-width:1.5;"/>
    </g>
    <g id="line2d_74"/>
    <g id="text_46">
     <!-- 0.4 -->
     <g transform="translate(667.981818 121.112813)scale(0.1 -0.1)">
      <use xlink:href="#DejaVuSans-48"/>
      <use x="63.623047" xlink:href="#DejaVuSans-46"/>
      <use x="95.410156" xlink:href="#DejaVuSans-52"/>
     </g>
    </g>
    <g id="line2d_75">
     <path d="M 639.981818 132.290938 
L 659.981818 132.290938 
" style="fill:none;stroke:#7c7b78;stroke-linecap:square;stroke-width:1.5;"/>
    </g>
    <g id="line2d_76"/>
    <g id="text_47">
     <!-- 0.5 -->
     <g transform="translate(667.981818 135.790938)scale(0.1 -0.1)">
      <use xlink:href="#DejaVuSans-48"/>
      <use x="63.623047" xlink:href="#DejaVuSans-46"/>
      <use x="95.410156" xlink:href="#DejaVuSans-53"/>
     </g>
    </g>
    <g id="line2d_77">
     <path d="M 639.981818 146.969063 
L 659.981818 146.969063 
" style="fill:none;stroke:#666970;stroke-linecap:square;stroke-width:1.5;"/>
    </g>
    <g id="line2d_78"/>
    <g id="text_48">
     <!-- 0.6 -->
     <g transform="translate(667.981818 150.469063)scale(0.1 -0.1)">
      <use xlink:href="#DejaVuSans-48"/>
      <use x="63.623047" xlink:href="#DejaVuSans-46"/>
      <use x="95.410156" xlink:href="#DejaVuSans-54"/>
     </g>
    </g>
    <g id="line2d_79">
     <path d="M 639.981818 161.647188 
L 659.981818 161.647188 
" style="fill:none;stroke:#4f576c;stroke-linecap:square;stroke-width:1.5;"/>
    </g>
    <g id="line2d_80"/>
    <g id="text_49">
     <!-- 0.7 -->
     <g transform="translate(667.981818 165.147188)scale(0.1 -0.1)">
      <use xlink:href="#DejaVuSans-48"/>
      <use x="63.623047" xlink:href="#DejaVuSans-46"/>
      <use x="95.410156" xlink:href="#DejaVuSans-55"/>
     </g>
    </g>
    <g id="line2d_81">
     <path d="M 639.981818 176.325313 
L 659.981818 176.325313 
" style="fill:none;stroke:#35456c;stroke-linecap:square;stroke-width:1.5;"/>
    </g>
    <g id="line2d_82"/>
    <g id="text_50">
     <!-- 0.8 -->
     <g transform="translate(667.981818 179.825313)scale(0.1 -0.1)">
      <use xlink:href="#DejaVuSans-48"/>
      <use x="63.623047" xlink:href="#DejaVuSans-46"/>
      <use x="95.410156" xlink:href="#DejaVuSans-56"/>
     </g>
    </g>
    <g id="line2d_83">
     <path d="M 639.981818 191.003438 
L 659.981818 191.003438 
" style="fill:none;stroke:#083370;stroke-linecap:square;stroke-width:1.5;"/>
    </g>
    <g id="line2d_84"/>
    <g id="text_51">
     <!-- 0.9 -->
     <g transform="translate(667.981818 194.503438)scale(0.1 -0.1)">
      <use xlink:href="#DejaVuSans-48"/>
      <use x="63.623047" xlink:href="#DejaVuSans-46"/>
      <use x="95.410156" xlink:href="#DejaVuSans-57"/>
     </g>
    </g>
    <g id="line2d_85">
     <path d="M 639.981818 205.681563 
L 659.981818 205.681563 
" style="fill:none;stroke:#00224e;stroke-linecap:square;stroke-width:1.5;"/>
    </g>
    <g id="line2d_86"/>
    <g id="text_52">
     <!-- 1.0 -->
     <g transform="translate(667.981818 209.181563)scale(0.1 -0.1)">
      <use xlink:href="#DejaVuSans-49"/>
      <use x="63.623047" xlink:href="#DejaVuSans-46"/>
      <use x="95.410156" xlink:href="#DejaVuSans-48"/>
     </g>
    </g>
   </g>
  </g>
 </g>
 <defs>
  <clipPath id="pf564b38c1e">
   <rect height="380.52" width="405.818182" x="144" y="60.48"/>
  </clipPath>
  <clipPath id="p11bee51705">
   <rect height="380.52" width="405.818182" x="630.981818" y="60.48"/>
  </clipPath>
 </defs>
</svg>
