<?xml version="1.0" encoding="utf-8" standalone="no"?>
<!DOCTYPE svg PUBLIC "-//W3C//DTD SVG 1.1//EN"
  "http://www.w3.org/Graphics/SVG/1.1/DTD/svg11.dtd">
<!-- Created with matplotlib (https://matplotlib.org/) -->
<svg height="504pt" version="1.1" viewBox="0 0 1152 504" width="1152pt" xmlns="http://www.w3.org/2000/svg" xmlns:xlink="http://www.w3.org/1999/xlink">
 <defs>
  <style type="text/css">
*{stroke-linecap:butt;stroke-linejoin:round;}
  </style>
 </defs>
 <g id="figure_1">
  <g id="patch_1">
   <path d="M 0 504 
L 1152 504 
L 1152 0 
L 0 0 
z
" style="fill:#ffffff;"/>
  </g>
  <g id="axes_1">
   <g id="patch_2">
    <path d="M 47.8 215.6 
L 570.6 215.6 
L 570.6 26.8 
L 47.8 26.8 
z
" style="fill:#ffffff;"/>
   </g>
   <g id="matplotlib.axis_1">
    <g id="xtick_1">
     <g id="line2d_1">
      <defs>
       <path d="M 0 0 
L 0 3.5 
" id="m78ab7f4616" style="stroke:#000000;stroke-width:0.8;"/>
      </defs>
      <g>
       <use style="stroke:#000000;stroke-width:0.8;" x="66.762902" xlink:href="#m78ab7f4616" y="215.6"/>
      </g>
     </g>
     <g id="text_1">
      <!-- 0 -->
      <defs>
       <path d="M 31.78125 66.40625 
Q 24.171875 66.40625 20.328125 58.90625 
Q 16.5 51.421875 16.5 36.375 
Q 16.5 21.390625 20.328125 13.890625 
Q 24.171875 6.390625 31.78125 6.390625 
Q 39.453125 6.390625 43.28125 13.890625 
Q 47.125 21.390625 47.125 36.375 
Q 47.125 51.421875 43.28125 58.90625 
Q 39.453125 66.40625 31.78125 66.40625 
z
M 31.78125 74.21875 
Q 44.046875 74.21875 50.515625 64.515625 
Q 56.984375 54.828125 56.984375 36.375 
Q 56.984375 17.96875 50.515625 8.265625 
Q 44.046875 -1.421875 31.78125 -1.421875 
Q 19.53125 -1.421875 13.0625 8.265625 
Q 6.59375 17.96875 6.59375 36.375 
Q 6.59375 54.828125 13.0625 64.515625 
Q 19.53125 74.21875 31.78125 74.21875 
z
" id="DejaVuSans-48"/>
      </defs>
      <g transform="translate(63.581652 230.198437)scale(0.1 -0.1)">
       <use xlink:href="#DejaVuSans-48"/>
      </g>
     </g>
    </g>
    <g id="xtick_2">
     <g id="line2d_2">
      <g>
       <use style="stroke:#000000;stroke-width:0.8;" x="162.777594" xlink:href="#m78ab7f4616" y="215.6"/>
      </g>
     </g>
     <g id="text_2">
      <!-- 20 -->
      <defs>
       <path d="M 19.1875 8.296875 
L 53.609375 8.296875 
L 53.609375 0 
L 7.328125 0 
L 7.328125 8.296875 
Q 12.9375 14.109375 22.625 23.890625 
Q 32.328125 33.6875 34.8125 36.53125 
Q 39.546875 41.84375 41.421875 45.53125 
Q 43.3125 49.21875 43.3125 52.78125 
Q 43.3125 58.59375 39.234375 62.25 
Q 35.15625 65.921875 28.609375 65.921875 
Q 23.96875 65.921875 18.8125 64.3125 
Q 13.671875 62.703125 7.8125 59.421875 
L 7.8125 69.390625 
Q 13.765625 71.78125 18.9375 73 
Q 24.125 74.21875 28.421875 74.21875 
Q 39.75 74.21875 46.484375 68.546875 
Q 53.21875 62.890625 53.21875 53.421875 
Q 53.21875 48.921875 51.53125 44.890625 
Q 49.859375 40.875 45.40625 35.40625 
Q 44.1875 33.984375 37.640625 27.21875 
Q 31.109375 20.453125 19.1875 8.296875 
z
" id="DejaVuSans-50"/>
      </defs>
      <g transform="translate(156.415094 230.198437)scale(0.1 -0.1)">
       <use xlink:href="#DejaVuSans-50"/>
       <use x="63.623047" xlink:href="#DejaVuSans-48"/>
      </g>
     </g>
    </g>
    <g id="xtick_3">
     <g id="line2d_3">
      <g>
       <use style="stroke:#000000;stroke-width:0.8;" x="258.792287" xlink:href="#m78ab7f4616" y="215.6"/>
      </g>
     </g>
     <g id="text_3">
      <!-- 40 -->
      <defs>
       <path d="M 37.796875 64.3125 
L 12.890625 25.390625 
L 37.796875 25.390625 
z
M 35.203125 72.90625 
L 47.609375 72.90625 
L 47.609375 25.390625 
L 58.015625 25.390625 
L 58.015625 17.1875 
L 47.609375 17.1875 
L 47.609375 0 
L 37.796875 0 
L 37.796875 17.1875 
L 4.890625 17.1875 
L 4.890625 26.703125 
z
" id="DejaVuSans-52"/>
      </defs>
      <g transform="translate(252.429787 230.198437)scale(0.1 -0.1)">
       <use xlink:href="#DejaVuSans-52"/>
       <use x="63.623047" xlink:href="#DejaVuSans-48"/>
      </g>
     </g>
    </g>
    <g id="xtick_4">
     <g id="line2d_4">
      <g>
       <use style="stroke:#000000;stroke-width:0.8;" x="354.806979" xlink:href="#m78ab7f4616" y="215.6"/>
      </g>
     </g>
     <g id="text_4">
      <!-- 60 -->
      <defs>
       <path d="M 33.015625 40.375 
Q 26.375 40.375 22.484375 35.828125 
Q 18.609375 31.296875 18.609375 23.390625 
Q 18.609375 15.53125 22.484375 10.953125 
Q 26.375 6.390625 33.015625 6.390625 
Q 39.65625 6.390625 43.53125 10.953125 
Q 47.40625 15.53125 47.40625 23.390625 
Q 47.40625 31.296875 43.53125 35.828125 
Q 39.65625 40.375 33.015625 40.375 
z
M 52.59375 71.296875 
L 52.59375 62.3125 
Q 48.875 64.0625 45.09375 64.984375 
Q 41.3125 65.921875 37.59375 65.921875 
Q 27.828125 65.921875 22.671875 59.328125 
Q 17.53125 52.734375 16.796875 39.40625 
Q 19.671875 43.65625 24.015625 45.921875 
Q 28.375 48.1875 33.59375 48.1875 
Q 44.578125 48.1875 50.953125 41.515625 
Q 57.328125 34.859375 57.328125 23.390625 
Q 57.328125 12.15625 50.6875 5.359375 
Q 44.046875 -1.421875 33.015625 -1.421875 
Q 20.359375 -1.421875 13.671875 8.265625 
Q 6.984375 17.96875 6.984375 36.375 
Q 6.984375 53.65625 15.1875 63.9375 
Q 23.390625 74.21875 37.203125 74.21875 
Q 40.921875 74.21875 44.703125 73.484375 
Q 48.484375 72.75 52.59375 71.296875 
z
" id="DejaVuSans-54"/>
      </defs>
      <g transform="translate(348.444479 230.198437)scale(0.1 -0.1)">
       <use xlink:href="#DejaVuSans-54"/>
       <use x="63.623047" xlink:href="#DejaVuSans-48"/>
      </g>
     </g>
    </g>
    <g id="xtick_5">
     <g id="line2d_5">
      <g>
       <use style="stroke:#000000;stroke-width:0.8;" x="450.821671" xlink:href="#m78ab7f4616" y="215.6"/>
      </g>
     </g>
     <g id="text_5">
      <!-- 80 -->
      <defs>
       <path d="M 31.78125 34.625 
Q 24.75 34.625 20.71875 30.859375 
Q 16.703125 27.09375 16.703125 20.515625 
Q 16.703125 13.921875 20.71875 10.15625 
Q 24.75 6.390625 31.78125 6.390625 
Q 38.8125 6.390625 42.859375 10.171875 
Q 46.921875 13.96875 46.921875 20.515625 
Q 46.921875 27.09375 42.890625 30.859375 
Q 38.875 34.625 31.78125 34.625 
z
M 21.921875 38.8125 
Q 15.578125 40.375 12.03125 44.71875 
Q 8.5 49.078125 8.5 55.328125 
Q 8.5 64.0625 14.71875 69.140625 
Q 20.953125 74.21875 31.78125 74.21875 
Q 42.671875 74.21875 48.875 69.140625 
Q 55.078125 64.0625 55.078125 55.328125 
Q 55.078125 49.078125 51.53125 44.71875 
Q 48 40.375 41.703125 38.8125 
Q 48.828125 37.15625 52.796875 32.3125 
Q 56.78125 27.484375 56.78125 20.515625 
Q 56.78125 9.90625 50.3125 4.234375 
Q 43.84375 -1.421875 31.78125 -1.421875 
Q 19.734375 -1.421875 13.25 4.234375 
Q 6.78125 9.90625 6.78125 20.515625 
Q 6.78125 27.484375 10.78125 32.3125 
Q 14.796875 37.15625 21.921875 38.8125 
z
M 18.3125 54.390625 
Q 18.3125 48.734375 21.84375 45.5625 
Q 25.390625 42.390625 31.78125 42.390625 
Q 38.140625 42.390625 41.71875 45.5625 
Q 45.3125 48.734375 45.3125 54.390625 
Q 45.3125 60.0625 41.71875 63.234375 
Q 38.140625 66.40625 31.78125 66.40625 
Q 25.390625 66.40625 21.84375 63.234375 
Q 18.3125 60.0625 18.3125 54.390625 
z
" id="DejaVuSans-56"/>
      </defs>
      <g transform="translate(444.459171 230.198437)scale(0.1 -0.1)">
       <use xlink:href="#DejaVuSans-56"/>
       <use x="63.623047" xlink:href="#DejaVuSans-48"/>
      </g>
     </g>
    </g>
    <g id="xtick_6">
     <g id="line2d_6">
      <g>
       <use style="stroke:#000000;stroke-width:0.8;" x="546.836364" xlink:href="#m78ab7f4616" y="215.6"/>
      </g>
     </g>
     <g id="text_6">
      <!-- 100 -->
      <defs>
       <path d="M 12.40625 8.296875 
L 28.515625 8.296875 
L 28.515625 63.921875 
L 10.984375 60.40625 
L 10.984375 69.390625 
L 28.421875 72.90625 
L 38.28125 72.90625 
L 38.28125 8.296875 
L 54.390625 8.296875 
L 54.390625 0 
L 12.40625 0 
z
" id="DejaVuSans-49"/>
      </defs>
      <g transform="translate(537.292614 230.198437)scale(0.1 -0.1)">
       <use xlink:href="#DejaVuSans-49"/>
       <use x="63.623047" xlink:href="#DejaVuSans-48"/>
       <use x="127.246094" xlink:href="#DejaVuSans-48"/>
      </g>
     </g>
    </g>
    <g id="text_7">
     <!-- Epochs -->
     <defs>
      <path d="M 9.8125 72.90625 
L 55.90625 72.90625 
L 55.90625 64.59375 
L 19.671875 64.59375 
L 19.671875 43.015625 
L 54.390625 43.015625 
L 54.390625 34.71875 
L 19.671875 34.71875 
L 19.671875 8.296875 
L 56.78125 8.296875 
L 56.78125 0 
L 9.8125 0 
z
" id="DejaVuSans-69"/>
      <path d="M 18.109375 8.203125 
L 18.109375 -20.796875 
L 9.078125 -20.796875 
L 9.078125 54.6875 
L 18.109375 54.6875 
L 18.109375 46.390625 
Q 20.953125 51.265625 25.265625 53.625 
Q 29.59375 56 35.59375 56 
Q 45.5625 56 51.78125 48.09375 
Q 58.015625 40.1875 58.015625 27.296875 
Q 58.015625 14.40625 51.78125 6.484375 
Q 45.5625 -1.421875 35.59375 -1.421875 
Q 29.59375 -1.421875 25.265625 0.953125 
Q 20.953125 3.328125 18.109375 8.203125 
z
M 48.6875 27.296875 
Q 48.6875 37.203125 44.609375 42.84375 
Q 40.53125 48.484375 33.40625 48.484375 
Q 26.265625 48.484375 22.1875 42.84375 
Q 18.109375 37.203125 18.109375 27.296875 
Q 18.109375 17.390625 22.1875 11.75 
Q 26.265625 6.109375 33.40625 6.109375 
Q 40.53125 6.109375 44.609375 11.75 
Q 48.6875 17.390625 48.6875 27.296875 
z
" id="DejaVuSans-112"/>
      <path d="M 30.609375 48.390625 
Q 23.390625 48.390625 19.1875 42.75 
Q 14.984375 37.109375 14.984375 27.296875 
Q 14.984375 17.484375 19.15625 11.84375 
Q 23.34375 6.203125 30.609375 6.203125 
Q 37.796875 6.203125 41.984375 11.859375 
Q 46.1875 17.53125 46.1875 27.296875 
Q 46.1875 37.015625 41.984375 42.703125 
Q 37.796875 48.390625 30.609375 48.390625 
z
M 30.609375 56 
Q 42.328125 56 49.015625 48.375 
Q 55.71875 40.765625 55.71875 27.296875 
Q 55.71875 13.875 49.015625 6.21875 
Q 42.328125 -1.421875 30.609375 -1.421875 
Q 18.84375 -1.421875 12.171875 6.21875 
Q 5.515625 13.875 5.515625 27.296875 
Q 5.515625 40.765625 12.171875 48.375 
Q 18.84375 56 30.609375 56 
z
" id="DejaVuSans-111"/>
      <path d="M 48.78125 52.59375 
L 48.78125 44.1875 
Q 44.96875 46.296875 41.140625 47.34375 
Q 37.3125 48.390625 33.40625 48.390625 
Q 24.65625 48.390625 19.8125 42.84375 
Q 14.984375 37.3125 14.984375 27.296875 
Q 14.984375 17.28125 19.8125 11.734375 
Q 24.65625 6.203125 33.40625 6.203125 
Q 37.3125 6.203125 41.140625 7.25 
Q 44.96875 8.296875 48.78125 10.40625 
L 48.78125 2.09375 
Q 45.015625 0.34375 40.984375 -0.53125 
Q 36.96875 -1.421875 32.421875 -1.421875 
Q 20.0625 -1.421875 12.78125 6.34375 
Q 5.515625 14.109375 5.515625 27.296875 
Q 5.515625 40.671875 12.859375 48.328125 
Q 20.21875 56 33.015625 56 
Q 37.15625 56 41.109375 55.140625 
Q 45.0625 54.296875 48.78125 52.59375 
z
" id="DejaVuSans-99"/>
      <path d="M 54.890625 33.015625 
L 54.890625 0 
L 45.90625 0 
L 45.90625 32.71875 
Q 45.90625 40.484375 42.875 44.328125 
Q 39.84375 48.1875 33.796875 48.1875 
Q 26.515625 48.1875 22.3125 43.546875 
Q 18.109375 38.921875 18.109375 30.90625 
L 18.109375 0 
L 9.078125 0 
L 9.078125 75.984375 
L 18.109375 75.984375 
L 18.109375 46.1875 
Q 21.34375 51.125 25.703125 53.5625 
Q 30.078125 56 35.796875 56 
Q 45.21875 56 50.046875 50.171875 
Q 54.890625 44.34375 54.890625 33.015625 
z
" id="DejaVuSans-104"/>
      <path d="M 44.28125 53.078125 
L 44.28125 44.578125 
Q 40.484375 46.53125 36.375 47.5 
Q 32.28125 48.484375 27.875 48.484375 
Q 21.1875 48.484375 17.84375 46.4375 
Q 14.5 44.390625 14.5 40.28125 
Q 14.5 37.15625 16.890625 35.375 
Q 19.28125 33.59375 26.515625 31.984375 
L 29.59375 31.296875 
Q 39.15625 29.25 43.1875 25.515625 
Q 47.21875 21.78125 47.21875 15.09375 
Q 47.21875 7.46875 41.1875 3.015625 
Q 35.15625 -1.421875 24.609375 -1.421875 
Q 20.21875 -1.421875 15.453125 -0.5625 
Q 10.6875 0.296875 5.421875 2 
L 5.421875 11.28125 
Q 10.40625 8.6875 15.234375 7.390625 
Q 20.0625 6.109375 24.8125 6.109375 
Q 31.15625 6.109375 34.5625 8.28125 
Q 37.984375 10.453125 37.984375 14.40625 
Q 37.984375 18.0625 35.515625 20.015625 
Q 33.0625 21.96875 24.703125 23.78125 
L 21.578125 24.515625 
Q 13.234375 26.265625 9.515625 29.90625 
Q 5.8125 33.546875 5.8125 39.890625 
Q 5.8125 47.609375 11.28125 51.796875 
Q 16.75 56 26.8125 56 
Q 31.78125 56 36.171875 55.265625 
Q 40.578125 54.546875 44.28125 53.078125 
z
" id="DejaVuSans-115"/>
     </defs>
     <g transform="translate(291.284375 243.876562)scale(0.1 -0.1)">
      <use xlink:href="#DejaVuSans-69"/>
      <use x="63.183594" xlink:href="#DejaVuSans-112"/>
      <use x="126.660156" xlink:href="#DejaVuSans-111"/>
      <use x="187.841797" xlink:href="#DejaVuSans-99"/>
      <use x="242.822266" xlink:href="#DejaVuSans-104"/>
      <use x="306.201172" xlink:href="#DejaVuSans-115"/>
     </g>
    </g>
   </g>
   <g id="matplotlib.axis_2">
    <g id="ytick_1">
     <g id="line2d_7">
      <defs>
       <path d="M 0 0 
L -3.5 0 
" id="mc9cc8e927d" style="stroke:#000000;stroke-width:0.8;"/>
      </defs>
      <g>
       <use style="stroke:#000000;stroke-width:0.8;" x="47.8" xlink:href="#mc9cc8e927d" y="215.498685"/>
      </g>
     </g>
     <g id="text_8">
      <!-- 0.1 -->
      <defs>
       <path d="M 10.6875 12.40625 
L 21 12.40625 
L 21 0 
L 10.6875 0 
z
" id="DejaVuSans-46"/>
      </defs>
      <g transform="translate(24.896875 219.297904)scale(0.1 -0.1)">
       <use xlink:href="#DejaVuSans-48"/>
       <use x="63.623047" xlink:href="#DejaVuSans-46"/>
       <use x="95.410156" xlink:href="#DejaVuSans-49"/>
      </g>
     </g>
    </g>
    <g id="ytick_2">
     <g id="line2d_8">
      <g>
       <use style="stroke:#000000;stroke-width:0.8;" x="47.8" xlink:href="#mc9cc8e927d" y="190.482453"/>
      </g>
     </g>
     <g id="text_9">
      <!-- 0.2 -->
      <g transform="translate(24.896875 194.281672)scale(0.1 -0.1)">
       <use xlink:href="#DejaVuSans-48"/>
       <use x="63.623047" xlink:href="#DejaVuSans-46"/>
       <use x="95.410156" xlink:href="#DejaVuSans-50"/>
      </g>
     </g>
    </g>
    <g id="ytick_3">
     <g id="line2d_9">
      <g>
       <use style="stroke:#000000;stroke-width:0.8;" x="47.8" xlink:href="#mc9cc8e927d" y="165.466221"/>
      </g>
     </g>
     <g id="text_10">
      <!-- 0.3 -->
      <defs>
       <path d="M 40.578125 39.3125 
Q 47.65625 37.796875 51.625 33 
Q 55.609375 28.21875 55.609375 21.1875 
Q 55.609375 10.40625 48.1875 4.484375 
Q 40.765625 -1.421875 27.09375 -1.421875 
Q 22.515625 -1.421875 17.65625 -0.515625 
Q 12.796875 0.390625 7.625 2.203125 
L 7.625 11.71875 
Q 11.71875 9.328125 16.59375 8.109375 
Q 21.484375 6.890625 26.8125 6.890625 
Q 36.078125 6.890625 40.9375 10.546875 
Q 45.796875 14.203125 45.796875 21.1875 
Q 45.796875 27.640625 41.28125 31.265625 
Q 36.765625 34.90625 28.71875 34.90625 
L 20.21875 34.90625 
L 20.21875 43.015625 
L 29.109375 43.015625 
Q 36.375 43.015625 40.234375 45.921875 
Q 44.09375 48.828125 44.09375 54.296875 
Q 44.09375 59.90625 40.109375 62.90625 
Q 36.140625 65.921875 28.71875 65.921875 
Q 24.65625 65.921875 20.015625 65.03125 
Q 15.375 64.15625 9.8125 62.3125 
L 9.8125 71.09375 
Q 15.4375 72.65625 20.34375 73.4375 
Q 25.25 74.21875 29.59375 74.21875 
Q 40.828125 74.21875 47.359375 69.109375 
Q 53.90625 64.015625 53.90625 55.328125 
Q 53.90625 49.265625 50.4375 45.09375 
Q 46.96875 40.921875 40.578125 39.3125 
z
" id="DejaVuSans-51"/>
      </defs>
      <g transform="translate(24.896875 169.26544)scale(0.1 -0.1)">
       <use xlink:href="#DejaVuSans-48"/>
       <use x="63.623047" xlink:href="#DejaVuSans-46"/>
       <use x="95.410156" xlink:href="#DejaVuSans-51"/>
      </g>
     </g>
    </g>
    <g id="ytick_4">
     <g id="line2d_10">
      <g>
       <use style="stroke:#000000;stroke-width:0.8;" x="47.8" xlink:href="#mc9cc8e927d" y="140.44999"/>
      </g>
     </g>
     <g id="text_11">
      <!-- 0.4 -->
      <g transform="translate(24.896875 144.249208)scale(0.1 -0.1)">
       <use xlink:href="#DejaVuSans-48"/>
       <use x="63.623047" xlink:href="#DejaVuSans-46"/>
       <use x="95.410156" xlink:href="#DejaVuSans-52"/>
      </g>
     </g>
    </g>
    <g id="ytick_5">
     <g id="line2d_11">
      <g>
       <use style="stroke:#000000;stroke-width:0.8;" x="47.8" xlink:href="#mc9cc8e927d" y="115.433758"/>
      </g>
     </g>
     <g id="text_12">
      <!-- 0.5 -->
      <defs>
       <path d="M 10.796875 72.90625 
L 49.515625 72.90625 
L 49.515625 64.59375 
L 19.828125 64.59375 
L 19.828125 46.734375 
Q 21.96875 47.46875 24.109375 47.828125 
Q 26.265625 48.1875 28.421875 48.1875 
Q 40.625 48.1875 47.75 41.5 
Q 54.890625 34.8125 54.890625 23.390625 
Q 54.890625 11.625 47.5625 5.09375 
Q 40.234375 -1.421875 26.90625 -1.421875 
Q 22.3125 -1.421875 17.546875 -0.640625 
Q 12.796875 0.140625 7.71875 1.703125 
L 7.71875 11.625 
Q 12.109375 9.234375 16.796875 8.0625 
Q 21.484375 6.890625 26.703125 6.890625 
Q 35.15625 6.890625 40.078125 11.328125 
Q 45.015625 15.765625 45.015625 23.390625 
Q 45.015625 31 40.078125 35.4375 
Q 35.15625 39.890625 26.703125 39.890625 
Q 22.75 39.890625 18.8125 39.015625 
Q 14.890625 38.140625 10.796875 36.28125 
z
" id="DejaVuSans-53"/>
      </defs>
      <g transform="translate(24.896875 119.232977)scale(0.1 -0.1)">
       <use xlink:href="#DejaVuSans-48"/>
       <use x="63.623047" xlink:href="#DejaVuSans-46"/>
       <use x="95.410156" xlink:href="#DejaVuSans-53"/>
      </g>
     </g>
    </g>
    <g id="ytick_6">
     <g id="line2d_12">
      <g>
       <use style="stroke:#000000;stroke-width:0.8;" x="47.8" xlink:href="#mc9cc8e927d" y="90.417526"/>
      </g>
     </g>
     <g id="text_13">
      <!-- 0.6 -->
      <g transform="translate(24.896875 94.216745)scale(0.1 -0.1)">
       <use xlink:href="#DejaVuSans-48"/>
       <use x="63.623047" xlink:href="#DejaVuSans-46"/>
       <use x="95.410156" xlink:href="#DejaVuSans-54"/>
      </g>
     </g>
    </g>
    <g id="ytick_7">
     <g id="line2d_13">
      <g>
       <use style="stroke:#000000;stroke-width:0.8;" x="47.8" xlink:href="#mc9cc8e927d" y="65.401294"/>
      </g>
     </g>
     <g id="text_14">
      <!-- 0.7 -->
      <defs>
       <path d="M 8.203125 72.90625 
L 55.078125 72.90625 
L 55.078125 68.703125 
L 28.609375 0 
L 18.3125 0 
L 43.21875 64.59375 
L 8.203125 64.59375 
z
" id="DejaVuSans-55"/>
      </defs>
      <g transform="translate(24.896875 69.200513)scale(0.1 -0.1)">
       <use xlink:href="#DejaVuSans-48"/>
       <use x="63.623047" xlink:href="#DejaVuSans-46"/>
       <use x="95.410156" xlink:href="#DejaVuSans-55"/>
      </g>
     </g>
    </g>
    <g id="ytick_8">
     <g id="line2d_14">
      <g>
       <use style="stroke:#000000;stroke-width:0.8;" x="47.8" xlink:href="#mc9cc8e927d" y="40.385063"/>
      </g>
     </g>
     <g id="text_15">
      <!-- 0.8 -->
      <g transform="translate(24.896875 44.184281)scale(0.1 -0.1)">
       <use xlink:href="#DejaVuSans-48"/>
       <use x="63.623047" xlink:href="#DejaVuSans-46"/>
       <use x="95.410156" xlink:href="#DejaVuSans-56"/>
      </g>
     </g>
    </g>
    <g id="text_16">
     <!-- Validation accuracy -->
     <defs>
      <path d="M 28.609375 0 
L 0.78125 72.90625 
L 11.078125 72.90625 
L 34.1875 11.53125 
L 57.328125 72.90625 
L 67.578125 72.90625 
L 39.796875 0 
z
" id="DejaVuSans-86"/>
      <path d="M 34.28125 27.484375 
Q 23.390625 27.484375 19.1875 25 
Q 14.984375 22.515625 14.984375 16.5 
Q 14.984375 11.71875 18.140625 8.90625 
Q 21.296875 6.109375 26.703125 6.109375 
Q 34.1875 6.109375 38.703125 11.40625 
Q 43.21875 16.703125 43.21875 25.484375 
L 43.21875 27.484375 
z
M 52.203125 31.203125 
L 52.203125 0 
L 43.21875 0 
L 43.21875 8.296875 
Q 40.140625 3.328125 35.546875 0.953125 
Q 30.953125 -1.421875 24.3125 -1.421875 
Q 15.921875 -1.421875 10.953125 3.296875 
Q 6 8.015625 6 15.921875 
Q 6 25.140625 12.171875 29.828125 
Q 18.359375 34.515625 30.609375 34.515625 
L 43.21875 34.515625 
L 43.21875 35.40625 
Q 43.21875 41.609375 39.140625 45 
Q 35.0625 48.390625 27.6875 48.390625 
Q 23 48.390625 18.546875 47.265625 
Q 14.109375 46.140625 10.015625 43.890625 
L 10.015625 52.203125 
Q 14.9375 54.109375 19.578125 55.046875 
Q 24.21875 56 28.609375 56 
Q 40.484375 56 46.34375 49.84375 
Q 52.203125 43.703125 52.203125 31.203125 
z
" id="DejaVuSans-97"/>
      <path d="M 9.421875 75.984375 
L 18.40625 75.984375 
L 18.40625 0 
L 9.421875 0 
z
" id="DejaVuSans-108"/>
      <path d="M 9.421875 54.6875 
L 18.40625 54.6875 
L 18.40625 0 
L 9.421875 0 
z
M 9.421875 75.984375 
L 18.40625 75.984375 
L 18.40625 64.59375 
L 9.421875 64.59375 
z
" id="DejaVuSans-105"/>
      <path d="M 45.40625 46.390625 
L 45.40625 75.984375 
L 54.390625 75.984375 
L 54.390625 0 
L 45.40625 0 
L 45.40625 8.203125 
Q 42.578125 3.328125 38.25 0.953125 
Q 33.9375 -1.421875 27.875 -1.421875 
Q 17.96875 -1.421875 11.734375 6.484375 
Q 5.515625 14.40625 5.515625 27.296875 
Q 5.515625 40.1875 11.734375 48.09375 
Q 17.96875 56 27.875 56 
Q 33.9375 56 38.25 53.625 
Q 42.578125 51.265625 45.40625 46.390625 
z
M 14.796875 27.296875 
Q 14.796875 17.390625 18.875 11.75 
Q 22.953125 6.109375 30.078125 6.109375 
Q 37.203125 6.109375 41.296875 11.75 
Q 45.40625 17.390625 45.40625 27.296875 
Q 45.40625 37.203125 41.296875 42.84375 
Q 37.203125 48.484375 30.078125 48.484375 
Q 22.953125 48.484375 18.875 42.84375 
Q 14.796875 37.203125 14.796875 27.296875 
z
" id="DejaVuSans-100"/>
      <path d="M 18.3125 70.21875 
L 18.3125 54.6875 
L 36.8125 54.6875 
L 36.8125 47.703125 
L 18.3125 47.703125 
L 18.3125 18.015625 
Q 18.3125 11.328125 20.140625 9.421875 
Q 21.96875 7.515625 27.59375 7.515625 
L 36.8125 7.515625 
L 36.8125 0 
L 27.59375 0 
Q 17.1875 0 13.234375 3.875 
Q 9.28125 7.765625 9.28125 18.015625 
L 9.28125 47.703125 
L 2.6875 47.703125 
L 2.6875 54.6875 
L 9.28125 54.6875 
L 9.28125 70.21875 
z
" id="DejaVuSans-116"/>
      <path d="M 54.890625 33.015625 
L 54.890625 0 
L 45.90625 0 
L 45.90625 32.71875 
Q 45.90625 40.484375 42.875 44.328125 
Q 39.84375 48.1875 33.796875 48.1875 
Q 26.515625 48.1875 22.3125 43.546875 
Q 18.109375 38.921875 18.109375 30.90625 
L 18.109375 0 
L 9.078125 0 
L 9.078125 54.6875 
L 18.109375 54.6875 
L 18.109375 46.1875 
Q 21.34375 51.125 25.703125 53.5625 
Q 30.078125 56 35.796875 56 
Q 45.21875 56 50.046875 50.171875 
Q 54.890625 44.34375 54.890625 33.015625 
z
" id="DejaVuSans-110"/>
      <path id="DejaVuSans-32"/>
      <path d="M 8.5 21.578125 
L 8.5 54.6875 
L 17.484375 54.6875 
L 17.484375 21.921875 
Q 17.484375 14.15625 20.5 10.265625 
Q 23.53125 6.390625 29.59375 6.390625 
Q 36.859375 6.390625 41.078125 11.03125 
Q 45.3125 15.671875 45.3125 23.6875 
L 45.3125 54.6875 
L 54.296875 54.6875 
L 54.296875 0 
L 45.3125 0 
L 45.3125 8.40625 
Q 42.046875 3.421875 37.71875 1 
Q 33.40625 -1.421875 27.6875 -1.421875 
Q 18.265625 -1.421875 13.375 4.4375 
Q 8.5 10.296875 8.5 21.578125 
z
M 31.109375 56 
z
" id="DejaVuSans-117"/>
      <path d="M 41.109375 46.296875 
Q 39.59375 47.171875 37.8125 47.578125 
Q 36.03125 48 33.890625 48 
Q 26.265625 48 22.1875 43.046875 
Q 18.109375 38.09375 18.109375 28.8125 
L 18.109375 0 
L 9.078125 0 
L 9.078125 54.6875 
L 18.109375 54.6875 
L 18.109375 46.1875 
Q 20.953125 51.171875 25.484375 53.578125 
Q 30.03125 56 36.53125 56 
Q 37.453125 56 38.578125 55.875 
Q 39.703125 55.765625 41.0625 55.515625 
z
" id="DejaVuSans-114"/>
      <path d="M 32.171875 -5.078125 
Q 28.375 -14.84375 24.75 -17.8125 
Q 21.140625 -20.796875 15.09375 -20.796875 
L 7.90625 -20.796875 
L 7.90625 -13.28125 
L 13.1875 -13.28125 
Q 16.890625 -13.28125 18.9375 -11.515625 
Q 21 -9.765625 23.484375 -3.21875 
L 25.09375 0.875 
L 2.984375 54.6875 
L 12.5 54.6875 
L 29.59375 11.921875 
L 46.6875 54.6875 
L 56.203125 54.6875 
z
" id="DejaVuSans-121"/>
     </defs>
     <g transform="translate(18.817188 170.039062)rotate(-90)scale(0.1 -0.1)">
      <use xlink:href="#DejaVuSans-86"/>
      <use x="60.658203" xlink:href="#DejaVuSans-97"/>
      <use x="121.9375" xlink:href="#DejaVuSans-108"/>
      <use x="149.720703" xlink:href="#DejaVuSans-105"/>
      <use x="177.503906" xlink:href="#DejaVuSans-100"/>
      <use x="240.980469" xlink:href="#DejaVuSans-97"/>
      <use x="302.259766" xlink:href="#DejaVuSans-116"/>
      <use x="341.46875" xlink:href="#DejaVuSans-105"/>
      <use x="369.251953" xlink:href="#DejaVuSans-111"/>
      <use x="430.433594" xlink:href="#DejaVuSans-110"/>
      <use x="493.8125" xlink:href="#DejaVuSans-32"/>
      <use x="525.599609" xlink:href="#DejaVuSans-97"/>
      <use x="586.878906" xlink:href="#DejaVuSans-99"/>
      <use x="641.859375" xlink:href="#DejaVuSans-99"/>
      <use x="696.839844" xlink:href="#DejaVuSans-117"/>
      <use x="760.21875" xlink:href="#DejaVuSans-114"/>
      <use x="801.332031" xlink:href="#DejaVuSans-97"/>
      <use x="862.611328" xlink:href="#DejaVuSans-99"/>
      <use x="917.591797" xlink:href="#DejaVuSans-121"/>
     </g>
    </g>
   </g>
   <g id="line2d_15">
    <path clip-path="url(#p92da9c4534)" d="M 71.563636 200.839172 
L 76.364371 207.018182 
L 81.165106 202.590308 
L 85.96584 206.267697 
L 90.766575 205.942484 
L 95.567309 206.142614 
L 100.368044 202.390179 
L 105.168779 200.038654 
L 109.969513 186.404808 
L 114.770248 181.20143 
L 119.570983 193.284269 
L 124.371717 190.357373 
L 129.172452 184.32846 
L 133.973186 188.606237 
L 138.773921 173.82164 
L 143.574656 155.834974 
L 148.37539 166.942182 
L 153.176125 139.599437 
L 157.97686 145.002945 
L 162.777594 141.500673 
L 167.578329 135.19658 
L 172.379063 109.880157 
L 177.179798 140.950314 
L 181.980533 117.159881 
L 186.781267 110.855788 
L 191.582002 111.681327 
L 196.382736 105.377234 
L 201.183471 110.505563 
L 205.984206 98.772941 
L 210.78494 96.121228 
L 215.585675 85.664438 
L 220.38641 90.792766 
L 225.187144 83.66315 
L 229.987879 82.537412 
L 234.788613 66.251841 
L 239.589348 83.863268 
L 244.390083 91.293099 
L 249.190817 78.084529 
L 253.991552 67.252493 
L 258.792287 67.027354 
L 263.593021 71.855483 
L 268.393756 82.937678 
L 273.19449 77.183944 
L 277.995225 69.503954 
L 282.79596 58.146594 
L 287.596694 63.475041 
L 292.397429 64.100446 
L 297.198163 60.548148 
L 301.998898 60.02281 
L 306.799633 57.496169 
L 311.600367 58.296687 
L 316.401102 57.120922 
L 321.201837 58.4718 
L 326.002571 56.64561 
L 330.803306 52.743086 
L 335.60404 62.149184 
L 340.404775 56.220338 
L 345.20551 59.072184 
L 350.006244 60.072836 
L 354.806979 52.492912 
L 359.607713 62.349318 
L 364.408448 49.716112 
L 369.209183 49.415927 
L 374.009917 53.718717 
L 378.810652 47.089419 
L 383.611387 45.863614 
L 388.412121 45.263229 
L 393.212856 63.425015 
L 398.01359 55.895132 
L 402.814325 48.365235 
L 407.61506 54.494215 
L 412.415794 46.989352 
L 417.216529 44.087465 
L 422.017264 50.091358 
L 426.817998 46.338927 
L 431.618733 46.614106 
L 436.419467 49.29084 
L 441.220202 42.736588 
L 446.020937 42.061157 
L 450.821671 44.462711 
L 455.622406 47.014358 
L 460.42314 47.389604 
L 465.223875 47.214491 
L 470.02461 45.238209 
L 474.825344 41.510798 
L 479.626079 41.660891 
L 484.426814 39.259336 
L 489.227548 37.908459 
L 494.028283 45.01307 
L 498.829017 40.885393 
L 503.629752 41.085511 
L 508.430487 56.94581 
L 513.231221 40.660239 
L 518.031956 40.735285 
L 522.832691 38.708977 
L 527.633425 46.338927 
L 532.43416 46.313906 
L 537.234894 35.907157 
L 542.035629 42.086162 
L 546.836364 39.234316 
" style="fill:none;stroke:#0000ff;stroke-linecap:square;stroke-width:1.5;"/>
   </g>
   <g id="line2d_16">
    <path clip-path="url(#p92da9c4534)" d="M 71.563636 192.984077 
L 76.364371 190.407406 
L 81.165106 171.695265 
L 85.96584 173.221255 
L 90.766575 165.666352 
L 95.567309 155.309628 
L 100.368044 143.026663 
L 105.168779 145.50327 
L 109.969513 125.090023 
L 114.770248 125.715428 
L 119.570983 116.484443 
L 124.371717 115.483791 
L 129.172452 102.575413 
L 133.973186 98.772941 
L 138.773921 95.270669 
L 143.574656 111.180994 
L 148.37539 98.522782 
L 153.176125 91.468212 
L 157.97686 98.37269 
L 162.777594 89.19173 
L 167.578329 86.014663 
L 172.379063 78.584847 
L 177.179798 86.890243 
L 181.980533 81.511755 
L 186.781267 82.737545 
L 191.582002 74.207011 
L 196.382736 72.781088 
L 201.183471 70.904872 
L 205.984206 75.157621 
L 210.78494 69.8792 
L 215.585675 70.804805 
L 220.38641 68.028005 
L 225.187144 66.552041 
L 229.987879 65.87661 
L 234.788613 64.225533 
L 239.589348 66.051723 
L 244.390083 63.850287 
L 249.190817 61.323646 
L 253.991552 62.074138 
L 258.792287 61.623846 
L 263.593021 59.197271 
L 268.393756 64.925985 
L 273.19449 58.096553 
L 277.995225 55.044574 
L 282.79596 55.069594 
L 287.596694 57.946461 
L 292.397429 55.945158 
L 297.198163 55.845092 
L 301.998898 54.794415 
L 306.799633 54.19403 
L 311.600367 53.468558 
L 316.401102 50.791809 
L 321.201837 53.86881 
L 326.002571 50.641717 
L 330.803306 48.190122 
L 335.60404 48.365235 
L 340.404775 47.414624 
L 345.20551 48.565368 
L 350.006244 48.015009 
L 354.806979 49.165753 
L 359.607713 49.566019 
L 364.408448 44.913004 
L 369.209183 45.313255 
L 374.009917 45.413322 
L 378.810652 47.514691 
L 383.611387 42.686562 
L 388.412121 44.71287 
L 393.212856 44.262578 
L 398.01359 43.46206 
L 402.814325 43.787265 
L 407.61506 47.76485 
L 412.415794 42.636521 
L 417.216529 42.036137 
L 422.017264 44.362645 
L 426.817998 43.211901 
L 431.618733 42.961742 
L 436.419467 40.360039 
L 441.220202 41.760957 
L 446.020937 38.58389 
L 450.821671 41.285644 
L 455.622406 39.309362 
L 460.42314 40.610213 
L 465.223875 42.561475 
L 470.02461 37.258034 
L 474.825344 42.111183 
L 479.626079 38.333731 
L 484.426814 37.858419 
L 489.227548 37.458167 
L 494.028283 38.483824 
L 498.829017 42.736588 
L 503.629752 37.583239 
L 508.430487 38.408778 
L 513.231221 37.283054 
L 518.031956 40.585193 
L 522.832691 39.034183 
L 527.633425 39.234316 
L 532.43416 35.381818 
L 537.234894 36.007223 
L 542.035629 36.282403 
L 546.836364 36.057249 
" style="fill:none;stroke:#ff0000;stroke-linecap:square;stroke-width:1.5;"/>
   </g>
   <g id="patch_3">
    <path d="M 47.8 215.6 
L 47.8 26.8 
" style="fill:none;stroke:#000000;stroke-linecap:square;stroke-linejoin:miter;stroke-width:0.8;"/>
   </g>
   <g id="patch_4">
    <path d="M 570.6 215.6 
L 570.6 26.8 
" style="fill:none;stroke:#000000;stroke-linecap:square;stroke-linejoin:miter;stroke-width:0.8;"/>
   </g>
   <g id="patch_5">
    <path d="M 47.8 215.6 
L 570.6 215.6 
" style="fill:none;stroke:#000000;stroke-linecap:square;stroke-linejoin:miter;stroke-width:0.8;"/>
   </g>
   <g id="patch_6">
    <path d="M 47.8 26.8 
L 570.6 26.8 
" style="fill:none;stroke:#000000;stroke-linecap:square;stroke-linejoin:miter;stroke-width:0.8;"/>
   </g>
   <g id="text_17">
    <!-- Accuracy for 40% weights watermarked -->
    <defs>
     <path d="M 34.1875 63.1875 
L 20.796875 26.90625 
L 47.609375 26.90625 
z
M 28.609375 72.90625 
L 39.796875 72.90625 
L 67.578125 0 
L 57.328125 0 
L 50.6875 18.703125 
L 17.828125 18.703125 
L 11.1875 0 
L 0.78125 0 
z
" id="DejaVuSans-65"/>
     <path d="M 37.109375 75.984375 
L 37.109375 68.5 
L 28.515625 68.5 
Q 23.6875 68.5 21.796875 66.546875 
Q 19.921875 64.59375 19.921875 59.515625 
L 19.921875 54.6875 
L 34.71875 54.6875 
L 34.71875 47.703125 
L 19.921875 47.703125 
L 19.921875 0 
L 10.890625 0 
L 10.890625 47.703125 
L 2.296875 47.703125 
L 2.296875 54.6875 
L 10.890625 54.6875 
L 10.890625 58.5 
Q 10.890625 67.625 15.140625 71.796875 
Q 19.390625 75.984375 28.609375 75.984375 
z
" id="DejaVuSans-102"/>
     <path d="M 72.703125 32.078125 
Q 68.453125 32.078125 66.03125 28.46875 
Q 63.625 24.859375 63.625 18.40625 
Q 63.625 12.0625 66.03125 8.421875 
Q 68.453125 4.78125 72.703125 4.78125 
Q 76.859375 4.78125 79.265625 8.421875 
Q 81.6875 12.0625 81.6875 18.40625 
Q 81.6875 24.8125 79.265625 28.4375 
Q 76.859375 32.078125 72.703125 32.078125 
z
M 72.703125 38.28125 
Q 80.421875 38.28125 84.953125 32.90625 
Q 89.5 27.546875 89.5 18.40625 
Q 89.5 9.28125 84.9375 3.921875 
Q 80.375 -1.421875 72.703125 -1.421875 
Q 64.890625 -1.421875 60.34375 3.921875 
Q 55.8125 9.28125 55.8125 18.40625 
Q 55.8125 27.59375 60.375 32.9375 
Q 64.9375 38.28125 72.703125 38.28125 
z
M 22.3125 68.015625 
Q 18.109375 68.015625 15.6875 64.375 
Q 13.28125 60.75 13.28125 54.390625 
Q 13.28125 47.953125 15.671875 44.328125 
Q 18.0625 40.71875 22.3125 40.71875 
Q 26.5625 40.71875 28.96875 44.328125 
Q 31.390625 47.953125 31.390625 54.390625 
Q 31.390625 60.6875 28.953125 64.34375 
Q 26.515625 68.015625 22.3125 68.015625 
z
M 66.40625 74.21875 
L 74.21875 74.21875 
L 28.609375 -1.421875 
L 20.796875 -1.421875 
z
M 22.3125 74.21875 
Q 30.03125 74.21875 34.609375 68.875 
Q 39.203125 63.53125 39.203125 54.390625 
Q 39.203125 45.171875 34.640625 39.84375 
Q 30.078125 34.515625 22.3125 34.515625 
Q 14.546875 34.515625 10.03125 39.859375 
Q 5.515625 45.21875 5.515625 54.390625 
Q 5.515625 63.484375 10.046875 68.84375 
Q 14.59375 74.21875 22.3125 74.21875 
z
" id="DejaVuSans-37"/>
     <path d="M 4.203125 54.6875 
L 13.1875 54.6875 
L 24.421875 12.015625 
L 35.59375 54.6875 
L 46.1875 54.6875 
L 57.421875 12.015625 
L 68.609375 54.6875 
L 77.59375 54.6875 
L 63.28125 0 
L 52.6875 0 
L 40.921875 44.828125 
L 29.109375 0 
L 18.5 0 
z
" id="DejaVuSans-119"/>
     <path d="M 56.203125 29.59375 
L 56.203125 25.203125 
L 14.890625 25.203125 
Q 15.484375 15.921875 20.484375 11.0625 
Q 25.484375 6.203125 34.421875 6.203125 
Q 39.59375 6.203125 44.453125 7.46875 
Q 49.3125 8.734375 54.109375 11.28125 
L 54.109375 2.78125 
Q 49.265625 0.734375 44.1875 -0.34375 
Q 39.109375 -1.421875 33.890625 -1.421875 
Q 20.796875 -1.421875 13.15625 6.1875 
Q 5.515625 13.8125 5.515625 26.8125 
Q 5.515625 40.234375 12.765625 48.109375 
Q 20.015625 56 32.328125 56 
Q 43.359375 56 49.78125 48.890625 
Q 56.203125 41.796875 56.203125 29.59375 
z
M 47.21875 32.234375 
Q 47.125 39.59375 43.09375 43.984375 
Q 39.0625 48.390625 32.421875 48.390625 
Q 24.90625 48.390625 20.390625 44.140625 
Q 15.875 39.890625 15.1875 32.171875 
z
" id="DejaVuSans-101"/>
     <path d="M 45.40625 27.984375 
Q 45.40625 37.75 41.375 43.109375 
Q 37.359375 48.484375 30.078125 48.484375 
Q 22.859375 48.484375 18.828125 43.109375 
Q 14.796875 37.75 14.796875 27.984375 
Q 14.796875 18.265625 18.828125 12.890625 
Q 22.859375 7.515625 30.078125 7.515625 
Q 37.359375 7.515625 41.375 12.890625 
Q 45.40625 18.265625 45.40625 27.984375 
z
M 54.390625 6.78125 
Q 54.390625 -7.171875 48.1875 -13.984375 
Q 42 -20.796875 29.203125 -20.796875 
Q 24.46875 -20.796875 20.265625 -20.09375 
Q 16.0625 -19.390625 12.109375 -17.921875 
L 12.109375 -9.1875 
Q 16.0625 -11.328125 19.921875 -12.34375 
Q 23.78125 -13.375 27.78125 -13.375 
Q 36.625 -13.375 41.015625 -8.765625 
Q 45.40625 -4.15625 45.40625 5.171875 
L 45.40625 9.625 
Q 42.625 4.78125 38.28125 2.390625 
Q 33.9375 0 27.875 0 
Q 17.828125 0 11.671875 7.65625 
Q 5.515625 15.328125 5.515625 27.984375 
Q 5.515625 40.671875 11.671875 48.328125 
Q 17.828125 56 27.875 56 
Q 33.9375 56 38.28125 53.609375 
Q 42.625 51.21875 45.40625 46.390625 
L 45.40625 54.6875 
L 54.390625 54.6875 
z
" id="DejaVuSans-103"/>
     <path d="M 52 44.1875 
Q 55.375 50.25 60.0625 53.125 
Q 64.75 56 71.09375 56 
Q 79.640625 56 84.28125 50.015625 
Q 88.921875 44.046875 88.921875 33.015625 
L 88.921875 0 
L 79.890625 0 
L 79.890625 32.71875 
Q 79.890625 40.578125 77.09375 44.375 
Q 74.3125 48.1875 68.609375 48.1875 
Q 61.625 48.1875 57.5625 43.546875 
Q 53.515625 38.921875 53.515625 30.90625 
L 53.515625 0 
L 44.484375 0 
L 44.484375 32.71875 
Q 44.484375 40.625 41.703125 44.40625 
Q 38.921875 48.1875 33.109375 48.1875 
Q 26.21875 48.1875 22.15625 43.53125 
Q 18.109375 38.875 18.109375 30.90625 
L 18.109375 0 
L 9.078125 0 
L 9.078125 54.6875 
L 18.109375 54.6875 
L 18.109375 46.1875 
Q 21.1875 51.21875 25.484375 53.609375 
Q 29.78125 56 35.6875 56 
Q 41.65625 56 45.828125 52.96875 
Q 50 49.953125 52 44.1875 
z
" id="DejaVuSans-109"/>
     <path d="M 9.078125 75.984375 
L 18.109375 75.984375 
L 18.109375 31.109375 
L 44.921875 54.6875 
L 56.390625 54.6875 
L 27.390625 29.109375 
L 57.625 0 
L 45.90625 0 
L 18.109375 26.703125 
L 18.109375 0 
L 9.078125 0 
z
" id="DejaVuSans-107"/>
    </defs>
    <g transform="translate(189.502813 20.8)scale(0.12 -0.12)">
     <use xlink:href="#DejaVuSans-65"/>
     <use x="66.658203" xlink:href="#DejaVuSans-99"/>
     <use x="121.638672" xlink:href="#DejaVuSans-99"/>
     <use x="176.619141" xlink:href="#DejaVuSans-117"/>
     <use x="239.998047" xlink:href="#DejaVuSans-114"/>
     <use x="281.111328" xlink:href="#DejaVuSans-97"/>
     <use x="342.390625" xlink:href="#DejaVuSans-99"/>
     <use x="397.371094" xlink:href="#DejaVuSans-121"/>
     <use x="456.550781" xlink:href="#DejaVuSans-32"/>
     <use x="488.337891" xlink:href="#DejaVuSans-102"/>
     <use x="523.542969" xlink:href="#DejaVuSans-111"/>
     <use x="584.724609" xlink:href="#DejaVuSans-114"/>
     <use x="625.837891" xlink:href="#DejaVuSans-32"/>
     <use x="657.625" xlink:href="#DejaVuSans-52"/>
     <use x="721.248047" xlink:href="#DejaVuSans-48"/>
     <use x="784.871094" xlink:href="#DejaVuSans-37"/>
     <use x="879.890625" xlink:href="#DejaVuSans-32"/>
     <use x="911.677734" xlink:href="#DejaVuSans-119"/>
     <use x="993.464844" xlink:href="#DejaVuSans-101"/>
     <use x="1054.988281" xlink:href="#DejaVuSans-105"/>
     <use x="1082.771484" xlink:href="#DejaVuSans-103"/>
     <use x="1146.248047" xlink:href="#DejaVuSans-104"/>
     <use x="1209.626953" xlink:href="#DejaVuSans-116"/>
     <use x="1248.835938" xlink:href="#DejaVuSans-115"/>
     <use x="1300.935547" xlink:href="#DejaVuSans-32"/>
     <use x="1332.722656" xlink:href="#DejaVuSans-119"/>
     <use x="1414.509766" xlink:href="#DejaVuSans-97"/>
     <use x="1475.789062" xlink:href="#DejaVuSans-116"/>
     <use x="1514.998047" xlink:href="#DejaVuSans-101"/>
     <use x="1576.521484" xlink:href="#DejaVuSans-114"/>
     <use x="1615.884766" xlink:href="#DejaVuSans-109"/>
     <use x="1713.296875" xlink:href="#DejaVuSans-97"/>
     <use x="1774.576172" xlink:href="#DejaVuSans-114"/>
     <use x="1815.689453" xlink:href="#DejaVuSans-107"/>
     <use x="1869.974609" xlink:href="#DejaVuSans-101"/>
     <use x="1931.498047" xlink:href="#DejaVuSans-100"/>
    </g>
   </g>
   <g id="legend_1">
    <g id="patch_7">
     <path d="M 54.8 64.15625 
L 192.576563 64.15625 
Q 194.576563 64.15625 194.576563 62.15625 
L 194.576563 33.8 
Q 194.576563 31.8 192.576563 31.8 
L 54.8 31.8 
Q 52.8 31.8 52.8 33.8 
L 52.8 62.15625 
Q 52.8 64.15625 54.8 64.15625 
z
" style="fill:#ffffff;opacity:0.8;stroke:#cccccc;stroke-linejoin:miter;"/>
    </g>
    <g id="line2d_17">
     <path d="M 56.8 39.898437 
L 76.8 39.898437 
" style="fill:none;stroke:#0000ff;stroke-linecap:square;stroke-width:1.5;"/>
    </g>
    <g id="line2d_18"/>
    <g id="text_18">
     <!-- Training from scratch -->
     <defs>
      <path d="M -0.296875 72.90625 
L 61.375 72.90625 
L 61.375 64.59375 
L 35.5 64.59375 
L 35.5 0 
L 25.59375 0 
L 25.59375 64.59375 
L -0.296875 64.59375 
z
" id="DejaVuSans-84"/>
     </defs>
     <g transform="translate(84.8 43.398437)scale(0.1 -0.1)">
      <use xlink:href="#DejaVuSans-84"/>
      <use x="46.333984" xlink:href="#DejaVuSans-114"/>
      <use x="87.447266" xlink:href="#DejaVuSans-97"/>
      <use x="148.726562" xlink:href="#DejaVuSans-105"/>
      <use x="176.509766" xlink:href="#DejaVuSans-110"/>
      <use x="239.888672" xlink:href="#DejaVuSans-105"/>
      <use x="267.671875" xlink:href="#DejaVuSans-110"/>
      <use x="331.050781" xlink:href="#DejaVuSans-103"/>
      <use x="394.527344" xlink:href="#DejaVuSans-32"/>
      <use x="426.314453" xlink:href="#DejaVuSans-102"/>
      <use x="461.519531" xlink:href="#DejaVuSans-114"/>
      <use x="500.382812" xlink:href="#DejaVuSans-111"/>
      <use x="561.564453" xlink:href="#DejaVuSans-109"/>
      <use x="658.976562" xlink:href="#DejaVuSans-32"/>
      <use x="690.763672" xlink:href="#DejaVuSans-115"/>
      <use x="742.863281" xlink:href="#DejaVuSans-99"/>
      <use x="797.84375" xlink:href="#DejaVuSans-114"/>
      <use x="838.957031" xlink:href="#DejaVuSans-97"/>
      <use x="900.236328" xlink:href="#DejaVuSans-116"/>
      <use x="939.445312" xlink:href="#DejaVuSans-99"/>
      <use x="994.425781" xlink:href="#DejaVuSans-104"/>
     </g>
    </g>
    <g id="line2d_19">
     <path d="M 56.8 54.576562 
L 76.8 54.576562 
" style="fill:none;stroke:#ff0000;stroke-linecap:square;stroke-width:1.5;"/>
    </g>
    <g id="line2d_20"/>
    <g id="text_19">
     <!-- Transfer attack -->
     <g transform="translate(84.8 58.076562)scale(0.1 -0.1)">
      <use xlink:href="#DejaVuSans-84"/>
      <use x="46.333984" xlink:href="#DejaVuSans-114"/>
      <use x="87.447266" xlink:href="#DejaVuSans-97"/>
      <use x="148.726562" xlink:href="#DejaVuSans-110"/>
      <use x="212.105469" xlink:href="#DejaVuSans-115"/>
      <use x="264.205078" xlink:href="#DejaVuSans-102"/>
      <use x="299.410156" xlink:href="#DejaVuSans-101"/>
      <use x="360.933594" xlink:href="#DejaVuSans-114"/>
      <use x="402.046875" xlink:href="#DejaVuSans-32"/>
      <use x="433.833984" xlink:href="#DejaVuSans-97"/>
      <use x="495.113281" xlink:href="#DejaVuSans-116"/>
      <use x="534.322266" xlink:href="#DejaVuSans-116"/>
      <use x="573.53125" xlink:href="#DejaVuSans-97"/>
      <use x="634.810547" xlink:href="#DejaVuSans-99"/>
      <use x="689.791016" xlink:href="#DejaVuSans-107"/>
     </g>
    </g>
   </g>
  </g>
  <g id="axes_2">
   <g id="patch_8">
    <path d="M 618.4 215.6 
L 1141.2 215.6 
L 1141.2 26.8 
L 618.4 26.8 
z
" style="fill:#ffffff;"/>
   </g>
   <g id="matplotlib.axis_3">
    <g id="xtick_7">
     <g id="line2d_21">
      <g>
       <use style="stroke:#000000;stroke-width:0.8;" x="637.362902" xlink:href="#m78ab7f4616" y="215.6"/>
      </g>
     </g>
     <g id="text_20">
      <!-- 0 -->
      <g transform="translate(634.181652 230.198437)scale(0.1 -0.1)">
       <use xlink:href="#DejaVuSans-48"/>
      </g>
     </g>
    </g>
    <g id="xtick_8">
     <g id="line2d_22">
      <g>
       <use style="stroke:#000000;stroke-width:0.8;" x="733.377594" xlink:href="#m78ab7f4616" y="215.6"/>
      </g>
     </g>
     <g id="text_21">
      <!-- 20 -->
      <g transform="translate(727.015094 230.198437)scale(0.1 -0.1)">
       <use xlink:href="#DejaVuSans-50"/>
       <use x="63.623047" xlink:href="#DejaVuSans-48"/>
      </g>
     </g>
    </g>
    <g id="xtick_9">
     <g id="line2d_23">
      <g>
       <use style="stroke:#000000;stroke-width:0.8;" x="829.392287" xlink:href="#m78ab7f4616" y="215.6"/>
      </g>
     </g>
     <g id="text_22">
      <!-- 40 -->
      <g transform="translate(823.029787 230.198437)scale(0.1 -0.1)">
       <use xlink:href="#DejaVuSans-52"/>
       <use x="63.623047" xlink:href="#DejaVuSans-48"/>
      </g>
     </g>
    </g>
    <g id="xtick_10">
     <g id="line2d_24">
      <g>
       <use style="stroke:#000000;stroke-width:0.8;" x="925.406979" xlink:href="#m78ab7f4616" y="215.6"/>
      </g>
     </g>
     <g id="text_23">
      <!-- 60 -->
      <g transform="translate(919.044479 230.198437)scale(0.1 -0.1)">
       <use xlink:href="#DejaVuSans-54"/>
       <use x="63.623047" xlink:href="#DejaVuSans-48"/>
      </g>
     </g>
    </g>
    <g id="xtick_11">
     <g id="line2d_25">
      <g>
       <use style="stroke:#000000;stroke-width:0.8;" x="1021.421671" xlink:href="#m78ab7f4616" y="215.6"/>
      </g>
     </g>
     <g id="text_24">
      <!-- 80 -->
      <g transform="translate(1015.059171 230.198437)scale(0.1 -0.1)">
       <use xlink:href="#DejaVuSans-56"/>
       <use x="63.623047" xlink:href="#DejaVuSans-48"/>
      </g>
     </g>
    </g>
    <g id="xtick_12">
     <g id="line2d_26">
      <g>
       <use style="stroke:#000000;stroke-width:0.8;" x="1117.436364" xlink:href="#m78ab7f4616" y="215.6"/>
      </g>
     </g>
     <g id="text_25">
      <!-- 100 -->
      <g transform="translate(1107.892614 230.198437)scale(0.1 -0.1)">
       <use xlink:href="#DejaVuSans-49"/>
       <use x="63.623047" xlink:href="#DejaVuSans-48"/>
       <use x="127.246094" xlink:href="#DejaVuSans-48"/>
      </g>
     </g>
    </g>
    <g id="text_26">
     <!-- Epochs -->
     <g transform="translate(861.884375 243.876562)scale(0.1 -0.1)">
      <use xlink:href="#DejaVuSans-69"/>
      <use x="63.183594" xlink:href="#DejaVuSans-112"/>
      <use x="126.660156" xlink:href="#DejaVuSans-111"/>
      <use x="187.841797" xlink:href="#DejaVuSans-99"/>
      <use x="242.822266" xlink:href="#DejaVuSans-104"/>
      <use x="306.201172" xlink:href="#DejaVuSans-115"/>
     </g>
    </g>
   </g>
   <g id="matplotlib.axis_4">
    <g id="ytick_9">
     <g id="line2d_27">
      <g>
       <use style="stroke:#000000;stroke-width:0.8;" x="618.4" xlink:href="#mc9cc8e927d" y="194.525145"/>
      </g>
     </g>
     <g id="text_27">
      <!-- 0.2 -->
      <g transform="translate(595.496875 198.324363)scale(0.1 -0.1)">
       <use xlink:href="#DejaVuSans-48"/>
       <use x="63.623047" xlink:href="#DejaVuSans-46"/>
       <use x="95.410156" xlink:href="#DejaVuSans-50"/>
      </g>
     </g>
    </g>
    <g id="ytick_10">
     <g id="line2d_28">
      <g>
       <use style="stroke:#000000;stroke-width:0.8;" x="618.4" xlink:href="#mc9cc8e927d" y="167.307198"/>
      </g>
     </g>
     <g id="text_28">
      <!-- 0.3 -->
      <g transform="translate(595.496875 171.106417)scale(0.1 -0.1)">
       <use xlink:href="#DejaVuSans-48"/>
       <use x="63.623047" xlink:href="#DejaVuSans-46"/>
       <use x="95.410156" xlink:href="#DejaVuSans-51"/>
      </g>
     </g>
    </g>
    <g id="ytick_11">
     <g id="line2d_29">
      <g>
       <use style="stroke:#000000;stroke-width:0.8;" x="618.4" xlink:href="#mc9cc8e927d" y="140.089252"/>
      </g>
     </g>
     <g id="text_29">
      <!-- 0.4 -->
      <g transform="translate(595.496875 143.88847)scale(0.1 -0.1)">
       <use xlink:href="#DejaVuSans-48"/>
       <use x="63.623047" xlink:href="#DejaVuSans-46"/>
       <use x="95.410156" xlink:href="#DejaVuSans-52"/>
      </g>
     </g>
    </g>
    <g id="ytick_12">
     <g id="line2d_30">
      <g>
       <use style="stroke:#000000;stroke-width:0.8;" x="618.4" xlink:href="#mc9cc8e927d" y="112.871305"/>
      </g>
     </g>
     <g id="text_30">
      <!-- 0.5 -->
      <g transform="translate(595.496875 116.670524)scale(0.1 -0.1)">
       <use xlink:href="#DejaVuSans-48"/>
       <use x="63.623047" xlink:href="#DejaVuSans-46"/>
       <use x="95.410156" xlink:href="#DejaVuSans-53"/>
      </g>
     </g>
    </g>
    <g id="ytick_13">
     <g id="line2d_31">
      <g>
       <use style="stroke:#000000;stroke-width:0.8;" x="618.4" xlink:href="#mc9cc8e927d" y="85.653359"/>
      </g>
     </g>
     <g id="text_31">
      <!-- 0.6 -->
      <g transform="translate(595.496875 89.452578)scale(0.1 -0.1)">
       <use xlink:href="#DejaVuSans-48"/>
       <use x="63.623047" xlink:href="#DejaVuSans-46"/>
       <use x="95.410156" xlink:href="#DejaVuSans-54"/>
      </g>
     </g>
    </g>
    <g id="ytick_14">
     <g id="line2d_32">
      <g>
       <use style="stroke:#000000;stroke-width:0.8;" x="618.4" xlink:href="#mc9cc8e927d" y="58.435412"/>
      </g>
     </g>
     <g id="text_32">
      <!-- 0.7 -->
      <g transform="translate(595.496875 62.234631)scale(0.1 -0.1)">
       <use xlink:href="#DejaVuSans-48"/>
       <use x="63.623047" xlink:href="#DejaVuSans-46"/>
       <use x="95.410156" xlink:href="#DejaVuSans-55"/>
      </g>
     </g>
    </g>
    <g id="ytick_15">
     <g id="line2d_33">
      <g>
       <use style="stroke:#000000;stroke-width:0.8;" x="618.4" xlink:href="#mc9cc8e927d" y="31.217466"/>
      </g>
     </g>
     <g id="text_33">
      <!-- 0.8 -->
      <g transform="translate(595.496875 35.016685)scale(0.1 -0.1)">
       <use xlink:href="#DejaVuSans-48"/>
       <use x="63.623047" xlink:href="#DejaVuSans-46"/>
       <use x="95.410156" xlink:href="#DejaVuSans-56"/>
      </g>
     </g>
    </g>
    <g id="text_34">
     <!-- Validation accuracy -->
     <g transform="translate(589.417187 170.039062)rotate(-90)scale(0.1 -0.1)">
      <use xlink:href="#DejaVuSans-86"/>
      <use x="60.658203" xlink:href="#DejaVuSans-97"/>
      <use x="121.9375" xlink:href="#DejaVuSans-108"/>
      <use x="149.720703" xlink:href="#DejaVuSans-105"/>
      <use x="177.503906" xlink:href="#DejaVuSans-100"/>
      <use x="240.980469" xlink:href="#DejaVuSans-97"/>
      <use x="302.259766" xlink:href="#DejaVuSans-116"/>
      <use x="341.46875" xlink:href="#DejaVuSans-105"/>
      <use x="369.251953" xlink:href="#DejaVuSans-111"/>
      <use x="430.433594" xlink:href="#DejaVuSans-110"/>
      <use x="493.8125" xlink:href="#DejaVuSans-32"/>
      <use x="525.599609" xlink:href="#DejaVuSans-97"/>
      <use x="586.878906" xlink:href="#DejaVuSans-99"/>
      <use x="641.859375" xlink:href="#DejaVuSans-99"/>
      <use x="696.839844" xlink:href="#DejaVuSans-117"/>
      <use x="760.21875" xlink:href="#DejaVuSans-114"/>
      <use x="801.332031" xlink:href="#DejaVuSans-97"/>
      <use x="862.611328" xlink:href="#DejaVuSans-99"/>
      <use x="917.591797" xlink:href="#DejaVuSans-121"/>
     </g>
    </g>
   </g>
   <g id="line2d_34">
    <path clip-path="url(#p7fa55d64d1)" d="M 642.163636 204.541347 
L 646.964371 204.731876 
L 651.765106 204.650221 
L 656.56584 198.98889 
L 661.366575 192.701543 
L 666.167309 203.098796 
L 670.968044 195.260029 
L 675.768779 188.319452 
L 680.569513 187.639004 
L 685.370248 183.229695 
L 690.170983 171.634853 
L 694.971717 167.225544 
L 699.772452 166.735621 
L 704.573186 157.889788 
L 709.373921 162.08135 
L 714.174656 147.329225 
L 718.97539 157.372651 
L 723.776125 142.429993 
L 728.57686 129.47425 
L 733.377594 135.462202 
L 738.178329 127.16073 
L 742.979063 115.538661 
L 747.779798 112.381382 
L 752.580533 110.258387 
L 757.381267 96.758284 
L 762.182002 106.937798 
L 766.982736 99.452854 
L 771.783471 98.064735 
L 776.584206 96.976031 
L 781.38494 96.077836 
L 786.185675 88.484018 
L 790.98641 87.340869 
L 795.787144 86.143276 
L 800.587879 87.694713 
L 805.388613 80.726914 
L 810.189348 83.394277 
L 814.990083 80.046466 
L 819.790817 85.517272 
L 824.591552 79.556543 
L 829.392287 78.957746 
L 834.193021 82.414431 
L 838.993756 79.719845 
L 843.79449 81.897285 
L 848.595225 69.540331 
L 853.39596 66.818539 
L 858.196694 73.677464 
L 862.997429 70.601829 
L 867.798163 71.25507 
L 872.598898 68.642136 
L 877.399633 70.492955 
L 882.200367 61.075557 
L 887.001102 70.683496 
L 891.801837 63.280203 
L 896.602571 65.512072 
L 901.403306 60.47676 
L 906.20404 61.048334 
L 911.004775 63.144123 
L 915.80551 57.999921 
L 920.606244 63.334648 
L 925.406979 63.552379 
L 930.207713 65.702597 
L 935.008448 52.719639 
L 939.809183 54.434379 
L 944.609917 48.990778 
L 949.410652 53.645057 
L 954.211387 51.032139 
L 959.012121 52.692433 
L 963.812856 54.053329 
L 968.61359 52.610766 
L 973.414325 48.800254 
L 978.21506 49.208526 
L 983.015794 51.767015 
L 987.816529 43.81937 
L 992.617264 51.549268 
L 997.417998 51.875889 
L 1002.218733 44.227642 
L 1007.019467 47.711534 
L 1011.820202 45.615761 
L 1016.620937 41.097578 
L 1021.421671 48.528078 
L 1026.222406 39.872778 
L 1031.02314 39.899985 
L 1035.823875 47.711534 
L 1040.62461 41.50585 
L 1045.425344 39.056234 
L 1050.226079 40.580433 
L 1055.026814 39.464506 
L 1059.827548 44.091562 
L 1064.628283 43.628845 
L 1069.429017 40.308257 
L 1074.229752 43.138922 
L 1079.030487 43.247796 
L 1083.831221 39.655031 
L 1088.631956 37.314289 
L 1093.432691 38.23969 
L 1098.233425 41.533073 
L 1103.03416 36.933239 
L 1107.834894 36.797143 
L 1112.635629 35.381818 
L 1117.436364 35.681217 
" style="fill:none;stroke:#0000ff;stroke-linecap:square;stroke-width:1.5;"/>
   </g>
   <g id="line2d_35">
    <path clip-path="url(#p7fa55d64d1)" d="M 642.163636 207.018182 
L 646.964371 206.990963 
L 651.765106 191.068467 
L 656.56584 176.887912 
L 661.366575 165.075326 
L 666.167309 164.449315 
L 670.968044 146.376601 
L 675.768779 145.097356 
L 680.569513 140.579173 
L 685.370248 143.1921 
L 690.170983 132.005525 
L 694.971717 123.649616 
L 699.772452 119.648571 
L 704.573186 115.484232 
L 709.373921 115.865281 
L 714.174656 107.618246 
L 718.97539 111.455964 
L 723.776125 105.8763 
L 728.57686 101.385324 
L 733.377594 107.618246 
L 738.178329 102.36517 
L 742.979063 95.288514 
L 747.779798 98.200831 
L 752.580533 99.289551 
L 757.381267 92.321753 
L 762.182002 95.070767 
L 766.982736 89.572738 
L 771.783471 87.340869 
L 776.584206 86.061624 
L 781.38494 95.152418 
L 786.185675 81.788412 
L 790.98641 85.381176 
L 795.787144 78.30452 
L 800.587879 76.889179 
L 805.388613 77.624072 
L 810.189348 77.052482 
L 814.990083 75.637157 
L 819.790817 77.052482 
L 824.591552 72.942571 
L 829.392287 73.840766 
L 834.193021 78.712776 
L 838.993756 75.41941 
L 843.79449 68.751009 
L 848.595225 67.009064 
L 853.39596 67.172366 
L 858.196694 67.390113 
L 862.997429 71.336722 
L 867.798163 64.940497 
L 872.598898 65.321547 
L 877.399633 64.314494 
L 882.200367 66.791317 
L 887.001102 61.647131 
L 891.801837 61.347732 
L 896.602571 98.445801 
L 901.403306 58.680369 
L 906.20404 60.503982 
L 911.004775 61.728782 
L 915.80551 61.048334 
L 920.606244 62.844725 
L 925.406979 59.197515 
L 930.207713 60.558411 
L 935.008448 57.401124 
L 939.809183 57.972715 
L 944.609917 55.087604 
L 949.410652 58.326542 
L 954.211387 52.447463 
L 959.012121 54.325505 
L 963.812856 59.877963 
L 968.61359 52.665211 
L 973.414325 58.272097 
L 978.21506 51.95754 
L 983.015794 55.713624 
L 987.816529 50.16115 
L 992.617264 56.530151 
L 997.417998 51.522062 
L 1002.218733 53.890011 
L 1007.019467 48.364775 
L 1011.820202 50.841598 
L 1016.620937 47.384929 
L 1021.421671 51.385966 
L 1026.222406 47.493803 
L 1031.02314 49.562369 
L 1035.823875 47.629882 
L 1040.62461 45.316362 
L 1045.425344 49.752894 
L 1050.226079 48.147028 
L 1055.026814 45.779063 
L 1059.827548 43.002842 
L 1064.628283 47.303278 
L 1069.429017 45.016964 
L 1074.229752 45.452458 
L 1079.030487 45.724634 
L 1083.831221 40.879831 
L 1088.631956 45.697412 
L 1093.432691 41.859677 
L 1098.233425 44.44539 
L 1103.03416 38.647962 
L 1107.834894 37.776989 
L 1112.635629 40.253828 
L 1117.436364 40.144954 
" style="fill:none;stroke:#ff0000;stroke-linecap:square;stroke-width:1.5;"/>
   </g>
   <g id="patch_9">
    <path d="M 618.4 215.6 
L 618.4 26.8 
" style="fill:none;stroke:#000000;stroke-linecap:square;stroke-linejoin:miter;stroke-width:0.8;"/>
   </g>
   <g id="patch_10">
    <path d="M 1141.2 215.6 
L 1141.2 26.8 
" style="fill:none;stroke:#000000;stroke-linecap:square;stroke-linejoin:miter;stroke-width:0.8;"/>
   </g>
   <g id="patch_11">
    <path d="M 618.4 215.6 
L 1141.2 215.6 
" style="fill:none;stroke:#000000;stroke-linecap:square;stroke-linejoin:miter;stroke-width:0.8;"/>
   </g>
   <g id="patch_12">
    <path d="M 618.4 26.8 
L 1141.2 26.8 
" style="fill:none;stroke:#000000;stroke-linecap:square;stroke-linejoin:miter;stroke-width:0.8;"/>
   </g>
   <g id="text_35">
    <!-- Accuracy for 50% weights watermarked -->
    <g transform="translate(760.102812 20.8)scale(0.12 -0.12)">
     <use xlink:href="#DejaVuSans-65"/>
     <use x="66.658203" xlink:href="#DejaVuSans-99"/>
     <use x="121.638672" xlink:href="#DejaVuSans-99"/>
     <use x="176.619141" xlink:href="#DejaVuSans-117"/>
     <use x="239.998047" xlink:href="#DejaVuSans-114"/>
     <use x="281.111328" xlink:href="#DejaVuSans-97"/>
     <use x="342.390625" xlink:href="#DejaVuSans-99"/>
     <use x="397.371094" xlink:href="#DejaVuSans-121"/>
     <use x="456.550781" xlink:href="#DejaVuSans-32"/>
     <use x="488.337891" xlink:href="#DejaVuSans-102"/>
     <use x="523.542969" xlink:href="#DejaVuSans-111"/>
     <use x="584.724609" xlink:href="#DejaVuSans-114"/>
     <use x="625.837891" xlink:href="#DejaVuSans-32"/>
     <use x="657.625" xlink:href="#DejaVuSans-53"/>
     <use x="721.248047" xlink:href="#DejaVuSans-48"/>
     <use x="784.871094" xlink:href="#DejaVuSans-37"/>
     <use x="879.890625" xlink:href="#DejaVuSans-32"/>
     <use x="911.677734" xlink:href="#DejaVuSans-119"/>
     <use x="993.464844" xlink:href="#DejaVuSans-101"/>
     <use x="1054.988281" xlink:href="#DejaVuSans-105"/>
     <use x="1082.771484" xlink:href="#DejaVuSans-103"/>
     <use x="1146.248047" xlink:href="#DejaVuSans-104"/>
     <use x="1209.626953" xlink:href="#DejaVuSans-116"/>
     <use x="1248.835938" xlink:href="#DejaVuSans-115"/>
     <use x="1300.935547" xlink:href="#DejaVuSans-32"/>
     <use x="1332.722656" xlink:href="#DejaVuSans-119"/>
     <use x="1414.509766" xlink:href="#DejaVuSans-97"/>
     <use x="1475.789062" xlink:href="#DejaVuSans-116"/>
     <use x="1514.998047" xlink:href="#DejaVuSans-101"/>
     <use x="1576.521484" xlink:href="#DejaVuSans-114"/>
     <use x="1615.884766" xlink:href="#DejaVuSans-109"/>
     <use x="1713.296875" xlink:href="#DejaVuSans-97"/>
     <use x="1774.576172" xlink:href="#DejaVuSans-114"/>
     <use x="1815.689453" xlink:href="#DejaVuSans-107"/>
     <use x="1869.974609" xlink:href="#DejaVuSans-101"/>
     <use x="1931.498047" xlink:href="#DejaVuSans-100"/>
    </g>
   </g>
   <g id="legend_2">
    <g id="patch_13">
     <path d="M 625.4 64.15625 
L 763.176563 64.15625 
Q 765.176563 64.15625 765.176563 62.15625 
L 765.176563 33.8 
Q 765.176563 31.8 763.176563 31.8 
L 625.4 31.8 
Q 623.4 31.8 623.4 33.8 
L 623.4 62.15625 
Q 623.4 64.15625 625.4 64.15625 
z
" style="fill:#ffffff;opacity:0.8;stroke:#cccccc;stroke-linejoin:miter;"/>
    </g>
    <g id="line2d_36">
     <path d="M 627.4 39.898437 
L 647.4 39.898437 
" style="fill:none;stroke:#0000ff;stroke-linecap:square;stroke-width:1.5;"/>
    </g>
    <g id="line2d_37"/>
    <g id="text_36">
     <!-- Training from scratch -->
     <g transform="translate(655.4 43.398437)scale(0.1 -0.1)">
      <use xlink:href="#DejaVuSans-84"/>
      <use x="46.333984" xlink:href="#DejaVuSans-114"/>
      <use x="87.447266" xlink:href="#DejaVuSans-97"/>
      <use x="148.726562" xlink:href="#DejaVuSans-105"/>
      <use x="176.509766" xlink:href="#DejaVuSans-110"/>
      <use x="239.888672" xlink:href="#DejaVuSans-105"/>
      <use x="267.671875" xlink:href="#DejaVuSans-110"/>
      <use x="331.050781" xlink:href="#DejaVuSans-103"/>
      <use x="394.527344" xlink:href="#DejaVuSans-32"/>
      <use x="426.314453" xlink:href="#DejaVuSans-102"/>
      <use x="461.519531" xlink:href="#DejaVuSans-114"/>
      <use x="500.382812" xlink:href="#DejaVuSans-111"/>
      <use x="561.564453" xlink:href="#DejaVuSans-109"/>
      <use x="658.976562" xlink:href="#DejaVuSans-32"/>
      <use x="690.763672" xlink:href="#DejaVuSans-115"/>
      <use x="742.863281" xlink:href="#DejaVuSans-99"/>
      <use x="797.84375" xlink:href="#DejaVuSans-114"/>
      <use x="838.957031" xlink:href="#DejaVuSans-97"/>
      <use x="900.236328" xlink:href="#DejaVuSans-116"/>
      <use x="939.445312" xlink:href="#DejaVuSans-99"/>
      <use x="994.425781" xlink:href="#DejaVuSans-104"/>
     </g>
    </g>
    <g id="line2d_38">
     <path d="M 627.4 54.576562 
L 647.4 54.576562 
" style="fill:none;stroke:#ff0000;stroke-linecap:square;stroke-width:1.5;"/>
    </g>
    <g id="line2d_39"/>
    <g id="text_37">
     <!-- Transfer attack -->
     <g transform="translate(655.4 58.076562)scale(0.1 -0.1)">
      <use xlink:href="#DejaVuSans-84"/>
      <use x="46.333984" xlink:href="#DejaVuSans-114"/>
      <use x="87.447266" xlink:href="#DejaVuSans-97"/>
      <use x="148.726562" xlink:href="#DejaVuSans-110"/>
      <use x="212.105469" xlink:href="#DejaVuSans-115"/>
      <use x="264.205078" xlink:href="#DejaVuSans-102"/>
      <use x="299.410156" xlink:href="#DejaVuSans-101"/>
      <use x="360.933594" xlink:href="#DejaVuSans-114"/>
      <use x="402.046875" xlink:href="#DejaVuSans-32"/>
      <use x="433.833984" xlink:href="#DejaVuSans-97"/>
      <use x="495.113281" xlink:href="#DejaVuSans-116"/>
      <use x="534.322266" xlink:href="#DejaVuSans-116"/>
      <use x="573.53125" xlink:href="#DejaVuSans-97"/>
      <use x="634.810547" xlink:href="#DejaVuSans-99"/>
      <use x="689.791016" xlink:href="#DejaVuSans-107"/>
     </g>
    </g>
   </g>
  </g>
  <g id="axes_3">
   <g id="patch_14">
    <path d="M 47.8 462.2 
L 570.6 462.2 
L 570.6 273.4 
L 47.8 273.4 
z
" style="fill:#ffffff;"/>
   </g>
   <g id="matplotlib.axis_5">
    <g id="xtick_13">
     <g id="line2d_40">
      <g>
       <use style="stroke:#000000;stroke-width:0.8;" x="66.762902" xlink:href="#m78ab7f4616" y="462.2"/>
      </g>
     </g>
     <g id="text_38">
      <!-- 0 -->
      <g transform="translate(63.581652 476.798437)scale(0.1 -0.1)">
       <use xlink:href="#DejaVuSans-48"/>
      </g>
     </g>
    </g>
    <g id="xtick_14">
     <g id="line2d_41">
      <g>
       <use style="stroke:#000000;stroke-width:0.8;" x="162.777594" xlink:href="#m78ab7f4616" y="462.2"/>
      </g>
     </g>
     <g id="text_39">
      <!-- 20 -->
      <g transform="translate(156.415094 476.798437)scale(0.1 -0.1)">
       <use xlink:href="#DejaVuSans-50"/>
       <use x="63.623047" xlink:href="#DejaVuSans-48"/>
      </g>
     </g>
    </g>
    <g id="xtick_15">
     <g id="line2d_42">
      <g>
       <use style="stroke:#000000;stroke-width:0.8;" x="258.792287" xlink:href="#m78ab7f4616" y="462.2"/>
      </g>
     </g>
     <g id="text_40">
      <!-- 40 -->
      <g transform="translate(252.429787 476.798437)scale(0.1 -0.1)">
       <use xlink:href="#DejaVuSans-52"/>
       <use x="63.623047" xlink:href="#DejaVuSans-48"/>
      </g>
     </g>
    </g>
    <g id="xtick_16">
     <g id="line2d_43">
      <g>
       <use style="stroke:#000000;stroke-width:0.8;" x="354.806979" xlink:href="#m78ab7f4616" y="462.2"/>
      </g>
     </g>
     <g id="text_41">
      <!-- 60 -->
      <g transform="translate(348.444479 476.798437)scale(0.1 -0.1)">
       <use xlink:href="#DejaVuSans-54"/>
       <use x="63.623047" xlink:href="#DejaVuSans-48"/>
      </g>
     </g>
    </g>
    <g id="xtick_17">
     <g id="line2d_44">
      <g>
       <use style="stroke:#000000;stroke-width:0.8;" x="450.821671" xlink:href="#m78ab7f4616" y="462.2"/>
      </g>
     </g>
     <g id="text_42">
      <!-- 80 -->
      <g transform="translate(444.459171 476.798437)scale(0.1 -0.1)">
       <use xlink:href="#DejaVuSans-56"/>
       <use x="63.623047" xlink:href="#DejaVuSans-48"/>
      </g>
     </g>
    </g>
    <g id="xtick_18">
     <g id="line2d_45">
      <g>
       <use style="stroke:#000000;stroke-width:0.8;" x="546.836364" xlink:href="#m78ab7f4616" y="462.2"/>
      </g>
     </g>
     <g id="text_43">
      <!-- 100 -->
      <g transform="translate(537.292614 476.798437)scale(0.1 -0.1)">
       <use xlink:href="#DejaVuSans-49"/>
       <use x="63.623047" xlink:href="#DejaVuSans-48"/>
       <use x="127.246094" xlink:href="#DejaVuSans-48"/>
      </g>
     </g>
    </g>
    <g id="text_44">
     <!-- Epochs -->
     <g transform="translate(291.284375 490.476562)scale(0.1 -0.1)">
      <use xlink:href="#DejaVuSans-69"/>
      <use x="63.183594" xlink:href="#DejaVuSans-112"/>
      <use x="126.660156" xlink:href="#DejaVuSans-111"/>
      <use x="187.841797" xlink:href="#DejaVuSans-99"/>
      <use x="242.822266" xlink:href="#DejaVuSans-104"/>
      <use x="306.201172" xlink:href="#DejaVuSans-115"/>
     </g>
    </g>
   </g>
   <g id="matplotlib.axis_6">
    <g id="ytick_16">
     <g id="line2d_46">
      <g>
       <use style="stroke:#000000;stroke-width:0.8;" x="47.8" xlink:href="#mc9cc8e927d" y="445.516092"/>
      </g>
     </g>
     <g id="text_45">
      <!-- 0.2 -->
      <g transform="translate(24.896875 449.315311)scale(0.1 -0.1)">
       <use xlink:href="#DejaVuSans-48"/>
       <use x="63.623047" xlink:href="#DejaVuSans-46"/>
       <use x="95.410156" xlink:href="#DejaVuSans-50"/>
      </g>
     </g>
    </g>
    <g id="ytick_17">
     <g id="line2d_47">
      <g>
       <use style="stroke:#000000;stroke-width:0.8;" x="47.8" xlink:href="#mc9cc8e927d" y="415.057109"/>
      </g>
     </g>
     <g id="text_46">
      <!-- 0.3 -->
      <g transform="translate(24.896875 418.856327)scale(0.1 -0.1)">
       <use xlink:href="#DejaVuSans-48"/>
       <use x="63.623047" xlink:href="#DejaVuSans-46"/>
       <use x="95.410156" xlink:href="#DejaVuSans-51"/>
      </g>
     </g>
    </g>
    <g id="ytick_18">
     <g id="line2d_48">
      <g>
       <use style="stroke:#000000;stroke-width:0.8;" x="47.8" xlink:href="#mc9cc8e927d" y="384.598125"/>
      </g>
     </g>
     <g id="text_47">
      <!-- 0.4 -->
      <g transform="translate(24.896875 388.397344)scale(0.1 -0.1)">
       <use xlink:href="#DejaVuSans-48"/>
       <use x="63.623047" xlink:href="#DejaVuSans-46"/>
       <use x="95.410156" xlink:href="#DejaVuSans-52"/>
      </g>
     </g>
    </g>
    <g id="ytick_19">
     <g id="line2d_49">
      <g>
       <use style="stroke:#000000;stroke-width:0.8;" x="47.8" xlink:href="#mc9cc8e927d" y="354.139142"/>
      </g>
     </g>
     <g id="text_48">
      <!-- 0.5 -->
      <g transform="translate(24.896875 357.93836)scale(0.1 -0.1)">
       <use xlink:href="#DejaVuSans-48"/>
       <use x="63.623047" xlink:href="#DejaVuSans-46"/>
       <use x="95.410156" xlink:href="#DejaVuSans-53"/>
      </g>
     </g>
    </g>
    <g id="ytick_20">
     <g id="line2d_50">
      <g>
       <use style="stroke:#000000;stroke-width:0.8;" x="47.8" xlink:href="#mc9cc8e927d" y="323.680158"/>
      </g>
     </g>
     <g id="text_49">
      <!-- 0.6 -->
      <g transform="translate(24.896875 327.479377)scale(0.1 -0.1)">
       <use xlink:href="#DejaVuSans-48"/>
       <use x="63.623047" xlink:href="#DejaVuSans-46"/>
       <use x="95.410156" xlink:href="#DejaVuSans-54"/>
      </g>
     </g>
    </g>
    <g id="ytick_21">
     <g id="line2d_51">
      <g>
       <use style="stroke:#000000;stroke-width:0.8;" x="47.8" xlink:href="#mc9cc8e927d" y="293.221175"/>
      </g>
     </g>
     <g id="text_50">
      <!-- 0.7 -->
      <g transform="translate(24.896875 297.020393)scale(0.1 -0.1)">
       <use xlink:href="#DejaVuSans-48"/>
       <use x="63.623047" xlink:href="#DejaVuSans-46"/>
       <use x="95.410156" xlink:href="#DejaVuSans-55"/>
      </g>
     </g>
    </g>
    <g id="text_51">
     <!-- Validation accuracy -->
     <g transform="translate(18.817188 416.639063)rotate(-90)scale(0.1 -0.1)">
      <use xlink:href="#DejaVuSans-86"/>
      <use x="60.658203" xlink:href="#DejaVuSans-97"/>
      <use x="121.9375" xlink:href="#DejaVuSans-108"/>
      <use x="149.720703" xlink:href="#DejaVuSans-105"/>
      <use x="177.503906" xlink:href="#DejaVuSans-100"/>
      <use x="240.980469" xlink:href="#DejaVuSans-97"/>
      <use x="302.259766" xlink:href="#DejaVuSans-116"/>
      <use x="341.46875" xlink:href="#DejaVuSans-105"/>
      <use x="369.251953" xlink:href="#DejaVuSans-111"/>
      <use x="430.433594" xlink:href="#DejaVuSans-110"/>
      <use x="493.8125" xlink:href="#DejaVuSans-32"/>
      <use x="525.599609" xlink:href="#DejaVuSans-97"/>
      <use x="586.878906" xlink:href="#DejaVuSans-99"/>
      <use x="641.859375" xlink:href="#DejaVuSans-99"/>
      <use x="696.839844" xlink:href="#DejaVuSans-117"/>
      <use x="760.21875" xlink:href="#DejaVuSans-114"/>
      <use x="801.332031" xlink:href="#DejaVuSans-97"/>
      <use x="862.611328" xlink:href="#DejaVuSans-99"/>
      <use x="917.591797" xlink:href="#DejaVuSans-121"/>
     </g>
    </g>
   </g>
   <g id="line2d_52">
    <path clip-path="url(#pfb75522678)" d="M 71.563636 453.618182 
L 76.364371 447.861432 
L 81.165106 448.074648 
L 85.96584 447.465467 
L 90.766575 440.368522 
L 95.567309 444.023603 
L 100.368044 438.754196 
L 105.168779 439.028327 
L 109.969513 430.926241 
L 114.770248 430.134307 
L 119.570983 423.311498 
L 124.371717 422.885065 
L 129.172452 422.51956 
L 133.973186 409.117607 
L 138.773921 409.60495 
L 143.574656 400.985061 
L 148.37539 398.121914 
L 153.176125 390.050287 
L 157.97686 393.888112 
L 162.777594 402.751676 
L 167.578329 392.060578 
L 172.379063 373.389218 
L 177.179798 377.227052 
L 181.980533 379.176423 
L 186.781267 366.231358 
L 191.582002 365.439421 
L 196.382736 378.110363 
L 201.183471 365.195754 
L 205.984206 354.900615 
L 210.78494 357.002289 
L 215.585675 360.474608 
L 220.38641 352.707568 
L 225.187144 357.946511 
L 229.987879 335.772377 
L 234.788613 347.803675 
L 239.589348 342.35152 
L 244.390083 331.569029 
L 249.190817 342.717016 
L 253.991552 337.508536 
L 258.792287 336.716599 
L 263.593021 344.057215 
L 268.393756 342.503804 
L 273.19449 333.579329 
L 277.995225 328.888648 
L 282.79596 325.538148 
L 287.596694 335.041367 
L 292.397429 330.16792 
L 297.198163 330.076546 
L 301.998898 322.888231 
L 306.799633 326.451924 
L 311.600367 320.238295 
L 316.401102 333.305189 
L 321.201837 319.781408 
L 326.002571 321.548031 
L 330.803306 317.25331 
L 335.60404 314.085577 
L 340.404775 315.090726 
L 345.20551 313.720063 
L 350.006244 319.568196 
L 354.806979 316.18725 
L 359.607713 314.999352 
L 364.408448 308.42021 
L 369.209183 308.237462 
L 374.009917 307.536898 
L 378.810652 304.886962 
L 383.611387 307.597808 
L 388.412121 303.699064 
L 393.212856 308.877097 
L 398.01359 304.67375 
L 402.814325 307.6892 
L 407.61506 300.226745 
L 412.415794 306.470838 
L 417.216529 296.541196 
L 422.017264 302.115207 
L 426.817998 308.663886 
L 431.618733 302.145653 
L 436.419467 296.90671 
L 441.220202 301.079593 
L 446.020937 291.576392 
L 450.821671 297.790021 
L 455.622406 306.501284 
L 460.42314 301.292805 
L 465.223875 302.572076 
L 470.02461 297.607273 
L 474.825344 300.226745 
L 479.626079 288.987367 
L 484.426814 299.739393 
L 489.227548 287.708095 
L 494.028283 289.261507 
L 498.829017 292.246492 
L 503.629752 295.657902 
L 508.430487 286.946621 
L 513.231221 287.951771 
L 518.031956 290.814919 
L 522.832691 284.32715 
L 527.633425 292.581542 
L 532.43416 285.606421 
L 537.234894 283.108788 
L 542.035629 287.342599 
L 546.836364 281.981818 
" style="fill:none;stroke:#0000ff;stroke-linecap:square;stroke-width:1.5;"/>
   </g>
   <g id="line2d_53">
    <path clip-path="url(#pfb75522678)" d="M 71.563636 450.755039 
L 76.364371 447.861432 
L 81.165106 443.292584 
L 85.96584 443.840846 
L 90.766575 440.581739 
L 95.567309 435.830134 
L 100.368044 420.417886 
L 105.168779 419.717331 
L 109.969513 406.680893 
L 114.770248 401.228728 
L 119.570983 395.563361 
L 124.371717 388.314119 
L 129.172452 381.826359 
L 133.973186 383.44068 
L 138.773921 378.01898 
L 143.574656 368.058901 
L 148.37539 368.089356 
L 153.176125 367.297418 
L 157.97686 357.093663 
L 162.777594 361.297001 
L 167.578329 353.712718 
L 172.379063 347.895049 
L 177.179798 351.793792 
L 181.980533 350.484056 
L 186.781267 363.368211 
L 191.582002 350.301308 
L 196.382736 355.93622 
L 201.183471 341.40728 
L 205.984206 335.620075 
L 210.78494 339.33607 
L 215.585675 333.944843 
L 220.38641 328.218548 
L 225.187144 330.350668 
L 229.987879 327.517984 
L 234.788613 326.969722 
L 239.589348 332.208665 
L 244.390083 328.249012 
L 249.190817 325.538148 
L 253.991552 333.487955 
L 258.792287 322.675019 
L 263.593021 329.10186 
L 268.393756 328.340386 
L 273.19449 323.253727 
L 277.995225 323.284191 
L 282.79596 319.111308 
L 287.596694 324.472089 
L 292.397429 322.279041 
L 297.198163 326.6956 
L 301.998898 319.690034 
L 306.799633 322.279041 
L 311.600367 311.405195 
L 316.401102 316.58321 
L 321.201837 311.313803 
L 326.002571 309.699481 
L 330.803306 315.090726 
L 335.60404 310.308671 
L 340.404775 307.719646 
L 345.20551 308.663886 
L 350.006244 311.983903 
L 354.806979 311.009217 
L 359.607713 304.795588 
L 364.408448 305.161102 
L 369.209183 303.181266 
L 374.009917 301.536481 
L 378.810652 300.957755 
L 383.611387 304.460538 
L 388.412121 299.221595 
L 393.212856 302.115207 
L 398.01359 299.708947 
L 402.814325 299.008383 
L 407.61506 300.835917 
L 412.415794 300.318119 
L 417.216529 294.805036 
L 422.017264 311.618407 
L 426.817998 299.191131 
L 431.618733 297.089457 
L 436.419467 293.83035 
L 441.220202 292.70338 
L 446.020937 294.926874 
L 450.821671 291.728676 
L 455.622406 292.36833 
L 460.42314 289.352881 
L 465.223875 294.77459 
L 470.02461 291.180414 
L 474.825344 295.292388 
L 479.626079 289.078759 
L 484.426814 291.941888 
L 489.227548 285.088624 
L 494.028283 287.007549 
L 498.829017 286.824783 
L 503.629752 289.474719 
L 508.430487 290.936757 
L 513.231221 285.697814 
L 518.031956 288.195447 
L 522.832691 286.093773 
L 527.633425 286.215611 
L 532.43416 288.469569 
L 537.234894 282.31685 
L 542.035629 284.540362 
L 546.836364 282.773738 
" style="fill:none;stroke:#ff0000;stroke-linecap:square;stroke-width:1.5;"/>
   </g>
   <g id="patch_15">
    <path d="M 47.8 462.2 
L 47.8 273.4 
" style="fill:none;stroke:#000000;stroke-linecap:square;stroke-linejoin:miter;stroke-width:0.8;"/>
   </g>
   <g id="patch_16">
    <path d="M 570.6 462.2 
L 570.6 273.4 
" style="fill:none;stroke:#000000;stroke-linecap:square;stroke-linejoin:miter;stroke-width:0.8;"/>
   </g>
   <g id="patch_17">
    <path d="M 47.8 462.2 
L 570.6 462.2 
" style="fill:none;stroke:#000000;stroke-linecap:square;stroke-linejoin:miter;stroke-width:0.8;"/>
   </g>
   <g id="patch_18">
    <path d="M 47.8 273.4 
L 570.6 273.4 
" style="fill:none;stroke:#000000;stroke-linecap:square;stroke-linejoin:miter;stroke-width:0.8;"/>
   </g>
   <g id="text_52">
    <!-- Accuracy for 60% weights watermarked -->
    <g transform="translate(189.502813 267.4)scale(0.12 -0.12)">
     <use xlink:href="#DejaVuSans-65"/>
     <use x="66.658203" xlink:href="#DejaVuSans-99"/>
     <use x="121.638672" xlink:href="#DejaVuSans-99"/>
     <use x="176.619141" xlink:href="#DejaVuSans-117"/>
     <use x="239.998047" xlink:href="#DejaVuSans-114"/>
     <use x="281.111328" xlink:href="#DejaVuSans-97"/>
     <use x="342.390625" xlink:href="#DejaVuSans-99"/>
     <use x="397.371094" xlink:href="#DejaVuSans-121"/>
     <use x="456.550781" xlink:href="#DejaVuSans-32"/>
     <use x="488.337891" xlink:href="#DejaVuSans-102"/>
     <use x="523.542969" xlink:href="#DejaVuSans-111"/>
     <use x="584.724609" xlink:href="#DejaVuSans-114"/>
     <use x="625.837891" xlink:href="#DejaVuSans-32"/>
     <use x="657.625" xlink:href="#DejaVuSans-54"/>
     <use x="721.248047" xlink:href="#DejaVuSans-48"/>
     <use x="784.871094" xlink:href="#DejaVuSans-37"/>
     <use x="879.890625" xlink:href="#DejaVuSans-32"/>
     <use x="911.677734" xlink:href="#DejaVuSans-119"/>
     <use x="993.464844" xlink:href="#DejaVuSans-101"/>
     <use x="1054.988281" xlink:href="#DejaVuSans-105"/>
     <use x="1082.771484" xlink:href="#DejaVuSans-103"/>
     <use x="1146.248047" xlink:href="#DejaVuSans-104"/>
     <use x="1209.626953" xlink:href="#DejaVuSans-116"/>
     <use x="1248.835938" xlink:href="#DejaVuSans-115"/>
     <use x="1300.935547" xlink:href="#DejaVuSans-32"/>
     <use x="1332.722656" xlink:href="#DejaVuSans-119"/>
     <use x="1414.509766" xlink:href="#DejaVuSans-97"/>
     <use x="1475.789062" xlink:href="#DejaVuSans-116"/>
     <use x="1514.998047" xlink:href="#DejaVuSans-101"/>
     <use x="1576.521484" xlink:href="#DejaVuSans-114"/>
     <use x="1615.884766" xlink:href="#DejaVuSans-109"/>
     <use x="1713.296875" xlink:href="#DejaVuSans-97"/>
     <use x="1774.576172" xlink:href="#DejaVuSans-114"/>
     <use x="1815.689453" xlink:href="#DejaVuSans-107"/>
     <use x="1869.974609" xlink:href="#DejaVuSans-101"/>
     <use x="1931.498047" xlink:href="#DejaVuSans-100"/>
    </g>
   </g>
   <g id="legend_3">
    <g id="patch_19">
     <path d="M 54.8 310.75625 
L 192.576563 310.75625 
Q 194.576563 310.75625 194.576563 308.75625 
L 194.576563 280.4 
Q 194.576563 278.4 192.576563 278.4 
L 54.8 278.4 
Q 52.8 278.4 52.8 280.4 
L 52.8 308.75625 
Q 52.8 310.75625 54.8 310.75625 
z
" style="fill:#ffffff;opacity:0.8;stroke:#cccccc;stroke-linejoin:miter;"/>
    </g>
    <g id="line2d_54">
     <path d="M 56.8 286.498437 
L 76.8 286.498437 
" style="fill:none;stroke:#0000ff;stroke-linecap:square;stroke-width:1.5;"/>
    </g>
    <g id="line2d_55"/>
    <g id="text_53">
     <!-- Training from scratch -->
     <g transform="translate(84.8 289.998437)scale(0.1 -0.1)">
      <use xlink:href="#DejaVuSans-84"/>
      <use x="46.333984" xlink:href="#DejaVuSans-114"/>
      <use x="87.447266" xlink:href="#DejaVuSans-97"/>
      <use x="148.726562" xlink:href="#DejaVuSans-105"/>
      <use x="176.509766" xlink:href="#DejaVuSans-110"/>
      <use x="239.888672" xlink:href="#DejaVuSans-105"/>
      <use x="267.671875" xlink:href="#DejaVuSans-110"/>
      <use x="331.050781" xlink:href="#DejaVuSans-103"/>
      <use x="394.527344" xlink:href="#DejaVuSans-32"/>
      <use x="426.314453" xlink:href="#DejaVuSans-102"/>
      <use x="461.519531" xlink:href="#DejaVuSans-114"/>
      <use x="500.382812" xlink:href="#DejaVuSans-111"/>
      <use x="561.564453" xlink:href="#DejaVuSans-109"/>
      <use x="658.976562" xlink:href="#DejaVuSans-32"/>
      <use x="690.763672" xlink:href="#DejaVuSans-115"/>
      <use x="742.863281" xlink:href="#DejaVuSans-99"/>
      <use x="797.84375" xlink:href="#DejaVuSans-114"/>
      <use x="838.957031" xlink:href="#DejaVuSans-97"/>
      <use x="900.236328" xlink:href="#DejaVuSans-116"/>
      <use x="939.445312" xlink:href="#DejaVuSans-99"/>
      <use x="994.425781" xlink:href="#DejaVuSans-104"/>
     </g>
    </g>
    <g id="line2d_56">
     <path d="M 56.8 301.176562 
L 76.8 301.176562 
" style="fill:none;stroke:#ff0000;stroke-linecap:square;stroke-width:1.5;"/>
    </g>
    <g id="line2d_57"/>
    <g id="text_54">
     <!-- Transfer attack -->
     <g transform="translate(84.8 304.676562)scale(0.1 -0.1)">
      <use xlink:href="#DejaVuSans-84"/>
      <use x="46.333984" xlink:href="#DejaVuSans-114"/>
      <use x="87.447266" xlink:href="#DejaVuSans-97"/>
      <use x="148.726562" xlink:href="#DejaVuSans-110"/>
      <use x="212.105469" xlink:href="#DejaVuSans-115"/>
      <use x="264.205078" xlink:href="#DejaVuSans-102"/>
      <use x="299.410156" xlink:href="#DejaVuSans-101"/>
      <use x="360.933594" xlink:href="#DejaVuSans-114"/>
      <use x="402.046875" xlink:href="#DejaVuSans-32"/>
      <use x="433.833984" xlink:href="#DejaVuSans-97"/>
      <use x="495.113281" xlink:href="#DejaVuSans-116"/>
      <use x="534.322266" xlink:href="#DejaVuSans-116"/>
      <use x="573.53125" xlink:href="#DejaVuSans-97"/>
      <use x="634.810547" xlink:href="#DejaVuSans-99"/>
      <use x="689.791016" xlink:href="#DejaVuSans-107"/>
     </g>
    </g>
   </g>
  </g>
  <g id="axes_4">
   <g id="patch_20">
    <path d="M 618.4 462.2 
L 1141.2 462.2 
L 1141.2 273.4 
L 618.4 273.4 
z
" style="fill:#ffffff;"/>
   </g>
   <g id="matplotlib.axis_7">
    <g id="xtick_19">
     <g id="line2d_58">
      <g>
       <use style="stroke:#000000;stroke-width:0.8;" x="637.362902" xlink:href="#m78ab7f4616" y="462.2"/>
      </g>
     </g>
     <g id="text_55">
      <!-- 0 -->
      <g transform="translate(634.181652 476.798437)scale(0.1 -0.1)">
       <use xlink:href="#DejaVuSans-48"/>
      </g>
     </g>
    </g>
    <g id="xtick_20">
     <g id="line2d_59">
      <g>
       <use style="stroke:#000000;stroke-width:0.8;" x="733.377594" xlink:href="#m78ab7f4616" y="462.2"/>
      </g>
     </g>
     <g id="text_56">
      <!-- 20 -->
      <g transform="translate(727.015094 476.798437)scale(0.1 -0.1)">
       <use xlink:href="#DejaVuSans-50"/>
       <use x="63.623047" xlink:href="#DejaVuSans-48"/>
      </g>
     </g>
    </g>
    <g id="xtick_21">
     <g id="line2d_60">
      <g>
       <use style="stroke:#000000;stroke-width:0.8;" x="829.392287" xlink:href="#m78ab7f4616" y="462.2"/>
      </g>
     </g>
     <g id="text_57">
      <!-- 40 -->
      <g transform="translate(823.029787 476.798437)scale(0.1 -0.1)">
       <use xlink:href="#DejaVuSans-52"/>
       <use x="63.623047" xlink:href="#DejaVuSans-48"/>
      </g>
     </g>
    </g>
    <g id="xtick_22">
     <g id="line2d_61">
      <g>
       <use style="stroke:#000000;stroke-width:0.8;" x="925.406979" xlink:href="#m78ab7f4616" y="462.2"/>
      </g>
     </g>
     <g id="text_58">
      <!-- 60 -->
      <g transform="translate(919.044479 476.798437)scale(0.1 -0.1)">
       <use xlink:href="#DejaVuSans-54"/>
       <use x="63.623047" xlink:href="#DejaVuSans-48"/>
      </g>
     </g>
    </g>
    <g id="xtick_23">
     <g id="line2d_62">
      <g>
       <use style="stroke:#000000;stroke-width:0.8;" x="1021.421671" xlink:href="#m78ab7f4616" y="462.2"/>
      </g>
     </g>
     <g id="text_59">
      <!-- 80 -->
      <g transform="translate(1015.059171 476.798437)scale(0.1 -0.1)">
       <use xlink:href="#DejaVuSans-56"/>
       <use x="63.623047" xlink:href="#DejaVuSans-48"/>
      </g>
     </g>
    </g>
    <g id="xtick_24">
     <g id="line2d_63">
      <g>
       <use style="stroke:#000000;stroke-width:0.8;" x="1117.436364" xlink:href="#m78ab7f4616" y="462.2"/>
      </g>
     </g>
     <g id="text_60">
      <!-- 100 -->
      <g transform="translate(1107.892614 476.798437)scale(0.1 -0.1)">
       <use xlink:href="#DejaVuSans-49"/>
       <use x="63.623047" xlink:href="#DejaVuSans-48"/>
       <use x="127.246094" xlink:href="#DejaVuSans-48"/>
      </g>
     </g>
    </g>
    <g id="text_61">
     <!-- Epochs -->
     <g transform="translate(861.884375 490.476562)scale(0.1 -0.1)">
      <use xlink:href="#DejaVuSans-69"/>
      <use x="63.183594" xlink:href="#DejaVuSans-112"/>
      <use x="126.660156" xlink:href="#DejaVuSans-111"/>
      <use x="187.841797" xlink:href="#DejaVuSans-99"/>
      <use x="242.822266" xlink:href="#DejaVuSans-104"/>
      <use x="306.201172" xlink:href="#DejaVuSans-115"/>
     </g>
    </g>
   </g>
   <g id="matplotlib.axis_8">
    <g id="ytick_22">
     <g id="line2d_64">
      <g>
       <use style="stroke:#000000;stroke-width:0.8;" x="618.4" xlink:href="#mc9cc8e927d" y="456.800134"/>
      </g>
     </g>
     <g id="text_62">
      <!-- 0.1 -->
      <g transform="translate(595.496875 460.599353)scale(0.1 -0.1)">
       <use xlink:href="#DejaVuSans-48"/>
       <use x="63.623047" xlink:href="#DejaVuSans-46"/>
       <use x="95.410156" xlink:href="#DejaVuSans-49"/>
      </g>
     </g>
    </g>
    <g id="ytick_23">
     <g id="line2d_65">
      <g>
       <use style="stroke:#000000;stroke-width:0.8;" x="618.4" xlink:href="#mc9cc8e927d" y="425.295662"/>
      </g>
     </g>
     <g id="text_63">
      <!-- 0.2 -->
      <g transform="translate(595.496875 429.094881)scale(0.1 -0.1)">
       <use xlink:href="#DejaVuSans-48"/>
       <use x="63.623047" xlink:href="#DejaVuSans-46"/>
       <use x="95.410156" xlink:href="#DejaVuSans-50"/>
      </g>
     </g>
    </g>
    <g id="ytick_24">
     <g id="line2d_66">
      <g>
       <use style="stroke:#000000;stroke-width:0.8;" x="618.4" xlink:href="#mc9cc8e927d" y="393.791191"/>
      </g>
     </g>
     <g id="text_64">
      <!-- 0.3 -->
      <g transform="translate(595.496875 397.59041)scale(0.1 -0.1)">
       <use xlink:href="#DejaVuSans-48"/>
       <use x="63.623047" xlink:href="#DejaVuSans-46"/>
       <use x="95.410156" xlink:href="#DejaVuSans-51"/>
      </g>
     </g>
    </g>
    <g id="ytick_25">
     <g id="line2d_67">
      <g>
       <use style="stroke:#000000;stroke-width:0.8;" x="618.4" xlink:href="#mc9cc8e927d" y="362.28672"/>
      </g>
     </g>
     <g id="text_65">
      <!-- 0.4 -->
      <g transform="translate(595.496875 366.085939)scale(0.1 -0.1)">
       <use xlink:href="#DejaVuSans-48"/>
       <use x="63.623047" xlink:href="#DejaVuSans-46"/>
       <use x="95.410156" xlink:href="#DejaVuSans-52"/>
      </g>
     </g>
    </g>
    <g id="ytick_26">
     <g id="line2d_68">
      <g>
       <use style="stroke:#000000;stroke-width:0.8;" x="618.4" xlink:href="#mc9cc8e927d" y="330.782249"/>
      </g>
     </g>
     <g id="text_66">
      <!-- 0.5 -->
      <g transform="translate(595.496875 334.581467)scale(0.1 -0.1)">
       <use xlink:href="#DejaVuSans-48"/>
       <use x="63.623047" xlink:href="#DejaVuSans-46"/>
       <use x="95.410156" xlink:href="#DejaVuSans-53"/>
      </g>
     </g>
    </g>
    <g id="ytick_27">
     <g id="line2d_69">
      <g>
       <use style="stroke:#000000;stroke-width:0.8;" x="618.4" xlink:href="#mc9cc8e927d" y="299.277777"/>
      </g>
     </g>
     <g id="text_67">
      <!-- 0.6 -->
      <g transform="translate(595.496875 303.076996)scale(0.1 -0.1)">
       <use xlink:href="#DejaVuSans-48"/>
       <use x="63.623047" xlink:href="#DejaVuSans-46"/>
       <use x="95.410156" xlink:href="#DejaVuSans-54"/>
      </g>
     </g>
    </g>
    <g id="text_68">
     <!-- Validation accuracy -->
     <g transform="translate(589.417187 416.639063)rotate(-90)scale(0.1 -0.1)">
      <use xlink:href="#DejaVuSans-86"/>
      <use x="60.658203" xlink:href="#DejaVuSans-97"/>
      <use x="121.9375" xlink:href="#DejaVuSans-108"/>
      <use x="149.720703" xlink:href="#DejaVuSans-105"/>
      <use x="177.503906" xlink:href="#DejaVuSans-100"/>
      <use x="240.980469" xlink:href="#DejaVuSans-97"/>
      <use x="302.259766" xlink:href="#DejaVuSans-116"/>
      <use x="341.46875" xlink:href="#DejaVuSans-105"/>
      <use x="369.251953" xlink:href="#DejaVuSans-111"/>
      <use x="430.433594" xlink:href="#DejaVuSans-110"/>
      <use x="493.8125" xlink:href="#DejaVuSans-32"/>
      <use x="525.599609" xlink:href="#DejaVuSans-97"/>
      <use x="586.878906" xlink:href="#DejaVuSans-99"/>
      <use x="641.859375" xlink:href="#DejaVuSans-99"/>
      <use x="696.839844" xlink:href="#DejaVuSans-117"/>
      <use x="760.21875" xlink:href="#DejaVuSans-114"/>
      <use x="801.332031" xlink:href="#DejaVuSans-97"/>
      <use x="862.611328" xlink:href="#DejaVuSans-99"/>
      <use x="917.591797" xlink:href="#DejaVuSans-121"/>
     </g>
    </g>
   </g>
   <g id="line2d_70">
    <path clip-path="url(#pa06c0fd133)" d="M 642.163636 453.618182 
L 646.964371 447.443304 
L 651.765106 439.504179 
L 656.56584 436.1332 
L 661.366575 433.014256 
L 666.167309 440.984891 
L 670.968044 437.456387 
L 675.768779 435.503109 
L 680.569513 429.233721 
L 685.370248 423.688934 
L 690.170983 427.658499 
L 694.971717 410.079003 
L 699.772452 418.112643 
L 704.573186 405.573862 
L 709.373921 400.533146 
L 714.174656 392.594025 
L 718.97539 395.68146 
L 723.776125 391.617384 
L 728.57686 378.196478 
L 733.377594 389.223042 
L 738.178329 386.041088 
L 742.979063 372.966732 
L 747.779798 371.86408 
L 752.580533 377.345857 
L 757.381267 373.344792 
L 762.182002 361.530617 
L 766.982736 374.447443 
L 771.783471 358.600694 
L 776.584206 357.750073 
L 781.38494 362.003178 
L 786.185675 355.8283 
L 790.98641 359.766365 
L 795.787144 345.620857 
L 800.587879 350.189003 
L 805.388613 356.710431 
L 810.189348 349.684932 
L 814.990083 338.973409 
L 819.790817 354.158568 
L 824.591552 338.280308 
L 829.392287 329.774107 
L 834.193021 334.342253 
L 838.993756 340.517131 
L 843.79449 330.624719 
L 848.595225 327.096234 
L 853.39596 324.0403 
L 858.196694 327.568785 
L 862.997429 328.230395 
L 867.798163 328.324905 
L 872.598898 313.738337 
L 877.399633 323.78826 
L 882.200367 321.960998 
L 887.001102 332.514991 
L 891.801837 325.363482 
L 896.602571 321.519937 
L 901.403306 312.950726 
L 906.20404 325.142951 
L 911.004775 317.424352 
L 915.80551 307.09088 
L 920.606244 315.534089 
L 925.406979 315.56558 
L 930.207713 317.329842 
L 935.008448 306.744329 
L 939.809183 312.887707 
L 944.609917 307.626469 
L 949.410652 324.0403 
L 954.211387 307.279919 
L 959.012121 302.428233 
L 963.812856 304.917086 
L 968.61359 318.747534 
L 973.414325 312.541156 
L 978.21506 299.65583 
L 983.015794 295.182204 
L 987.816529 286.108913 
L 992.617264 305.956718 
L 997.417998 307.122389 
L 1002.218733 302.113173 
L 1007.019467 296.284856 
L 1011.820202 293.449452 
L 1016.620937 291.24413 
L 1021.421671 292.409801 
L 1026.222406 289.007317 
L 1031.02314 293.764493 
L 1035.823875 293.732983 
L 1040.62461 297.513527 
L 1045.425344 290.078478 
L 1050.226079 284.974751 
L 1055.026814 294.993164 
L 1059.827548 287.999175 
L 1064.628283 283.242 
L 1069.429017 288.755277 
L 1074.229752 284.911732 
L 1079.030487 301.420073 
L 1083.831221 288.377236 
L 1088.631956 283.305019 
L 1093.432691 287.022544 
L 1098.233425 289.605907 
L 1103.03416 283.399529 
L 1107.834894 284.596691 
L 1112.635629 282.580409 
L 1117.436364 281.981818 
" style="fill:none;stroke:#0000ff;stroke-linecap:square;stroke-width:1.5;"/>
   </g>
   <g id="line2d_71">
    <path clip-path="url(#pa06c0fd133)" d="M 642.163636 443.662769 
L 646.964371 437.550902 
L 651.765106 441.898517 
L 656.56584 439.346659 
L 661.366575 435.755145 
L 666.167309 435.377094 
L 670.968044 425.547697 
L 675.768779 427.280444 
L 680.569513 420.443975 
L 685.370248 408.566786 
L 690.170983 411.276174 
L 694.971717 391.459864 
L 699.772452 389.254551 
L 704.573186 386.734189 
L 709.373921 378.385508 
L 714.174656 378.637538 
L 718.97539 382.638613 
L 723.776125 379.519669 
L 728.57686 375.392584 
L 733.377594 384.875426 
L 738.178329 370.918949 
L 742.979063 375.077534 
L 747.779798 382.229053 
L 752.580533 362.475748 
L 757.381267 375.644615 
L 762.182002 363.420879 
L 766.982736 368.020535 
L 771.783471 355.54476 
L 776.584206 360.490966 
L 781.38494 357.529542 
L 786.185675 359.860875 
L 790.98641 356.332371 
L 795.787144 333.838183 
L 800.587879 344.990766 
L 805.388613 346.376958 
L 810.189348 339.85554 
L 814.990083 342.879964 
L 819.790817 342.060853 
L 824.591552 342.438903 
L 829.392287 342.785454 
L 834.193021 355.450249 
L 838.993756 334.153223 
L 843.79449 336.011995 
L 848.595225 324.197811 
L 853.39596 331.63287 
L 858.196694 337.587217 
L 862.997429 330.750739 
L 867.798163 333.082072 
L 872.598898 327.726315 
L 877.399633 330.530209 
L 882.200367 315.84913 
L 887.001102 325.773033 
L 891.801837 331.223309 
L 896.602571 334.247743 
L 901.403306 322.622589 
L 906.20404 332.672521 
L 911.004775 315.94364 
L 915.80551 310.650893 
L 920.606244 332.01092 
L 925.406979 323.441709 
L 930.207713 318.905064 
L 935.008448 313.990358 
L 939.809183 313.108237 
L 944.609917 309.453713 
L 949.410652 315.439579 
L 954.211387 318.022943 
L 959.012121 300.25442 
L 963.812856 307.97302 
L 968.61359 319.314615 
L 973.414325 312.950726 
L 978.21506 310.430363 
L 983.015794 309.894792 
L 987.816529 308.918142 
L 992.617264 316.258681 
L 997.417998 318.274983 
L 1002.218733 301.483092 
L 1007.019467 305.547167 
L 1011.820202 299.340789 
L 1016.620937 304.444516 
L 1021.421671 297.608038 
L 1026.222406 298.679198 
L 1031.02314 303.499375 
L 1035.823875 303.404864 
L 1040.62461 302.239193 
L 1045.425344 301.640622 
L 1050.226079 297.954588 
L 1055.026814 298.143609 
L 1059.827548 294.772634 
L 1064.628283 300.00238 
L 1069.429017 291.49617 
L 1074.229752 304.602027 
L 1079.030487 301.042031 
L 1083.831221 294.237063 
L 1088.631956 293.102902 
L 1093.432691 294.898654 
L 1098.233425 305.043087 
L 1103.03416 301.798133 
L 1107.834894 289.007317 
L 1112.635629 295.560245 
L 1117.436364 291.52768 
" style="fill:none;stroke:#ff0000;stroke-linecap:square;stroke-width:1.5;"/>
   </g>
   <g id="patch_21">
    <path d="M 618.4 462.2 
L 618.4 273.4 
" style="fill:none;stroke:#000000;stroke-linecap:square;stroke-linejoin:miter;stroke-width:0.8;"/>
   </g>
   <g id="patch_22">
    <path d="M 1141.2 462.2 
L 1141.2 273.4 
" style="fill:none;stroke:#000000;stroke-linecap:square;stroke-linejoin:miter;stroke-width:0.8;"/>
   </g>
   <g id="patch_23">
    <path d="M 618.4 462.2 
L 1141.2 462.2 
" style="fill:none;stroke:#000000;stroke-linecap:square;stroke-linejoin:miter;stroke-width:0.8;"/>
   </g>
   <g id="patch_24">
    <path d="M 618.4 273.4 
L 1141.2 273.4 
" style="fill:none;stroke:#000000;stroke-linecap:square;stroke-linejoin:miter;stroke-width:0.8;"/>
   </g>
   <g id="text_69">
    <!-- Accuracy for 70% weights watermarked -->
    <g transform="translate(760.102812 267.4)scale(0.12 -0.12)">
     <use xlink:href="#DejaVuSans-65"/>
     <use x="66.658203" xlink:href="#DejaVuSans-99"/>
     <use x="121.638672" xlink:href="#DejaVuSans-99"/>
     <use x="176.619141" xlink:href="#DejaVuSans-117"/>
     <use x="239.998047" xlink:href="#DejaVuSans-114"/>
     <use x="281.111328" xlink:href="#DejaVuSans-97"/>
     <use x="342.390625" xlink:href="#DejaVuSans-99"/>
     <use x="397.371094" xlink:href="#DejaVuSans-121"/>
     <use x="456.550781" xlink:href="#DejaVuSans-32"/>
     <use x="488.337891" xlink:href="#DejaVuSans-102"/>
     <use x="523.542969" xlink:href="#DejaVuSans-111"/>
     <use x="584.724609" xlink:href="#DejaVuSans-114"/>
     <use x="625.837891" xlink:href="#DejaVuSans-32"/>
     <use x="657.625" xlink:href="#DejaVuSans-55"/>
     <use x="721.248047" xlink:href="#DejaVuSans-48"/>
     <use x="784.871094" xlink:href="#DejaVuSans-37"/>
     <use x="879.890625" xlink:href="#DejaVuSans-32"/>
     <use x="911.677734" xlink:href="#DejaVuSans-119"/>
     <use x="993.464844" xlink:href="#DejaVuSans-101"/>
     <use x="1054.988281" xlink:href="#DejaVuSans-105"/>
     <use x="1082.771484" xlink:href="#DejaVuSans-103"/>
     <use x="1146.248047" xlink:href="#DejaVuSans-104"/>
     <use x="1209.626953" xlink:href="#DejaVuSans-116"/>
     <use x="1248.835938" xlink:href="#DejaVuSans-115"/>
     <use x="1300.935547" xlink:href="#DejaVuSans-32"/>
     <use x="1332.722656" xlink:href="#DejaVuSans-119"/>
     <use x="1414.509766" xlink:href="#DejaVuSans-97"/>
     <use x="1475.789062" xlink:href="#DejaVuSans-116"/>
     <use x="1514.998047" xlink:href="#DejaVuSans-101"/>
     <use x="1576.521484" xlink:href="#DejaVuSans-114"/>
     <use x="1615.884766" xlink:href="#DejaVuSans-109"/>
     <use x="1713.296875" xlink:href="#DejaVuSans-97"/>
     <use x="1774.576172" xlink:href="#DejaVuSans-114"/>
     <use x="1815.689453" xlink:href="#DejaVuSans-107"/>
     <use x="1869.974609" xlink:href="#DejaVuSans-101"/>
     <use x="1931.498047" xlink:href="#DejaVuSans-100"/>
    </g>
   </g>
   <g id="legend_4">
    <g id="patch_25">
     <path d="M 625.4 310.75625 
L 763.176563 310.75625 
Q 765.176563 310.75625 765.176563 308.75625 
L 765.176563 280.4 
Q 765.176563 278.4 763.176563 278.4 
L 625.4 278.4 
Q 623.4 278.4 623.4 280.4 
L 623.4 308.75625 
Q 623.4 310.75625 625.4 310.75625 
z
" style="fill:#ffffff;opacity:0.8;stroke:#cccccc;stroke-linejoin:miter;"/>
    </g>
    <g id="line2d_72">
     <path d="M 627.4 286.498437 
L 647.4 286.498437 
" style="fill:none;stroke:#0000ff;stroke-linecap:square;stroke-width:1.5;"/>
    </g>
    <g id="line2d_73"/>
    <g id="text_70">
     <!-- Training from scratch -->
     <g transform="translate(655.4 289.998437)scale(0.1 -0.1)">
      <use xlink:href="#DejaVuSans-84"/>
      <use x="46.333984" xlink:href="#DejaVuSans-114"/>
      <use x="87.447266" xlink:href="#DejaVuSans-97"/>
      <use x="148.726562" xlink:href="#DejaVuSans-105"/>
      <use x="176.509766" xlink:href="#DejaVuSans-110"/>
      <use x="239.888672" xlink:href="#DejaVuSans-105"/>
      <use x="267.671875" xlink:href="#DejaVuSans-110"/>
      <use x="331.050781" xlink:href="#DejaVuSans-103"/>
      <use x="394.527344" xlink:href="#DejaVuSans-32"/>
      <use x="426.314453" xlink:href="#DejaVuSans-102"/>
      <use x="461.519531" xlink:href="#DejaVuSans-114"/>
      <use x="500.382812" xlink:href="#DejaVuSans-111"/>
      <use x="561.564453" xlink:href="#DejaVuSans-109"/>
      <use x="658.976562" xlink:href="#DejaVuSans-32"/>
      <use x="690.763672" xlink:href="#DejaVuSans-115"/>
      <use x="742.863281" xlink:href="#DejaVuSans-99"/>
      <use x="797.84375" xlink:href="#DejaVuSans-114"/>
      <use x="838.957031" xlink:href="#DejaVuSans-97"/>
      <use x="900.236328" xlink:href="#DejaVuSans-116"/>
      <use x="939.445312" xlink:href="#DejaVuSans-99"/>
      <use x="994.425781" xlink:href="#DejaVuSans-104"/>
     </g>
    </g>
    <g id="line2d_74">
     <path d="M 627.4 301.176562 
L 647.4 301.176562 
" style="fill:none;stroke:#ff0000;stroke-linecap:square;stroke-width:1.5;"/>
    </g>
    <g id="line2d_75"/>
    <g id="text_71">
     <!-- Transfer attack -->
     <g transform="translate(655.4 304.676562)scale(0.1 -0.1)">
      <use xlink:href="#DejaVuSans-84"/>
      <use x="46.333984" xlink:href="#DejaVuSans-114"/>
      <use x="87.447266" xlink:href="#DejaVuSans-97"/>
      <use x="148.726562" xlink:href="#DejaVuSans-110"/>
      <use x="212.105469" xlink:href="#DejaVuSans-115"/>
      <use x="264.205078" xlink:href="#DejaVuSans-102"/>
      <use x="299.410156" xlink:href="#DejaVuSans-101"/>
      <use x="360.933594" xlink:href="#DejaVuSans-114"/>
      <use x="402.046875" xlink:href="#DejaVuSans-32"/>
      <use x="433.833984" xlink:href="#DejaVuSans-97"/>
      <use x="495.113281" xlink:href="#DejaVuSans-116"/>
      <use x="534.322266" xlink:href="#DejaVuSans-116"/>
      <use x="573.53125" xlink:href="#DejaVuSans-97"/>
      <use x="634.810547" xlink:href="#DejaVuSans-99"/>
      <use x="689.791016" xlink:href="#DejaVuSans-107"/>
     </g>
    </g>
   </g>
  </g>
 </g>
 <defs>
  <clipPath id="p92da9c4534">
   <rect height="188.8" width="522.8" x="47.8" y="26.8"/>
  </clipPath>
  <clipPath id="p7fa55d64d1">
   <rect height="188.8" width="522.8" x="618.4" y="26.8"/>
  </clipPath>
  <clipPath id="pfb75522678">
   <rect height="188.8" width="522.8" x="47.8" y="273.4"/>
  </clipPath>
  <clipPath id="pa06c0fd133">
   <rect height="188.8" width="522.8" x="618.4" y="273.4"/>
  </clipPath>
 </defs>
</svg>
