<?xml version="1.0" encoding="utf-8" standalone="no"?>
<!DOCTYPE svg PUBLIC "-//W3C//DTD SVG 1.1//EN"
  "http://www.w3.org/Graphics/SVG/1.1/DTD/svg11.dtd">
<!-- Created with matplotlib (https://matplotlib.org/) -->
<svg height="504pt" version="1.1" viewBox="0 0 1152 504" width="1152pt" xmlns="http://www.w3.org/2000/svg" xmlns:xlink="http://www.w3.org/1999/xlink">
 <defs>
  <style type="text/css">
*{stroke-linecap:butt;stroke-linejoin:round;}
  </style>
 </defs>
 <g id="figure_1">
  <g id="patch_1">
   <path d="M 0 504 
L 1152 504 
L 1152 0 
L 0 0 
z
" style="fill:#ffffff;"/>
  </g>
  <g id="axes_1">
   <g id="patch_2">
    <path d="M 144 441 
L 1036.8 441 
L 1036.8 60.48 
L 144 60.48 
z
" style="fill:#ffffff;"/>
   </g>
   <g id="matplotlib.axis_1">
    <g id="xtick_1">
     <g id="line2d_1">
      <defs>
       <path d="M 0 0 
L 0 3.5 
" id="m3f5a952593" style="stroke:#000000;stroke-width:0.8;"/>
      </defs>
      <g>
       <use style="stroke:#000000;stroke-width:0.8;" x="176.383471" xlink:href="#m3f5a952593" y="441"/>
      </g>
     </g>
     <g id="text_1">
      <!-- 0 -->
      <defs>
       <path d="M 31.78125 66.40625 
Q 24.171875 66.40625 20.328125 58.90625 
Q 16.5 51.421875 16.5 36.375 
Q 16.5 21.390625 20.328125 13.890625 
Q 24.171875 6.390625 31.78125 6.390625 
Q 39.453125 6.390625 43.28125 13.890625 
Q 47.125 21.390625 47.125 36.375 
Q 47.125 51.421875 43.28125 58.90625 
Q 39.453125 66.40625 31.78125 66.40625 
z
M 31.78125 74.21875 
Q 44.046875 74.21875 50.515625 64.515625 
Q 56.984375 54.828125 56.984375 36.375 
Q 56.984375 17.96875 50.515625 8.265625 
Q 44.046875 -1.421875 31.78125 -1.421875 
Q 19.53125 -1.421875 13.0625 8.265625 
Q 6.59375 17.96875 6.59375 36.375 
Q 6.59375 54.828125 13.0625 64.515625 
Q 19.53125 74.21875 31.78125 74.21875 
z
" id="DejaVuSans-48"/>
      </defs>
      <g transform="translate(173.202221 455.598437)scale(0.1 -0.1)">
       <use xlink:href="#DejaVuSans-48"/>
      </g>
     </g>
    </g>
    <g id="xtick_2">
     <g id="line2d_2">
      <g>
       <use style="stroke:#000000;stroke-width:0.8;" x="340.350413" xlink:href="#m3f5a952593" y="441"/>
      </g>
     </g>
     <g id="text_2">
      <!-- 20 -->
      <defs>
       <path d="M 19.1875 8.296875 
L 53.609375 8.296875 
L 53.609375 0 
L 7.328125 0 
L 7.328125 8.296875 
Q 12.9375 14.109375 22.625 23.890625 
Q 32.328125 33.6875 34.8125 36.53125 
Q 39.546875 41.84375 41.421875 45.53125 
Q 43.3125 49.21875 43.3125 52.78125 
Q 43.3125 58.59375 39.234375 62.25 
Q 35.15625 65.921875 28.609375 65.921875 
Q 23.96875 65.921875 18.8125 64.3125 
Q 13.671875 62.703125 7.8125 59.421875 
L 7.8125 69.390625 
Q 13.765625 71.78125 18.9375 73 
Q 24.125 74.21875 28.421875 74.21875 
Q 39.75 74.21875 46.484375 68.546875 
Q 53.21875 62.890625 53.21875 53.421875 
Q 53.21875 48.921875 51.53125 44.890625 
Q 49.859375 40.875 45.40625 35.40625 
Q 44.1875 33.984375 37.640625 27.21875 
Q 31.109375 20.453125 19.1875 8.296875 
z
" id="DejaVuSans-50"/>
      </defs>
      <g transform="translate(333.987913 455.598437)scale(0.1 -0.1)">
       <use xlink:href="#DejaVuSans-50"/>
       <use x="63.623047" xlink:href="#DejaVuSans-48"/>
      </g>
     </g>
    </g>
    <g id="xtick_3">
     <g id="line2d_3">
      <g>
       <use style="stroke:#000000;stroke-width:0.8;" x="504.317355" xlink:href="#m3f5a952593" y="441"/>
      </g>
     </g>
     <g id="text_3">
      <!-- 40 -->
      <defs>
       <path d="M 37.796875 64.3125 
L 12.890625 25.390625 
L 37.796875 25.390625 
z
M 35.203125 72.90625 
L 47.609375 72.90625 
L 47.609375 25.390625 
L 58.015625 25.390625 
L 58.015625 17.1875 
L 47.609375 17.1875 
L 47.609375 0 
L 37.796875 0 
L 37.796875 17.1875 
L 4.890625 17.1875 
L 4.890625 26.703125 
z
" id="DejaVuSans-52"/>
      </defs>
      <g transform="translate(497.954855 455.598437)scale(0.1 -0.1)">
       <use xlink:href="#DejaVuSans-52"/>
       <use x="63.623047" xlink:href="#DejaVuSans-48"/>
      </g>
     </g>
    </g>
    <g id="xtick_4">
     <g id="line2d_4">
      <g>
       <use style="stroke:#000000;stroke-width:0.8;" x="668.284298" xlink:href="#m3f5a952593" y="441"/>
      </g>
     </g>
     <g id="text_4">
      <!-- 60 -->
      <defs>
       <path d="M 33.015625 40.375 
Q 26.375 40.375 22.484375 35.828125 
Q 18.609375 31.296875 18.609375 23.390625 
Q 18.609375 15.53125 22.484375 10.953125 
Q 26.375 6.390625 33.015625 6.390625 
Q 39.65625 6.390625 43.53125 10.953125 
Q 47.40625 15.53125 47.40625 23.390625 
Q 47.40625 31.296875 43.53125 35.828125 
Q 39.65625 40.375 33.015625 40.375 
z
M 52.59375 71.296875 
L 52.59375 62.3125 
Q 48.875 64.0625 45.09375 64.984375 
Q 41.3125 65.921875 37.59375 65.921875 
Q 27.828125 65.921875 22.671875 59.328125 
Q 17.53125 52.734375 16.796875 39.40625 
Q 19.671875 43.65625 24.015625 45.921875 
Q 28.375 48.1875 33.59375 48.1875 
Q 44.578125 48.1875 50.953125 41.515625 
Q 57.328125 34.859375 57.328125 23.390625 
Q 57.328125 12.15625 50.6875 5.359375 
Q 44.046875 -1.421875 33.015625 -1.421875 
Q 20.359375 -1.421875 13.671875 8.265625 
Q 6.984375 17.96875 6.984375 36.375 
Q 6.984375 53.65625 15.1875 63.9375 
Q 23.390625 74.21875 37.203125 74.21875 
Q 40.921875 74.21875 44.703125 73.484375 
Q 48.484375 72.75 52.59375 71.296875 
z
" id="DejaVuSans-54"/>
      </defs>
      <g transform="translate(661.921798 455.598437)scale(0.1 -0.1)">
       <use xlink:href="#DejaVuSans-54"/>
       <use x="63.623047" xlink:href="#DejaVuSans-48"/>
      </g>
     </g>
    </g>
    <g id="xtick_5">
     <g id="line2d_5">
      <g>
       <use style="stroke:#000000;stroke-width:0.8;" x="832.25124" xlink:href="#m3f5a952593" y="441"/>
      </g>
     </g>
     <g id="text_5">
      <!-- 80 -->
      <defs>
       <path d="M 31.78125 34.625 
Q 24.75 34.625 20.71875 30.859375 
Q 16.703125 27.09375 16.703125 20.515625 
Q 16.703125 13.921875 20.71875 10.15625 
Q 24.75 6.390625 31.78125 6.390625 
Q 38.8125 6.390625 42.859375 10.171875 
Q 46.921875 13.96875 46.921875 20.515625 
Q 46.921875 27.09375 42.890625 30.859375 
Q 38.875 34.625 31.78125 34.625 
z
M 21.921875 38.8125 
Q 15.578125 40.375 12.03125 44.71875 
Q 8.5 49.078125 8.5 55.328125 
Q 8.5 64.0625 14.71875 69.140625 
Q 20.953125 74.21875 31.78125 74.21875 
Q 42.671875 74.21875 48.875 69.140625 
Q 55.078125 64.0625 55.078125 55.328125 
Q 55.078125 49.078125 51.53125 44.71875 
Q 48 40.375 41.703125 38.8125 
Q 48.828125 37.15625 52.796875 32.3125 
Q 56.78125 27.484375 56.78125 20.515625 
Q 56.78125 9.90625 50.3125 4.234375 
Q 43.84375 -1.421875 31.78125 -1.421875 
Q 19.734375 -1.421875 13.25 4.234375 
Q 6.78125 9.90625 6.78125 20.515625 
Q 6.78125 27.484375 10.78125 32.3125 
Q 14.796875 37.15625 21.921875 38.8125 
z
M 18.3125 54.390625 
Q 18.3125 48.734375 21.84375 45.5625 
Q 25.390625 42.390625 31.78125 42.390625 
Q 38.140625 42.390625 41.71875 45.5625 
Q 45.3125 48.734375 45.3125 54.390625 
Q 45.3125 60.0625 41.71875 63.234375 
Q 38.140625 66.40625 31.78125 66.40625 
Q 25.390625 66.40625 21.84375 63.234375 
Q 18.3125 60.0625 18.3125 54.390625 
z
" id="DejaVuSans-56"/>
      </defs>
      <g transform="translate(825.88874 455.598437)scale(0.1 -0.1)">
       <use xlink:href="#DejaVuSans-56"/>
       <use x="63.623047" xlink:href="#DejaVuSans-48"/>
      </g>
     </g>
    </g>
    <g id="xtick_6">
     <g id="line2d_6">
      <g>
       <use style="stroke:#000000;stroke-width:0.8;" x="996.218182" xlink:href="#m3f5a952593" y="441"/>
      </g>
     </g>
     <g id="text_6">
      <!-- 100 -->
      <defs>
       <path d="M 12.40625 8.296875 
L 28.515625 8.296875 
L 28.515625 63.921875 
L 10.984375 60.40625 
L 10.984375 69.390625 
L 28.421875 72.90625 
L 38.28125 72.90625 
L 38.28125 8.296875 
L 54.390625 8.296875 
L 54.390625 0 
L 12.40625 0 
z
" id="DejaVuSans-49"/>
      </defs>
      <g transform="translate(986.674432 455.598437)scale(0.1 -0.1)">
       <use xlink:href="#DejaVuSans-49"/>
       <use x="63.623047" xlink:href="#DejaVuSans-48"/>
       <use x="127.246094" xlink:href="#DejaVuSans-48"/>
      </g>
     </g>
    </g>
    <g id="text_7">
     <!-- Epochs -->
     <defs>
      <path d="M 9.8125 72.90625 
L 55.90625 72.90625 
L 55.90625 64.59375 
L 19.671875 64.59375 
L 19.671875 43.015625 
L 54.390625 43.015625 
L 54.390625 34.71875 
L 19.671875 34.71875 
L 19.671875 8.296875 
L 56.78125 8.296875 
L 56.78125 0 
L 9.8125 0 
z
" id="DejaVuSans-69"/>
      <path d="M 18.109375 8.203125 
L 18.109375 -20.796875 
L 9.078125 -20.796875 
L 9.078125 54.6875 
L 18.109375 54.6875 
L 18.109375 46.390625 
Q 20.953125 51.265625 25.265625 53.625 
Q 29.59375 56 35.59375 56 
Q 45.5625 56 51.78125 48.09375 
Q 58.015625 40.1875 58.015625 27.296875 
Q 58.015625 14.40625 51.78125 6.484375 
Q 45.5625 -1.421875 35.59375 -1.421875 
Q 29.59375 -1.421875 25.265625 0.953125 
Q 20.953125 3.328125 18.109375 8.203125 
z
M 48.6875 27.296875 
Q 48.6875 37.203125 44.609375 42.84375 
Q 40.53125 48.484375 33.40625 48.484375 
Q 26.265625 48.484375 22.1875 42.84375 
Q 18.109375 37.203125 18.109375 27.296875 
Q 18.109375 17.390625 22.1875 11.75 
Q 26.265625 6.109375 33.40625 6.109375 
Q 40.53125 6.109375 44.609375 11.75 
Q 48.6875 17.390625 48.6875 27.296875 
z
" id="DejaVuSans-112"/>
      <path d="M 30.609375 48.390625 
Q 23.390625 48.390625 19.1875 42.75 
Q 14.984375 37.109375 14.984375 27.296875 
Q 14.984375 17.484375 19.15625 11.84375 
Q 23.34375 6.203125 30.609375 6.203125 
Q 37.796875 6.203125 41.984375 11.859375 
Q 46.1875 17.53125 46.1875 27.296875 
Q 46.1875 37.015625 41.984375 42.703125 
Q 37.796875 48.390625 30.609375 48.390625 
z
M 30.609375 56 
Q 42.328125 56 49.015625 48.375 
Q 55.71875 40.765625 55.71875 27.296875 
Q 55.71875 13.875 49.015625 6.21875 
Q 42.328125 -1.421875 30.609375 -1.421875 
Q 18.84375 -1.421875 12.171875 6.21875 
Q 5.515625 13.875 5.515625 27.296875 
Q 5.515625 40.765625 12.171875 48.375 
Q 18.84375 56 30.609375 56 
z
" id="DejaVuSans-111"/>
      <path d="M 48.78125 52.59375 
L 48.78125 44.1875 
Q 44.96875 46.296875 41.140625 47.34375 
Q 37.3125 48.390625 33.40625 48.390625 
Q 24.65625 48.390625 19.8125 42.84375 
Q 14.984375 37.3125 14.984375 27.296875 
Q 14.984375 17.28125 19.8125 11.734375 
Q 24.65625 6.203125 33.40625 6.203125 
Q 37.3125 6.203125 41.140625 7.25 
Q 44.96875 8.296875 48.78125 10.40625 
L 48.78125 2.09375 
Q 45.015625 0.34375 40.984375 -0.53125 
Q 36.96875 -1.421875 32.421875 -1.421875 
Q 20.0625 -1.421875 12.78125 6.34375 
Q 5.515625 14.109375 5.515625 27.296875 
Q 5.515625 40.671875 12.859375 48.328125 
Q 20.21875 56 33.015625 56 
Q 37.15625 56 41.109375 55.140625 
Q 45.0625 54.296875 48.78125 52.59375 
z
" id="DejaVuSans-99"/>
      <path d="M 54.890625 33.015625 
L 54.890625 0 
L 45.90625 0 
L 45.90625 32.71875 
Q 45.90625 40.484375 42.875 44.328125 
Q 39.84375 48.1875 33.796875 48.1875 
Q 26.515625 48.1875 22.3125 43.546875 
Q 18.109375 38.921875 18.109375 30.90625 
L 18.109375 0 
L 9.078125 0 
L 9.078125 75.984375 
L 18.109375 75.984375 
L 18.109375 46.1875 
Q 21.34375 51.125 25.703125 53.5625 
Q 30.078125 56 35.796875 56 
Q 45.21875 56 50.046875 50.171875 
Q 54.890625 44.34375 54.890625 33.015625 
z
" id="DejaVuSans-104"/>
      <path d="M 44.28125 53.078125 
L 44.28125 44.578125 
Q 40.484375 46.53125 36.375 47.5 
Q 32.28125 48.484375 27.875 48.484375 
Q 21.1875 48.484375 17.84375 46.4375 
Q 14.5 44.390625 14.5 40.28125 
Q 14.5 37.15625 16.890625 35.375 
Q 19.28125 33.59375 26.515625 31.984375 
L 29.59375 31.296875 
Q 39.15625 29.25 43.1875 25.515625 
Q 47.21875 21.78125 47.21875 15.09375 
Q 47.21875 7.46875 41.1875 3.015625 
Q 35.15625 -1.421875 24.609375 -1.421875 
Q 20.21875 -1.421875 15.453125 -0.5625 
Q 10.6875 0.296875 5.421875 2 
L 5.421875 11.28125 
Q 10.40625 8.6875 15.234375 7.390625 
Q 20.0625 6.109375 24.8125 6.109375 
Q 31.15625 6.109375 34.5625 8.28125 
Q 37.984375 10.453125 37.984375 14.40625 
Q 37.984375 18.0625 35.515625 20.015625 
Q 33.0625 21.96875 24.703125 23.78125 
L 21.578125 24.515625 
Q 13.234375 26.265625 9.515625 29.90625 
Q 5.8125 33.546875 5.8125 39.890625 
Q 5.8125 47.609375 11.28125 51.796875 
Q 16.75 56 26.8125 56 
Q 31.78125 56 36.171875 55.265625 
Q 40.578125 54.546875 44.28125 53.078125 
z
" id="DejaVuSans-115"/>
     </defs>
     <g transform="translate(572.484375 469.276563)scale(0.1 -0.1)">
      <use xlink:href="#DejaVuSans-69"/>
      <use x="63.183594" xlink:href="#DejaVuSans-112"/>
      <use x="126.660156" xlink:href="#DejaVuSans-111"/>
      <use x="187.841797" xlink:href="#DejaVuSans-99"/>
      <use x="242.822266" xlink:href="#DejaVuSans-104"/>
      <use x="306.201172" xlink:href="#DejaVuSans-115"/>
     </g>
    </g>
   </g>
   <g id="matplotlib.axis_2">
    <g id="ytick_1">
     <g id="line2d_7">
      <defs>
       <path d="M 0 0 
L -3.5 0 
" id="m874b7f22dd" style="stroke:#000000;stroke-width:0.8;"/>
      </defs>
      <g>
       <use style="stroke:#000000;stroke-width:0.8;" x="144" xlink:href="#m874b7f22dd" y="418.928035"/>
      </g>
     </g>
     <g id="text_8">
      <!-- 10% -->
      <defs>
       <path d="M 72.703125 32.078125 
Q 68.453125 32.078125 66.03125 28.46875 
Q 63.625 24.859375 63.625 18.40625 
Q 63.625 12.0625 66.03125 8.421875 
Q 68.453125 4.78125 72.703125 4.78125 
Q 76.859375 4.78125 79.265625 8.421875 
Q 81.6875 12.0625 81.6875 18.40625 
Q 81.6875 24.8125 79.265625 28.4375 
Q 76.859375 32.078125 72.703125 32.078125 
z
M 72.703125 38.28125 
Q 80.421875 38.28125 84.953125 32.90625 
Q 89.5 27.546875 89.5 18.40625 
Q 89.5 9.28125 84.9375 3.921875 
Q 80.375 -1.421875 72.703125 -1.421875 
Q 64.890625 -1.421875 60.34375 3.921875 
Q 55.8125 9.28125 55.8125 18.40625 
Q 55.8125 27.59375 60.375 32.9375 
Q 64.9375 38.28125 72.703125 38.28125 
z
M 22.3125 68.015625 
Q 18.109375 68.015625 15.6875 64.375 
Q 13.28125 60.75 13.28125 54.390625 
Q 13.28125 47.953125 15.671875 44.328125 
Q 18.0625 40.71875 22.3125 40.71875 
Q 26.5625 40.71875 28.96875 44.328125 
Q 31.390625 47.953125 31.390625 54.390625 
Q 31.390625 60.6875 28.953125 64.34375 
Q 26.515625 68.015625 22.3125 68.015625 
z
M 66.40625 74.21875 
L 74.21875 74.21875 
L 28.609375 -1.421875 
L 20.796875 -1.421875 
z
M 22.3125 74.21875 
Q 30.03125 74.21875 34.609375 68.875 
Q 39.203125 63.53125 39.203125 54.390625 
Q 39.203125 45.171875 34.640625 39.84375 
Q 30.078125 34.515625 22.3125 34.515625 
Q 14.546875 34.515625 10.03125 39.859375 
Q 5.515625 45.21875 5.515625 54.390625 
Q 5.515625 63.484375 10.046875 68.84375 
Q 14.59375 74.21875 22.3125 74.21875 
z
" id="DejaVuSans-37"/>
      </defs>
      <g transform="translate(114.773438 422.727253)scale(0.1 -0.1)">
       <use xlink:href="#DejaVuSans-49"/>
       <use x="63.623047" xlink:href="#DejaVuSans-48"/>
       <use x="127.246094" xlink:href="#DejaVuSans-37"/>
      </g>
     </g>
    </g>
    <g id="ytick_2">
     <g id="line2d_8">
      <g>
       <use style="stroke:#000000;stroke-width:0.8;" x="144" xlink:href="#m874b7f22dd" y="375.513467"/>
      </g>
     </g>
     <g id="text_9">
      <!-- 20% -->
      <g transform="translate(114.773438 379.312686)scale(0.1 -0.1)">
       <use xlink:href="#DejaVuSans-50"/>
       <use x="63.623047" xlink:href="#DejaVuSans-48"/>
       <use x="127.246094" xlink:href="#DejaVuSans-37"/>
      </g>
     </g>
    </g>
    <g id="ytick_3">
     <g id="line2d_9">
      <g>
       <use style="stroke:#000000;stroke-width:0.8;" x="144" xlink:href="#m874b7f22dd" y="332.0989"/>
      </g>
     </g>
     <g id="text_10">
      <!-- 30% -->
      <defs>
       <path d="M 40.578125 39.3125 
Q 47.65625 37.796875 51.625 33 
Q 55.609375 28.21875 55.609375 21.1875 
Q 55.609375 10.40625 48.1875 4.484375 
Q 40.765625 -1.421875 27.09375 -1.421875 
Q 22.515625 -1.421875 17.65625 -0.515625 
Q 12.796875 0.390625 7.625 2.203125 
L 7.625 11.71875 
Q 11.71875 9.328125 16.59375 8.109375 
Q 21.484375 6.890625 26.8125 6.890625 
Q 36.078125 6.890625 40.9375 10.546875 
Q 45.796875 14.203125 45.796875 21.1875 
Q 45.796875 27.640625 41.28125 31.265625 
Q 36.765625 34.90625 28.71875 34.90625 
L 20.21875 34.90625 
L 20.21875 43.015625 
L 29.109375 43.015625 
Q 36.375 43.015625 40.234375 45.921875 
Q 44.09375 48.828125 44.09375 54.296875 
Q 44.09375 59.90625 40.109375 62.90625 
Q 36.140625 65.921875 28.71875 65.921875 
Q 24.65625 65.921875 20.015625 65.03125 
Q 15.375 64.15625 9.8125 62.3125 
L 9.8125 71.09375 
Q 15.4375 72.65625 20.34375 73.4375 
Q 25.25 74.21875 29.59375 74.21875 
Q 40.828125 74.21875 47.359375 69.109375 
Q 53.90625 64.015625 53.90625 55.328125 
Q 53.90625 49.265625 50.4375 45.09375 
Q 46.96875 40.921875 40.578125 39.3125 
z
" id="DejaVuSans-51"/>
      </defs>
      <g transform="translate(114.773438 335.898119)scale(0.1 -0.1)">
       <use xlink:href="#DejaVuSans-51"/>
       <use x="63.623047" xlink:href="#DejaVuSans-48"/>
       <use x="127.246094" xlink:href="#DejaVuSans-37"/>
      </g>
     </g>
    </g>
    <g id="ytick_4">
     <g id="line2d_10">
      <g>
       <use style="stroke:#000000;stroke-width:0.8;" x="144" xlink:href="#m874b7f22dd" y="288.684333"/>
      </g>
     </g>
     <g id="text_11">
      <!-- 40% -->
      <g transform="translate(114.773438 292.483552)scale(0.1 -0.1)">
       <use xlink:href="#DejaVuSans-52"/>
       <use x="63.623047" xlink:href="#DejaVuSans-48"/>
       <use x="127.246094" xlink:href="#DejaVuSans-37"/>
      </g>
     </g>
    </g>
    <g id="ytick_5">
     <g id="line2d_11">
      <g>
       <use style="stroke:#000000;stroke-width:0.8;" x="144" xlink:href="#m874b7f22dd" y="245.269766"/>
      </g>
     </g>
     <g id="text_12">
      <!-- 50% -->
      <defs>
       <path d="M 10.796875 72.90625 
L 49.515625 72.90625 
L 49.515625 64.59375 
L 19.828125 64.59375 
L 19.828125 46.734375 
Q 21.96875 47.46875 24.109375 47.828125 
Q 26.265625 48.1875 28.421875 48.1875 
Q 40.625 48.1875 47.75 41.5 
Q 54.890625 34.8125 54.890625 23.390625 
Q 54.890625 11.625 47.5625 5.09375 
Q 40.234375 -1.421875 26.90625 -1.421875 
Q 22.3125 -1.421875 17.546875 -0.640625 
Q 12.796875 0.140625 7.71875 1.703125 
L 7.71875 11.625 
Q 12.109375 9.234375 16.796875 8.0625 
Q 21.484375 6.890625 26.703125 6.890625 
Q 35.15625 6.890625 40.078125 11.328125 
Q 45.015625 15.765625 45.015625 23.390625 
Q 45.015625 31 40.078125 35.4375 
Q 35.15625 39.890625 26.703125 39.890625 
Q 22.75 39.890625 18.8125 39.015625 
Q 14.890625 38.140625 10.796875 36.28125 
z
" id="DejaVuSans-53"/>
      </defs>
      <g transform="translate(114.773438 249.068984)scale(0.1 -0.1)">
       <use xlink:href="#DejaVuSans-53"/>
       <use x="63.623047" xlink:href="#DejaVuSans-48"/>
       <use x="127.246094" xlink:href="#DejaVuSans-37"/>
      </g>
     </g>
    </g>
    <g id="ytick_6">
     <g id="line2d_12">
      <g>
       <use style="stroke:#000000;stroke-width:0.8;" x="144" xlink:href="#m874b7f22dd" y="201.855199"/>
      </g>
     </g>
     <g id="text_13">
      <!-- 60% -->
      <g transform="translate(114.773438 205.654417)scale(0.1 -0.1)">
       <use xlink:href="#DejaVuSans-54"/>
       <use x="63.623047" xlink:href="#DejaVuSans-48"/>
       <use x="127.246094" xlink:href="#DejaVuSans-37"/>
      </g>
     </g>
    </g>
    <g id="ytick_7">
     <g id="line2d_13">
      <g>
       <use style="stroke:#000000;stroke-width:0.8;" x="144" xlink:href="#m874b7f22dd" y="158.440631"/>
      </g>
     </g>
     <g id="text_14">
      <!-- 70% -->
      <defs>
       <path d="M 8.203125 72.90625 
L 55.078125 72.90625 
L 55.078125 68.703125 
L 28.609375 0 
L 18.3125 0 
L 43.21875 64.59375 
L 8.203125 64.59375 
z
" id="DejaVuSans-55"/>
      </defs>
      <g transform="translate(114.773438 162.23985)scale(0.1 -0.1)">
       <use xlink:href="#DejaVuSans-55"/>
       <use x="63.623047" xlink:href="#DejaVuSans-48"/>
       <use x="127.246094" xlink:href="#DejaVuSans-37"/>
      </g>
     </g>
    </g>
    <g id="ytick_8">
     <g id="line2d_14">
      <g>
       <use style="stroke:#000000;stroke-width:0.8;" x="144" xlink:href="#m874b7f22dd" y="115.026064"/>
      </g>
     </g>
     <g id="text_15">
      <!-- 80% -->
      <g transform="translate(114.773438 118.825283)scale(0.1 -0.1)">
       <use xlink:href="#DejaVuSans-56"/>
       <use x="63.623047" xlink:href="#DejaVuSans-48"/>
       <use x="127.246094" xlink:href="#DejaVuSans-37"/>
      </g>
     </g>
    </g>
    <g id="ytick_9">
     <g id="line2d_15">
      <g>
       <use style="stroke:#000000;stroke-width:0.8;" x="144" xlink:href="#m874b7f22dd" y="71.611497"/>
      </g>
     </g>
     <g id="text_16">
      <!-- 90% -->
      <defs>
       <path d="M 10.984375 1.515625 
L 10.984375 10.5 
Q 14.703125 8.734375 18.5 7.8125 
Q 22.3125 6.890625 25.984375 6.890625 
Q 35.75 6.890625 40.890625 13.453125 
Q 46.046875 20.015625 46.78125 33.40625 
Q 43.953125 29.203125 39.59375 26.953125 
Q 35.25 24.703125 29.984375 24.703125 
Q 19.046875 24.703125 12.671875 31.3125 
Q 6.296875 37.9375 6.296875 49.421875 
Q 6.296875 60.640625 12.9375 67.421875 
Q 19.578125 74.21875 30.609375 74.21875 
Q 43.265625 74.21875 49.921875 64.515625 
Q 56.59375 54.828125 56.59375 36.375 
Q 56.59375 19.140625 48.40625 8.859375 
Q 40.234375 -1.421875 26.421875 -1.421875 
Q 22.703125 -1.421875 18.890625 -0.6875 
Q 15.09375 0.046875 10.984375 1.515625 
z
M 30.609375 32.421875 
Q 37.25 32.421875 41.125 36.953125 
Q 45.015625 41.5 45.015625 49.421875 
Q 45.015625 57.28125 41.125 61.84375 
Q 37.25 66.40625 30.609375 66.40625 
Q 23.96875 66.40625 20.09375 61.84375 
Q 16.21875 57.28125 16.21875 49.421875 
Q 16.21875 41.5 20.09375 36.953125 
Q 23.96875 32.421875 30.609375 32.421875 
z
" id="DejaVuSans-57"/>
      </defs>
      <g transform="translate(114.773438 75.410716)scale(0.1 -0.1)">
       <use xlink:href="#DejaVuSans-57"/>
       <use x="63.623047" xlink:href="#DejaVuSans-48"/>
       <use x="127.246094" xlink:href="#DejaVuSans-37"/>
      </g>
     </g>
    </g>
    <g id="text_17">
     <!-- Validation Accuracy -->
     <defs>
      <path d="M 28.609375 0 
L 0.78125 72.90625 
L 11.078125 72.90625 
L 34.1875 11.53125 
L 57.328125 72.90625 
L 67.578125 72.90625 
L 39.796875 0 
z
" id="DejaVuSans-86"/>
      <path d="M 34.28125 27.484375 
Q 23.390625 27.484375 19.1875 25 
Q 14.984375 22.515625 14.984375 16.5 
Q 14.984375 11.71875 18.140625 8.90625 
Q 21.296875 6.109375 26.703125 6.109375 
Q 34.1875 6.109375 38.703125 11.40625 
Q 43.21875 16.703125 43.21875 25.484375 
L 43.21875 27.484375 
z
M 52.203125 31.203125 
L 52.203125 0 
L 43.21875 0 
L 43.21875 8.296875 
Q 40.140625 3.328125 35.546875 0.953125 
Q 30.953125 -1.421875 24.3125 -1.421875 
Q 15.921875 -1.421875 10.953125 3.296875 
Q 6 8.015625 6 15.921875 
Q 6 25.140625 12.171875 29.828125 
Q 18.359375 34.515625 30.609375 34.515625 
L 43.21875 34.515625 
L 43.21875 35.40625 
Q 43.21875 41.609375 39.140625 45 
Q 35.0625 48.390625 27.6875 48.390625 
Q 23 48.390625 18.546875 47.265625 
Q 14.109375 46.140625 10.015625 43.890625 
L 10.015625 52.203125 
Q 14.9375 54.109375 19.578125 55.046875 
Q 24.21875 56 28.609375 56 
Q 40.484375 56 46.34375 49.84375 
Q 52.203125 43.703125 52.203125 31.203125 
z
" id="DejaVuSans-97"/>
      <path d="M 9.421875 75.984375 
L 18.40625 75.984375 
L 18.40625 0 
L 9.421875 0 
z
" id="DejaVuSans-108"/>
      <path d="M 9.421875 54.6875 
L 18.40625 54.6875 
L 18.40625 0 
L 9.421875 0 
z
M 9.421875 75.984375 
L 18.40625 75.984375 
L 18.40625 64.59375 
L 9.421875 64.59375 
z
" id="DejaVuSans-105"/>
      <path d="M 45.40625 46.390625 
L 45.40625 75.984375 
L 54.390625 75.984375 
L 54.390625 0 
L 45.40625 0 
L 45.40625 8.203125 
Q 42.578125 3.328125 38.25 0.953125 
Q 33.9375 -1.421875 27.875 -1.421875 
Q 17.96875 -1.421875 11.734375 6.484375 
Q 5.515625 14.40625 5.515625 27.296875 
Q 5.515625 40.1875 11.734375 48.09375 
Q 17.96875 56 27.875 56 
Q 33.9375 56 38.25 53.625 
Q 42.578125 51.265625 45.40625 46.390625 
z
M 14.796875 27.296875 
Q 14.796875 17.390625 18.875 11.75 
Q 22.953125 6.109375 30.078125 6.109375 
Q 37.203125 6.109375 41.296875 11.75 
Q 45.40625 17.390625 45.40625 27.296875 
Q 45.40625 37.203125 41.296875 42.84375 
Q 37.203125 48.484375 30.078125 48.484375 
Q 22.953125 48.484375 18.875 42.84375 
Q 14.796875 37.203125 14.796875 27.296875 
z
" id="DejaVuSans-100"/>
      <path d="M 18.3125 70.21875 
L 18.3125 54.6875 
L 36.8125 54.6875 
L 36.8125 47.703125 
L 18.3125 47.703125 
L 18.3125 18.015625 
Q 18.3125 11.328125 20.140625 9.421875 
Q 21.96875 7.515625 27.59375 7.515625 
L 36.8125 7.515625 
L 36.8125 0 
L 27.59375 0 
Q 17.1875 0 13.234375 3.875 
Q 9.28125 7.765625 9.28125 18.015625 
L 9.28125 47.703125 
L 2.6875 47.703125 
L 2.6875 54.6875 
L 9.28125 54.6875 
L 9.28125 70.21875 
z
" id="DejaVuSans-116"/>
      <path d="M 54.890625 33.015625 
L 54.890625 0 
L 45.90625 0 
L 45.90625 32.71875 
Q 45.90625 40.484375 42.875 44.328125 
Q 39.84375 48.1875 33.796875 48.1875 
Q 26.515625 48.1875 22.3125 43.546875 
Q 18.109375 38.921875 18.109375 30.90625 
L 18.109375 0 
L 9.078125 0 
L 9.078125 54.6875 
L 18.109375 54.6875 
L 18.109375 46.1875 
Q 21.34375 51.125 25.703125 53.5625 
Q 30.078125 56 35.796875 56 
Q 45.21875 56 50.046875 50.171875 
Q 54.890625 44.34375 54.890625 33.015625 
z
" id="DejaVuSans-110"/>
      <path id="DejaVuSans-32"/>
      <path d="M 34.1875 63.1875 
L 20.796875 26.90625 
L 47.609375 26.90625 
z
M 28.609375 72.90625 
L 39.796875 72.90625 
L 67.578125 0 
L 57.328125 0 
L 50.6875 18.703125 
L 17.828125 18.703125 
L 11.1875 0 
L 0.78125 0 
z
" id="DejaVuSans-65"/>
      <path d="M 8.5 21.578125 
L 8.5 54.6875 
L 17.484375 54.6875 
L 17.484375 21.921875 
Q 17.484375 14.15625 20.5 10.265625 
Q 23.53125 6.390625 29.59375 6.390625 
Q 36.859375 6.390625 41.078125 11.03125 
Q 45.3125 15.671875 45.3125 23.6875 
L 45.3125 54.6875 
L 54.296875 54.6875 
L 54.296875 0 
L 45.3125 0 
L 45.3125 8.40625 
Q 42.046875 3.421875 37.71875 1 
Q 33.40625 -1.421875 27.6875 -1.421875 
Q 18.265625 -1.421875 13.375 4.4375 
Q 8.5 10.296875 8.5 21.578125 
z
M 31.109375 56 
z
" id="DejaVuSans-117"/>
      <path d="M 41.109375 46.296875 
Q 39.59375 47.171875 37.8125 47.578125 
Q 36.03125 48 33.890625 48 
Q 26.265625 48 22.1875 43.046875 
Q 18.109375 38.09375 18.109375 28.8125 
L 18.109375 0 
L 9.078125 0 
L 9.078125 54.6875 
L 18.109375 54.6875 
L 18.109375 46.1875 
Q 20.953125 51.171875 25.484375 53.578125 
Q 30.03125 56 36.53125 56 
Q 37.453125 56 38.578125 55.875 
Q 39.703125 55.765625 41.0625 55.515625 
z
" id="DejaVuSans-114"/>
      <path d="M 32.171875 -5.078125 
Q 28.375 -14.84375 24.75 -17.8125 
Q 21.140625 -20.796875 15.09375 -20.796875 
L 7.90625 -20.796875 
L 7.90625 -13.28125 
L 13.1875 -13.28125 
Q 16.890625 -13.28125 18.9375 -11.515625 
Q 21 -9.765625 23.484375 -3.21875 
L 25.09375 0.875 
L 2.984375 54.6875 
L 12.5 54.6875 
L 29.59375 11.921875 
L 46.6875 54.6875 
L 56.203125 54.6875 
z
" id="DejaVuSans-121"/>
     </defs>
     <g transform="translate(108.69375 299.847813)rotate(-90)scale(0.1 -0.1)">
      <use xlink:href="#DejaVuSans-86"/>
      <use x="60.658203" xlink:href="#DejaVuSans-97"/>
      <use x="121.9375" xlink:href="#DejaVuSans-108"/>
      <use x="149.720703" xlink:href="#DejaVuSans-105"/>
      <use x="177.503906" xlink:href="#DejaVuSans-100"/>
      <use x="240.980469" xlink:href="#DejaVuSans-97"/>
      <use x="302.259766" xlink:href="#DejaVuSans-116"/>
      <use x="341.46875" xlink:href="#DejaVuSans-105"/>
      <use x="369.251953" xlink:href="#DejaVuSans-111"/>
      <use x="430.433594" xlink:href="#DejaVuSans-110"/>
      <use x="493.8125" xlink:href="#DejaVuSans-32"/>
      <use x="525.599609" xlink:href="#DejaVuSans-65"/>
      <use x="592.257812" xlink:href="#DejaVuSans-99"/>
      <use x="647.238281" xlink:href="#DejaVuSans-99"/>
      <use x="702.21875" xlink:href="#DejaVuSans-117"/>
      <use x="765.597656" xlink:href="#DejaVuSans-114"/>
      <use x="806.710938" xlink:href="#DejaVuSans-97"/>
      <use x="867.990234" xlink:href="#DejaVuSans-99"/>
      <use x="922.970703" xlink:href="#DejaVuSans-121"/>
     </g>
    </g>
   </g>
   <g id="line2d_16">
    <path clip-path="url(#pacdab93e41)" d="M 184.581818 301.53504 
L 192.780165 210.103979 
L 200.978512 192.781565 
L 209.17686 166.342079 
L 217.375207 135.647985 
L 225.573554 125.662633 
L 233.771901 122.970923 
L 241.970248 135.300662 
L 250.168595 120.496296 
L 258.366942 122.146065 
L 266.565289 107.515335 
L 274.763636 109.512425 
L 282.961983 125.054832 
L 291.160331 124.056286 
L 299.358678 111.683152 
L 307.557025 103.304121 
L 315.755372 103.087064 
L 323.953719 102.392419 
L 332.152066 99.440231 
L 340.350413 96.053902 
L 348.54876 93.622671 
L 356.747107 99.396809 
L 364.945455 91.58221 
L 373.143802 92.88463 
L 381.342149 103.13046 
L 389.540496 97.009025 
L 397.738843 95.57634 
L 405.93719 88.152459 
L 414.135537 91.972928 
L 422.333884 92.103168 
L 430.532231 92.580729 
L 438.730579 105.735352 
L 446.928926 84.722708 
L 455.127273 83.680741 
L 463.32562 85.33051 
L 471.523967 89.150979 
L 479.722314 95.272439 
L 487.920661 90.887565 
L 496.119008 87.805137 
L 504.317355 82.595378 
L 512.515702 82.334899 
L 520.71405 85.894889 
L 528.912397 100.612437 
L 537.110744 85.677806 
L 545.309091 96.44462 
L 553.507438 83.637319 
L 561.705785 85.677806 
L 569.904132 81.683676 
L 578.102479 88.803656 
L 586.300826 83.724163 
L 594.499174 96.401224 
L 602.697521 84.592443 
L 610.895868 82.595378 
L 619.094215 86.025129 
L 627.292562 80.989031 
L 635.490909 84.766104 
L 643.689256 87.414393 
L 651.887603 85.808072 
L 660.08595 86.806591 
L 668.284298 83.984642 
L 676.482645 85.63441 
L 684.680992 80.511495 
L 692.879339 80.164173 
L 701.077686 81.553437 
L 709.276033 83.767585 
L 717.47438 87.631475 
L 725.672727 84.071485 
L 733.871074 80.902214 
L 742.069421 84.722708 
L 750.267769 80.250991 
L 758.466116 85.070005 
L 766.664463 86.19879 
L 774.86281 79.469528 
L 783.061157 81.770494 
L 791.259504 81.683676 
L 799.457851 81.466593 
L 807.656198 81.553437 
L 815.854545 84.852948 
L 824.052893 83.550502 
L 832.25124 78.774909 
L 840.449587 85.460749 
L 848.647934 80.728552 
L 856.846281 77.776364 
L 865.044628 82.117816 
L 873.242975 80.164173 
L 881.441322 85.677806 
L 889.639669 82.07442 
L 897.838017 80.554891 
L 906.036364 81.683676 
L 914.234711 84.071485 
L 922.433058 83.680741 
L 930.631405 80.468074 
L 938.829752 80.38123 
L 947.028099 82.334899 
L 955.226446 83.854402 
L 963.424793 80.554891 
L 971.62314 82.291477 
L 979.821488 83.593924 
L 988.019835 81.423197 
L 996.218182 79.295867 
" style="fill:none;stroke:#000004;stroke-linecap:square;stroke-width:1.5;"/>
   </g>
   <g id="line2d_17">
    <path clip-path="url(#pacdab93e41)" d="M 184.581818 388.841737 
L 192.780165 387.626135 
L 200.978512 371.866645 
L 209.17686 352.764229 
L 217.375207 339.349128 
L 225.573554 285.905803 
L 233.771901 242.057098 
L 241.970248 257.990236 
L 250.168595 216.442497 
L 258.366942 203.548378 
L 266.565289 206.457145 
L 274.763636 181.016205 
L 282.961983 155.792348 
L 291.160331 174.026465 
L 299.358678 148.107963 
L 307.557025 136.863587 
L 315.755372 146.414798 
L 323.953719 142.073346 
L 332.152066 132.739218 
L 340.350413 125.488972 
L 348.54876 129.179202 
L 356.747107 131.523589 
L 364.945455 124.967988 
L 373.143802 109.859722 
L 381.342149 116.198266 
L 389.540496 121.494842 
L 397.738843 113.940696 
L 405.93719 115.19972 
L 414.135537 111.683152 
L 422.333884 116.936306 
L 430.532231 115.416803 
L 438.730579 108.730963 
L 446.928926 103.087064 
L 455.127273 124.620692 
L 463.32562 117.413868 
L 471.523967 101.220239 
L 479.722314 99.396809 
L 487.920661 99.917793 
L 496.119008 98.919247 
L 504.317355 98.181206 
L 512.515702 102.956825 
L 520.71405 100.525594 
L 528.912397 96.965604 
L 537.110744 99.874371 
L 545.309091 94.794877 
L 553.507438 112.117292 
L 561.705785 95.967058 
L 569.904132 96.314381 
L 578.102479 94.360737 
L 586.300826 91.191466 
L 594.499174 93.275374 
L 602.697521 92.580729 
L 610.895868 93.622671 
L 619.094215 93.014869 
L 627.292562 94.534399 
L 635.490909 96.748521 
L 643.689256 89.107557 
L 651.887603 93.405614 
L 660.08595 97.747066 
L 668.284298 95.185596 
L 676.482645 93.666093 
L 684.680992 92.45049 
L 692.879339 94.404133 
L 701.077686 88.803656 
L 709.276033 94.230498 
L 717.47438 88.369516 
L 725.672727 101.350478 
L 733.871074 96.965604 
L 742.069421 93.926597 
L 750.267769 89.75878 
L 758.466116 90.366581 
L 766.664463 88.022194 
L 774.86281 96.488042 
L 783.061157 90.279764 
L 791.259504 87.153914 
L 799.457851 93.752936 
L 807.656198 87.06707 
L 815.854545 88.282699 
L 824.052893 89.845624 
L 832.25124 90.106102 
L 840.449587 90.583664 
L 848.647934 88.977318 
L 856.846281 90.670482 
L 865.044628 83.854402 
L 873.242975 98.658768 
L 881.441322 87.805137 
L 889.639669 89.889019 
L 897.838017 85.63441 
L 906.036364 90.019285 
L 914.234711 90.887565 
L 922.433058 87.501236 
L 930.631405 89.1944 
L 938.829752 87.414393 
L 947.028099 84.679287 
L 955.226446 87.370997 
L 963.424793 88.933922 
L 971.62314 86.893435 
L 979.821488 89.585119 
L 988.019835 84.983187 
L 996.218182 86.025129 
" style="fill:none;stroke:#160b39;stroke-linecap:square;stroke-width:1.5;"/>
   </g>
   <g id="line2d_18">
    <path clip-path="url(#pacdab93e41)" d="M 184.581818 397.39441 
L 192.780165 408.942683 
L 200.978512 396.830017 
L 209.17686 349.72521 
L 217.375207 360.7091 
L 225.573554 321.245264 
L 233.771901 280.609227 
L 241.970248 273.011672 
L 250.168595 241.666354 
L 258.366942 237.15124 
L 266.565289 244.054163 
L 274.763636 221.825891 
L 282.961983 200.205445 
L 291.160331 204.677138 
L 299.358678 214.705911 
L 307.557025 177.065471 
L 315.755372 168.990367 
L 323.953719 178.064017 
L 332.152066 160.915263 
L 340.350413 167.427442 
L 348.54876 158.397215 
L 356.747107 137.775289 
L 364.945455 137.297727 
L 373.143802 130.568491 
L 381.342149 134.692861 
L 389.540496 136.255786 
L 397.738843 139.077735 
L 405.93719 134.996761 
L 414.135537 124.316791 
L 422.333884 122.493361 
L 430.532231 122.449966 
L 438.730579 118.499231 
L 446.928926 118.195331 
L 455.127273 118.586049 
L 463.32562 112.117292 
L 471.523967 132.652374 
L 479.722314 109.642665 
L 487.920661 114.288018 
L 496.119008 112.20411 
L 504.317355 113.289473 
L 512.515702 106.820716 
L 520.71405 117.023124 
L 528.912397 104.910468 
L 537.110744 107.298277 
L 545.309091 103.955344 
L 553.507438 108.861202 
L 561.705785 110.076805 
L 569.904132 107.168038 
L 578.102479 106.039253 
L 586.300826 109.555821 
L 594.499174 108.209979 
L 602.697521 107.862657 
L 610.895868 106.950955 
L 619.094215 106.082675 
L 627.292562 108.51388 
L 635.490909 102.69632 
L 643.689256 99.396809 
L 651.887603 102.956825 
L 660.08595 108.166558 
L 668.284298 101.741196 
L 676.482645 103.608022 
L 684.680992 98.57195 
L 692.879339 102.566081 
L 701.077686 98.050967 
L 709.276033 100.829494 
L 717.47438 99.309991 
L 725.672727 96.357802 
L 733.871074 101.089999 
L 742.069421 100.525594 
L 750.267769 96.705125 
L 758.466116 101.871462 
L 766.664463 98.745612 
L 774.86281 95.663158 
L 783.061157 101.914858 
L 791.259504 90.800747 
L 799.457851 96.574885 
L 807.656198 100.482172 
L 815.854545 102.392419 
L 824.052893 94.534399 
L 832.25124 98.007545 
L 840.449587 98.137785 
L 848.647934 94.273894 
L 856.846281 97.095843 
L 865.044628 95.098778 
L 873.242975 98.441711 
L 881.441322 92.624151 
L 889.639669 90.757325 
L 897.838017 95.402679 
L 906.036364 98.528529 
L 914.234711 95.055356 
L 922.433058 96.140719 
L 930.631405 95.272439 
L 938.829752 91.321705 
L 947.028099 91.148044 
L 955.226446 90.713904 
L 963.424793 92.928052 
L 971.62314 87.674897 
L 979.821488 89.281218 
L 988.019835 90.496821 
L 996.218182 95.750001 
" style="fill:none;stroke:#420a68;stroke-linecap:square;stroke-width:1.5;"/>
   </g>
   <g id="line2d_19">
    <path clip-path="url(#pacdab93e41)" d="M 184.581818 384.804186 
L 192.780165 371.172014 
L 200.978512 376.729075 
L 209.17686 379.333948 
L 217.375207 384.066138 
L 225.573554 370.43396 
L 233.771901 338.133525 
L 241.970248 342.561808 
L 250.168595 332.315978 
L 258.366942 343.690593 
L 266.565289 315.514534 
L 274.763636 307.048699 
L 282.961983 257.729744 
L 291.160331 263.720952 
L 299.358678 256.904873 
L 307.557025 245.790736 
L 315.755372 240.84147 
L 323.953719 219.481503 
L 332.152066 220.870767 
L 340.350413 210.017136 
L 348.54876 202.028849 
L 356.747107 190.697656 
L 364.945455 197.643975 
L 373.143802 189.525449 
L 381.342149 176.414274 
L 389.540496 166.298657 
L 397.738843 170.249392 
L 405.93719 164.084535 
L 414.135537 158.266975 
L 422.333884 156.356728 
L 430.532231 160.611363 
L 438.730579 161.783544 
L 446.928926 149.366987 
L 455.127273 145.893815 
L 463.32562 133.607498 
L 471.523967 149.627466 
L 479.722314 139.598719 
L 487.920661 147.977723 
L 496.119008 133.564076 
L 504.317355 130.95921 
L 512.515702 125.879716 
L 520.71405 144.026989 
L 528.912397 131.046027 
L 537.110744 121.842138 
L 545.309091 127.963599 
L 553.507438 131.914333 
L 561.705785 125.185071 
L 569.904132 118.846554 
L 578.102479 125.706055 
L 586.300826 126.704575 
L 594.499174 115.112902 
L 602.697521 113.202655 
L 610.895868 117.370446 
L 619.094215 117.153389 
L 627.292562 123.839229 
L 635.490909 120.58314 
L 643.689256 115.63386 
L 651.887603 114.939241 
L 660.08595 110.120227 
L 668.284298 110.858268 
L 676.482645 109.989961 
L 684.680992 116.545562 
L 692.879339 110.988507 
L 701.077686 110.380706 
L 709.276033 111.162168 
L 717.47438 109.034864 
L 725.672727 116.502166 
L 733.871074 111.07535 
L 742.069421 108.557302 
L 750.267769 109.208525 
L 758.466116 106.429971 
L 766.664463 112.20411 
L 774.86281 106.343154 
L 783.061157 105.040708 
L 791.259504 102.566081 
L 799.457851 116.502166 
L 807.656198 109.686061 
L 815.854545 102.652924 
L 824.052893 104.82365 
L 832.25124 100.091454 
L 840.449587 101.263635 
L 848.647934 100.872916 
L 856.846281 103.13046 
L 865.044628 100.742677 
L 873.242975 102.175362 
L 881.441322 104.085584 
L 889.639669 100.134875 
L 897.838017 103.868527 
L 906.036364 99.527074 
L 914.234711 105.301212 
L 922.433058 96.357802 
L 930.631405 102.82656 
L 938.829752 98.137785 
L 947.028099 99.787553 
L 955.226446 96.357802 
L 963.424793 108.557302 
L 971.62314 97.529983 
L 979.821488 101.6978 
L 988.019835 97.486587 
L 996.218182 102.001701 
" style="fill:none;stroke:#6a176e;stroke-linecap:square;stroke-width:1.5;"/>
   </g>
   <g id="line2d_20">
    <path clip-path="url(#pacdab93e41)" d="M 184.581818 393.487097 
L 192.780165 404.210496 
L 200.978512 396.526117 
L 209.17686 402.908062 
L 217.375207 402.34367 
L 225.573554 402.690986 
L 233.771901 396.178801 
L 241.970248 392.097833 
L 250.168595 368.436895 
L 258.366942 359.406661 
L 266.565289 380.375896 
L 274.763636 375.296396 
L 282.961983 364.833483 
L 291.160331 372.257377 
L 299.358678 346.59936 
L 307.557025 315.384295 
L 315.755372 334.660365 
L 323.953719 287.208236 
L 332.152066 296.585786 
L 340.350413 290.507747 
L 348.54876 279.567272 
L 356.747107 235.631737 
L 364.945455 289.552623 
L 373.143802 248.265376 
L 381.342149 237.324901 
L 389.540496 238.757587 
L 397.738843 227.817112 
L 405.93719 236.7171 
L 414.135537 216.355653 
L 422.333884 211.753722 
L 430.532231 193.606423 
L 438.730579 202.506411 
L 446.928926 190.133277 
L 455.127273 188.179607 
L 463.32562 159.916718 
L 471.523967 190.480573 
L 479.722314 203.374717 
L 487.920661 180.451826 
L 496.119008 161.653304 
L 504.317355 161.262586 
L 512.515702 169.64159 
L 520.71405 188.874252 
L 528.912397 178.888901 
L 537.110744 165.560617 
L 545.309091 145.850419 
L 553.507438 155.097703 
L 561.705785 156.183067 
L 569.904132 150.01821 
L 578.102479 149.106508 
L 586.300826 144.721634 
L 594.499174 146.110898 
L 602.697521 144.070411 
L 610.895868 146.414798 
L 619.094215 143.245527 
L 627.292562 136.472869 
L 635.490909 152.796738 
L 643.689256 142.507486 
L 651.887603 147.45674 
L 660.08595 149.193326 
L 668.284298 136.038703 
L 676.482645 153.14406 
L 684.680992 131.219688 
L 692.879339 130.698731 
L 701.077686 138.166033 
L 709.276033 126.661179 
L 717.47438 124.533848 
L 725.672727 123.491907 
L 733.871074 155.010886 
L 742.069421 141.943106 
L 750.267769 128.875301 
L 758.466116 139.511875 
L 766.664463 126.487518 
L 774.86281 121.45142 
L 783.061157 131.870911 
L 791.259504 125.358733 
L 799.457851 125.836294 
L 807.656198 130.481648 
L 815.854545 119.107033 
L 824.052893 117.934852 
L 832.25124 122.102643 
L 840.449587 126.530913 
L 848.647934 127.182136 
L 856.846281 126.878236 
L 865.044628 123.448485 
L 873.242975 116.979728 
L 881.441322 117.240207 
L 889.639669 113.072416 
L 897.838017 110.728028 
L 906.036364 123.057767 
L 914.234711 115.894365 
L 922.433058 116.241661 
L 930.631405 143.76651 
L 938.829752 115.503621 
L 947.028099 115.63386 
L 955.226446 112.117292 
L 963.424793 125.358733 
L 971.62314 125.315311 
L 979.821488 107.254856 
L 988.019835 117.978248 
L 996.218182 113.028994 
" style="fill:none;stroke:#932667;stroke-linecap:square;stroke-width:1.5;"/>
   </g>
   <g id="line2d_21">
    <path clip-path="url(#pacdab93e41)" d="M 184.581818 391.490026 
L 192.780165 391.793933 
L 200.978512 391.663687 
L 209.17686 382.633459 
L 217.375207 372.604693 
L 225.573554 389.189053 
L 233.771901 376.68566 
L 241.970248 365.614945 
L 250.168595 364.529582 
L 258.366942 357.49642 
L 266.565289 339.001818 
L 274.763636 331.968656 
L 282.961983 331.187193 
L 291.160331 317.077459 
L 299.358678 323.763299 
L 307.557025 300.232607 
L 315.755372 316.252588 
L 323.953719 292.417982 
L 332.152066 271.752647 
L 340.350413 281.303858 
L 348.54876 268.062418 
L 356.747107 249.524388 
L 364.945455 244.488303 
L 373.143802 241.101974 
L 381.342149 219.568347 
L 389.540496 235.805398 
L 397.738843 223.866378 
L 405.93719 221.65223 
L 414.135537 219.915669 
L 422.333884 218.482984 
L 430.532231 206.370302 
L 438.730579 204.546898 
L 446.928926 202.636651 
L 455.127273 205.111303 
L 463.32562 193.997167 
L 471.523967 198.251802 
L 479.722314 192.911804 
L 487.920661 201.638131 
L 496.119008 192.130342 
L 504.317355 191.175218 
L 512.515702 196.688877 
L 520.71405 192.39082 
L 528.912397 195.863993 
L 537.110744 176.153769 
L 545.309091 171.812317 
L 553.507438 182.752792 
L 561.705785 177.846934 
L 569.904132 178.888901 
L 578.102479 174.721084 
L 586.300826 177.673272 
L 594.499174 162.65185 
L 602.697521 177.977199 
L 610.895868 166.168418 
L 619.094215 169.728408 
L 627.292562 161.696726 
L 635.490909 162.608428 
L 643.689256 165.951361 
L 651.887603 157.745992 
L 660.08595 166.255261 
L 668.284298 166.602558 
L 676.482645 170.032309 
L 684.680992 149.323565 
L 692.879339 152.058697 
L 701.077686 143.375766 
L 709.276033 150.799673 
L 717.47438 146.631881 
L 725.672727 149.280169 
L 733.871074 151.450896 
L 742.069421 149.149904 
L 750.267769 143.071865 
L 758.466116 143.723088 
L 766.664463 147.804062 
L 774.86281 135.127001 
L 783.061157 147.45674 
L 791.259504 147.977723 
L 799.457851 135.778224 
L 807.656198 141.335279 
L 815.854545 137.992372 
L 824.052893 130.785548 
L 832.25124 142.637725 
L 840.449587 128.831905 
L 848.647934 128.875301 
L 856.846281 141.335279 
L 865.044628 131.436771 
L 873.242975 127.529459 
L 881.441322 129.960664 
L 889.639669 128.180682 
L 897.838017 135.561167 
L 906.036364 134.8231 
L 914.234711 129.526524 
L 922.433058 134.041638 
L 930.631405 134.215299 
L 938.829752 128.484583 
L 947.028099 124.750931 
L 955.226446 126.227013 
L 963.424793 131.480193 
L 971.62314 124.14313 
L 979.821488 123.926047 
L 988.019835 121.668503 
L 996.218182 122.146065 
" style="fill:none;stroke:#bc3754;stroke-linecap:square;stroke-width:1.5;"/>
   </g>
   <g id="line2d_22">
    <path clip-path="url(#pacdab93e41)" d="M 184.581818 387.061742 
L 192.780165 378.856386 
L 200.978512 379.160293 
L 209.17686 378.292 
L 217.375207 368.176403 
L 225.573554 373.386155 
L 233.771901 365.875431 
L 241.970248 366.266162 
L 250.168595 354.717892 
L 258.366942 353.589114 
L 266.565289 343.864254 
L 274.763636 343.25644 
L 282.961983 342.735469 
L 291.160331 323.63306 
L 299.358678 324.327692 
L 307.557025 312.041375 
L 315.755372 307.960401 
L 323.953719 296.455547 
L 332.152066 301.925771 
L 340.350413 314.559411 
L 348.54876 299.320905 
L 356.747107 272.707771 
L 364.945455 278.178008 
L 373.143802 280.956536 
L 381.342149 262.50535 
L 389.540496 261.376565 
L 397.738843 279.437033 
L 405.93719 261.029255 
L 414.135537 246.355129 
L 422.333884 249.350739 
L 430.532231 254.299993 
L 438.730579 243.229279 
L 446.928926 250.696581 
L 455.127273 219.090785 
L 463.32562 236.239538 
L 471.523967 228.468335 
L 479.722314 213.099564 
L 487.920661 228.989293 
L 496.119008 221.565412 
L 504.317355 220.436627 
L 512.515702 230.89954 
L 520.71405 228.685392 
L 528.912397 215.964935 
L 537.110744 209.279095 
L 545.309091 204.503476 
L 553.507438 218.048844 
L 561.705785 211.102499 
L 569.904132 210.972259 
L 578.102479 200.726429 
L 586.300826 205.805922 
L 594.499174 196.949356 
L 602.697521 215.574191 
L 610.895868 196.298133 
L 619.094215 198.816182 
L 627.292562 192.694721 
L 635.490909 188.179607 
L 643.689256 189.612293 
L 651.887603 187.658624 
L 660.08595 195.994232 
L 668.284298 191.175218 
L 676.482645 189.482053 
L 684.680992 180.104503 
L 692.879339 179.844025 
L 701.077686 178.845479 
L 709.276033 175.068406 
L 717.47438 178.932297 
L 725.672727 173.375242 
L 733.871074 180.755727 
L 742.069421 174.764505 
L 750.267769 179.062562 
L 758.466116 168.425988 
L 766.664463 177.325976 
L 774.86281 163.172807 
L 783.061157 171.117698 
L 791.259504 180.451826 
L 799.457851 171.161094 
L 807.656198 163.693791 
L 815.854545 169.64159 
L 824.052893 156.096249 
L 832.25124 164.952815 
L 840.449587 177.369372 
L 848.647934 169.945491 
L 856.846281 171.768895 
L 865.044628 164.692336 
L 873.242975 168.425988 
L 881.441322 152.405994 
L 889.639669 167.731343 
L 897.838017 150.58259 
L 906.036364 152.796738 
L 914.234711 157.051373 
L 922.433058 161.913809 
L 930.631405 149.497227 
L 938.829752 150.929912 
L 947.028099 155.010886 
L 955.226446 145.763575 
L 963.424793 157.528935 
L 971.62314 147.586979 
L 979.821488 144.026989 
L 988.019835 150.061632 
L 996.218182 142.420668 
" style="fill:none;stroke:#dd513a;stroke-linecap:square;stroke-width:1.5;"/>
   </g>
   <g id="line2d_23">
    <path clip-path="url(#pacdab93e41)" d="M 184.581818 414.543163 
L 192.780165 406.033906 
L 200.978512 395.093437 
L 209.17686 390.448078 
L 217.375207 386.150034 
L 225.573554 397.133924 
L 233.771901 392.271488 
L 241.970248 389.579785 
L 250.168595 380.940288 
L 258.366942 373.299325 
L 266.565289 378.769562 
L 274.763636 354.544231 
L 282.961983 365.614945 
L 291.160331 348.335946 
L 299.358678 341.389614 
L 307.557025 330.449152 
L 315.755372 334.703774 
L 323.953719 329.103297 
L 332.152066 310.608689 
L 340.350413 325.803786 
L 348.54876 321.418912 
L 356.747107 303.401865 
L 364.945455 301.882362 
L 373.143802 309.436495 
L 381.342149 303.922849 
L 389.540496 287.642389 
L 397.738843 305.442352 
L 405.93719 283.604824 
L 414.135537 282.43263 
L 422.333884 288.293599 
L 430.532231 279.784342 
L 438.730579 285.211171 
L 446.928926 265.71803 
L 455.127273 272.013139 
L 463.32562 280.999958 
L 471.523967 271.318507 
L 479.722314 256.55755 
L 487.920661 277.483377 
L 496.119008 255.602427 
L 504.317355 243.880502 
L 512.515702 250.175611 
L 520.71405 258.684868 
L 528.912397 245.052683 
L 537.110744 240.190272 
L 545.309091 235.979059 
L 553.507438 240.84147 
L 561.705785 241.753197 
L 569.904132 241.883437 
L 578.102479 221.782495 
L 586.300826 235.631737 
L 594.499174 233.113688 
L 602.697521 247.657562 
L 610.895868 237.802463 
L 619.094215 232.505887 
L 627.292562 220.697132 
L 635.490909 237.498563 
L 643.689256 226.861988 
L 651.887603 212.622002 
L 660.08595 224.257122 
L 668.284298 224.300518 
L 676.482645 226.731749 
L 684.680992 212.14444 
L 692.879339 220.610288 
L 701.077686 213.360069 
L 709.276033 235.979059 
L 717.47438 212.882507 
L 725.672727 206.196667 
L 733.871074 209.626417 
L 742.069421 228.685392 
L 750.267769 220.132726 
L 758.466116 202.376172 
L 766.664463 196.211315 
L 774.86281 183.707915 
L 783.061157 211.059077 
L 791.259504 212.665424 
L 799.457851 205.762501 
L 807.656198 197.730819 
L 815.854545 193.823506 
L 824.052893 190.784474 
L 832.25124 192.39082 
L 840.449587 187.702045 
L 848.647934 194.257646 
L 856.846281 194.214224 
L 865.044628 199.423983 
L 873.242975 189.178153 
L 881.441322 182.14499 
L 889.639669 195.950811 
L 897.838017 186.312782 
L 906.036364 179.757181 
L 914.234711 187.354723 
L 922.433058 182.058147 
L 930.631405 204.807377 
L 938.829752 186.833765 
L 947.028099 179.844025 
L 955.226446 184.96694 
L 963.424793 188.52693 
L 971.62314 179.974264 
L 979.821488 181.624007 
L 988.019835 178.845479 
L 996.218182 178.020595 
" style="fill:none;stroke:#f37819;stroke-linecap:square;stroke-width:1.5;"/>
   </g>
   <g id="line2d_24">
    <path clip-path="url(#pacdab93e41)" d="M 184.581818 418.667549 
L 192.780165 410.375365 
L 200.978512 396.135385 
L 209.17686 393.009535 
L 217.375207 391.316371 
L 225.573554 394.529045 
L 233.771901 391.490026 
L 241.970248 391.620272 
L 250.168595 386.28028 
L 258.366942 385.325163 
L 266.565289 386.801257 
L 274.763636 390.534908 
L 282.961983 388.885153 
L 291.160331 386.627596 
L 299.358678 387.756374 
L 307.557025 384.587109 
L 315.755372 387.018327 
L 323.953719 384.717355 
L 332.152066 394.138314 
L 340.350413 390.838809 
L 348.54876 383.979308 
L 356.747107 387.278812 
L 364.945455 384.500285 
L 373.143802 379.768095 
L 381.342149 380.723218 
L 389.540496 377.250052 
L 397.738843 362.358856 
L 405.93719 368.306649 
L 414.135537 370.564206 
L 422.333884 363.704704 
L 430.532231 367.655432 
L 438.730579 367.481771 
L 446.928926 362.489095 
L 455.127273 359.753977 
L 463.32562 349.421309 
L 471.523967 352.937891 
L 479.722314 331.751586 
L 487.920661 343.994494 
L 496.119008 349.030578 
L 504.317355 351.114487 
L 512.515702 348.292537 
L 520.71405 343.299862 
L 528.912397 343.951072 
L 537.110744 352.63399 
L 545.309091 331.230615 
L 553.507438 346.512542 
L 561.705785 339.045227 
L 569.904132 337.829624 
L 578.102479 339.045227 
L 586.300826 332.402809 
L 594.499174 334.660365 
L 602.697521 328.669144 
L 610.895868 337.438893 
L 619.094215 340.564743 
L 627.292562 333.271089 
L 635.490909 339.783281 
L 643.689256 324.978915 
L 651.887603 325.890617 
L 660.08595 321.549164 
L 668.284298 324.675014 
L 676.482645 325.586716 
L 684.680992 322.981837 
L 692.879339 319.335016 
L 701.077686 327.627203 
L 709.276033 313.517469 
L 717.47438 316.860389 
L 725.672727 318.466723 
L 733.871074 320.50721 
L 742.069421 322.504275 
L 750.267769 313.343808 
L 758.466116 316.686728 
L 766.664463 308.134062 
L 774.86281 312.649176 
L 783.061157 314.47258 
L 791.259504 300.88383 
L 799.457851 319.725747 
L 807.656198 309.219425 
L 815.854545 307.3526 
L 824.052893 310.56528 
L 832.25124 317.902331 
L 840.449587 294.63213 
L 848.647934 310.521859 
L 856.846281 320.07307 
L 865.044628 309.436495 
L 873.242975 303.271626 
L 881.441322 304.400411 
L 889.639669 299.711636 
L 897.838017 297.97505 
L 906.036364 293.850667 
L 914.234711 285.732142 
L 922.433058 303.879427 
L 930.631405 297.584319 
L 938.829752 298.148711 
L 947.028099 285.47165 
L 955.226446 291.94042 
L 963.424793 303.662357 
L 971.62314 289.899946 
L 979.821488 300.145776 
L 988.019835 290.811648 
L 996.218182 290.507747 
" style="fill:none;stroke:#fca50a;stroke-linecap:square;stroke-width:1.5;"/>
   </g>
   <g id="line2d_25">
    <path clip-path="url(#pacdab93e41)" d="M 184.581818 423.703636 
L 192.780165 418.146571 
L 200.978512 409.724145 
L 209.17686 402.821232 
L 217.375207 398.653434 
L 225.573554 395.180268 
L 233.771901 392.488565 
L 241.970248 380.506142 
L 250.168595 373.733471 
L 258.366942 370.390551 
L 266.565289 364.442752 
L 274.763636 366.917385 
L 282.961983 365.701776 
L 291.160331 365.658361 
L 299.358678 366.222753 
L 307.557025 363.183727 
L 315.755372 362.575926 
L 323.953719 359.10276 
L 332.152066 356.801788 
L 340.350413 354.500816 
L 348.54876 349.72521 
L 356.747107 347.380823 
L 364.945455 349.768632 
L 373.143802 342.735469 
L 381.342149 344.211564 
L 389.540496 339.305719 
L 397.738843 339.435958 
L 405.93719 336.179869 
L 414.135537 334.269634 
L 422.333884 328.495496 
L 430.532231 330.275491 
L 438.730579 324.154031 
L 446.928926 327.887682 
L 455.127273 324.544762 
L 463.32562 326.75891 
L 471.523967 326.411587 
L 479.722314 325.630125 
L 487.920661 324.544762 
L 496.119008 324.154031 
L 504.317355 326.020856 
L 512.515702 322.764767 
L 520.71405 323.459399 
L 528.912397 317.772091 
L 537.110744 326.411587 
L 545.309091 319.812578 
L 553.507438 317.989161 
L 561.705785 316.773559 
L 569.904132 314.212101 
L 578.102479 322.243796 
L 586.300826 321.462334 
L 594.499174 316.426236 
L 602.697521 315.557956 
L 610.895868 317.728682 
L 619.094215 315.644774 
L 627.292562 312.171614 
L 635.490909 317.902331 
L 643.689256 314.950142 
L 651.887603 315.948687 
L 660.08595 311.042829 
L 668.284298 309.132595 
L 676.482645 309.957466 
L 684.680992 306.614546 
L 692.879339 309.132595 
L 701.077686 306.484307 
L 709.276033 305.268704 
L 717.47438 306.918447 
L 725.672727 306.701377 
L 733.871074 306.744798 
L 742.069421 307.56967 
L 750.267769 302.533585 
L 758.466116 307.092108 
L 766.664463 308.220893 
L 774.86281 297.931641 
L 783.061157 300.97066 
L 791.259504 300.058945 
L 799.457851 307.613079 
L 807.656198 308.351132 
L 815.854545 303.575527 
L 824.052893 301.31797 
L 832.25124 303.792597 
L 840.449587 306.354067 
L 848.647934 306.223815 
L 856.846281 302.967725 
L 865.044628 310.956012 
L 873.242975 303.488696 
L 881.441322 305.529183 
L 889.639669 305.485774 
L 897.838017 302.837486 
L 906.036364 303.445287 
L 914.234711 304.96479 
L 922.433058 300.97066 
L 930.631405 301.274561 
L 938.829752 302.490164 
L 947.028099 298.756512 
L 955.226446 299.972115 
L 963.424793 303.271626 
L 971.62314 303.141387 
L 979.821488 302.794064 
L 988.019835 294.371638 
L 996.218182 298.886752 
" style="fill:none;stroke:#f6d746;stroke-linecap:square;stroke-width:1.5;"/>
   </g>
   <g id="line2d_26">
    <path clip-path="url(#pacdab93e41)" d="M 184.581818 418.928034 
L 192.780165 418.928034 
L 200.978512 418.928034 
L 209.17686 418.928034 
L 217.375207 418.928034 
L 225.573554 418.928034 
L 233.771901 418.928034 
L 241.970248 418.928034 
L 250.168595 418.928034 
L 258.366942 418.928034 
L 266.565289 418.928034 
L 274.763636 418.928034 
L 282.961983 418.928034 
L 291.160331 418.928034 
L 299.358678 418.928034 
L 307.557025 418.928034 
L 315.755372 418.928034 
L 323.953719 418.928034 
L 332.152066 418.928034 
L 340.350413 418.928034 
L 348.54876 418.928034 
L 356.747107 418.928034 
L 364.945455 418.928034 
L 373.143802 418.928034 
L 381.342149 418.928034 
L 389.540496 418.928034 
L 397.738843 418.928034 
L 405.93719 418.928034 
L 414.135537 418.928034 
L 422.333884 418.928034 
L 430.532231 418.928034 
L 438.730579 418.928034 
L 446.928926 418.928034 
L 455.127273 418.928034 
L 463.32562 418.928034 
L 471.523967 418.928034 
L 479.722314 418.928034 
L 487.920661 418.928034 
L 496.119008 418.928034 
L 504.317355 418.928034 
L 512.515702 418.928034 
L 520.71405 418.928034 
L 528.912397 418.928034 
L 537.110744 418.928034 
L 545.309091 418.928034 
L 553.507438 418.928034 
L 561.705785 418.928034 
L 569.904132 418.928034 
L 578.102479 418.928034 
L 586.300826 418.928034 
L 594.499174 418.928034 
L 602.697521 418.928034 
L 610.895868 418.928034 
L 619.094215 418.928034 
L 627.292562 418.928034 
L 635.490909 418.928034 
L 643.689256 418.928034 
L 651.887603 418.928034 
L 660.08595 418.928034 
L 668.284298 418.928034 
L 676.482645 418.928034 
L 684.680992 418.928034 
L 692.879339 418.928034 
L 701.077686 418.928034 
L 709.276033 418.928034 
L 717.47438 418.928034 
L 725.672727 418.928034 
L 733.871074 418.928034 
L 742.069421 418.928034 
L 750.267769 418.928034 
L 758.466116 418.928034 
L 766.664463 418.928034 
L 774.86281 418.928034 
L 783.061157 418.928034 
L 791.259504 418.928034 
L 799.457851 418.928034 
L 807.656198 418.928034 
L 815.854545 418.928034 
L 824.052893 418.928034 
L 832.25124 418.928034 
L 840.449587 418.928034 
L 848.647934 418.928034 
L 856.846281 418.928034 
L 865.044628 418.928034 
L 873.242975 418.928034 
L 881.441322 418.928034 
L 889.639669 418.928034 
L 897.838017 418.928034 
L 906.036364 418.928034 
L 914.234711 418.928034 
L 922.433058 418.928034 
L 930.631405 418.928034 
L 938.829752 418.928034 
L 947.028099 418.928034 
L 955.226446 418.928034 
L 963.424793 418.928034 
L 971.62314 418.928034 
L 979.821488 418.928034 
L 988.019835 418.928034 
L 996.218182 418.928034 
" style="fill:none;stroke:#fcffa4;stroke-linecap:square;stroke-width:1.5;"/>
   </g>
   <g id="patch_3">
    <path d="M 144 441 
L 144 60.48 
" style="fill:none;stroke:#000000;stroke-linecap:square;stroke-linejoin:miter;stroke-width:0.8;"/>
   </g>
   <g id="patch_4">
    <path d="M 1036.8 441 
L 1036.8 60.48 
" style="fill:none;stroke:#000000;stroke-linecap:square;stroke-linejoin:miter;stroke-width:0.8;"/>
   </g>
   <g id="patch_5">
    <path d="M 144 441 
L 1036.8 441 
" style="fill:none;stroke:#000000;stroke-linecap:square;stroke-linejoin:miter;stroke-width:0.8;"/>
   </g>
   <g id="patch_6">
    <path d="M 144 60.48 
L 1036.8 60.48 
" style="fill:none;stroke:#000000;stroke-linecap:square;stroke-linejoin:miter;stroke-width:0.8;"/>
   </g>
   <g id="text_18">
    <!-- Learning accuracy for different watermark proportions -->
    <defs>
     <path d="M 9.8125 72.90625 
L 19.671875 72.90625 
L 19.671875 8.296875 
L 55.171875 8.296875 
L 55.171875 0 
L 9.8125 0 
z
" id="DejaVuSans-76"/>
     <path d="M 56.203125 29.59375 
L 56.203125 25.203125 
L 14.890625 25.203125 
Q 15.484375 15.921875 20.484375 11.0625 
Q 25.484375 6.203125 34.421875 6.203125 
Q 39.59375 6.203125 44.453125 7.46875 
Q 49.3125 8.734375 54.109375 11.28125 
L 54.109375 2.78125 
Q 49.265625 0.734375 44.1875 -0.34375 
Q 39.109375 -1.421875 33.890625 -1.421875 
Q 20.796875 -1.421875 13.15625 6.1875 
Q 5.515625 13.8125 5.515625 26.8125 
Q 5.515625 40.234375 12.765625 48.109375 
Q 20.015625 56 32.328125 56 
Q 43.359375 56 49.78125 48.890625 
Q 56.203125 41.796875 56.203125 29.59375 
z
M 47.21875 32.234375 
Q 47.125 39.59375 43.09375 43.984375 
Q 39.0625 48.390625 32.421875 48.390625 
Q 24.90625 48.390625 20.390625 44.140625 
Q 15.875 39.890625 15.1875 32.171875 
z
" id="DejaVuSans-101"/>
     <path d="M 45.40625 27.984375 
Q 45.40625 37.75 41.375 43.109375 
Q 37.359375 48.484375 30.078125 48.484375 
Q 22.859375 48.484375 18.828125 43.109375 
Q 14.796875 37.75 14.796875 27.984375 
Q 14.796875 18.265625 18.828125 12.890625 
Q 22.859375 7.515625 30.078125 7.515625 
Q 37.359375 7.515625 41.375 12.890625 
Q 45.40625 18.265625 45.40625 27.984375 
z
M 54.390625 6.78125 
Q 54.390625 -7.171875 48.1875 -13.984375 
Q 42 -20.796875 29.203125 -20.796875 
Q 24.46875 -20.796875 20.265625 -20.09375 
Q 16.0625 -19.390625 12.109375 -17.921875 
L 12.109375 -9.1875 
Q 16.0625 -11.328125 19.921875 -12.34375 
Q 23.78125 -13.375 27.78125 -13.375 
Q 36.625 -13.375 41.015625 -8.765625 
Q 45.40625 -4.15625 45.40625 5.171875 
L 45.40625 9.625 
Q 42.625 4.78125 38.28125 2.390625 
Q 33.9375 0 27.875 0 
Q 17.828125 0 11.671875 7.65625 
Q 5.515625 15.328125 5.515625 27.984375 
Q 5.515625 40.671875 11.671875 48.328125 
Q 17.828125 56 27.875 56 
Q 33.9375 56 38.28125 53.609375 
Q 42.625 51.21875 45.40625 46.390625 
L 45.40625 54.6875 
L 54.390625 54.6875 
z
" id="DejaVuSans-103"/>
     <path d="M 37.109375 75.984375 
L 37.109375 68.5 
L 28.515625 68.5 
Q 23.6875 68.5 21.796875 66.546875 
Q 19.921875 64.59375 19.921875 59.515625 
L 19.921875 54.6875 
L 34.71875 54.6875 
L 34.71875 47.703125 
L 19.921875 47.703125 
L 19.921875 0 
L 10.890625 0 
L 10.890625 47.703125 
L 2.296875 47.703125 
L 2.296875 54.6875 
L 10.890625 54.6875 
L 10.890625 58.5 
Q 10.890625 67.625 15.140625 71.796875 
Q 19.390625 75.984375 28.609375 75.984375 
z
" id="DejaVuSans-102"/>
     <path d="M 4.203125 54.6875 
L 13.1875 54.6875 
L 24.421875 12.015625 
L 35.59375 54.6875 
L 46.1875 54.6875 
L 57.421875 12.015625 
L 68.609375 54.6875 
L 77.59375 54.6875 
L 63.28125 0 
L 52.6875 0 
L 40.921875 44.828125 
L 29.109375 0 
L 18.5 0 
z
" id="DejaVuSans-119"/>
     <path d="M 52 44.1875 
Q 55.375 50.25 60.0625 53.125 
Q 64.75 56 71.09375 56 
Q 79.640625 56 84.28125 50.015625 
Q 88.921875 44.046875 88.921875 33.015625 
L 88.921875 0 
L 79.890625 0 
L 79.890625 32.71875 
Q 79.890625 40.578125 77.09375 44.375 
Q 74.3125 48.1875 68.609375 48.1875 
Q 61.625 48.1875 57.5625 43.546875 
Q 53.515625 38.921875 53.515625 30.90625 
L 53.515625 0 
L 44.484375 0 
L 44.484375 32.71875 
Q 44.484375 40.625 41.703125 44.40625 
Q 38.921875 48.1875 33.109375 48.1875 
Q 26.21875 48.1875 22.15625 43.53125 
Q 18.109375 38.875 18.109375 30.90625 
L 18.109375 0 
L 9.078125 0 
L 9.078125 54.6875 
L 18.109375 54.6875 
L 18.109375 46.1875 
Q 21.1875 51.21875 25.484375 53.609375 
Q 29.78125 56 35.6875 56 
Q 41.65625 56 45.828125 52.96875 
Q 50 49.953125 52 44.1875 
z
" id="DejaVuSans-109"/>
     <path d="M 9.078125 75.984375 
L 18.109375 75.984375 
L 18.109375 31.109375 
L 44.921875 54.6875 
L 56.390625 54.6875 
L 27.390625 29.109375 
L 57.625 0 
L 45.90625 0 
L 18.109375 26.703125 
L 18.109375 0 
L 9.078125 0 
z
" id="DejaVuSans-107"/>
    </defs>
    <g transform="translate(427.095937 54.48)scale(0.12 -0.12)">
     <use xlink:href="#DejaVuSans-76"/>
     <use x="53.962891" xlink:href="#DejaVuSans-101"/>
     <use x="115.486328" xlink:href="#DejaVuSans-97"/>
     <use x="176.765625" xlink:href="#DejaVuSans-114"/>
     <use x="216.128906" xlink:href="#DejaVuSans-110"/>
     <use x="279.507812" xlink:href="#DejaVuSans-105"/>
     <use x="307.291016" xlink:href="#DejaVuSans-110"/>
     <use x="370.669922" xlink:href="#DejaVuSans-103"/>
     <use x="434.146484" xlink:href="#DejaVuSans-32"/>
     <use x="465.933594" xlink:href="#DejaVuSans-97"/>
     <use x="527.212891" xlink:href="#DejaVuSans-99"/>
     <use x="582.193359" xlink:href="#DejaVuSans-99"/>
     <use x="637.173828" xlink:href="#DejaVuSans-117"/>
     <use x="700.552734" xlink:href="#DejaVuSans-114"/>
     <use x="741.666016" xlink:href="#DejaVuSans-97"/>
     <use x="802.945312" xlink:href="#DejaVuSans-99"/>
     <use x="857.925781" xlink:href="#DejaVuSans-121"/>
     <use x="917.105469" xlink:href="#DejaVuSans-32"/>
     <use x="948.892578" xlink:href="#DejaVuSans-102"/>
     <use x="984.097656" xlink:href="#DejaVuSans-111"/>
     <use x="1045.279297" xlink:href="#DejaVuSans-114"/>
     <use x="1086.392578" xlink:href="#DejaVuSans-32"/>
     <use x="1118.179688" xlink:href="#DejaVuSans-100"/>
     <use x="1181.65625" xlink:href="#DejaVuSans-105"/>
     <use x="1209.439453" xlink:href="#DejaVuSans-102"/>
     <use x="1244.644531" xlink:href="#DejaVuSans-102"/>
     <use x="1279.849609" xlink:href="#DejaVuSans-101"/>
     <use x="1341.373047" xlink:href="#DejaVuSans-114"/>
     <use x="1380.236328" xlink:href="#DejaVuSans-101"/>
     <use x="1441.759766" xlink:href="#DejaVuSans-110"/>
     <use x="1505.138672" xlink:href="#DejaVuSans-116"/>
     <use x="1544.347656" xlink:href="#DejaVuSans-32"/>
     <use x="1576.134766" xlink:href="#DejaVuSans-119"/>
     <use x="1657.921875" xlink:href="#DejaVuSans-97"/>
     <use x="1719.201172" xlink:href="#DejaVuSans-116"/>
     <use x="1758.410156" xlink:href="#DejaVuSans-101"/>
     <use x="1819.933594" xlink:href="#DejaVuSans-114"/>
     <use x="1859.296875" xlink:href="#DejaVuSans-109"/>
     <use x="1956.708984" xlink:href="#DejaVuSans-97"/>
     <use x="2017.988281" xlink:href="#DejaVuSans-114"/>
     <use x="2059.101562" xlink:href="#DejaVuSans-107"/>
     <use x="2117.011719" xlink:href="#DejaVuSans-32"/>
     <use x="2148.798828" xlink:href="#DejaVuSans-112"/>
     <use x="2212.275391" xlink:href="#DejaVuSans-114"/>
     <use x="2251.138672" xlink:href="#DejaVuSans-111"/>
     <use x="2312.320312" xlink:href="#DejaVuSans-112"/>
     <use x="2375.796875" xlink:href="#DejaVuSans-111"/>
     <use x="2436.978516" xlink:href="#DejaVuSans-114"/>
     <use x="2478.091797" xlink:href="#DejaVuSans-116"/>
     <use x="2517.300781" xlink:href="#DejaVuSans-105"/>
     <use x="2545.083984" xlink:href="#DejaVuSans-111"/>
     <use x="2606.265625" xlink:href="#DejaVuSans-110"/>
     <use x="2669.644531" xlink:href="#DejaVuSans-115"/>
    </g>
   </g>
   <g id="legend_1">
    <g id="patch_7">
     <path d="M 151 229.939375 
L 211.589063 229.939375 
Q 213.589063 229.939375 213.589063 227.939375 
L 213.589063 67.48 
Q 213.589063 65.48 211.589063 65.48 
L 151 65.48 
Q 149 65.48 149 67.48 
L 149 227.939375 
Q 149 229.939375 151 229.939375 
z
" style="fill:#ffffff;opacity:0.8;stroke:#cccccc;stroke-linejoin:miter;"/>
    </g>
    <g id="line2d_27">
     <path d="M 153 73.578438 
L 173 73.578438 
" style="fill:none;stroke:#000004;stroke-linecap:square;stroke-width:1.5;"/>
    </g>
    <g id="line2d_28"/>
    <g id="text_19">
     <!-- 0% -->
     <g transform="translate(181 77.078438)scale(0.1 -0.1)">
      <use xlink:href="#DejaVuSans-48"/>
      <use x="63.623047" xlink:href="#DejaVuSans-37"/>
     </g>
    </g>
    <g id="line2d_29">
     <path d="M 153 88.256563 
L 173 88.256563 
" style="fill:none;stroke:#160b39;stroke-linecap:square;stroke-width:1.5;"/>
    </g>
    <g id="line2d_30"/>
    <g id="text_20">
     <!-- 10% -->
     <g transform="translate(181 91.756563)scale(0.1 -0.1)">
      <use xlink:href="#DejaVuSans-49"/>
      <use x="63.623047" xlink:href="#DejaVuSans-48"/>
      <use x="127.246094" xlink:href="#DejaVuSans-37"/>
     </g>
    </g>
    <g id="line2d_31">
     <path d="M 153 102.934687 
L 173 102.934687 
" style="fill:none;stroke:#420a68;stroke-linecap:square;stroke-width:1.5;"/>
    </g>
    <g id="line2d_32"/>
    <g id="text_21">
     <!-- 20% -->
     <g transform="translate(181 106.434687)scale(0.1 -0.1)">
      <use xlink:href="#DejaVuSans-50"/>
      <use x="63.623047" xlink:href="#DejaVuSans-48"/>
      <use x="127.246094" xlink:href="#DejaVuSans-37"/>
     </g>
    </g>
    <g id="line2d_33">
     <path d="M 153 117.612813 
L 173 117.612813 
" style="fill:none;stroke:#6a176e;stroke-linecap:square;stroke-width:1.5;"/>
    </g>
    <g id="line2d_34"/>
    <g id="text_22">
     <!-- 30% -->
     <g transform="translate(181 121.112813)scale(0.1 -0.1)">
      <use xlink:href="#DejaVuSans-51"/>
      <use x="63.623047" xlink:href="#DejaVuSans-48"/>
      <use x="127.246094" xlink:href="#DejaVuSans-37"/>
     </g>
    </g>
    <g id="line2d_35">
     <path d="M 153 132.290938 
L 173 132.290938 
" style="fill:none;stroke:#932667;stroke-linecap:square;stroke-width:1.5;"/>
    </g>
    <g id="line2d_36"/>
    <g id="text_23">
     <!-- 40% -->
     <g transform="translate(181 135.790938)scale(0.1 -0.1)">
      <use xlink:href="#DejaVuSans-52"/>
      <use x="63.623047" xlink:href="#DejaVuSans-48"/>
      <use x="127.246094" xlink:href="#DejaVuSans-37"/>
     </g>
    </g>
    <g id="line2d_37">
     <path d="M 153 146.969063 
L 173 146.969063 
" style="fill:none;stroke:#bc3754;stroke-linecap:square;stroke-width:1.5;"/>
    </g>
    <g id="line2d_38"/>
    <g id="text_24">
     <!-- 50% -->
     <g transform="translate(181 150.469063)scale(0.1 -0.1)">
      <use xlink:href="#DejaVuSans-53"/>
      <use x="63.623047" xlink:href="#DejaVuSans-48"/>
      <use x="127.246094" xlink:href="#DejaVuSans-37"/>
     </g>
    </g>
    <g id="line2d_39">
     <path d="M 153 161.647188 
L 173 161.647188 
" style="fill:none;stroke:#dd513a;stroke-linecap:square;stroke-width:1.5;"/>
    </g>
    <g id="line2d_40"/>
    <g id="text_25">
     <!-- 60% -->
     <g transform="translate(181 165.147188)scale(0.1 -0.1)">
      <use xlink:href="#DejaVuSans-54"/>
      <use x="63.623047" xlink:href="#DejaVuSans-48"/>
      <use x="127.246094" xlink:href="#DejaVuSans-37"/>
     </g>
    </g>
    <g id="line2d_41">
     <path d="M 153 176.325312 
L 173 176.325312 
" style="fill:none;stroke:#f37819;stroke-linecap:square;stroke-width:1.5;"/>
    </g>
    <g id="line2d_42"/>
    <g id="text_26">
     <!-- 70% -->
     <g transform="translate(181 179.825312)scale(0.1 -0.1)">
      <use xlink:href="#DejaVuSans-55"/>
      <use x="63.623047" xlink:href="#DejaVuSans-48"/>
      <use x="127.246094" xlink:href="#DejaVuSans-37"/>
     </g>
    </g>
    <g id="line2d_43">
     <path d="M 153 191.003438 
L 173 191.003438 
" style="fill:none;stroke:#fca50a;stroke-linecap:square;stroke-width:1.5;"/>
    </g>
    <g id="line2d_44"/>
    <g id="text_27">
     <!-- 80% -->
     <g transform="translate(181 194.503438)scale(0.1 -0.1)">
      <use xlink:href="#DejaVuSans-56"/>
      <use x="63.623047" xlink:href="#DejaVuSans-48"/>
      <use x="127.246094" xlink:href="#DejaVuSans-37"/>
     </g>
    </g>
    <g id="line2d_45">
     <path d="M 153 205.681562 
L 173 205.681562 
" style="fill:none;stroke:#f6d746;stroke-linecap:square;stroke-width:1.5;"/>
    </g>
    <g id="line2d_46"/>
    <g id="text_28">
     <!-- 90% -->
     <g transform="translate(181 209.181562)scale(0.1 -0.1)">
      <use xlink:href="#DejaVuSans-57"/>
      <use x="63.623047" xlink:href="#DejaVuSans-48"/>
      <use x="127.246094" xlink:href="#DejaVuSans-37"/>
     </g>
    </g>
    <g id="line2d_47">
     <path d="M 153 220.359687 
L 173 220.359687 
" style="fill:none;stroke:#fcffa4;stroke-linecap:square;stroke-width:1.5;"/>
    </g>
    <g id="line2d_48"/>
    <g id="text_29">
     <!-- 100% -->
     <g transform="translate(181 223.859687)scale(0.1 -0.1)">
      <use xlink:href="#DejaVuSans-49"/>
      <use x="63.623047" xlink:href="#DejaVuSans-48"/>
      <use x="127.246094" xlink:href="#DejaVuSans-48"/>
      <use x="190.869141" xlink:href="#DejaVuSans-37"/>
     </g>
    </g>
   </g>
  </g>
 </g>
 <defs>
  <clipPath id="pacdab93e41">
   <rect height="380.52" width="892.8" x="144" y="60.48"/>
  </clipPath>
 </defs>
</svg>
