<?xml version="1.0" encoding="utf-8" standalone="no"?>
<!DOCTYPE svg PUBLIC "-//W3C//DTD SVG 1.1//EN"
  "http://www.w3.org/Graphics/SVG/1.1/DTD/svg11.dtd">
<!-- Created with matplotlib (https://matplotlib.org/) -->
<svg height="504pt" version="1.1" viewBox="0 0 1152 504" width="1152pt" xmlns="http://www.w3.org/2000/svg" xmlns:xlink="http://www.w3.org/1999/xlink">
 <defs>
  <style type="text/css">
*{stroke-linecap:butt;stroke-linejoin:round;}
  </style>
 </defs>
 <g id="figure_1">
  <g id="patch_1">
   <path d="M 0 504 
L 1152 504 
L 1152 0 
L 0 0 
z
" style="fill:#ffffff;"/>
  </g>
  <g id="axes_1">
   <g id="patch_2">
    <path d="M 144 441 
L 1036.8 441 
L 1036.8 60.48 
L 144 60.48 
z
" style="fill:#ffffff;"/>
   </g>
   <g id="PathCollection_1">
    <defs>
     <path d="M 0 3 
C 0.795609 3 1.55874 2.683901 2.12132 2.12132 
C 2.683901 1.55874 3 0.795609 3 0 
C 3 -0.795609 2.683901 -1.55874 2.12132 -2.12132 
C 1.55874 -2.683901 0.795609 -3 0 -3 
C -0.795609 -3 -1.55874 -2.683901 -2.12132 -2.12132 
C -2.683901 -1.55874 -3 -0.795609 -3 0 
C -3 0.795609 -2.683901 1.55874 -2.12132 2.12132 
C -1.55874 2.683901 -0.795609 3 0 3 
z
" id="ma2c7062f3d" style="stroke:#1f77b4;"/>
    </defs>
    <g clip-path="url(#pd7c879db07)">
     <use style="fill:#1f77b4;stroke:#1f77b4;" x="184.581818" xlink:href="#ma2c7062f3d" y="88.798645"/>
     <use style="fill:#1f77b4;stroke:#1f77b4;" x="201.145826" xlink:href="#ma2c7062f3d" y="115.545572"/>
     <use style="fill:#1f77b4;stroke:#1f77b4;" x="217.709833" xlink:href="#ma2c7062f3d" y="126.32856"/>
     <use style="fill:#1f77b4;stroke:#1f77b4;" x="234.27384" xlink:href="#ma2c7062f3d" y="198.271436"/>
     <use style="fill:#1f77b4;stroke:#1f77b4;" x="250.837848" xlink:href="#ma2c7062f3d" y="256.651298"/>
     <use style="fill:#1f77b4;stroke:#1f77b4;" x="267.401855" xlink:href="#ma2c7062f3d" y="193.553867"/>
     <use style="fill:#1f77b4;stroke:#1f77b4;" x="283.965863" xlink:href="#ma2c7062f3d" y="287.73668"/>
     <use style="fill:#1f77b4;stroke:#1f77b4;" x="300.52987" xlink:href="#ma2c7062f3d" y="304.290276"/>
     <use style="fill:#1f77b4;stroke:#1f77b4;" x="317.093878" xlink:href="#ma2c7062f3d" y="331.753243"/>
     <use style="fill:#1f77b4;stroke:#1f77b4;" x="333.657885" xlink:href="#ma2c7062f3d" y="278.21731"/>
     <use style="fill:#1f77b4;stroke:#1f77b4;" x="350.221892" xlink:href="#ma2c7062f3d" y="320.506909"/>
     <use style="fill:#1f77b4;stroke:#1f77b4;" x="366.7859" xlink:href="#ma2c7062f3d" y="315.494493"/>
     <use style="fill:#1f77b4;stroke:#1f77b4;" x="383.349907" xlink:href="#ma2c7062f3d" y="343.252307"/>
     <use style="fill:#1f77b4;stroke:#1f77b4;" x="399.913915" xlink:href="#ma2c7062f3d" y="329.52083"/>
     <use style="fill:#1f77b4;stroke:#1f77b4;" x="416.477922" xlink:href="#ma2c7062f3d" y="362.080444"/>
     <use style="fill:#1f77b4;stroke:#1f77b4;" x="433.041929" xlink:href="#ma2c7062f3d" y="361.027417"/>
     <use style="fill:#1f77b4;stroke:#1f77b4;" x="449.605937" xlink:href="#ma2c7062f3d" y="352.687433"/>
     <use style="fill:#1f77b4;stroke:#1f77b4;" x="466.169944" xlink:href="#ma2c7062f3d" y="408.834882"/>
     <use style="fill:#1f77b4;stroke:#1f77b4;" x="482.733952" xlink:href="#ma2c7062f3d" y="412.499422"/>
     <use style="fill:#1f77b4;stroke:#1f77b4;" x="499.297959" xlink:href="#ma2c7062f3d" y="392.197043"/>
     <use style="fill:#1f77b4;stroke:#1f77b4;" x="515.861967" xlink:href="#ma2c7062f3d" y="396.746125"/>
     <use style="fill:#1f77b4;stroke:#1f77b4;" x="532.425974" xlink:href="#ma2c7062f3d" y="377.412532"/>
     <use style="fill:#1f77b4;stroke:#1f77b4;" x="548.989981" xlink:href="#ma2c7062f3d" y="398.473088"/>
     <use style="fill:#1f77b4;stroke:#1f77b4;" x="565.553989" xlink:href="#ma2c7062f3d" y="415.91123"/>
     <use style="fill:#1f77b4;stroke:#1f77b4;" x="582.117996" xlink:href="#ma2c7062f3d" y="390.090989"/>
     <use style="fill:#1f77b4;stroke:#1f77b4;" x="598.682004" xlink:href="#ma2c7062f3d" y="413.510327"/>
     <use style="fill:#1f77b4;stroke:#1f77b4;" x="615.246011" xlink:href="#ma2c7062f3d" y="374.59042"/>
     <use style="fill:#1f77b4;stroke:#1f77b4;" x="631.810019" xlink:href="#ma2c7062f3d" y="415.574262"/>
     <use style="fill:#1f77b4;stroke:#1f77b4;" x="648.374026" xlink:href="#ma2c7062f3d" y="418.733345"/>
     <use style="fill:#1f77b4;stroke:#1f77b4;" x="664.938033" xlink:href="#ma2c7062f3d" y="389.459168"/>
     <use style="fill:#1f77b4;stroke:#1f77b4;" x="681.502041" xlink:href="#ma2c7062f3d" y="397.251574"/>
     <use style="fill:#1f77b4;stroke:#1f77b4;" x="698.066048" xlink:href="#ma2c7062f3d" y="392.36553"/>
     <use style="fill:#1f77b4;stroke:#1f77b4;" x="714.630056" xlink:href="#ma2c7062f3d" y="391.98644"/>
     <use style="fill:#1f77b4;stroke:#1f77b4;" x="731.194063" xlink:href="#ma2c7062f3d" y="387.900692"/>
     <use style="fill:#1f77b4;stroke:#1f77b4;" x="747.758071" xlink:href="#ma2c7062f3d" y="416.500926"/>
     <use style="fill:#1f77b4;stroke:#1f77b4;" x="764.322078" xlink:href="#ma2c7062f3d" y="411.530635"/>
     <use style="fill:#1f77b4;stroke:#1f77b4;" x="780.886085" xlink:href="#ma2c7062f3d" y="409.803669"/>
     <use style="fill:#1f77b4;stroke:#1f77b4;" x="797.450093" xlink:href="#ma2c7062f3d" y="413.805176"/>
     <use style="fill:#1f77b4;stroke:#1f77b4;" x="814.0141" xlink:href="#ma2c7062f3d" y="396.788247"/>
     <use style="fill:#1f77b4;stroke:#1f77b4;" x="830.578108" xlink:href="#ma2c7062f3d" y="396.451278"/>
     <use style="fill:#1f77b4;stroke:#1f77b4;" x="847.142115" xlink:href="#ma2c7062f3d" y="394.218859"/>
     <use style="fill:#1f77b4;stroke:#1f77b4;" x="863.706122" xlink:href="#ma2c7062f3d" y="395.229764"/>
     <use style="fill:#1f77b4;stroke:#1f77b4;" x="880.27013" xlink:href="#ma2c7062f3d" y="410.309121"/>
     <use style="fill:#1f77b4;stroke:#1f77b4;" x="896.834137" xlink:href="#ma2c7062f3d" y="416.66941"/>
     <use style="fill:#1f77b4;stroke:#1f77b4;" x="913.398145" xlink:href="#ma2c7062f3d" y="416.163958"/>
     <use style="fill:#1f77b4;stroke:#1f77b4;" x="929.962152" xlink:href="#ma2c7062f3d" y="412.373056"/>
     <use style="fill:#1f77b4;stroke:#1f77b4;" x="946.52616" xlink:href="#ma2c7062f3d" y="402.348234"/>
     <use style="fill:#1f77b4;stroke:#1f77b4;" x="963.090167" xlink:href="#ma2c7062f3d" y="412.499422"/>
     <use style="fill:#1f77b4;stroke:#1f77b4;" x="979.654174" xlink:href="#ma2c7062f3d" y="412.625784"/>
     <use style="fill:#1f77b4;stroke:#1f77b4;" x="996.218182" xlink:href="#ma2c7062f3d" y="423.703636"/>
    </g>
   </g>
   <g id="matplotlib.axis_1">
    <g id="xtick_1">
     <g id="line2d_1">
      <defs>
       <path d="M 0 0 
L 0 3.5 
" id="m1025982b7a" style="stroke:#000000;stroke-width:0.8;"/>
      </defs>
      <g>
       <use style="stroke:#000000;stroke-width:0.8;" x="184.581818" xlink:href="#m1025982b7a" y="441"/>
      </g>
     </g>
     <g id="text_1">
      <!-- 0% -->
      <defs>
       <path d="M 31.78125 66.40625 
Q 24.171875 66.40625 20.328125 58.90625 
Q 16.5 51.421875 16.5 36.375 
Q 16.5 21.390625 20.328125 13.890625 
Q 24.171875 6.390625 31.78125 6.390625 
Q 39.453125 6.390625 43.28125 13.890625 
Q 47.125 21.390625 47.125 36.375 
Q 47.125 51.421875 43.28125 58.90625 
Q 39.453125 66.40625 31.78125 66.40625 
z
M 31.78125 74.21875 
Q 44.046875 74.21875 50.515625 64.515625 
Q 56.984375 54.828125 56.984375 36.375 
Q 56.984375 17.96875 50.515625 8.265625 
Q 44.046875 -1.421875 31.78125 -1.421875 
Q 19.53125 -1.421875 13.0625 8.265625 
Q 6.59375 17.96875 6.59375 36.375 
Q 6.59375 54.828125 13.0625 64.515625 
Q 19.53125 74.21875 31.78125 74.21875 
z
" id="DejaVuSans-48"/>
       <path d="M 72.703125 32.078125 
Q 68.453125 32.078125 66.03125 28.46875 
Q 63.625 24.859375 63.625 18.40625 
Q 63.625 12.0625 66.03125 8.421875 
Q 68.453125 4.78125 72.703125 4.78125 
Q 76.859375 4.78125 79.265625 8.421875 
Q 81.6875 12.0625 81.6875 18.40625 
Q 81.6875 24.8125 79.265625 28.4375 
Q 76.859375 32.078125 72.703125 32.078125 
z
M 72.703125 38.28125 
Q 80.421875 38.28125 84.953125 32.90625 
Q 89.5 27.546875 89.5 18.40625 
Q 89.5 9.28125 84.9375 3.921875 
Q 80.375 -1.421875 72.703125 -1.421875 
Q 64.890625 -1.421875 60.34375 3.921875 
Q 55.8125 9.28125 55.8125 18.40625 
Q 55.8125 27.59375 60.375 32.9375 
Q 64.9375 38.28125 72.703125 38.28125 
z
M 22.3125 68.015625 
Q 18.109375 68.015625 15.6875 64.375 
Q 13.28125 60.75 13.28125 54.390625 
Q 13.28125 47.953125 15.671875 44.328125 
Q 18.0625 40.71875 22.3125 40.71875 
Q 26.5625 40.71875 28.96875 44.328125 
Q 31.390625 47.953125 31.390625 54.390625 
Q 31.390625 60.6875 28.953125 64.34375 
Q 26.515625 68.015625 22.3125 68.015625 
z
M 66.40625 74.21875 
L 74.21875 74.21875 
L 28.609375 -1.421875 
L 20.796875 -1.421875 
z
M 22.3125 74.21875 
Q 30.03125 74.21875 34.609375 68.875 
Q 39.203125 63.53125 39.203125 54.390625 
Q 39.203125 45.171875 34.640625 39.84375 
Q 30.078125 34.515625 22.3125 34.515625 
Q 14.546875 34.515625 10.03125 39.859375 
Q 5.515625 45.21875 5.515625 54.390625 
Q 5.515625 63.484375 10.046875 68.84375 
Q 14.59375 74.21875 22.3125 74.21875 
z
" id="DejaVuSans-37"/>
      </defs>
      <g transform="translate(176.649787 455.598437)scale(0.1 -0.1)">
       <use xlink:href="#DejaVuSans-48"/>
       <use x="63.623047" xlink:href="#DejaVuSans-37"/>
      </g>
     </g>
    </g>
    <g id="xtick_2">
     <g id="line2d_2">
      <g>
       <use style="stroke:#000000;stroke-width:0.8;" x="346.909091" xlink:href="#m1025982b7a" y="441"/>
      </g>
     </g>
     <g id="text_2">
      <!-- 2% -->
      <defs>
       <path d="M 19.1875 8.296875 
L 53.609375 8.296875 
L 53.609375 0 
L 7.328125 0 
L 7.328125 8.296875 
Q 12.9375 14.109375 22.625 23.890625 
Q 32.328125 33.6875 34.8125 36.53125 
Q 39.546875 41.84375 41.421875 45.53125 
Q 43.3125 49.21875 43.3125 52.78125 
Q 43.3125 58.59375 39.234375 62.25 
Q 35.15625 65.921875 28.609375 65.921875 
Q 23.96875 65.921875 18.8125 64.3125 
Q 13.671875 62.703125 7.8125 59.421875 
L 7.8125 69.390625 
Q 13.765625 71.78125 18.9375 73 
Q 24.125 74.21875 28.421875 74.21875 
Q 39.75 74.21875 46.484375 68.546875 
Q 53.21875 62.890625 53.21875 53.421875 
Q 53.21875 48.921875 51.53125 44.890625 
Q 49.859375 40.875 45.40625 35.40625 
Q 44.1875 33.984375 37.640625 27.21875 
Q 31.109375 20.453125 19.1875 8.296875 
z
" id="DejaVuSans-50"/>
      </defs>
      <g transform="translate(338.97706 455.598437)scale(0.1 -0.1)">
       <use xlink:href="#DejaVuSans-50"/>
       <use x="63.623047" xlink:href="#DejaVuSans-37"/>
      </g>
     </g>
    </g>
    <g id="xtick_3">
     <g id="line2d_3">
      <g>
       <use style="stroke:#000000;stroke-width:0.8;" x="509.236364" xlink:href="#m1025982b7a" y="441"/>
      </g>
     </g>
     <g id="text_3">
      <!-- 4% -->
      <defs>
       <path d="M 37.796875 64.3125 
L 12.890625 25.390625 
L 37.796875 25.390625 
z
M 35.203125 72.90625 
L 47.609375 72.90625 
L 47.609375 25.390625 
L 58.015625 25.390625 
L 58.015625 17.1875 
L 47.609375 17.1875 
L 47.609375 0 
L 37.796875 0 
L 37.796875 17.1875 
L 4.890625 17.1875 
L 4.890625 26.703125 
z
" id="DejaVuSans-52"/>
      </defs>
      <g transform="translate(501.304332 455.598437)scale(0.1 -0.1)">
       <use xlink:href="#DejaVuSans-52"/>
       <use x="63.623047" xlink:href="#DejaVuSans-37"/>
      </g>
     </g>
    </g>
    <g id="xtick_4">
     <g id="line2d_4">
      <g>
       <use style="stroke:#000000;stroke-width:0.8;" x="671.563636" xlink:href="#m1025982b7a" y="441"/>
      </g>
     </g>
     <g id="text_4">
      <!-- 6% -->
      <defs>
       <path d="M 33.015625 40.375 
Q 26.375 40.375 22.484375 35.828125 
Q 18.609375 31.296875 18.609375 23.390625 
Q 18.609375 15.53125 22.484375 10.953125 
Q 26.375 6.390625 33.015625 6.390625 
Q 39.65625 6.390625 43.53125 10.953125 
Q 47.40625 15.53125 47.40625 23.390625 
Q 47.40625 31.296875 43.53125 35.828125 
Q 39.65625 40.375 33.015625 40.375 
z
M 52.59375 71.296875 
L 52.59375 62.3125 
Q 48.875 64.0625 45.09375 64.984375 
Q 41.3125 65.921875 37.59375 65.921875 
Q 27.828125 65.921875 22.671875 59.328125 
Q 17.53125 52.734375 16.796875 39.40625 
Q 19.671875 43.65625 24.015625 45.921875 
Q 28.375 48.1875 33.59375 48.1875 
Q 44.578125 48.1875 50.953125 41.515625 
Q 57.328125 34.859375 57.328125 23.390625 
Q 57.328125 12.15625 50.6875 5.359375 
Q 44.046875 -1.421875 33.015625 -1.421875 
Q 20.359375 -1.421875 13.671875 8.265625 
Q 6.984375 17.96875 6.984375 36.375 
Q 6.984375 53.65625 15.1875 63.9375 
Q 23.390625 74.21875 37.203125 74.21875 
Q 40.921875 74.21875 44.703125 73.484375 
Q 48.484375 72.75 52.59375 71.296875 
z
" id="DejaVuSans-54"/>
      </defs>
      <g transform="translate(663.631605 455.598437)scale(0.1 -0.1)">
       <use xlink:href="#DejaVuSans-54"/>
       <use x="63.623047" xlink:href="#DejaVuSans-37"/>
      </g>
     </g>
    </g>
    <g id="xtick_5">
     <g id="line2d_5">
      <g>
       <use style="stroke:#000000;stroke-width:0.8;" x="833.890909" xlink:href="#m1025982b7a" y="441"/>
      </g>
     </g>
     <g id="text_5">
      <!-- 8% -->
      <defs>
       <path d="M 31.78125 34.625 
Q 24.75 34.625 20.71875 30.859375 
Q 16.703125 27.09375 16.703125 20.515625 
Q 16.703125 13.921875 20.71875 10.15625 
Q 24.75 6.390625 31.78125 6.390625 
Q 38.8125 6.390625 42.859375 10.171875 
Q 46.921875 13.96875 46.921875 20.515625 
Q 46.921875 27.09375 42.890625 30.859375 
Q 38.875 34.625 31.78125 34.625 
z
M 21.921875 38.8125 
Q 15.578125 40.375 12.03125 44.71875 
Q 8.5 49.078125 8.5 55.328125 
Q 8.5 64.0625 14.71875 69.140625 
Q 20.953125 74.21875 31.78125 74.21875 
Q 42.671875 74.21875 48.875 69.140625 
Q 55.078125 64.0625 55.078125 55.328125 
Q 55.078125 49.078125 51.53125 44.71875 
Q 48 40.375 41.703125 38.8125 
Q 48.828125 37.15625 52.796875 32.3125 
Q 56.78125 27.484375 56.78125 20.515625 
Q 56.78125 9.90625 50.3125 4.234375 
Q 43.84375 -1.421875 31.78125 -1.421875 
Q 19.734375 -1.421875 13.25 4.234375 
Q 6.78125 9.90625 6.78125 20.515625 
Q 6.78125 27.484375 10.78125 32.3125 
Q 14.796875 37.15625 21.921875 38.8125 
z
M 18.3125 54.390625 
Q 18.3125 48.734375 21.84375 45.5625 
Q 25.390625 42.390625 31.78125 42.390625 
Q 38.140625 42.390625 41.71875 45.5625 
Q 45.3125 48.734375 45.3125 54.390625 
Q 45.3125 60.0625 41.71875 63.234375 
Q 38.140625 66.40625 31.78125 66.40625 
Q 25.390625 66.40625 21.84375 63.234375 
Q 18.3125 60.0625 18.3125 54.390625 
z
" id="DejaVuSans-56"/>
      </defs>
      <g transform="translate(825.958878 455.598437)scale(0.1 -0.1)">
       <use xlink:href="#DejaVuSans-56"/>
       <use x="63.623047" xlink:href="#DejaVuSans-37"/>
      </g>
     </g>
    </g>
    <g id="xtick_6">
     <g id="line2d_6">
      <g>
       <use style="stroke:#000000;stroke-width:0.8;" x="996.218182" xlink:href="#m1025982b7a" y="441"/>
      </g>
     </g>
     <g id="text_6">
      <!-- 10% -->
      <defs>
       <path d="M 12.40625 8.296875 
L 28.515625 8.296875 
L 28.515625 63.921875 
L 10.984375 60.40625 
L 10.984375 69.390625 
L 28.421875 72.90625 
L 38.28125 72.90625 
L 38.28125 8.296875 
L 54.390625 8.296875 
L 54.390625 0 
L 12.40625 0 
z
" id="DejaVuSans-49"/>
      </defs>
      <g transform="translate(985.104901 455.598437)scale(0.1 -0.1)">
       <use xlink:href="#DejaVuSans-49"/>
       <use x="63.623047" xlink:href="#DejaVuSans-48"/>
       <use x="127.246094" xlink:href="#DejaVuSans-37"/>
      </g>
     </g>
    </g>
    <g id="text_7">
     <!-- Percentage of model weights watermarked -->
     <defs>
      <path d="M 19.671875 64.796875 
L 19.671875 37.40625 
L 32.078125 37.40625 
Q 38.96875 37.40625 42.71875 40.96875 
Q 46.484375 44.53125 46.484375 51.125 
Q 46.484375 57.671875 42.71875 61.234375 
Q 38.96875 64.796875 32.078125 64.796875 
z
M 9.8125 72.90625 
L 32.078125 72.90625 
Q 44.34375 72.90625 50.609375 67.359375 
Q 56.890625 61.8125 56.890625 51.125 
Q 56.890625 40.328125 50.609375 34.8125 
Q 44.34375 29.296875 32.078125 29.296875 
L 19.671875 29.296875 
L 19.671875 0 
L 9.8125 0 
z
" id="DejaVuSans-80"/>
      <path d="M 56.203125 29.59375 
L 56.203125 25.203125 
L 14.890625 25.203125 
Q 15.484375 15.921875 20.484375 11.0625 
Q 25.484375 6.203125 34.421875 6.203125 
Q 39.59375 6.203125 44.453125 7.46875 
Q 49.3125 8.734375 54.109375 11.28125 
L 54.109375 2.78125 
Q 49.265625 0.734375 44.1875 -0.34375 
Q 39.109375 -1.421875 33.890625 -1.421875 
Q 20.796875 -1.421875 13.15625 6.1875 
Q 5.515625 13.8125 5.515625 26.8125 
Q 5.515625 40.234375 12.765625 48.109375 
Q 20.015625 56 32.328125 56 
Q 43.359375 56 49.78125 48.890625 
Q 56.203125 41.796875 56.203125 29.59375 
z
M 47.21875 32.234375 
Q 47.125 39.59375 43.09375 43.984375 
Q 39.0625 48.390625 32.421875 48.390625 
Q 24.90625 48.390625 20.390625 44.140625 
Q 15.875 39.890625 15.1875 32.171875 
z
" id="DejaVuSans-101"/>
      <path d="M 41.109375 46.296875 
Q 39.59375 47.171875 37.8125 47.578125 
Q 36.03125 48 33.890625 48 
Q 26.265625 48 22.1875 43.046875 
Q 18.109375 38.09375 18.109375 28.8125 
L 18.109375 0 
L 9.078125 0 
L 9.078125 54.6875 
L 18.109375 54.6875 
L 18.109375 46.1875 
Q 20.953125 51.171875 25.484375 53.578125 
Q 30.03125 56 36.53125 56 
Q 37.453125 56 38.578125 55.875 
Q 39.703125 55.765625 41.0625 55.515625 
z
" id="DejaVuSans-114"/>
      <path d="M 48.78125 52.59375 
L 48.78125 44.1875 
Q 44.96875 46.296875 41.140625 47.34375 
Q 37.3125 48.390625 33.40625 48.390625 
Q 24.65625 48.390625 19.8125 42.84375 
Q 14.984375 37.3125 14.984375 27.296875 
Q 14.984375 17.28125 19.8125 11.734375 
Q 24.65625 6.203125 33.40625 6.203125 
Q 37.3125 6.203125 41.140625 7.25 
Q 44.96875 8.296875 48.78125 10.40625 
L 48.78125 2.09375 
Q 45.015625 0.34375 40.984375 -0.53125 
Q 36.96875 -1.421875 32.421875 -1.421875 
Q 20.0625 -1.421875 12.78125 6.34375 
Q 5.515625 14.109375 5.515625 27.296875 
Q 5.515625 40.671875 12.859375 48.328125 
Q 20.21875 56 33.015625 56 
Q 37.15625 56 41.109375 55.140625 
Q 45.0625 54.296875 48.78125 52.59375 
z
" id="DejaVuSans-99"/>
      <path d="M 54.890625 33.015625 
L 54.890625 0 
L 45.90625 0 
L 45.90625 32.71875 
Q 45.90625 40.484375 42.875 44.328125 
Q 39.84375 48.1875 33.796875 48.1875 
Q 26.515625 48.1875 22.3125 43.546875 
Q 18.109375 38.921875 18.109375 30.90625 
L 18.109375 0 
L 9.078125 0 
L 9.078125 54.6875 
L 18.109375 54.6875 
L 18.109375 46.1875 
Q 21.34375 51.125 25.703125 53.5625 
Q 30.078125 56 35.796875 56 
Q 45.21875 56 50.046875 50.171875 
Q 54.890625 44.34375 54.890625 33.015625 
z
" id="DejaVuSans-110"/>
      <path d="M 18.3125 70.21875 
L 18.3125 54.6875 
L 36.8125 54.6875 
L 36.8125 47.703125 
L 18.3125 47.703125 
L 18.3125 18.015625 
Q 18.3125 11.328125 20.140625 9.421875 
Q 21.96875 7.515625 27.59375 7.515625 
L 36.8125 7.515625 
L 36.8125 0 
L 27.59375 0 
Q 17.1875 0 13.234375 3.875 
Q 9.28125 7.765625 9.28125 18.015625 
L 9.28125 47.703125 
L 2.6875 47.703125 
L 2.6875 54.6875 
L 9.28125 54.6875 
L 9.28125 70.21875 
z
" id="DejaVuSans-116"/>
      <path d="M 34.28125 27.484375 
Q 23.390625 27.484375 19.1875 25 
Q 14.984375 22.515625 14.984375 16.5 
Q 14.984375 11.71875 18.140625 8.90625 
Q 21.296875 6.109375 26.703125 6.109375 
Q 34.1875 6.109375 38.703125 11.40625 
Q 43.21875 16.703125 43.21875 25.484375 
L 43.21875 27.484375 
z
M 52.203125 31.203125 
L 52.203125 0 
L 43.21875 0 
L 43.21875 8.296875 
Q 40.140625 3.328125 35.546875 0.953125 
Q 30.953125 -1.421875 24.3125 -1.421875 
Q 15.921875 -1.421875 10.953125 3.296875 
Q 6 8.015625 6 15.921875 
Q 6 25.140625 12.171875 29.828125 
Q 18.359375 34.515625 30.609375 34.515625 
L 43.21875 34.515625 
L 43.21875 35.40625 
Q 43.21875 41.609375 39.140625 45 
Q 35.0625 48.390625 27.6875 48.390625 
Q 23 48.390625 18.546875 47.265625 
Q 14.109375 46.140625 10.015625 43.890625 
L 10.015625 52.203125 
Q 14.9375 54.109375 19.578125 55.046875 
Q 24.21875 56 28.609375 56 
Q 40.484375 56 46.34375 49.84375 
Q 52.203125 43.703125 52.203125 31.203125 
z
" id="DejaVuSans-97"/>
      <path d="M 45.40625 27.984375 
Q 45.40625 37.75 41.375 43.109375 
Q 37.359375 48.484375 30.078125 48.484375 
Q 22.859375 48.484375 18.828125 43.109375 
Q 14.796875 37.75 14.796875 27.984375 
Q 14.796875 18.265625 18.828125 12.890625 
Q 22.859375 7.515625 30.078125 7.515625 
Q 37.359375 7.515625 41.375 12.890625 
Q 45.40625 18.265625 45.40625 27.984375 
z
M 54.390625 6.78125 
Q 54.390625 -7.171875 48.1875 -13.984375 
Q 42 -20.796875 29.203125 -20.796875 
Q 24.46875 -20.796875 20.265625 -20.09375 
Q 16.0625 -19.390625 12.109375 -17.921875 
L 12.109375 -9.1875 
Q 16.0625 -11.328125 19.921875 -12.34375 
Q 23.78125 -13.375 27.78125 -13.375 
Q 36.625 -13.375 41.015625 -8.765625 
Q 45.40625 -4.15625 45.40625 5.171875 
L 45.40625 9.625 
Q 42.625 4.78125 38.28125 2.390625 
Q 33.9375 0 27.875 0 
Q 17.828125 0 11.671875 7.65625 
Q 5.515625 15.328125 5.515625 27.984375 
Q 5.515625 40.671875 11.671875 48.328125 
Q 17.828125 56 27.875 56 
Q 33.9375 56 38.28125 53.609375 
Q 42.625 51.21875 45.40625 46.390625 
L 45.40625 54.6875 
L 54.390625 54.6875 
z
" id="DejaVuSans-103"/>
      <path id="DejaVuSans-32"/>
      <path d="M 30.609375 48.390625 
Q 23.390625 48.390625 19.1875 42.75 
Q 14.984375 37.109375 14.984375 27.296875 
Q 14.984375 17.484375 19.15625 11.84375 
Q 23.34375 6.203125 30.609375 6.203125 
Q 37.796875 6.203125 41.984375 11.859375 
Q 46.1875 17.53125 46.1875 27.296875 
Q 46.1875 37.015625 41.984375 42.703125 
Q 37.796875 48.390625 30.609375 48.390625 
z
M 30.609375 56 
Q 42.328125 56 49.015625 48.375 
Q 55.71875 40.765625 55.71875 27.296875 
Q 55.71875 13.875 49.015625 6.21875 
Q 42.328125 -1.421875 30.609375 -1.421875 
Q 18.84375 -1.421875 12.171875 6.21875 
Q 5.515625 13.875 5.515625 27.296875 
Q 5.515625 40.765625 12.171875 48.375 
Q 18.84375 56 30.609375 56 
z
" id="DejaVuSans-111"/>
      <path d="M 37.109375 75.984375 
L 37.109375 68.5 
L 28.515625 68.5 
Q 23.6875 68.5 21.796875 66.546875 
Q 19.921875 64.59375 19.921875 59.515625 
L 19.921875 54.6875 
L 34.71875 54.6875 
L 34.71875 47.703125 
L 19.921875 47.703125 
L 19.921875 0 
L 10.890625 0 
L 10.890625 47.703125 
L 2.296875 47.703125 
L 2.296875 54.6875 
L 10.890625 54.6875 
L 10.890625 58.5 
Q 10.890625 67.625 15.140625 71.796875 
Q 19.390625 75.984375 28.609375 75.984375 
z
" id="DejaVuSans-102"/>
      <path d="M 52 44.1875 
Q 55.375 50.25 60.0625 53.125 
Q 64.75 56 71.09375 56 
Q 79.640625 56 84.28125 50.015625 
Q 88.921875 44.046875 88.921875 33.015625 
L 88.921875 0 
L 79.890625 0 
L 79.890625 32.71875 
Q 79.890625 40.578125 77.09375 44.375 
Q 74.3125 48.1875 68.609375 48.1875 
Q 61.625 48.1875 57.5625 43.546875 
Q 53.515625 38.921875 53.515625 30.90625 
L 53.515625 0 
L 44.484375 0 
L 44.484375 32.71875 
Q 44.484375 40.625 41.703125 44.40625 
Q 38.921875 48.1875 33.109375 48.1875 
Q 26.21875 48.1875 22.15625 43.53125 
Q 18.109375 38.875 18.109375 30.90625 
L 18.109375 0 
L 9.078125 0 
L 9.078125 54.6875 
L 18.109375 54.6875 
L 18.109375 46.1875 
Q 21.1875 51.21875 25.484375 53.609375 
Q 29.78125 56 35.6875 56 
Q 41.65625 56 45.828125 52.96875 
Q 50 49.953125 52 44.1875 
z
" id="DejaVuSans-109"/>
      <path d="M 45.40625 46.390625 
L 45.40625 75.984375 
L 54.390625 75.984375 
L 54.390625 0 
L 45.40625 0 
L 45.40625 8.203125 
Q 42.578125 3.328125 38.25 0.953125 
Q 33.9375 -1.421875 27.875 -1.421875 
Q 17.96875 -1.421875 11.734375 6.484375 
Q 5.515625 14.40625 5.515625 27.296875 
Q 5.515625 40.1875 11.734375 48.09375 
Q 17.96875 56 27.875 56 
Q 33.9375 56 38.25 53.625 
Q 42.578125 51.265625 45.40625 46.390625 
z
M 14.796875 27.296875 
Q 14.796875 17.390625 18.875 11.75 
Q 22.953125 6.109375 30.078125 6.109375 
Q 37.203125 6.109375 41.296875 11.75 
Q 45.40625 17.390625 45.40625 27.296875 
Q 45.40625 37.203125 41.296875 42.84375 
Q 37.203125 48.484375 30.078125 48.484375 
Q 22.953125 48.484375 18.875 42.84375 
Q 14.796875 37.203125 14.796875 27.296875 
z
" id="DejaVuSans-100"/>
      <path d="M 9.421875 75.984375 
L 18.40625 75.984375 
L 18.40625 0 
L 9.421875 0 
z
" id="DejaVuSans-108"/>
      <path d="M 4.203125 54.6875 
L 13.1875 54.6875 
L 24.421875 12.015625 
L 35.59375 54.6875 
L 46.1875 54.6875 
L 57.421875 12.015625 
L 68.609375 54.6875 
L 77.59375 54.6875 
L 63.28125 0 
L 52.6875 0 
L 40.921875 44.828125 
L 29.109375 0 
L 18.5 0 
z
" id="DejaVuSans-119"/>
      <path d="M 9.421875 54.6875 
L 18.40625 54.6875 
L 18.40625 0 
L 9.421875 0 
z
M 9.421875 75.984375 
L 18.40625 75.984375 
L 18.40625 64.59375 
L 9.421875 64.59375 
z
" id="DejaVuSans-105"/>
      <path d="M 54.890625 33.015625 
L 54.890625 0 
L 45.90625 0 
L 45.90625 32.71875 
Q 45.90625 40.484375 42.875 44.328125 
Q 39.84375 48.1875 33.796875 48.1875 
Q 26.515625 48.1875 22.3125 43.546875 
Q 18.109375 38.921875 18.109375 30.90625 
L 18.109375 0 
L 9.078125 0 
L 9.078125 75.984375 
L 18.109375 75.984375 
L 18.109375 46.1875 
Q 21.34375 51.125 25.703125 53.5625 
Q 30.078125 56 35.796875 56 
Q 45.21875 56 50.046875 50.171875 
Q 54.890625 44.34375 54.890625 33.015625 
z
" id="DejaVuSans-104"/>
      <path d="M 44.28125 53.078125 
L 44.28125 44.578125 
Q 40.484375 46.53125 36.375 47.5 
Q 32.28125 48.484375 27.875 48.484375 
Q 21.1875 48.484375 17.84375 46.4375 
Q 14.5 44.390625 14.5 40.28125 
Q 14.5 37.15625 16.890625 35.375 
Q 19.28125 33.59375 26.515625 31.984375 
L 29.59375 31.296875 
Q 39.15625 29.25 43.1875 25.515625 
Q 47.21875 21.78125 47.21875 15.09375 
Q 47.21875 7.46875 41.1875 3.015625 
Q 35.15625 -1.421875 24.609375 -1.421875 
Q 20.21875 -1.421875 15.453125 -0.5625 
Q 10.6875 0.296875 5.421875 2 
L 5.421875 11.28125 
Q 10.40625 8.6875 15.234375 7.390625 
Q 20.0625 6.109375 24.8125 6.109375 
Q 31.15625 6.109375 34.5625 8.28125 
Q 37.984375 10.453125 37.984375 14.40625 
Q 37.984375 18.0625 35.515625 20.015625 
Q 33.0625 21.96875 24.703125 23.78125 
L 21.578125 24.515625 
Q 13.234375 26.265625 9.515625 29.90625 
Q 5.8125 33.546875 5.8125 39.890625 
Q 5.8125 47.609375 11.28125 51.796875 
Q 16.75 56 26.8125 56 
Q 31.78125 56 36.171875 55.265625 
Q 40.578125 54.546875 44.28125 53.078125 
z
" id="DejaVuSans-115"/>
      <path d="M 9.078125 75.984375 
L 18.109375 75.984375 
L 18.109375 31.109375 
L 44.921875 54.6875 
L 56.390625 54.6875 
L 27.390625 29.109375 
L 57.625 0 
L 45.90625 0 
L 18.109375 26.703125 
L 18.109375 0 
L 9.078125 0 
z
" id="DejaVuSans-107"/>
     </defs>
     <g transform="translate(482.957031 469.276563)scale(0.1 -0.1)">
      <use xlink:href="#DejaVuSans-80"/>
      <use x="56.677734" xlink:href="#DejaVuSans-101"/>
      <use x="118.201172" xlink:href="#DejaVuSans-114"/>
      <use x="157.064453" xlink:href="#DejaVuSans-99"/>
      <use x="212.044922" xlink:href="#DejaVuSans-101"/>
      <use x="273.568359" xlink:href="#DejaVuSans-110"/>
      <use x="336.947266" xlink:href="#DejaVuSans-116"/>
      <use x="376.15625" xlink:href="#DejaVuSans-97"/>
      <use x="437.435547" xlink:href="#DejaVuSans-103"/>
      <use x="500.912109" xlink:href="#DejaVuSans-101"/>
      <use x="562.435547" xlink:href="#DejaVuSans-32"/>
      <use x="594.222656" xlink:href="#DejaVuSans-111"/>
      <use x="655.404297" xlink:href="#DejaVuSans-102"/>
      <use x="690.609375" xlink:href="#DejaVuSans-32"/>
      <use x="722.396484" xlink:href="#DejaVuSans-109"/>
      <use x="819.808594" xlink:href="#DejaVuSans-111"/>
      <use x="880.990234" xlink:href="#DejaVuSans-100"/>
      <use x="944.466797" xlink:href="#DejaVuSans-101"/>
      <use x="1005.990234" xlink:href="#DejaVuSans-108"/>
      <use x="1033.773438" xlink:href="#DejaVuSans-32"/>
      <use x="1065.560547" xlink:href="#DejaVuSans-119"/>
      <use x="1147.347656" xlink:href="#DejaVuSans-101"/>
      <use x="1208.871094" xlink:href="#DejaVuSans-105"/>
      <use x="1236.654297" xlink:href="#DejaVuSans-103"/>
      <use x="1300.130859" xlink:href="#DejaVuSans-104"/>
      <use x="1363.509766" xlink:href="#DejaVuSans-116"/>
      <use x="1402.71875" xlink:href="#DejaVuSans-115"/>
      <use x="1454.818359" xlink:href="#DejaVuSans-32"/>
      <use x="1486.605469" xlink:href="#DejaVuSans-119"/>
      <use x="1568.392578" xlink:href="#DejaVuSans-97"/>
      <use x="1629.671875" xlink:href="#DejaVuSans-116"/>
      <use x="1668.880859" xlink:href="#DejaVuSans-101"/>
      <use x="1730.404297" xlink:href="#DejaVuSans-114"/>
      <use x="1769.767578" xlink:href="#DejaVuSans-109"/>
      <use x="1867.179688" xlink:href="#DejaVuSans-97"/>
      <use x="1928.458984" xlink:href="#DejaVuSans-114"/>
      <use x="1969.572266" xlink:href="#DejaVuSans-107"/>
      <use x="2023.857422" xlink:href="#DejaVuSans-101"/>
      <use x="2085.380859" xlink:href="#DejaVuSans-100"/>
     </g>
    </g>
   </g>
   <g id="matplotlib.axis_2">
    <g id="ytick_1">
     <g id="line2d_7">
      <defs>
       <path d="M 0 0 
L -3.5 0 
" id="mbaa82ba585" style="stroke:#000000;stroke-width:0.8;"/>
      </defs>
      <g>
       <use style="stroke:#000000;stroke-width:0.8;" x="144" xlink:href="#mbaa82ba585" y="376.191019"/>
      </g>
     </g>
     <g id="text_8">
      <!-- 20% -->
      <g transform="translate(114.773438 379.990238)scale(0.1 -0.1)">
       <use xlink:href="#DejaVuSans-50"/>
       <use x="63.623047" xlink:href="#DejaVuSans-48"/>
       <use x="127.246094" xlink:href="#DejaVuSans-37"/>
      </g>
     </g>
    </g>
    <g id="ytick_2">
     <g id="line2d_8">
      <g>
       <use style="stroke:#000000;stroke-width:0.8;" x="144" xlink:href="#mbaa82ba585" y="291.94879"/>
      </g>
     </g>
     <g id="text_9">
      <!-- 40% -->
      <g transform="translate(114.773438 295.748008)scale(0.1 -0.1)">
       <use xlink:href="#DejaVuSans-52"/>
       <use x="63.623047" xlink:href="#DejaVuSans-48"/>
       <use x="127.246094" xlink:href="#DejaVuSans-37"/>
      </g>
     </g>
    </g>
    <g id="ytick_3">
     <g id="line2d_9">
      <g>
       <use style="stroke:#000000;stroke-width:0.8;" x="144" xlink:href="#mbaa82ba585" y="207.70656"/>
      </g>
     </g>
     <g id="text_10">
      <!-- 60% -->
      <g transform="translate(114.773438 211.505779)scale(0.1 -0.1)">
       <use xlink:href="#DejaVuSans-54"/>
       <use x="63.623047" xlink:href="#DejaVuSans-48"/>
       <use x="127.246094" xlink:href="#DejaVuSans-37"/>
      </g>
     </g>
    </g>
    <g id="ytick_4">
     <g id="line2d_10">
      <g>
       <use style="stroke:#000000;stroke-width:0.8;" x="144" xlink:href="#mbaa82ba585" y="123.46433"/>
      </g>
     </g>
     <g id="text_11">
      <!-- 80% -->
      <g transform="translate(114.773438 127.263549)scale(0.1 -0.1)">
       <use xlink:href="#DejaVuSans-56"/>
       <use x="63.623047" xlink:href="#DejaVuSans-48"/>
       <use x="127.246094" xlink:href="#DejaVuSans-37"/>
      </g>
     </g>
    </g>
    <g id="text_12">
     <!-- Validation Accuracy -->
     <defs>
      <path d="M 28.609375 0 
L 0.78125 72.90625 
L 11.078125 72.90625 
L 34.1875 11.53125 
L 57.328125 72.90625 
L 67.578125 72.90625 
L 39.796875 0 
z
" id="DejaVuSans-86"/>
      <path d="M 34.1875 63.1875 
L 20.796875 26.90625 
L 47.609375 26.90625 
z
M 28.609375 72.90625 
L 39.796875 72.90625 
L 67.578125 0 
L 57.328125 0 
L 50.6875 18.703125 
L 17.828125 18.703125 
L 11.1875 0 
L 0.78125 0 
z
" id="DejaVuSans-65"/>
      <path d="M 8.5 21.578125 
L 8.5 54.6875 
L 17.484375 54.6875 
L 17.484375 21.921875 
Q 17.484375 14.15625 20.5 10.265625 
Q 23.53125 6.390625 29.59375 6.390625 
Q 36.859375 6.390625 41.078125 11.03125 
Q 45.3125 15.671875 45.3125 23.6875 
L 45.3125 54.6875 
L 54.296875 54.6875 
L 54.296875 0 
L 45.3125 0 
L 45.3125 8.40625 
Q 42.046875 3.421875 37.71875 1 
Q 33.40625 -1.421875 27.6875 -1.421875 
Q 18.265625 -1.421875 13.375 4.4375 
Q 8.5 10.296875 8.5 21.578125 
z
M 31.109375 56 
z
" id="DejaVuSans-117"/>
      <path d="M 32.171875 -5.078125 
Q 28.375 -14.84375 24.75 -17.8125 
Q 21.140625 -20.796875 15.09375 -20.796875 
L 7.90625 -20.796875 
L 7.90625 -13.28125 
L 13.1875 -13.28125 
Q 16.890625 -13.28125 18.9375 -11.515625 
Q 21 -9.765625 23.484375 -3.21875 
L 25.09375 0.875 
L 2.984375 54.6875 
L 12.5 54.6875 
L 29.59375 11.921875 
L 46.6875 54.6875 
L 56.203125 54.6875 
z
" id="DejaVuSans-121"/>
     </defs>
     <g transform="translate(108.69375 299.847813)rotate(-90)scale(0.1 -0.1)">
      <use xlink:href="#DejaVuSans-86"/>
      <use x="60.658203" xlink:href="#DejaVuSans-97"/>
      <use x="121.9375" xlink:href="#DejaVuSans-108"/>
      <use x="149.720703" xlink:href="#DejaVuSans-105"/>
      <use x="177.503906" xlink:href="#DejaVuSans-100"/>
      <use x="240.980469" xlink:href="#DejaVuSans-97"/>
      <use x="302.259766" xlink:href="#DejaVuSans-116"/>
      <use x="341.46875" xlink:href="#DejaVuSans-105"/>
      <use x="369.251953" xlink:href="#DejaVuSans-111"/>
      <use x="430.433594" xlink:href="#DejaVuSans-110"/>
      <use x="493.8125" xlink:href="#DejaVuSans-32"/>
      <use x="525.599609" xlink:href="#DejaVuSans-65"/>
      <use x="592.257812" xlink:href="#DejaVuSans-99"/>
      <use x="647.238281" xlink:href="#DejaVuSans-99"/>
      <use x="702.21875" xlink:href="#DejaVuSans-117"/>
      <use x="765.597656" xlink:href="#DejaVuSans-114"/>
      <use x="806.710938" xlink:href="#DejaVuSans-97"/>
      <use x="867.990234" xlink:href="#DejaVuSans-99"/>
      <use x="922.970703" xlink:href="#DejaVuSans-121"/>
     </g>
    </g>
   </g>
   <g id="line2d_11">
    <path clip-path="url(#pd7c879db07)" d="M 184.581818 77.776364 
L 201.145826 120.33048 
L 217.709833 157.420236 
L 234.27384 189.747309 
L 250.837848 217.923272 
L 267.401855 242.481169 
L 283.965863 263.885595 
L 300.52987 282.541485 
L 317.093878 298.801778 
L 333.657885 312.974093 
L 350.221892 325.326544 
L 366.7859 336.092822 
L 383.349907 345.476605 
L 399.913915 353.65542 
L 416.477922 360.783996 
L 433.041929 366.997194 
L 449.605937 372.412557 
L 466.169944 377.132535 
L 482.733952 381.246422 
L 499.297959 384.832046 
L 515.861967 387.957241 
L 532.425974 390.681131 
L 548.989981 393.055247 
L 565.553989 395.124504 
L 582.117996 396.928048 
L 598.682004 398.5 
L 615.246011 399.870098 
L 631.810019 401.064262 
L 648.374026 402.105083 
L 664.938033 403.012253 
L 681.502041 403.802934 
L 698.066048 404.492084 
L 714.630056 405.09274 
L 731.194063 405.616266 
L 747.758071 406.072567 
L 764.322078 406.470273 
L 780.886085 406.816911 
L 797.450093 407.119037 
L 814.0141 407.382367 
L 830.578108 407.611883 
L 847.142115 407.811927 
L 863.706122 407.986283 
L 880.27013 408.13825 
L 896.834137 408.270703 
L 913.398145 408.386148 
L 929.962152 408.486769 
L 946.52616 408.574469 
L 963.090167 408.650907 
L 979.654174 408.71753 
L 996.218182 408.775598 
" style="fill:none;stroke:#1f77b4;stroke-linecap:square;stroke-width:1.5;"/>
   </g>
   <g id="patch_3">
    <path d="M 144 441 
L 144 60.48 
" style="fill:none;stroke:#000000;stroke-linecap:square;stroke-linejoin:miter;stroke-width:0.8;"/>
   </g>
   <g id="patch_4">
    <path d="M 1036.8 441 
L 1036.8 60.48 
" style="fill:none;stroke:#000000;stroke-linecap:square;stroke-linejoin:miter;stroke-width:0.8;"/>
   </g>
   <g id="patch_5">
    <path d="M 144 441 
L 1036.8 441 
" style="fill:none;stroke:#000000;stroke-linecap:square;stroke-linejoin:miter;stroke-width:0.8;"/>
   </g>
   <g id="patch_6">
    <path d="M 144 60.48 
L 1036.8 60.48 
" style="fill:none;stroke:#000000;stroke-linecap:square;stroke-linejoin:miter;stroke-width:0.8;"/>
   </g>
   <g id="text_13">
    <!-- Pretrained model accuracy after applying watermark -->
    <defs>
     <path d="M 18.109375 8.203125 
L 18.109375 -20.796875 
L 9.078125 -20.796875 
L 9.078125 54.6875 
L 18.109375 54.6875 
L 18.109375 46.390625 
Q 20.953125 51.265625 25.265625 53.625 
Q 29.59375 56 35.59375 56 
Q 45.5625 56 51.78125 48.09375 
Q 58.015625 40.1875 58.015625 27.296875 
Q 58.015625 14.40625 51.78125 6.484375 
Q 45.5625 -1.421875 35.59375 -1.421875 
Q 29.59375 -1.421875 25.265625 0.953125 
Q 20.953125 3.328125 18.109375 8.203125 
z
M 48.6875 27.296875 
Q 48.6875 37.203125 44.609375 42.84375 
Q 40.53125 48.484375 33.40625 48.484375 
Q 26.265625 48.484375 22.1875 42.84375 
Q 18.109375 37.203125 18.109375 27.296875 
Q 18.109375 17.390625 22.1875 11.75 
Q 26.265625 6.109375 33.40625 6.109375 
Q 40.53125 6.109375 44.609375 11.75 
Q 48.6875 17.390625 48.6875 27.296875 
z
" id="DejaVuSans-112"/>
    </defs>
    <g transform="translate(431.670937 54.48)scale(0.12 -0.12)">
     <use xlink:href="#DejaVuSans-80"/>
     <use x="58.552734" xlink:href="#DejaVuSans-114"/>
     <use x="97.416016" xlink:href="#DejaVuSans-101"/>
     <use x="158.939453" xlink:href="#DejaVuSans-116"/>
     <use x="198.148438" xlink:href="#DejaVuSans-114"/>
     <use x="239.261719" xlink:href="#DejaVuSans-97"/>
     <use x="300.541016" xlink:href="#DejaVuSans-105"/>
     <use x="328.324219" xlink:href="#DejaVuSans-110"/>
     <use x="391.703125" xlink:href="#DejaVuSans-101"/>
     <use x="453.226562" xlink:href="#DejaVuSans-100"/>
     <use x="516.703125" xlink:href="#DejaVuSans-32"/>
     <use x="548.490234" xlink:href="#DejaVuSans-109"/>
     <use x="645.902344" xlink:href="#DejaVuSans-111"/>
     <use x="707.083984" xlink:href="#DejaVuSans-100"/>
     <use x="770.560547" xlink:href="#DejaVuSans-101"/>
     <use x="832.083984" xlink:href="#DejaVuSans-108"/>
     <use x="859.867188" xlink:href="#DejaVuSans-32"/>
     <use x="891.654297" xlink:href="#DejaVuSans-97"/>
     <use x="952.933594" xlink:href="#DejaVuSans-99"/>
     <use x="1007.914062" xlink:href="#DejaVuSans-99"/>
     <use x="1062.894531" xlink:href="#DejaVuSans-117"/>
     <use x="1126.273438" xlink:href="#DejaVuSans-114"/>
     <use x="1167.386719" xlink:href="#DejaVuSans-97"/>
     <use x="1228.666016" xlink:href="#DejaVuSans-99"/>
     <use x="1283.646484" xlink:href="#DejaVuSans-121"/>
     <use x="1342.826172" xlink:href="#DejaVuSans-32"/>
     <use x="1374.613281" xlink:href="#DejaVuSans-97"/>
     <use x="1435.892578" xlink:href="#DejaVuSans-102"/>
     <use x="1469.347656" xlink:href="#DejaVuSans-116"/>
     <use x="1508.556641" xlink:href="#DejaVuSans-101"/>
     <use x="1570.080078" xlink:href="#DejaVuSans-114"/>
     <use x="1611.193359" xlink:href="#DejaVuSans-32"/>
     <use x="1642.980469" xlink:href="#DejaVuSans-97"/>
     <use x="1704.259766" xlink:href="#DejaVuSans-112"/>
     <use x="1767.736328" xlink:href="#DejaVuSans-112"/>
     <use x="1831.212891" xlink:href="#DejaVuSans-108"/>
     <use x="1858.996094" xlink:href="#DejaVuSans-121"/>
     <use x="1918.175781" xlink:href="#DejaVuSans-105"/>
     <use x="1945.958984" xlink:href="#DejaVuSans-110"/>
     <use x="2009.337891" xlink:href="#DejaVuSans-103"/>
     <use x="2072.814453" xlink:href="#DejaVuSans-32"/>
     <use x="2104.601562" xlink:href="#DejaVuSans-119"/>
     <use x="2186.388672" xlink:href="#DejaVuSans-97"/>
     <use x="2247.667969" xlink:href="#DejaVuSans-116"/>
     <use x="2286.876953" xlink:href="#DejaVuSans-101"/>
     <use x="2348.400391" xlink:href="#DejaVuSans-114"/>
     <use x="2387.763672" xlink:href="#DejaVuSans-109"/>
     <use x="2485.175781" xlink:href="#DejaVuSans-97"/>
     <use x="2546.455078" xlink:href="#DejaVuSans-114"/>
     <use x="2587.568359" xlink:href="#DejaVuSans-107"/>
    </g>
   </g>
   <g id="legend_1">
    <g id="patch_7">
     <path d="M 895.667187 97.83625 
L 1029.8 97.83625 
Q 1031.8 97.83625 1031.8 95.83625 
L 1031.8 67.48 
Q 1031.8 65.48 1029.8 65.48 
L 895.667187 65.48 
Q 893.667187 65.48 893.667187 67.48 
L 893.667187 95.83625 
Q 893.667187 97.83625 895.667187 97.83625 
z
" style="fill:#ffffff;opacity:0.8;stroke:#cccccc;stroke-linejoin:miter;"/>
    </g>
    <g id="line2d_12">
     <path d="M 897.667187 73.578438 
L 917.667187 73.578438 
" style="fill:none;stroke:#1f77b4;stroke-linecap:square;stroke-width:1.5;"/>
    </g>
    <g id="line2d_13"/>
    <g id="text_14">
     <!-- 0.1 + 0.8 $e^{-67r}$ -->
     <defs>
      <path d="M 10.6875 12.40625 
L 21 12.40625 
L 21 0 
L 10.6875 0 
z
" id="DejaVuSans-46"/>
      <path d="M 46 62.703125 
L 46 35.5 
L 73.1875 35.5 
L 73.1875 27.203125 
L 46 27.203125 
L 46 0 
L 37.796875 0 
L 37.796875 27.203125 
L 10.59375 27.203125 
L 10.59375 35.5 
L 37.796875 35.5 
L 37.796875 62.703125 
z
" id="DejaVuSans-43"/>
      <path d="M 48.09375 32.234375 
Q 48.25 33.015625 48.3125 33.84375 
Q 48.390625 34.671875 48.390625 35.5 
Q 48.390625 41.453125 44.890625 44.921875 
Q 41.40625 48.390625 35.40625 48.390625 
Q 28.71875 48.390625 23.578125 44.15625 
Q 18.453125 39.9375 15.828125 32.171875 
z
M 55.90625 25.203125 
L 14.109375 25.203125 
Q 13.8125 23.34375 13.71875 22.265625 
Q 13.625 21.1875 13.625 20.40625 
Q 13.625 13.625 17.796875 9.90625 
Q 21.96875 6.203125 29.59375 6.203125 
Q 35.453125 6.203125 40.671875 7.515625 
Q 45.90625 8.84375 50.390625 11.375 
L 48.6875 2.484375 
Q 43.84375 0.53125 38.6875 -0.4375 
Q 33.546875 -1.421875 28.21875 -1.421875 
Q 16.84375 -1.421875 10.71875 4.015625 
Q 4.59375 9.46875 4.59375 19.484375 
Q 4.59375 28.03125 7.640625 35.375 
Q 10.6875 42.71875 16.609375 48.484375 
Q 20.40625 52.09375 25.65625 54.046875 
Q 30.90625 56 36.8125 56 
Q 46.09375 56 51.578125 50.4375 
Q 57.078125 44.875 57.078125 35.5 
Q 57.078125 33.25 56.78125 30.6875 
Q 56.5 28.125 55.90625 25.203125 
z
" id="DejaVuSans-Oblique-101"/>
      <path d="M 10.59375 35.5 
L 73.1875 35.5 
L 73.1875 27.203125 
L 10.59375 27.203125 
z
" id="DejaVuSans-8722"/>
      <path d="M 8.203125 72.90625 
L 55.078125 72.90625 
L 55.078125 68.703125 
L 28.609375 0 
L 18.3125 0 
L 43.21875 64.59375 
L 8.203125 64.59375 
z
" id="DejaVuSans-55"/>
      <path d="M 44.578125 46.390625 
Q 43.21875 47.125 41.453125 47.515625 
Q 39.703125 47.90625 37.703125 47.90625 
Q 30.515625 47.90625 25.140625 42.453125 
Q 19.78125 37.015625 18.015625 27.875 
L 12.5 0 
L 3.515625 0 
L 14.203125 54.6875 
L 23.1875 54.6875 
L 21.484375 46.1875 
Q 25.046875 50.921875 30 53.453125 
Q 34.96875 56 40.578125 56 
Q 42.046875 56 43.453125 55.828125 
Q 44.875 55.671875 46.296875 55.28125 
z
" id="DejaVuSans-Oblique-114"/>
     </defs>
     <g transform="translate(925.667187 77.078438)scale(0.1 -0.1)">
      <use transform="translate(0 0.765625)" xlink:href="#DejaVuSans-48"/>
      <use transform="translate(63.623047 0.765625)" xlink:href="#DejaVuSans-46"/>
      <use transform="translate(95.410156 0.765625)" xlink:href="#DejaVuSans-49"/>
      <use transform="translate(159.033203 0.765625)" xlink:href="#DejaVuSans-32"/>
      <use transform="translate(190.820312 0.765625)" xlink:href="#DejaVuSans-43"/>
      <use transform="translate(274.609375 0.765625)" xlink:href="#DejaVuSans-32"/>
      <use transform="translate(306.396484 0.765625)" xlink:href="#DejaVuSans-48"/>
      <use transform="translate(370.019531 0.765625)" xlink:href="#DejaVuSans-46"/>
      <use transform="translate(399.181641 0.765625)" xlink:href="#DejaVuSans-56"/>
      <use transform="translate(462.804688 0.765625)" xlink:href="#DejaVuSans-32"/>
      <use transform="translate(494.591797 0.765625)" xlink:href="#DejaVuSans-Oblique-101"/>
      <use transform="translate(560.76513 39.046875)scale(0.7)" xlink:href="#DejaVuSans-8722"/>
      <use transform="translate(619.417474 39.046875)scale(0.7)" xlink:href="#DejaVuSans-54"/>
      <use transform="translate(663.953607 39.046875)scale(0.7)" xlink:href="#DejaVuSans-55"/>
      <use transform="translate(708.48974 39.046875)scale(0.7)" xlink:href="#DejaVuSans-Oblique-114"/>
     </g>
    </g>
    <g id="PathCollection_2">
     <g>
      <use style="fill:#1f77b4;stroke:#1f77b4;" x="907.667187" xlink:href="#ma2c7062f3d" y="89.131563"/>
     </g>
    </g>
    <g id="text_15">
     <!-- Accuracy on test set -->
     <g transform="translate(925.667187 91.756563)scale(0.1 -0.1)">
      <use xlink:href="#DejaVuSans-65"/>
      <use x="66.658203" xlink:href="#DejaVuSans-99"/>
      <use x="121.638672" xlink:href="#DejaVuSans-99"/>
      <use x="176.619141" xlink:href="#DejaVuSans-117"/>
      <use x="239.998047" xlink:href="#DejaVuSans-114"/>
      <use x="281.111328" xlink:href="#DejaVuSans-97"/>
      <use x="342.390625" xlink:href="#DejaVuSans-99"/>
      <use x="397.371094" xlink:href="#DejaVuSans-121"/>
      <use x="456.550781" xlink:href="#DejaVuSans-32"/>
      <use x="488.337891" xlink:href="#DejaVuSans-111"/>
      <use x="549.519531" xlink:href="#DejaVuSans-110"/>
      <use x="612.898438" xlink:href="#DejaVuSans-32"/>
      <use x="644.685547" xlink:href="#DejaVuSans-116"/>
      <use x="683.894531" xlink:href="#DejaVuSans-101"/>
      <use x="745.417969" xlink:href="#DejaVuSans-115"/>
      <use x="797.517578" xlink:href="#DejaVuSans-116"/>
      <use x="836.726562" xlink:href="#DejaVuSans-32"/>
      <use x="868.513672" xlink:href="#DejaVuSans-115"/>
      <use x="920.613281" xlink:href="#DejaVuSans-101"/>
      <use x="982.136719" xlink:href="#DejaVuSans-116"/>
     </g>
    </g>
   </g>
  </g>
 </g>
 <defs>
  <clipPath id="pd7c879db07">
   <rect height="380.52" width="892.8" x="144" y="60.48"/>
  </clipPath>
 </defs>
</svg>
