<?xml version="1.0" encoding="utf-8" standalone="no"?>
<!DOCTYPE svg PUBLIC "-//W3C//DTD SVG 1.1//EN"
  "http://www.w3.org/Graphics/SVG/1.1/DTD/svg11.dtd">
<!-- Created with matplotlib (https://matplotlib.org/) -->
<svg height="504pt" version="1.1" viewBox="0 0 1152 504" width="1152pt" xmlns="http://www.w3.org/2000/svg" xmlns:xlink="http://www.w3.org/1999/xlink">
 <defs>
  <style type="text/css">
*{stroke-linecap:butt;stroke-linejoin:round;}
  </style>
 </defs>
 <g id="figure_1">
  <g id="patch_1">
   <path d="M 0 504 
L 1152 504 
L 1152 0 
L 0 0 
z
" style="fill:#ffffff;"/>
  </g>
  <g id="axes_1">
   <g id="patch_2">
    <path d="M 53.925 215.6 
L 570.6 215.6 
L 570.6 26.8 
L 53.925 26.8 
z
" style="fill:#ffffff;"/>
   </g>
   <g id="matplotlib.axis_1">
    <g id="xtick_1">
     <g id="line2d_1">
      <defs>
       <path d="M 0 0 
L 0 3.5 
" id="m03ead9c3ba" style="stroke:#000000;stroke-width:0.8;"/>
      </defs>
      <g>
       <use style="stroke:#000000;stroke-width:0.8;" x="72.665737" xlink:href="#m03ead9c3ba" y="215.6"/>
      </g>
     </g>
     <g id="text_1">
      <!-- 0 -->
      <defs>
       <path d="M 31.78125 66.40625 
Q 24.171875 66.40625 20.328125 58.90625 
Q 16.5 51.421875 16.5 36.375 
Q 16.5 21.390625 20.328125 13.890625 
Q 24.171875 6.390625 31.78125 6.390625 
Q 39.453125 6.390625 43.28125 13.890625 
Q 47.125 21.390625 47.125 36.375 
Q 47.125 51.421875 43.28125 58.90625 
Q 39.453125 66.40625 31.78125 66.40625 
z
M 31.78125 74.21875 
Q 44.046875 74.21875 50.515625 64.515625 
Q 56.984375 54.828125 56.984375 36.375 
Q 56.984375 17.96875 50.515625 8.265625 
Q 44.046875 -1.421875 31.78125 -1.421875 
Q 19.53125 -1.421875 13.0625 8.265625 
Q 6.59375 17.96875 6.59375 36.375 
Q 6.59375 54.828125 13.0625 64.515625 
Q 19.53125 74.21875 31.78125 74.21875 
z
" id="DejaVuSans-48"/>
      </defs>
      <g transform="translate(69.484487 230.198437)scale(0.1 -0.1)">
       <use xlink:href="#DejaVuSans-48"/>
      </g>
     </g>
    </g>
    <g id="xtick_2">
     <g id="line2d_2">
      <g>
       <use style="stroke:#000000;stroke-width:0.8;" x="167.555544" xlink:href="#m03ead9c3ba" y="215.6"/>
      </g>
     </g>
     <g id="text_2">
      <!-- 20 -->
      <defs>
       <path d="M 19.1875 8.296875 
L 53.609375 8.296875 
L 53.609375 0 
L 7.328125 0 
L 7.328125 8.296875 
Q 12.9375 14.109375 22.625 23.890625 
Q 32.328125 33.6875 34.8125 36.53125 
Q 39.546875 41.84375 41.421875 45.53125 
Q 43.3125 49.21875 43.3125 52.78125 
Q 43.3125 58.59375 39.234375 62.25 
Q 35.15625 65.921875 28.609375 65.921875 
Q 23.96875 65.921875 18.8125 64.3125 
Q 13.671875 62.703125 7.8125 59.421875 
L 7.8125 69.390625 
Q 13.765625 71.78125 18.9375 73 
Q 24.125 74.21875 28.421875 74.21875 
Q 39.75 74.21875 46.484375 68.546875 
Q 53.21875 62.890625 53.21875 53.421875 
Q 53.21875 48.921875 51.53125 44.890625 
Q 49.859375 40.875 45.40625 35.40625 
Q 44.1875 33.984375 37.640625 27.21875 
Q 31.109375 20.453125 19.1875 8.296875 
z
" id="DejaVuSans-50"/>
      </defs>
      <g transform="translate(161.193044 230.198437)scale(0.1 -0.1)">
       <use xlink:href="#DejaVuSans-50"/>
       <use x="63.623047" xlink:href="#DejaVuSans-48"/>
      </g>
     </g>
    </g>
    <g id="xtick_3">
     <g id="line2d_3">
      <g>
       <use style="stroke:#000000;stroke-width:0.8;" x="262.445351" xlink:href="#m03ead9c3ba" y="215.6"/>
      </g>
     </g>
     <g id="text_3">
      <!-- 40 -->
      <defs>
       <path d="M 37.796875 64.3125 
L 12.890625 25.390625 
L 37.796875 25.390625 
z
M 35.203125 72.90625 
L 47.609375 72.90625 
L 47.609375 25.390625 
L 58.015625 25.390625 
L 58.015625 17.1875 
L 47.609375 17.1875 
L 47.609375 0 
L 37.796875 0 
L 37.796875 17.1875 
L 4.890625 17.1875 
L 4.890625 26.703125 
z
" id="DejaVuSans-52"/>
      </defs>
      <g transform="translate(256.082851 230.198437)scale(0.1 -0.1)">
       <use xlink:href="#DejaVuSans-52"/>
       <use x="63.623047" xlink:href="#DejaVuSans-48"/>
      </g>
     </g>
    </g>
    <g id="xtick_4">
     <g id="line2d_4">
      <g>
       <use style="stroke:#000000;stroke-width:0.8;" x="357.335158" xlink:href="#m03ead9c3ba" y="215.6"/>
      </g>
     </g>
     <g id="text_4">
      <!-- 60 -->
      <defs>
       <path d="M 33.015625 40.375 
Q 26.375 40.375 22.484375 35.828125 
Q 18.609375 31.296875 18.609375 23.390625 
Q 18.609375 15.53125 22.484375 10.953125 
Q 26.375 6.390625 33.015625 6.390625 
Q 39.65625 6.390625 43.53125 10.953125 
Q 47.40625 15.53125 47.40625 23.390625 
Q 47.40625 31.296875 43.53125 35.828125 
Q 39.65625 40.375 33.015625 40.375 
z
M 52.59375 71.296875 
L 52.59375 62.3125 
Q 48.875 64.0625 45.09375 64.984375 
Q 41.3125 65.921875 37.59375 65.921875 
Q 27.828125 65.921875 22.671875 59.328125 
Q 17.53125 52.734375 16.796875 39.40625 
Q 19.671875 43.65625 24.015625 45.921875 
Q 28.375 48.1875 33.59375 48.1875 
Q 44.578125 48.1875 50.953125 41.515625 
Q 57.328125 34.859375 57.328125 23.390625 
Q 57.328125 12.15625 50.6875 5.359375 
Q 44.046875 -1.421875 33.015625 -1.421875 
Q 20.359375 -1.421875 13.671875 8.265625 
Q 6.984375 17.96875 6.984375 36.375 
Q 6.984375 53.65625 15.1875 63.9375 
Q 23.390625 74.21875 37.203125 74.21875 
Q 40.921875 74.21875 44.703125 73.484375 
Q 48.484375 72.75 52.59375 71.296875 
z
" id="DejaVuSans-54"/>
      </defs>
      <g transform="translate(350.972658 230.198437)scale(0.1 -0.1)">
       <use xlink:href="#DejaVuSans-54"/>
       <use x="63.623047" xlink:href="#DejaVuSans-48"/>
      </g>
     </g>
    </g>
    <g id="xtick_5">
     <g id="line2d_5">
      <g>
       <use style="stroke:#000000;stroke-width:0.8;" x="452.224966" xlink:href="#m03ead9c3ba" y="215.6"/>
      </g>
     </g>
     <g id="text_5">
      <!-- 80 -->
      <defs>
       <path d="M 31.78125 34.625 
Q 24.75 34.625 20.71875 30.859375 
Q 16.703125 27.09375 16.703125 20.515625 
Q 16.703125 13.921875 20.71875 10.15625 
Q 24.75 6.390625 31.78125 6.390625 
Q 38.8125 6.390625 42.859375 10.171875 
Q 46.921875 13.96875 46.921875 20.515625 
Q 46.921875 27.09375 42.890625 30.859375 
Q 38.875 34.625 31.78125 34.625 
z
M 21.921875 38.8125 
Q 15.578125 40.375 12.03125 44.71875 
Q 8.5 49.078125 8.5 55.328125 
Q 8.5 64.0625 14.71875 69.140625 
Q 20.953125 74.21875 31.78125 74.21875 
Q 42.671875 74.21875 48.875 69.140625 
Q 55.078125 64.0625 55.078125 55.328125 
Q 55.078125 49.078125 51.53125 44.71875 
Q 48 40.375 41.703125 38.8125 
Q 48.828125 37.15625 52.796875 32.3125 
Q 56.78125 27.484375 56.78125 20.515625 
Q 56.78125 9.90625 50.3125 4.234375 
Q 43.84375 -1.421875 31.78125 -1.421875 
Q 19.734375 -1.421875 13.25 4.234375 
Q 6.78125 9.90625 6.78125 20.515625 
Q 6.78125 27.484375 10.78125 32.3125 
Q 14.796875 37.15625 21.921875 38.8125 
z
M 18.3125 54.390625 
Q 18.3125 48.734375 21.84375 45.5625 
Q 25.390625 42.390625 31.78125 42.390625 
Q 38.140625 42.390625 41.71875 45.5625 
Q 45.3125 48.734375 45.3125 54.390625 
Q 45.3125 60.0625 41.71875 63.234375 
Q 38.140625 66.40625 31.78125 66.40625 
Q 25.390625 66.40625 21.84375 63.234375 
Q 18.3125 60.0625 18.3125 54.390625 
z
" id="DejaVuSans-56"/>
      </defs>
      <g transform="translate(445.862466 230.198437)scale(0.1 -0.1)">
       <use xlink:href="#DejaVuSans-56"/>
       <use x="63.623047" xlink:href="#DejaVuSans-48"/>
      </g>
     </g>
    </g>
    <g id="xtick_6">
     <g id="line2d_6">
      <g>
       <use style="stroke:#000000;stroke-width:0.8;" x="547.114773" xlink:href="#m03ead9c3ba" y="215.6"/>
      </g>
     </g>
     <g id="text_6">
      <!-- 100 -->
      <defs>
       <path d="M 12.40625 8.296875 
L 28.515625 8.296875 
L 28.515625 63.921875 
L 10.984375 60.40625 
L 10.984375 69.390625 
L 28.421875 72.90625 
L 38.28125 72.90625 
L 38.28125 8.296875 
L 54.390625 8.296875 
L 54.390625 0 
L 12.40625 0 
z
" id="DejaVuSans-49"/>
      </defs>
      <g transform="translate(537.571023 230.198437)scale(0.1 -0.1)">
       <use xlink:href="#DejaVuSans-49"/>
       <use x="63.623047" xlink:href="#DejaVuSans-48"/>
       <use x="127.246094" xlink:href="#DejaVuSans-48"/>
      </g>
     </g>
    </g>
    <g id="text_7">
     <!-- Epochs -->
     <defs>
      <path d="M 9.8125 72.90625 
L 55.90625 72.90625 
L 55.90625 64.59375 
L 19.671875 64.59375 
L 19.671875 43.015625 
L 54.390625 43.015625 
L 54.390625 34.71875 
L 19.671875 34.71875 
L 19.671875 8.296875 
L 56.78125 8.296875 
L 56.78125 0 
L 9.8125 0 
z
" id="DejaVuSans-69"/>
      <path d="M 18.109375 8.203125 
L 18.109375 -20.796875 
L 9.078125 -20.796875 
L 9.078125 54.6875 
L 18.109375 54.6875 
L 18.109375 46.390625 
Q 20.953125 51.265625 25.265625 53.625 
Q 29.59375 56 35.59375 56 
Q 45.5625 56 51.78125 48.09375 
Q 58.015625 40.1875 58.015625 27.296875 
Q 58.015625 14.40625 51.78125 6.484375 
Q 45.5625 -1.421875 35.59375 -1.421875 
Q 29.59375 -1.421875 25.265625 0.953125 
Q 20.953125 3.328125 18.109375 8.203125 
z
M 48.6875 27.296875 
Q 48.6875 37.203125 44.609375 42.84375 
Q 40.53125 48.484375 33.40625 48.484375 
Q 26.265625 48.484375 22.1875 42.84375 
Q 18.109375 37.203125 18.109375 27.296875 
Q 18.109375 17.390625 22.1875 11.75 
Q 26.265625 6.109375 33.40625 6.109375 
Q 40.53125 6.109375 44.609375 11.75 
Q 48.6875 17.390625 48.6875 27.296875 
z
" id="DejaVuSans-112"/>
      <path d="M 30.609375 48.390625 
Q 23.390625 48.390625 19.1875 42.75 
Q 14.984375 37.109375 14.984375 27.296875 
Q 14.984375 17.484375 19.15625 11.84375 
Q 23.34375 6.203125 30.609375 6.203125 
Q 37.796875 6.203125 41.984375 11.859375 
Q 46.1875 17.53125 46.1875 27.296875 
Q 46.1875 37.015625 41.984375 42.703125 
Q 37.796875 48.390625 30.609375 48.390625 
z
M 30.609375 56 
Q 42.328125 56 49.015625 48.375 
Q 55.71875 40.765625 55.71875 27.296875 
Q 55.71875 13.875 49.015625 6.21875 
Q 42.328125 -1.421875 30.609375 -1.421875 
Q 18.84375 -1.421875 12.171875 6.21875 
Q 5.515625 13.875 5.515625 27.296875 
Q 5.515625 40.765625 12.171875 48.375 
Q 18.84375 56 30.609375 56 
z
" id="DejaVuSans-111"/>
      <path d="M 48.78125 52.59375 
L 48.78125 44.1875 
Q 44.96875 46.296875 41.140625 47.34375 
Q 37.3125 48.390625 33.40625 48.390625 
Q 24.65625 48.390625 19.8125 42.84375 
Q 14.984375 37.3125 14.984375 27.296875 
Q 14.984375 17.28125 19.8125 11.734375 
Q 24.65625 6.203125 33.40625 6.203125 
Q 37.3125 6.203125 41.140625 7.25 
Q 44.96875 8.296875 48.78125 10.40625 
L 48.78125 2.09375 
Q 45.015625 0.34375 40.984375 -0.53125 
Q 36.96875 -1.421875 32.421875 -1.421875 
Q 20.0625 -1.421875 12.78125 6.34375 
Q 5.515625 14.109375 5.515625 27.296875 
Q 5.515625 40.671875 12.859375 48.328125 
Q 20.21875 56 33.015625 56 
Q 37.15625 56 41.109375 55.140625 
Q 45.0625 54.296875 48.78125 52.59375 
z
" id="DejaVuSans-99"/>
      <path d="M 54.890625 33.015625 
L 54.890625 0 
L 45.90625 0 
L 45.90625 32.71875 
Q 45.90625 40.484375 42.875 44.328125 
Q 39.84375 48.1875 33.796875 48.1875 
Q 26.515625 48.1875 22.3125 43.546875 
Q 18.109375 38.921875 18.109375 30.90625 
L 18.109375 0 
L 9.078125 0 
L 9.078125 75.984375 
L 18.109375 75.984375 
L 18.109375 46.1875 
Q 21.34375 51.125 25.703125 53.5625 
Q 30.078125 56 35.796875 56 
Q 45.21875 56 50.046875 50.171875 
Q 54.890625 44.34375 54.890625 33.015625 
z
" id="DejaVuSans-104"/>
      <path d="M 44.28125 53.078125 
L 44.28125 44.578125 
Q 40.484375 46.53125 36.375 47.5 
Q 32.28125 48.484375 27.875 48.484375 
Q 21.1875 48.484375 17.84375 46.4375 
Q 14.5 44.390625 14.5 40.28125 
Q 14.5 37.15625 16.890625 35.375 
Q 19.28125 33.59375 26.515625 31.984375 
L 29.59375 31.296875 
Q 39.15625 29.25 43.1875 25.515625 
Q 47.21875 21.78125 47.21875 15.09375 
Q 47.21875 7.46875 41.1875 3.015625 
Q 35.15625 -1.421875 24.609375 -1.421875 
Q 20.21875 -1.421875 15.453125 -0.5625 
Q 10.6875 0.296875 5.421875 2 
L 5.421875 11.28125 
Q 10.40625 8.6875 15.234375 7.390625 
Q 20.0625 6.109375 24.8125 6.109375 
Q 31.15625 6.109375 34.5625 8.28125 
Q 37.984375 10.453125 37.984375 14.40625 
Q 37.984375 18.0625 35.515625 20.015625 
Q 33.0625 21.96875 24.703125 23.78125 
L 21.578125 24.515625 
Q 13.234375 26.265625 9.515625 29.90625 
Q 5.8125 33.546875 5.8125 39.890625 
Q 5.8125 47.609375 11.28125 51.796875 
Q 16.75 56 26.8125 56 
Q 31.78125 56 36.171875 55.265625 
Q 40.578125 54.546875 44.28125 53.078125 
z
" id="DejaVuSans-115"/>
     </defs>
     <g transform="translate(294.346875 243.876562)scale(0.1 -0.1)">
      <use xlink:href="#DejaVuSans-69"/>
      <use x="63.183594" xlink:href="#DejaVuSans-112"/>
      <use x="126.660156" xlink:href="#DejaVuSans-111"/>
      <use x="187.841797" xlink:href="#DejaVuSans-99"/>
      <use x="242.822266" xlink:href="#DejaVuSans-104"/>
      <use x="306.201172" xlink:href="#DejaVuSans-115"/>
     </g>
    </g>
   </g>
   <g id="matplotlib.axis_2">
    <g id="ytick_1">
     <g id="line2d_7">
      <defs>
       <path d="M 0 0 
L -3.5 0 
" id="m59b092a48f" style="stroke:#000000;stroke-width:0.8;"/>
      </defs>
      <g>
       <use style="stroke:#000000;stroke-width:0.8;" x="53.925" xlink:href="#m59b092a48f" y="215.498685"/>
      </g>
     </g>
     <g id="text_8">
      <!-- 10% -->
      <defs>
       <path d="M 72.703125 32.078125 
Q 68.453125 32.078125 66.03125 28.46875 
Q 63.625 24.859375 63.625 18.40625 
Q 63.625 12.0625 66.03125 8.421875 
Q 68.453125 4.78125 72.703125 4.78125 
Q 76.859375 4.78125 79.265625 8.421875 
Q 81.6875 12.0625 81.6875 18.40625 
Q 81.6875 24.8125 79.265625 28.4375 
Q 76.859375 32.078125 72.703125 32.078125 
z
M 72.703125 38.28125 
Q 80.421875 38.28125 84.953125 32.90625 
Q 89.5 27.546875 89.5 18.40625 
Q 89.5 9.28125 84.9375 3.921875 
Q 80.375 -1.421875 72.703125 -1.421875 
Q 64.890625 -1.421875 60.34375 3.921875 
Q 55.8125 9.28125 55.8125 18.40625 
Q 55.8125 27.59375 60.375 32.9375 
Q 64.9375 38.28125 72.703125 38.28125 
z
M 22.3125 68.015625 
Q 18.109375 68.015625 15.6875 64.375 
Q 13.28125 60.75 13.28125 54.390625 
Q 13.28125 47.953125 15.671875 44.328125 
Q 18.0625 40.71875 22.3125 40.71875 
Q 26.5625 40.71875 28.96875 44.328125 
Q 31.390625 47.953125 31.390625 54.390625 
Q 31.390625 60.6875 28.953125 64.34375 
Q 26.515625 68.015625 22.3125 68.015625 
z
M 66.40625 74.21875 
L 74.21875 74.21875 
L 28.609375 -1.421875 
L 20.796875 -1.421875 
z
M 22.3125 74.21875 
Q 30.03125 74.21875 34.609375 68.875 
Q 39.203125 63.53125 39.203125 54.390625 
Q 39.203125 45.171875 34.640625 39.84375 
Q 30.078125 34.515625 22.3125 34.515625 
Q 14.546875 34.515625 10.03125 39.859375 
Q 5.515625 45.21875 5.515625 54.390625 
Q 5.515625 63.484375 10.046875 68.84375 
Q 14.59375 74.21875 22.3125 74.21875 
z
" id="DejaVuSans-37"/>
      </defs>
      <g transform="translate(24.698438 219.297904)scale(0.1 -0.1)">
       <use xlink:href="#DejaVuSans-49"/>
       <use x="63.623047" xlink:href="#DejaVuSans-48"/>
       <use x="127.246094" xlink:href="#DejaVuSans-37"/>
      </g>
     </g>
    </g>
    <g id="ytick_2">
     <g id="line2d_8">
      <g>
       <use style="stroke:#000000;stroke-width:0.8;" x="53.925" xlink:href="#m59b092a48f" y="190.482453"/>
      </g>
     </g>
     <g id="text_9">
      <!-- 20% -->
      <g transform="translate(24.698438 194.281672)scale(0.1 -0.1)">
       <use xlink:href="#DejaVuSans-50"/>
       <use x="63.623047" xlink:href="#DejaVuSans-48"/>
       <use x="127.246094" xlink:href="#DejaVuSans-37"/>
      </g>
     </g>
    </g>
    <g id="ytick_3">
     <g id="line2d_9">
      <g>
       <use style="stroke:#000000;stroke-width:0.8;" x="53.925" xlink:href="#m59b092a48f" y="165.466221"/>
      </g>
     </g>
     <g id="text_10">
      <!-- 30% -->
      <defs>
       <path d="M 40.578125 39.3125 
Q 47.65625 37.796875 51.625 33 
Q 55.609375 28.21875 55.609375 21.1875 
Q 55.609375 10.40625 48.1875 4.484375 
Q 40.765625 -1.421875 27.09375 -1.421875 
Q 22.515625 -1.421875 17.65625 -0.515625 
Q 12.796875 0.390625 7.625 2.203125 
L 7.625 11.71875 
Q 11.71875 9.328125 16.59375 8.109375 
Q 21.484375 6.890625 26.8125 6.890625 
Q 36.078125 6.890625 40.9375 10.546875 
Q 45.796875 14.203125 45.796875 21.1875 
Q 45.796875 27.640625 41.28125 31.265625 
Q 36.765625 34.90625 28.71875 34.90625 
L 20.21875 34.90625 
L 20.21875 43.015625 
L 29.109375 43.015625 
Q 36.375 43.015625 40.234375 45.921875 
Q 44.09375 48.828125 44.09375 54.296875 
Q 44.09375 59.90625 40.109375 62.90625 
Q 36.140625 65.921875 28.71875 65.921875 
Q 24.65625 65.921875 20.015625 65.03125 
Q 15.375 64.15625 9.8125 62.3125 
L 9.8125 71.09375 
Q 15.4375 72.65625 20.34375 73.4375 
Q 25.25 74.21875 29.59375 74.21875 
Q 40.828125 74.21875 47.359375 69.109375 
Q 53.90625 64.015625 53.90625 55.328125 
Q 53.90625 49.265625 50.4375 45.09375 
Q 46.96875 40.921875 40.578125 39.3125 
z
" id="DejaVuSans-51"/>
      </defs>
      <g transform="translate(24.698438 169.26544)scale(0.1 -0.1)">
       <use xlink:href="#DejaVuSans-51"/>
       <use x="63.623047" xlink:href="#DejaVuSans-48"/>
       <use x="127.246094" xlink:href="#DejaVuSans-37"/>
      </g>
     </g>
    </g>
    <g id="ytick_4">
     <g id="line2d_10">
      <g>
       <use style="stroke:#000000;stroke-width:0.8;" x="53.925" xlink:href="#m59b092a48f" y="140.44999"/>
      </g>
     </g>
     <g id="text_11">
      <!-- 40% -->
      <g transform="translate(24.698438 144.249208)scale(0.1 -0.1)">
       <use xlink:href="#DejaVuSans-52"/>
       <use x="63.623047" xlink:href="#DejaVuSans-48"/>
       <use x="127.246094" xlink:href="#DejaVuSans-37"/>
      </g>
     </g>
    </g>
    <g id="ytick_5">
     <g id="line2d_11">
      <g>
       <use style="stroke:#000000;stroke-width:0.8;" x="53.925" xlink:href="#m59b092a48f" y="115.433758"/>
      </g>
     </g>
     <g id="text_12">
      <!-- 50% -->
      <defs>
       <path d="M 10.796875 72.90625 
L 49.515625 72.90625 
L 49.515625 64.59375 
L 19.828125 64.59375 
L 19.828125 46.734375 
Q 21.96875 47.46875 24.109375 47.828125 
Q 26.265625 48.1875 28.421875 48.1875 
Q 40.625 48.1875 47.75 41.5 
Q 54.890625 34.8125 54.890625 23.390625 
Q 54.890625 11.625 47.5625 5.09375 
Q 40.234375 -1.421875 26.90625 -1.421875 
Q 22.3125 -1.421875 17.546875 -0.640625 
Q 12.796875 0.140625 7.71875 1.703125 
L 7.71875 11.625 
Q 12.109375 9.234375 16.796875 8.0625 
Q 21.484375 6.890625 26.703125 6.890625 
Q 35.15625 6.890625 40.078125 11.328125 
Q 45.015625 15.765625 45.015625 23.390625 
Q 45.015625 31 40.078125 35.4375 
Q 35.15625 39.890625 26.703125 39.890625 
Q 22.75 39.890625 18.8125 39.015625 
Q 14.890625 38.140625 10.796875 36.28125 
z
" id="DejaVuSans-53"/>
      </defs>
      <g transform="translate(24.698438 119.232977)scale(0.1 -0.1)">
       <use xlink:href="#DejaVuSans-53"/>
       <use x="63.623047" xlink:href="#DejaVuSans-48"/>
       <use x="127.246094" xlink:href="#DejaVuSans-37"/>
      </g>
     </g>
    </g>
    <g id="ytick_6">
     <g id="line2d_12">
      <g>
       <use style="stroke:#000000;stroke-width:0.8;" x="53.925" xlink:href="#m59b092a48f" y="90.417526"/>
      </g>
     </g>
     <g id="text_13">
      <!-- 60% -->
      <g transform="translate(24.698438 94.216745)scale(0.1 -0.1)">
       <use xlink:href="#DejaVuSans-54"/>
       <use x="63.623047" xlink:href="#DejaVuSans-48"/>
       <use x="127.246094" xlink:href="#DejaVuSans-37"/>
      </g>
     </g>
    </g>
    <g id="ytick_7">
     <g id="line2d_13">
      <g>
       <use style="stroke:#000000;stroke-width:0.8;" x="53.925" xlink:href="#m59b092a48f" y="65.401294"/>
      </g>
     </g>
     <g id="text_14">
      <!-- 70% -->
      <defs>
       <path d="M 8.203125 72.90625 
L 55.078125 72.90625 
L 55.078125 68.703125 
L 28.609375 0 
L 18.3125 0 
L 43.21875 64.59375 
L 8.203125 64.59375 
z
" id="DejaVuSans-55"/>
      </defs>
      <g transform="translate(24.698438 69.200513)scale(0.1 -0.1)">
       <use xlink:href="#DejaVuSans-55"/>
       <use x="63.623047" xlink:href="#DejaVuSans-48"/>
       <use x="127.246094" xlink:href="#DejaVuSans-37"/>
      </g>
     </g>
    </g>
    <g id="ytick_8">
     <g id="line2d_14">
      <g>
       <use style="stroke:#000000;stroke-width:0.8;" x="53.925" xlink:href="#m59b092a48f" y="40.385063"/>
      </g>
     </g>
     <g id="text_15">
      <!-- 80% -->
      <g transform="translate(24.698438 44.184281)scale(0.1 -0.1)">
       <use xlink:href="#DejaVuSans-56"/>
       <use x="63.623047" xlink:href="#DejaVuSans-48"/>
       <use x="127.246094" xlink:href="#DejaVuSans-37"/>
      </g>
     </g>
    </g>
    <g id="text_16">
     <!-- Validation accuracy -->
     <defs>
      <path d="M 28.609375 0 
L 0.78125 72.90625 
L 11.078125 72.90625 
L 34.1875 11.53125 
L 57.328125 72.90625 
L 67.578125 72.90625 
L 39.796875 0 
z
" id="DejaVuSans-86"/>
      <path d="M 34.28125 27.484375 
Q 23.390625 27.484375 19.1875 25 
Q 14.984375 22.515625 14.984375 16.5 
Q 14.984375 11.71875 18.140625 8.90625 
Q 21.296875 6.109375 26.703125 6.109375 
Q 34.1875 6.109375 38.703125 11.40625 
Q 43.21875 16.703125 43.21875 25.484375 
L 43.21875 27.484375 
z
M 52.203125 31.203125 
L 52.203125 0 
L 43.21875 0 
L 43.21875 8.296875 
Q 40.140625 3.328125 35.546875 0.953125 
Q 30.953125 -1.421875 24.3125 -1.421875 
Q 15.921875 -1.421875 10.953125 3.296875 
Q 6 8.015625 6 15.921875 
Q 6 25.140625 12.171875 29.828125 
Q 18.359375 34.515625 30.609375 34.515625 
L 43.21875 34.515625 
L 43.21875 35.40625 
Q 43.21875 41.609375 39.140625 45 
Q 35.0625 48.390625 27.6875 48.390625 
Q 23 48.390625 18.546875 47.265625 
Q 14.109375 46.140625 10.015625 43.890625 
L 10.015625 52.203125 
Q 14.9375 54.109375 19.578125 55.046875 
Q 24.21875 56 28.609375 56 
Q 40.484375 56 46.34375 49.84375 
Q 52.203125 43.703125 52.203125 31.203125 
z
" id="DejaVuSans-97"/>
      <path d="M 9.421875 75.984375 
L 18.40625 75.984375 
L 18.40625 0 
L 9.421875 0 
z
" id="DejaVuSans-108"/>
      <path d="M 9.421875 54.6875 
L 18.40625 54.6875 
L 18.40625 0 
L 9.421875 0 
z
M 9.421875 75.984375 
L 18.40625 75.984375 
L 18.40625 64.59375 
L 9.421875 64.59375 
z
" id="DejaVuSans-105"/>
      <path d="M 45.40625 46.390625 
L 45.40625 75.984375 
L 54.390625 75.984375 
L 54.390625 0 
L 45.40625 0 
L 45.40625 8.203125 
Q 42.578125 3.328125 38.25 0.953125 
Q 33.9375 -1.421875 27.875 -1.421875 
Q 17.96875 -1.421875 11.734375 6.484375 
Q 5.515625 14.40625 5.515625 27.296875 
Q 5.515625 40.1875 11.734375 48.09375 
Q 17.96875 56 27.875 56 
Q 33.9375 56 38.25 53.625 
Q 42.578125 51.265625 45.40625 46.390625 
z
M 14.796875 27.296875 
Q 14.796875 17.390625 18.875 11.75 
Q 22.953125 6.109375 30.078125 6.109375 
Q 37.203125 6.109375 41.296875 11.75 
Q 45.40625 17.390625 45.40625 27.296875 
Q 45.40625 37.203125 41.296875 42.84375 
Q 37.203125 48.484375 30.078125 48.484375 
Q 22.953125 48.484375 18.875 42.84375 
Q 14.796875 37.203125 14.796875 27.296875 
z
" id="DejaVuSans-100"/>
      <path d="M 18.3125 70.21875 
L 18.3125 54.6875 
L 36.8125 54.6875 
L 36.8125 47.703125 
L 18.3125 47.703125 
L 18.3125 18.015625 
Q 18.3125 11.328125 20.140625 9.421875 
Q 21.96875 7.515625 27.59375 7.515625 
L 36.8125 7.515625 
L 36.8125 0 
L 27.59375 0 
Q 17.1875 0 13.234375 3.875 
Q 9.28125 7.765625 9.28125 18.015625 
L 9.28125 47.703125 
L 2.6875 47.703125 
L 2.6875 54.6875 
L 9.28125 54.6875 
L 9.28125 70.21875 
z
" id="DejaVuSans-116"/>
      <path d="M 54.890625 33.015625 
L 54.890625 0 
L 45.90625 0 
L 45.90625 32.71875 
Q 45.90625 40.484375 42.875 44.328125 
Q 39.84375 48.1875 33.796875 48.1875 
Q 26.515625 48.1875 22.3125 43.546875 
Q 18.109375 38.921875 18.109375 30.90625 
L 18.109375 0 
L 9.078125 0 
L 9.078125 54.6875 
L 18.109375 54.6875 
L 18.109375 46.1875 
Q 21.34375 51.125 25.703125 53.5625 
Q 30.078125 56 35.796875 56 
Q 45.21875 56 50.046875 50.171875 
Q 54.890625 44.34375 54.890625 33.015625 
z
" id="DejaVuSans-110"/>
      <path id="DejaVuSans-32"/>
      <path d="M 8.5 21.578125 
L 8.5 54.6875 
L 17.484375 54.6875 
L 17.484375 21.921875 
Q 17.484375 14.15625 20.5 10.265625 
Q 23.53125 6.390625 29.59375 6.390625 
Q 36.859375 6.390625 41.078125 11.03125 
Q 45.3125 15.671875 45.3125 23.6875 
L 45.3125 54.6875 
L 54.296875 54.6875 
L 54.296875 0 
L 45.3125 0 
L 45.3125 8.40625 
Q 42.046875 3.421875 37.71875 1 
Q 33.40625 -1.421875 27.6875 -1.421875 
Q 18.265625 -1.421875 13.375 4.4375 
Q 8.5 10.296875 8.5 21.578125 
z
M 31.109375 56 
z
" id="DejaVuSans-117"/>
      <path d="M 41.109375 46.296875 
Q 39.59375 47.171875 37.8125 47.578125 
Q 36.03125 48 33.890625 48 
Q 26.265625 48 22.1875 43.046875 
Q 18.109375 38.09375 18.109375 28.8125 
L 18.109375 0 
L 9.078125 0 
L 9.078125 54.6875 
L 18.109375 54.6875 
L 18.109375 46.1875 
Q 20.953125 51.171875 25.484375 53.578125 
Q 30.03125 56 36.53125 56 
Q 37.453125 56 38.578125 55.875 
Q 39.703125 55.765625 41.0625 55.515625 
z
" id="DejaVuSans-114"/>
      <path d="M 32.171875 -5.078125 
Q 28.375 -14.84375 24.75 -17.8125 
Q 21.140625 -20.796875 15.09375 -20.796875 
L 7.90625 -20.796875 
L 7.90625 -13.28125 
L 13.1875 -13.28125 
Q 16.890625 -13.28125 18.9375 -11.515625 
Q 21 -9.765625 23.484375 -3.21875 
L 25.09375 0.875 
L 2.984375 54.6875 
L 12.5 54.6875 
L 29.59375 11.921875 
L 46.6875 54.6875 
L 56.203125 54.6875 
z
" id="DejaVuSans-121"/>
     </defs>
     <g transform="translate(18.61875 170.039062)rotate(-90)scale(0.1 -0.1)">
      <use xlink:href="#DejaVuSans-86"/>
      <use x="60.658203" xlink:href="#DejaVuSans-97"/>
      <use x="121.9375" xlink:href="#DejaVuSans-108"/>
      <use x="149.720703" xlink:href="#DejaVuSans-105"/>
      <use x="177.503906" xlink:href="#DejaVuSans-100"/>
      <use x="240.980469" xlink:href="#DejaVuSans-97"/>
      <use x="302.259766" xlink:href="#DejaVuSans-116"/>
      <use x="341.46875" xlink:href="#DejaVuSans-105"/>
      <use x="369.251953" xlink:href="#DejaVuSans-111"/>
      <use x="430.433594" xlink:href="#DejaVuSans-110"/>
      <use x="493.8125" xlink:href="#DejaVuSans-32"/>
      <use x="525.599609" xlink:href="#DejaVuSans-97"/>
      <use x="586.878906" xlink:href="#DejaVuSans-99"/>
      <use x="641.859375" xlink:href="#DejaVuSans-99"/>
      <use x="696.839844" xlink:href="#DejaVuSans-117"/>
      <use x="760.21875" xlink:href="#DejaVuSans-114"/>
      <use x="801.332031" xlink:href="#DejaVuSans-97"/>
      <use x="862.611328" xlink:href="#DejaVuSans-99"/>
      <use x="917.591797" xlink:href="#DejaVuSans-121"/>
     </g>
    </g>
   </g>
   <g id="line2d_15">
    <path clip-path="url(#p4b4bcf445e)" d="M 77.410227 200.839172 
L 82.154718 207.018182 
L 86.899208 202.590308 
L 91.643698 206.267697 
L 96.388189 205.942484 
L 101.132679 206.142614 
L 105.877169 202.390179 
L 110.62166 200.038654 
L 115.36615 186.404808 
L 120.11064 181.20143 
L 124.855131 193.284269 
L 129.599621 190.357373 
L 134.344112 184.32846 
L 139.088602 188.606237 
L 143.833092 173.82164 
L 148.577583 155.834974 
L 153.322073 166.942182 
L 158.066563 139.599437 
L 162.811054 145.002945 
L 167.555544 141.500673 
L 172.300034 135.19658 
L 177.044525 109.880157 
L 181.789015 140.950314 
L 186.533506 117.159881 
L 191.277996 110.855788 
L 196.022486 111.681327 
L 200.766977 105.377234 
L 205.511467 110.505563 
L 210.255957 98.772941 
L 215.000448 96.121228 
L 219.744938 85.664438 
L 224.489428 90.792766 
L 229.233919 83.66315 
L 233.978409 82.537412 
L 238.722899 66.251841 
L 243.46739 83.863268 
L 248.21188 91.293099 
L 252.956371 78.084529 
L 257.700861 67.252493 
L 262.445351 67.027354 
L 267.189842 71.855483 
L 271.934332 82.937678 
L 276.678822 77.183944 
L 281.423313 69.503954 
L 286.167803 58.146594 
L 290.912293 63.475041 
L 295.656784 64.100446 
L 300.401274 60.548148 
L 305.145764 60.02281 
L 309.890255 57.496169 
L 314.634745 58.296687 
L 319.379236 57.120922 
L 324.123726 58.4718 
L 328.868216 56.64561 
L 333.612707 52.743086 
L 338.357197 62.149184 
L 343.101687 56.220338 
L 347.846178 59.072184 
L 352.590668 60.072836 
L 357.335158 52.492912 
L 362.079649 62.349318 
L 366.824139 49.716112 
L 371.568629 49.415927 
L 376.31312 53.718717 
L 381.05761 47.089419 
L 385.802101 45.863614 
L 390.546591 45.263229 
L 395.291081 63.425015 
L 400.035572 55.895132 
L 404.780062 48.365235 
L 409.524552 54.494215 
L 414.269043 46.989352 
L 419.013533 44.087465 
L 423.758023 50.091358 
L 428.502514 46.338927 
L 433.247004 46.614106 
L 437.991494 49.29084 
L 442.735985 42.736588 
L 447.480475 42.061157 
L 452.224966 44.462711 
L 456.969456 47.014358 
L 461.713946 47.389604 
L 466.458437 47.214491 
L 471.202927 45.238209 
L 475.947417 41.510798 
L 480.691908 41.660891 
L 485.436398 39.259336 
L 490.180888 37.908459 
L 494.925379 45.01307 
L 499.669869 40.885393 
L 504.41436 41.085511 
L 509.15885 56.94581 
L 513.90334 40.660239 
L 518.647831 40.735285 
L 523.392321 38.708977 
L 528.136811 46.338927 
L 532.881302 46.313906 
L 537.625792 35.907157 
L 542.370282 42.086162 
L 547.114773 39.234316 
" style="fill:none;stroke:#0000ff;stroke-linecap:square;stroke-width:1.5;"/>
   </g>
   <g id="line2d_16">
    <path clip-path="url(#p4b4bcf445e)" d="M 77.410227 192.984077 
L 82.154718 190.407406 
L 86.899208 171.695265 
L 91.643698 173.221255 
L 96.388189 165.666352 
L 101.132679 155.309628 
L 105.877169 143.026663 
L 110.62166 145.50327 
L 115.36615 125.090023 
L 120.11064 125.715428 
L 124.855131 116.484443 
L 129.599621 115.483791 
L 134.344112 102.575413 
L 139.088602 98.772941 
L 143.833092 95.270669 
L 148.577583 111.180994 
L 153.322073 98.522782 
L 158.066563 91.468212 
L 162.811054 98.37269 
L 167.555544 89.19173 
L 172.300034 86.014663 
L 177.044525 78.584847 
L 181.789015 86.890243 
L 186.533506 81.511755 
L 191.277996 82.737545 
L 196.022486 74.207011 
L 200.766977 72.781088 
L 205.511467 70.904872 
L 210.255957 75.157621 
L 215.000448 69.8792 
L 219.744938 70.804805 
L 224.489428 68.028005 
L 229.233919 66.552041 
L 233.978409 65.87661 
L 238.722899 64.225533 
L 243.46739 66.051723 
L 248.21188 63.850287 
L 252.956371 61.323646 
L 257.700861 62.074138 
L 262.445351 61.623846 
L 267.189842 59.197271 
L 271.934332 64.925985 
L 276.678822 58.096553 
L 281.423313 55.044574 
L 286.167803 55.069594 
L 290.912293 57.946461 
L 295.656784 55.945158 
L 300.401274 55.845092 
L 305.145764 54.794415 
L 309.890255 54.19403 
L 314.634745 53.468558 
L 319.379236 50.791809 
L 324.123726 53.86881 
L 328.868216 50.641717 
L 333.612707 48.190122 
L 338.357197 48.365235 
L 343.101687 47.414624 
L 347.846178 48.565368 
L 352.590668 48.015009 
L 357.335158 49.165753 
L 362.079649 49.566019 
L 366.824139 44.913004 
L 371.568629 45.313255 
L 376.31312 45.413322 
L 381.05761 47.514691 
L 385.802101 42.686562 
L 390.546591 44.71287 
L 395.291081 44.262578 
L 400.035572 43.46206 
L 404.780062 43.787265 
L 409.524552 47.76485 
L 414.269043 42.636521 
L 419.013533 42.036137 
L 423.758023 44.362645 
L 428.502514 43.211901 
L 433.247004 42.961742 
L 437.991494 40.360039 
L 442.735985 41.760957 
L 447.480475 38.58389 
L 452.224966 41.285644 
L 456.969456 39.309362 
L 461.713946 40.610213 
L 466.458437 42.561475 
L 471.202927 37.258034 
L 475.947417 42.111183 
L 480.691908 38.333731 
L 485.436398 37.858419 
L 490.180888 37.458167 
L 494.925379 38.483824 
L 499.669869 42.736588 
L 504.41436 37.583239 
L 509.15885 38.408778 
L 513.90334 37.283054 
L 518.647831 40.585193 
L 523.392321 39.034183 
L 528.136811 39.234316 
L 532.881302 35.381818 
L 537.625792 36.007223 
L 542.370282 36.282403 
L 547.114773 36.057249 
" style="fill:none;stroke:#ff0000;stroke-linecap:square;stroke-width:1.5;"/>
   </g>
   <g id="patch_3">
    <path d="M 53.925 215.6 
L 53.925 26.8 
" style="fill:none;stroke:#000000;stroke-linecap:square;stroke-linejoin:miter;stroke-width:0.8;"/>
   </g>
   <g id="patch_4">
    <path d="M 570.6 215.6 
L 570.6 26.8 
" style="fill:none;stroke:#000000;stroke-linecap:square;stroke-linejoin:miter;stroke-width:0.8;"/>
   </g>
   <g id="patch_5">
    <path d="M 53.925 215.6 
L 570.6 215.6 
" style="fill:none;stroke:#000000;stroke-linecap:square;stroke-linejoin:miter;stroke-width:0.8;"/>
   </g>
   <g id="patch_6">
    <path d="M 53.925 26.8 
L 570.6 26.8 
" style="fill:none;stroke:#000000;stroke-linecap:square;stroke-linejoin:miter;stroke-width:0.8;"/>
   </g>
   <g id="text_17">
    <!-- Training with 40% of weights watermarked -->
    <defs>
     <path d="M -0.296875 72.90625 
L 61.375 72.90625 
L 61.375 64.59375 
L 35.5 64.59375 
L 35.5 0 
L 25.59375 0 
L 25.59375 64.59375 
L -0.296875 64.59375 
z
" id="DejaVuSans-84"/>
     <path d="M 45.40625 27.984375 
Q 45.40625 37.75 41.375 43.109375 
Q 37.359375 48.484375 30.078125 48.484375 
Q 22.859375 48.484375 18.828125 43.109375 
Q 14.796875 37.75 14.796875 27.984375 
Q 14.796875 18.265625 18.828125 12.890625 
Q 22.859375 7.515625 30.078125 7.515625 
Q 37.359375 7.515625 41.375 12.890625 
Q 45.40625 18.265625 45.40625 27.984375 
z
M 54.390625 6.78125 
Q 54.390625 -7.171875 48.1875 -13.984375 
Q 42 -20.796875 29.203125 -20.796875 
Q 24.46875 -20.796875 20.265625 -20.09375 
Q 16.0625 -19.390625 12.109375 -17.921875 
L 12.109375 -9.1875 
Q 16.0625 -11.328125 19.921875 -12.34375 
Q 23.78125 -13.375 27.78125 -13.375 
Q 36.625 -13.375 41.015625 -8.765625 
Q 45.40625 -4.15625 45.40625 5.171875 
L 45.40625 9.625 
Q 42.625 4.78125 38.28125 2.390625 
Q 33.9375 0 27.875 0 
Q 17.828125 0 11.671875 7.65625 
Q 5.515625 15.328125 5.515625 27.984375 
Q 5.515625 40.671875 11.671875 48.328125 
Q 17.828125 56 27.875 56 
Q 33.9375 56 38.28125 53.609375 
Q 42.625 51.21875 45.40625 46.390625 
L 45.40625 54.6875 
L 54.390625 54.6875 
z
" id="DejaVuSans-103"/>
     <path d="M 4.203125 54.6875 
L 13.1875 54.6875 
L 24.421875 12.015625 
L 35.59375 54.6875 
L 46.1875 54.6875 
L 57.421875 12.015625 
L 68.609375 54.6875 
L 77.59375 54.6875 
L 63.28125 0 
L 52.6875 0 
L 40.921875 44.828125 
L 29.109375 0 
L 18.5 0 
z
" id="DejaVuSans-119"/>
     <path d="M 37.109375 75.984375 
L 37.109375 68.5 
L 28.515625 68.5 
Q 23.6875 68.5 21.796875 66.546875 
Q 19.921875 64.59375 19.921875 59.515625 
L 19.921875 54.6875 
L 34.71875 54.6875 
L 34.71875 47.703125 
L 19.921875 47.703125 
L 19.921875 0 
L 10.890625 0 
L 10.890625 47.703125 
L 2.296875 47.703125 
L 2.296875 54.6875 
L 10.890625 54.6875 
L 10.890625 58.5 
Q 10.890625 67.625 15.140625 71.796875 
Q 19.390625 75.984375 28.609375 75.984375 
z
" id="DejaVuSans-102"/>
     <path d="M 56.203125 29.59375 
L 56.203125 25.203125 
L 14.890625 25.203125 
Q 15.484375 15.921875 20.484375 11.0625 
Q 25.484375 6.203125 34.421875 6.203125 
Q 39.59375 6.203125 44.453125 7.46875 
Q 49.3125 8.734375 54.109375 11.28125 
L 54.109375 2.78125 
Q 49.265625 0.734375 44.1875 -0.34375 
Q 39.109375 -1.421875 33.890625 -1.421875 
Q 20.796875 -1.421875 13.15625 6.1875 
Q 5.515625 13.8125 5.515625 26.8125 
Q 5.515625 40.234375 12.765625 48.109375 
Q 20.015625 56 32.328125 56 
Q 43.359375 56 49.78125 48.890625 
Q 56.203125 41.796875 56.203125 29.59375 
z
M 47.21875 32.234375 
Q 47.125 39.59375 43.09375 43.984375 
Q 39.0625 48.390625 32.421875 48.390625 
Q 24.90625 48.390625 20.390625 44.140625 
Q 15.875 39.890625 15.1875 32.171875 
z
" id="DejaVuSans-101"/>
     <path d="M 52 44.1875 
Q 55.375 50.25 60.0625 53.125 
Q 64.75 56 71.09375 56 
Q 79.640625 56 84.28125 50.015625 
Q 88.921875 44.046875 88.921875 33.015625 
L 88.921875 0 
L 79.890625 0 
L 79.890625 32.71875 
Q 79.890625 40.578125 77.09375 44.375 
Q 74.3125 48.1875 68.609375 48.1875 
Q 61.625 48.1875 57.5625 43.546875 
Q 53.515625 38.921875 53.515625 30.90625 
L 53.515625 0 
L 44.484375 0 
L 44.484375 32.71875 
Q 44.484375 40.625 41.703125 44.40625 
Q 38.921875 48.1875 33.109375 48.1875 
Q 26.21875 48.1875 22.15625 43.53125 
Q 18.109375 38.875 18.109375 30.90625 
L 18.109375 0 
L 9.078125 0 
L 9.078125 54.6875 
L 18.109375 54.6875 
L 18.109375 46.1875 
Q 21.1875 51.21875 25.484375 53.609375 
Q 29.78125 56 35.6875 56 
Q 41.65625 56 45.828125 52.96875 
Q 50 49.953125 52 44.1875 
z
" id="DejaVuSans-109"/>
     <path d="M 9.078125 75.984375 
L 18.109375 75.984375 
L 18.109375 31.109375 
L 44.921875 54.6875 
L 56.390625 54.6875 
L 27.390625 29.109375 
L 57.625 0 
L 45.90625 0 
L 18.109375 26.703125 
L 18.109375 0 
L 9.078125 0 
z
" id="DejaVuSans-107"/>
    </defs>
    <g transform="translate(184.119375 20.8)scale(0.12 -0.12)">
     <use xlink:href="#DejaVuSans-84"/>
     <use x="46.333984" xlink:href="#DejaVuSans-114"/>
     <use x="87.447266" xlink:href="#DejaVuSans-97"/>
     <use x="148.726562" xlink:href="#DejaVuSans-105"/>
     <use x="176.509766" xlink:href="#DejaVuSans-110"/>
     <use x="239.888672" xlink:href="#DejaVuSans-105"/>
     <use x="267.671875" xlink:href="#DejaVuSans-110"/>
     <use x="331.050781" xlink:href="#DejaVuSans-103"/>
     <use x="394.527344" xlink:href="#DejaVuSans-32"/>
     <use x="426.314453" xlink:href="#DejaVuSans-119"/>
     <use x="508.101562" xlink:href="#DejaVuSans-105"/>
     <use x="535.884766" xlink:href="#DejaVuSans-116"/>
     <use x="575.09375" xlink:href="#DejaVuSans-104"/>
     <use x="638.472656" xlink:href="#DejaVuSans-32"/>
     <use x="670.259766" xlink:href="#DejaVuSans-52"/>
     <use x="733.882812" xlink:href="#DejaVuSans-48"/>
     <use x="797.505859" xlink:href="#DejaVuSans-37"/>
     <use x="892.525391" xlink:href="#DejaVuSans-32"/>
     <use x="924.3125" xlink:href="#DejaVuSans-111"/>
     <use x="985.494141" xlink:href="#DejaVuSans-102"/>
     <use x="1020.699219" xlink:href="#DejaVuSans-32"/>
     <use x="1052.486328" xlink:href="#DejaVuSans-119"/>
     <use x="1134.273438" xlink:href="#DejaVuSans-101"/>
     <use x="1195.796875" xlink:href="#DejaVuSans-105"/>
     <use x="1223.580078" xlink:href="#DejaVuSans-103"/>
     <use x="1287.056641" xlink:href="#DejaVuSans-104"/>
     <use x="1350.435547" xlink:href="#DejaVuSans-116"/>
     <use x="1389.644531" xlink:href="#DejaVuSans-115"/>
     <use x="1441.744141" xlink:href="#DejaVuSans-32"/>
     <use x="1473.53125" xlink:href="#DejaVuSans-119"/>
     <use x="1555.318359" xlink:href="#DejaVuSans-97"/>
     <use x="1616.597656" xlink:href="#DejaVuSans-116"/>
     <use x="1655.806641" xlink:href="#DejaVuSans-101"/>
     <use x="1717.330078" xlink:href="#DejaVuSans-114"/>
     <use x="1756.693359" xlink:href="#DejaVuSans-109"/>
     <use x="1854.105469" xlink:href="#DejaVuSans-97"/>
     <use x="1915.384766" xlink:href="#DejaVuSans-114"/>
     <use x="1956.498047" xlink:href="#DejaVuSans-107"/>
     <use x="2010.783203" xlink:href="#DejaVuSans-101"/>
     <use x="2072.306641" xlink:href="#DejaVuSans-100"/>
    </g>
   </g>
   <g id="legend_1">
    <g id="patch_7">
     <path d="M 60.925 64.15625 
L 170.101562 64.15625 
Q 172.101562 64.15625 172.101562 62.15625 
L 172.101562 33.8 
Q 172.101562 31.8 170.101562 31.8 
L 60.925 31.8 
Q 58.925 31.8 58.925 33.8 
L 58.925 62.15625 
Q 58.925 64.15625 60.925 64.15625 
z
" style="fill:#ffffff;opacity:0.8;stroke:#cccccc;stroke-linejoin:miter;"/>
    </g>
    <g id="line2d_17">
     <path d="M 62.925 39.898437 
L 82.925 39.898437 
" style="fill:none;stroke:#0000ff;stroke-linecap:square;stroke-width:1.5;"/>
    </g>
    <g id="line2d_18"/>
    <g id="text_18">
     <!-- Honest training -->
     <defs>
      <path d="M 9.8125 72.90625 
L 19.671875 72.90625 
L 19.671875 43.015625 
L 55.515625 43.015625 
L 55.515625 72.90625 
L 65.375 72.90625 
L 65.375 0 
L 55.515625 0 
L 55.515625 34.71875 
L 19.671875 34.71875 
L 19.671875 0 
L 9.8125 0 
z
" id="DejaVuSans-72"/>
     </defs>
     <g transform="translate(90.925 43.398437)scale(0.1 -0.1)">
      <use xlink:href="#DejaVuSans-72"/>
      <use x="75.195312" xlink:href="#DejaVuSans-111"/>
      <use x="136.376953" xlink:href="#DejaVuSans-110"/>
      <use x="199.755859" xlink:href="#DejaVuSans-101"/>
      <use x="261.279297" xlink:href="#DejaVuSans-115"/>
      <use x="313.378906" xlink:href="#DejaVuSans-116"/>
      <use x="352.587891" xlink:href="#DejaVuSans-32"/>
      <use x="384.375" xlink:href="#DejaVuSans-116"/>
      <use x="423.583984" xlink:href="#DejaVuSans-114"/>
      <use x="464.697266" xlink:href="#DejaVuSans-97"/>
      <use x="525.976562" xlink:href="#DejaVuSans-105"/>
      <use x="553.759766" xlink:href="#DejaVuSans-110"/>
      <use x="617.138672" xlink:href="#DejaVuSans-105"/>
      <use x="644.921875" xlink:href="#DejaVuSans-110"/>
      <use x="708.300781" xlink:href="#DejaVuSans-103"/>
     </g>
    </g>
    <g id="line2d_19">
     <path d="M 62.925 54.576562 
L 82.925 54.576562 
" style="fill:none;stroke:#ff0000;stroke-linecap:square;stroke-width:1.5;"/>
    </g>
    <g id="line2d_20"/>
    <g id="text_19">
     <!-- Transfer attack -->
     <g transform="translate(90.925 58.076562)scale(0.1 -0.1)">
      <use xlink:href="#DejaVuSans-84"/>
      <use x="46.333984" xlink:href="#DejaVuSans-114"/>
      <use x="87.447266" xlink:href="#DejaVuSans-97"/>
      <use x="148.726562" xlink:href="#DejaVuSans-110"/>
      <use x="212.105469" xlink:href="#DejaVuSans-115"/>
      <use x="264.205078" xlink:href="#DejaVuSans-102"/>
      <use x="299.410156" xlink:href="#DejaVuSans-101"/>
      <use x="360.933594" xlink:href="#DejaVuSans-114"/>
      <use x="402.046875" xlink:href="#DejaVuSans-32"/>
      <use x="433.833984" xlink:href="#DejaVuSans-97"/>
      <use x="495.113281" xlink:href="#DejaVuSans-116"/>
      <use x="534.322266" xlink:href="#DejaVuSans-116"/>
      <use x="573.53125" xlink:href="#DejaVuSans-97"/>
      <use x="634.810547" xlink:href="#DejaVuSans-99"/>
      <use x="689.791016" xlink:href="#DejaVuSans-107"/>
     </g>
    </g>
   </g>
  </g>
  <g id="axes_2">
   <g id="patch_8">
    <path d="M 624.525 215.6 
L 1141.2 215.6 
L 1141.2 26.8 
L 624.525 26.8 
z
" style="fill:#ffffff;"/>
   </g>
   <g id="matplotlib.axis_3">
    <g id="xtick_7">
     <g id="line2d_21">
      <g>
       <use style="stroke:#000000;stroke-width:0.8;" x="643.265737" xlink:href="#m03ead9c3ba" y="215.6"/>
      </g>
     </g>
     <g id="text_20">
      <!-- 0 -->
      <g transform="translate(640.084487 230.198437)scale(0.1 -0.1)">
       <use xlink:href="#DejaVuSans-48"/>
      </g>
     </g>
    </g>
    <g id="xtick_8">
     <g id="line2d_22">
      <g>
       <use style="stroke:#000000;stroke-width:0.8;" x="738.155544" xlink:href="#m03ead9c3ba" y="215.6"/>
      </g>
     </g>
     <g id="text_21">
      <!-- 20 -->
      <g transform="translate(731.793044 230.198437)scale(0.1 -0.1)">
       <use xlink:href="#DejaVuSans-50"/>
       <use x="63.623047" xlink:href="#DejaVuSans-48"/>
      </g>
     </g>
    </g>
    <g id="xtick_9">
     <g id="line2d_23">
      <g>
       <use style="stroke:#000000;stroke-width:0.8;" x="833.045351" xlink:href="#m03ead9c3ba" y="215.6"/>
      </g>
     </g>
     <g id="text_22">
      <!-- 40 -->
      <g transform="translate(826.682851 230.198437)scale(0.1 -0.1)">
       <use xlink:href="#DejaVuSans-52"/>
       <use x="63.623047" xlink:href="#DejaVuSans-48"/>
      </g>
     </g>
    </g>
    <g id="xtick_10">
     <g id="line2d_24">
      <g>
       <use style="stroke:#000000;stroke-width:0.8;" x="927.935158" xlink:href="#m03ead9c3ba" y="215.6"/>
      </g>
     </g>
     <g id="text_23">
      <!-- 60 -->
      <g transform="translate(921.572658 230.198437)scale(0.1 -0.1)">
       <use xlink:href="#DejaVuSans-54"/>
       <use x="63.623047" xlink:href="#DejaVuSans-48"/>
      </g>
     </g>
    </g>
    <g id="xtick_11">
     <g id="line2d_25">
      <g>
       <use style="stroke:#000000;stroke-width:0.8;" x="1022.824966" xlink:href="#m03ead9c3ba" y="215.6"/>
      </g>
     </g>
     <g id="text_24">
      <!-- 80 -->
      <g transform="translate(1016.462466 230.198437)scale(0.1 -0.1)">
       <use xlink:href="#DejaVuSans-56"/>
       <use x="63.623047" xlink:href="#DejaVuSans-48"/>
      </g>
     </g>
    </g>
    <g id="xtick_12">
     <g id="line2d_26">
      <g>
       <use style="stroke:#000000;stroke-width:0.8;" x="1117.714773" xlink:href="#m03ead9c3ba" y="215.6"/>
      </g>
     </g>
     <g id="text_25">
      <!-- 100 -->
      <g transform="translate(1108.171023 230.198437)scale(0.1 -0.1)">
       <use xlink:href="#DejaVuSans-49"/>
       <use x="63.623047" xlink:href="#DejaVuSans-48"/>
       <use x="127.246094" xlink:href="#DejaVuSans-48"/>
      </g>
     </g>
    </g>
    <g id="text_26">
     <!-- Epochs -->
     <g transform="translate(864.946875 243.876562)scale(0.1 -0.1)">
      <use xlink:href="#DejaVuSans-69"/>
      <use x="63.183594" xlink:href="#DejaVuSans-112"/>
      <use x="126.660156" xlink:href="#DejaVuSans-111"/>
      <use x="187.841797" xlink:href="#DejaVuSans-99"/>
      <use x="242.822266" xlink:href="#DejaVuSans-104"/>
      <use x="306.201172" xlink:href="#DejaVuSans-115"/>
     </g>
    </g>
   </g>
   <g id="matplotlib.axis_4">
    <g id="ytick_9">
     <g id="line2d_27">
      <g>
       <use style="stroke:#000000;stroke-width:0.8;" x="624.525" xlink:href="#m59b092a48f" y="194.525145"/>
      </g>
     </g>
     <g id="text_27">
      <!-- 20% -->
      <g transform="translate(595.298437 198.324363)scale(0.1 -0.1)">
       <use xlink:href="#DejaVuSans-50"/>
       <use x="63.623047" xlink:href="#DejaVuSans-48"/>
       <use x="127.246094" xlink:href="#DejaVuSans-37"/>
      </g>
     </g>
    </g>
    <g id="ytick_10">
     <g id="line2d_28">
      <g>
       <use style="stroke:#000000;stroke-width:0.8;" x="624.525" xlink:href="#m59b092a48f" y="167.307198"/>
      </g>
     </g>
     <g id="text_28">
      <!-- 30% -->
      <g transform="translate(595.298437 171.106417)scale(0.1 -0.1)">
       <use xlink:href="#DejaVuSans-51"/>
       <use x="63.623047" xlink:href="#DejaVuSans-48"/>
       <use x="127.246094" xlink:href="#DejaVuSans-37"/>
      </g>
     </g>
    </g>
    <g id="ytick_11">
     <g id="line2d_29">
      <g>
       <use style="stroke:#000000;stroke-width:0.8;" x="624.525" xlink:href="#m59b092a48f" y="140.089252"/>
      </g>
     </g>
     <g id="text_29">
      <!-- 40% -->
      <g transform="translate(595.298437 143.88847)scale(0.1 -0.1)">
       <use xlink:href="#DejaVuSans-52"/>
       <use x="63.623047" xlink:href="#DejaVuSans-48"/>
       <use x="127.246094" xlink:href="#DejaVuSans-37"/>
      </g>
     </g>
    </g>
    <g id="ytick_12">
     <g id="line2d_30">
      <g>
       <use style="stroke:#000000;stroke-width:0.8;" x="624.525" xlink:href="#m59b092a48f" y="112.871305"/>
      </g>
     </g>
     <g id="text_30">
      <!-- 50% -->
      <g transform="translate(595.298437 116.670524)scale(0.1 -0.1)">
       <use xlink:href="#DejaVuSans-53"/>
       <use x="63.623047" xlink:href="#DejaVuSans-48"/>
       <use x="127.246094" xlink:href="#DejaVuSans-37"/>
      </g>
     </g>
    </g>
    <g id="ytick_13">
     <g id="line2d_31">
      <g>
       <use style="stroke:#000000;stroke-width:0.8;" x="624.525" xlink:href="#m59b092a48f" y="85.653359"/>
      </g>
     </g>
     <g id="text_31">
      <!-- 60% -->
      <g transform="translate(595.298437 89.452578)scale(0.1 -0.1)">
       <use xlink:href="#DejaVuSans-54"/>
       <use x="63.623047" xlink:href="#DejaVuSans-48"/>
       <use x="127.246094" xlink:href="#DejaVuSans-37"/>
      </g>
     </g>
    </g>
    <g id="ytick_14">
     <g id="line2d_32">
      <g>
       <use style="stroke:#000000;stroke-width:0.8;" x="624.525" xlink:href="#m59b092a48f" y="58.435412"/>
      </g>
     </g>
     <g id="text_32">
      <!-- 70% -->
      <g transform="translate(595.298437 62.234631)scale(0.1 -0.1)">
       <use xlink:href="#DejaVuSans-55"/>
       <use x="63.623047" xlink:href="#DejaVuSans-48"/>
       <use x="127.246094" xlink:href="#DejaVuSans-37"/>
      </g>
     </g>
    </g>
    <g id="ytick_15">
     <g id="line2d_33">
      <g>
       <use style="stroke:#000000;stroke-width:0.8;" x="624.525" xlink:href="#m59b092a48f" y="31.217466"/>
      </g>
     </g>
     <g id="text_33">
      <!-- 80% -->
      <g transform="translate(595.298437 35.016685)scale(0.1 -0.1)">
       <use xlink:href="#DejaVuSans-56"/>
       <use x="63.623047" xlink:href="#DejaVuSans-48"/>
       <use x="127.246094" xlink:href="#DejaVuSans-37"/>
      </g>
     </g>
    </g>
    <g id="text_34">
     <!-- Validation accuracy -->
     <g transform="translate(589.21875 170.039062)rotate(-90)scale(0.1 -0.1)">
      <use xlink:href="#DejaVuSans-86"/>
      <use x="60.658203" xlink:href="#DejaVuSans-97"/>
      <use x="121.9375" xlink:href="#DejaVuSans-108"/>
      <use x="149.720703" xlink:href="#DejaVuSans-105"/>
      <use x="177.503906" xlink:href="#DejaVuSans-100"/>
      <use x="240.980469" xlink:href="#DejaVuSans-97"/>
      <use x="302.259766" xlink:href="#DejaVuSans-116"/>
      <use x="341.46875" xlink:href="#DejaVuSans-105"/>
      <use x="369.251953" xlink:href="#DejaVuSans-111"/>
      <use x="430.433594" xlink:href="#DejaVuSans-110"/>
      <use x="493.8125" xlink:href="#DejaVuSans-32"/>
      <use x="525.599609" xlink:href="#DejaVuSans-97"/>
      <use x="586.878906" xlink:href="#DejaVuSans-99"/>
      <use x="641.859375" xlink:href="#DejaVuSans-99"/>
      <use x="696.839844" xlink:href="#DejaVuSans-117"/>
      <use x="760.21875" xlink:href="#DejaVuSans-114"/>
      <use x="801.332031" xlink:href="#DejaVuSans-97"/>
      <use x="862.611328" xlink:href="#DejaVuSans-99"/>
      <use x="917.591797" xlink:href="#DejaVuSans-121"/>
     </g>
    </g>
   </g>
   <g id="line2d_34">
    <path clip-path="url(#pdec7d89916)" d="M 648.010227 204.541347 
L 652.754718 204.731876 
L 657.499208 204.650221 
L 662.243698 198.98889 
L 666.988189 192.701543 
L 671.732679 203.098796 
L 676.477169 195.260029 
L 681.22166 188.319452 
L 685.96615 187.639004 
L 690.71064 183.229695 
L 695.455131 171.634853 
L 700.199621 167.225544 
L 704.944112 166.735621 
L 709.688602 157.889788 
L 714.433092 162.08135 
L 719.177583 147.329225 
L 723.922073 157.372651 
L 728.666563 142.429993 
L 733.411054 129.47425 
L 738.155544 135.462202 
L 742.900034 127.16073 
L 747.644525 115.538661 
L 752.389015 112.381382 
L 757.133506 110.258387 
L 761.877996 96.758284 
L 766.622486 106.937798 
L 771.366977 99.452854 
L 776.111467 98.064735 
L 780.855957 96.976031 
L 785.600448 96.077836 
L 790.344938 88.484018 
L 795.089428 87.340869 
L 799.833919 86.143276 
L 804.578409 87.694713 
L 809.322899 80.726914 
L 814.06739 83.394277 
L 818.81188 80.046466 
L 823.556371 85.517272 
L 828.300861 79.556543 
L 833.045351 78.957746 
L 837.789842 82.414431 
L 842.534332 79.719845 
L 847.278822 81.897285 
L 852.023313 69.540331 
L 856.767803 66.818539 
L 861.512293 73.677464 
L 866.256784 70.601829 
L 871.001274 71.25507 
L 875.745764 68.642136 
L 880.490255 70.492955 
L 885.234745 61.075557 
L 889.979236 70.683496 
L 894.723726 63.280203 
L 899.468216 65.512072 
L 904.212707 60.47676 
L 908.957197 61.048334 
L 913.701687 63.144123 
L 918.446178 57.999921 
L 923.190668 63.334648 
L 927.935158 63.552379 
L 932.679649 65.702597 
L 937.424139 52.719639 
L 942.168629 54.434379 
L 946.91312 48.990778 
L 951.65761 53.645057 
L 956.402101 51.032139 
L 961.146591 52.692433 
L 965.891081 54.053329 
L 970.635572 52.610766 
L 975.380062 48.800254 
L 980.124552 49.208526 
L 984.869043 51.767015 
L 989.613533 43.81937 
L 994.358023 51.549268 
L 999.102514 51.875889 
L 1003.847004 44.227642 
L 1008.591494 47.711534 
L 1013.335985 45.615761 
L 1018.080475 41.097578 
L 1022.824966 48.528078 
L 1027.569456 39.872778 
L 1032.313946 39.899985 
L 1037.058437 47.711534 
L 1041.802927 41.50585 
L 1046.547417 39.056234 
L 1051.291908 40.580433 
L 1056.036398 39.464506 
L 1060.780888 44.091562 
L 1065.525379 43.628845 
L 1070.269869 40.308257 
L 1075.01436 43.138922 
L 1079.75885 43.247796 
L 1084.50334 39.655031 
L 1089.247831 37.314289 
L 1093.992321 38.23969 
L 1098.736811 41.533073 
L 1103.481302 36.933239 
L 1108.225792 36.797143 
L 1112.970282 35.381818 
L 1117.714773 35.681217 
" style="fill:none;stroke:#0000ff;stroke-linecap:square;stroke-width:1.5;"/>
   </g>
   <g id="line2d_35">
    <path clip-path="url(#pdec7d89916)" d="M 648.010227 207.018182 
L 652.754718 206.990963 
L 657.499208 191.068467 
L 662.243698 176.887912 
L 666.988189 165.075326 
L 671.732679 164.449315 
L 676.477169 146.376601 
L 681.22166 145.097356 
L 685.96615 140.579173 
L 690.71064 143.1921 
L 695.455131 132.005525 
L 700.199621 123.649616 
L 704.944112 119.648571 
L 709.688602 115.484232 
L 714.433092 115.865281 
L 719.177583 107.618246 
L 723.922073 111.455964 
L 728.666563 105.8763 
L 733.411054 101.385324 
L 738.155544 107.618246 
L 742.900034 102.36517 
L 747.644525 95.288514 
L 752.389015 98.200831 
L 757.133506 99.289551 
L 761.877996 92.321753 
L 766.622486 95.070767 
L 771.366977 89.572738 
L 776.111467 87.340869 
L 780.855957 86.061624 
L 785.600448 95.152418 
L 790.344938 81.788412 
L 795.089428 85.381176 
L 799.833919 78.30452 
L 804.578409 76.889179 
L 809.322899 77.624072 
L 814.06739 77.052482 
L 818.81188 75.637157 
L 823.556371 77.052482 
L 828.300861 72.942571 
L 833.045351 73.840766 
L 837.789842 78.712776 
L 842.534332 75.41941 
L 847.278822 68.751009 
L 852.023313 67.009064 
L 856.767803 67.172366 
L 861.512293 67.390113 
L 866.256784 71.336722 
L 871.001274 64.940497 
L 875.745764 65.321547 
L 880.490255 64.314494 
L 885.234745 66.791317 
L 889.979236 61.647131 
L 894.723726 61.347732 
L 899.468216 98.445801 
L 904.212707 58.680369 
L 908.957197 60.503982 
L 913.701687 61.728782 
L 918.446178 61.048334 
L 923.190668 62.844725 
L 927.935158 59.197515 
L 932.679649 60.558411 
L 937.424139 57.401124 
L 942.168629 57.972715 
L 946.91312 55.087604 
L 951.65761 58.326542 
L 956.402101 52.447463 
L 961.146591 54.325505 
L 965.891081 59.877963 
L 970.635572 52.665211 
L 975.380062 58.272097 
L 980.124552 51.95754 
L 984.869043 55.713624 
L 989.613533 50.16115 
L 994.358023 56.530151 
L 999.102514 51.522062 
L 1003.847004 53.890011 
L 1008.591494 48.364775 
L 1013.335985 50.841598 
L 1018.080475 47.384929 
L 1022.824966 51.385966 
L 1027.569456 47.493803 
L 1032.313946 49.562369 
L 1037.058437 47.629882 
L 1041.802927 45.316362 
L 1046.547417 49.752894 
L 1051.291908 48.147028 
L 1056.036398 45.779063 
L 1060.780888 43.002842 
L 1065.525379 47.303278 
L 1070.269869 45.016964 
L 1075.01436 45.452458 
L 1079.75885 45.724634 
L 1084.50334 40.879831 
L 1089.247831 45.697412 
L 1093.992321 41.859677 
L 1098.736811 44.44539 
L 1103.481302 38.647962 
L 1108.225792 37.776989 
L 1112.970282 40.253828 
L 1117.714773 40.144954 
" style="fill:none;stroke:#ff0000;stroke-linecap:square;stroke-width:1.5;"/>
   </g>
   <g id="patch_9">
    <path d="M 624.525 215.6 
L 624.525 26.8 
" style="fill:none;stroke:#000000;stroke-linecap:square;stroke-linejoin:miter;stroke-width:0.8;"/>
   </g>
   <g id="patch_10">
    <path d="M 1141.2 215.6 
L 1141.2 26.8 
" style="fill:none;stroke:#000000;stroke-linecap:square;stroke-linejoin:miter;stroke-width:0.8;"/>
   </g>
   <g id="patch_11">
    <path d="M 624.525 215.6 
L 1141.2 215.6 
" style="fill:none;stroke:#000000;stroke-linecap:square;stroke-linejoin:miter;stroke-width:0.8;"/>
   </g>
   <g id="patch_12">
    <path d="M 624.525 26.8 
L 1141.2 26.8 
" style="fill:none;stroke:#000000;stroke-linecap:square;stroke-linejoin:miter;stroke-width:0.8;"/>
   </g>
   <g id="text_35">
    <!-- Training with 50% of weights watermarked -->
    <g transform="translate(754.719375 20.8)scale(0.12 -0.12)">
     <use xlink:href="#DejaVuSans-84"/>
     <use x="46.333984" xlink:href="#DejaVuSans-114"/>
     <use x="87.447266" xlink:href="#DejaVuSans-97"/>
     <use x="148.726562" xlink:href="#DejaVuSans-105"/>
     <use x="176.509766" xlink:href="#DejaVuSans-110"/>
     <use x="239.888672" xlink:href="#DejaVuSans-105"/>
     <use x="267.671875" xlink:href="#DejaVuSans-110"/>
     <use x="331.050781" xlink:href="#DejaVuSans-103"/>
     <use x="394.527344" xlink:href="#DejaVuSans-32"/>
     <use x="426.314453" xlink:href="#DejaVuSans-119"/>
     <use x="508.101562" xlink:href="#DejaVuSans-105"/>
     <use x="535.884766" xlink:href="#DejaVuSans-116"/>
     <use x="575.09375" xlink:href="#DejaVuSans-104"/>
     <use x="638.472656" xlink:href="#DejaVuSans-32"/>
     <use x="670.259766" xlink:href="#DejaVuSans-53"/>
     <use x="733.882812" xlink:href="#DejaVuSans-48"/>
     <use x="797.505859" xlink:href="#DejaVuSans-37"/>
     <use x="892.525391" xlink:href="#DejaVuSans-32"/>
     <use x="924.3125" xlink:href="#DejaVuSans-111"/>
     <use x="985.494141" xlink:href="#DejaVuSans-102"/>
     <use x="1020.699219" xlink:href="#DejaVuSans-32"/>
     <use x="1052.486328" xlink:href="#DejaVuSans-119"/>
     <use x="1134.273438" xlink:href="#DejaVuSans-101"/>
     <use x="1195.796875" xlink:href="#DejaVuSans-105"/>
     <use x="1223.580078" xlink:href="#DejaVuSans-103"/>
     <use x="1287.056641" xlink:href="#DejaVuSans-104"/>
     <use x="1350.435547" xlink:href="#DejaVuSans-116"/>
     <use x="1389.644531" xlink:href="#DejaVuSans-115"/>
     <use x="1441.744141" xlink:href="#DejaVuSans-32"/>
     <use x="1473.53125" xlink:href="#DejaVuSans-119"/>
     <use x="1555.318359" xlink:href="#DejaVuSans-97"/>
     <use x="1616.597656" xlink:href="#DejaVuSans-116"/>
     <use x="1655.806641" xlink:href="#DejaVuSans-101"/>
     <use x="1717.330078" xlink:href="#DejaVuSans-114"/>
     <use x="1756.693359" xlink:href="#DejaVuSans-109"/>
     <use x="1854.105469" xlink:href="#DejaVuSans-97"/>
     <use x="1915.384766" xlink:href="#DejaVuSans-114"/>
     <use x="1956.498047" xlink:href="#DejaVuSans-107"/>
     <use x="2010.783203" xlink:href="#DejaVuSans-101"/>
     <use x="2072.306641" xlink:href="#DejaVuSans-100"/>
    </g>
   </g>
   <g id="legend_2">
    <g id="patch_13">
     <path d="M 631.525 64.15625 
L 740.701563 64.15625 
Q 742.701563 64.15625 742.701563 62.15625 
L 742.701563 33.8 
Q 742.701563 31.8 740.701563 31.8 
L 631.525 31.8 
Q 629.525 31.8 629.525 33.8 
L 629.525 62.15625 
Q 629.525 64.15625 631.525 64.15625 
z
" style="fill:#ffffff;opacity:0.8;stroke:#cccccc;stroke-linejoin:miter;"/>
    </g>
    <g id="line2d_36">
     <path d="M 633.525 39.898437 
L 653.525 39.898437 
" style="fill:none;stroke:#0000ff;stroke-linecap:square;stroke-width:1.5;"/>
    </g>
    <g id="line2d_37"/>
    <g id="text_36">
     <!-- Honest training -->
     <g transform="translate(661.525 43.398437)scale(0.1 -0.1)">
      <use xlink:href="#DejaVuSans-72"/>
      <use x="75.195312" xlink:href="#DejaVuSans-111"/>
      <use x="136.376953" xlink:href="#DejaVuSans-110"/>
      <use x="199.755859" xlink:href="#DejaVuSans-101"/>
      <use x="261.279297" xlink:href="#DejaVuSans-115"/>
      <use x="313.378906" xlink:href="#DejaVuSans-116"/>
      <use x="352.587891" xlink:href="#DejaVuSans-32"/>
      <use x="384.375" xlink:href="#DejaVuSans-116"/>
      <use x="423.583984" xlink:href="#DejaVuSans-114"/>
      <use x="464.697266" xlink:href="#DejaVuSans-97"/>
      <use x="525.976562" xlink:href="#DejaVuSans-105"/>
      <use x="553.759766" xlink:href="#DejaVuSans-110"/>
      <use x="617.138672" xlink:href="#DejaVuSans-105"/>
      <use x="644.921875" xlink:href="#DejaVuSans-110"/>
      <use x="708.300781" xlink:href="#DejaVuSans-103"/>
     </g>
    </g>
    <g id="line2d_38">
     <path d="M 633.525 54.576562 
L 653.525 54.576562 
" style="fill:none;stroke:#ff0000;stroke-linecap:square;stroke-width:1.5;"/>
    </g>
    <g id="line2d_39"/>
    <g id="text_37">
     <!-- Transfer attack -->
     <g transform="translate(661.525 58.076562)scale(0.1 -0.1)">
      <use xlink:href="#DejaVuSans-84"/>
      <use x="46.333984" xlink:href="#DejaVuSans-114"/>
      <use x="87.447266" xlink:href="#DejaVuSans-97"/>
      <use x="148.726562" xlink:href="#DejaVuSans-110"/>
      <use x="212.105469" xlink:href="#DejaVuSans-115"/>
      <use x="264.205078" xlink:href="#DejaVuSans-102"/>
      <use x="299.410156" xlink:href="#DejaVuSans-101"/>
      <use x="360.933594" xlink:href="#DejaVuSans-114"/>
      <use x="402.046875" xlink:href="#DejaVuSans-32"/>
      <use x="433.833984" xlink:href="#DejaVuSans-97"/>
      <use x="495.113281" xlink:href="#DejaVuSans-116"/>
      <use x="534.322266" xlink:href="#DejaVuSans-116"/>
      <use x="573.53125" xlink:href="#DejaVuSans-97"/>
      <use x="634.810547" xlink:href="#DejaVuSans-99"/>
      <use x="689.791016" xlink:href="#DejaVuSans-107"/>
     </g>
    </g>
   </g>
  </g>
  <g id="axes_3">
   <g id="patch_14">
    <path d="M 53.925 462.2 
L 570.6 462.2 
L 570.6 273.4 
L 53.925 273.4 
z
" style="fill:#ffffff;"/>
   </g>
   <g id="matplotlib.axis_5">
    <g id="xtick_13">
     <g id="line2d_40">
      <g>
       <use style="stroke:#000000;stroke-width:0.8;" x="72.665737" xlink:href="#m03ead9c3ba" y="462.2"/>
      </g>
     </g>
     <g id="text_38">
      <!-- 0 -->
      <g transform="translate(69.484487 476.798437)scale(0.1 -0.1)">
       <use xlink:href="#DejaVuSans-48"/>
      </g>
     </g>
    </g>
    <g id="xtick_14">
     <g id="line2d_41">
      <g>
       <use style="stroke:#000000;stroke-width:0.8;" x="167.555544" xlink:href="#m03ead9c3ba" y="462.2"/>
      </g>
     </g>
     <g id="text_39">
      <!-- 20 -->
      <g transform="translate(161.193044 476.798437)scale(0.1 -0.1)">
       <use xlink:href="#DejaVuSans-50"/>
       <use x="63.623047" xlink:href="#DejaVuSans-48"/>
      </g>
     </g>
    </g>
    <g id="xtick_15">
     <g id="line2d_42">
      <g>
       <use style="stroke:#000000;stroke-width:0.8;" x="262.445351" xlink:href="#m03ead9c3ba" y="462.2"/>
      </g>
     </g>
     <g id="text_40">
      <!-- 40 -->
      <g transform="translate(256.082851 476.798437)scale(0.1 -0.1)">
       <use xlink:href="#DejaVuSans-52"/>
       <use x="63.623047" xlink:href="#DejaVuSans-48"/>
      </g>
     </g>
    </g>
    <g id="xtick_16">
     <g id="line2d_43">
      <g>
       <use style="stroke:#000000;stroke-width:0.8;" x="357.335158" xlink:href="#m03ead9c3ba" y="462.2"/>
      </g>
     </g>
     <g id="text_41">
      <!-- 60 -->
      <g transform="translate(350.972658 476.798437)scale(0.1 -0.1)">
       <use xlink:href="#DejaVuSans-54"/>
       <use x="63.623047" xlink:href="#DejaVuSans-48"/>
      </g>
     </g>
    </g>
    <g id="xtick_17">
     <g id="line2d_44">
      <g>
       <use style="stroke:#000000;stroke-width:0.8;" x="452.224966" xlink:href="#m03ead9c3ba" y="462.2"/>
      </g>
     </g>
     <g id="text_42">
      <!-- 80 -->
      <g transform="translate(445.862466 476.798437)scale(0.1 -0.1)">
       <use xlink:href="#DejaVuSans-56"/>
       <use x="63.623047" xlink:href="#DejaVuSans-48"/>
      </g>
     </g>
    </g>
    <g id="xtick_18">
     <g id="line2d_45">
      <g>
       <use style="stroke:#000000;stroke-width:0.8;" x="547.114773" xlink:href="#m03ead9c3ba" y="462.2"/>
      </g>
     </g>
     <g id="text_43">
      <!-- 100 -->
      <g transform="translate(537.571023 476.798437)scale(0.1 -0.1)">
       <use xlink:href="#DejaVuSans-49"/>
       <use x="63.623047" xlink:href="#DejaVuSans-48"/>
       <use x="127.246094" xlink:href="#DejaVuSans-48"/>
      </g>
     </g>
    </g>
    <g id="text_44">
     <!-- Epochs -->
     <g transform="translate(294.346875 490.476562)scale(0.1 -0.1)">
      <use xlink:href="#DejaVuSans-69"/>
      <use x="63.183594" xlink:href="#DejaVuSans-112"/>
      <use x="126.660156" xlink:href="#DejaVuSans-111"/>
      <use x="187.841797" xlink:href="#DejaVuSans-99"/>
      <use x="242.822266" xlink:href="#DejaVuSans-104"/>
      <use x="306.201172" xlink:href="#DejaVuSans-115"/>
     </g>
    </g>
   </g>
   <g id="matplotlib.axis_6">
    <g id="ytick_16">
     <g id="line2d_46">
      <g>
       <use style="stroke:#000000;stroke-width:0.8;" x="53.925" xlink:href="#m59b092a48f" y="445.516092"/>
      </g>
     </g>
     <g id="text_45">
      <!-- 20% -->
      <g transform="translate(24.698438 449.315311)scale(0.1 -0.1)">
       <use xlink:href="#DejaVuSans-50"/>
       <use x="63.623047" xlink:href="#DejaVuSans-48"/>
       <use x="127.246094" xlink:href="#DejaVuSans-37"/>
      </g>
     </g>
    </g>
    <g id="ytick_17">
     <g id="line2d_47">
      <g>
       <use style="stroke:#000000;stroke-width:0.8;" x="53.925" xlink:href="#m59b092a48f" y="415.057109"/>
      </g>
     </g>
     <g id="text_46">
      <!-- 30% -->
      <g transform="translate(24.698438 418.856327)scale(0.1 -0.1)">
       <use xlink:href="#DejaVuSans-51"/>
       <use x="63.623047" xlink:href="#DejaVuSans-48"/>
       <use x="127.246094" xlink:href="#DejaVuSans-37"/>
      </g>
     </g>
    </g>
    <g id="ytick_18">
     <g id="line2d_48">
      <g>
       <use style="stroke:#000000;stroke-width:0.8;" x="53.925" xlink:href="#m59b092a48f" y="384.598125"/>
      </g>
     </g>
     <g id="text_47">
      <!-- 40% -->
      <g transform="translate(24.698438 388.397344)scale(0.1 -0.1)">
       <use xlink:href="#DejaVuSans-52"/>
       <use x="63.623047" xlink:href="#DejaVuSans-48"/>
       <use x="127.246094" xlink:href="#DejaVuSans-37"/>
      </g>
     </g>
    </g>
    <g id="ytick_19">
     <g id="line2d_49">
      <g>
       <use style="stroke:#000000;stroke-width:0.8;" x="53.925" xlink:href="#m59b092a48f" y="354.139142"/>
      </g>
     </g>
     <g id="text_48">
      <!-- 50% -->
      <g transform="translate(24.698438 357.93836)scale(0.1 -0.1)">
       <use xlink:href="#DejaVuSans-53"/>
       <use x="63.623047" xlink:href="#DejaVuSans-48"/>
       <use x="127.246094" xlink:href="#DejaVuSans-37"/>
      </g>
     </g>
    </g>
    <g id="ytick_20">
     <g id="line2d_50">
      <g>
       <use style="stroke:#000000;stroke-width:0.8;" x="53.925" xlink:href="#m59b092a48f" y="323.680158"/>
      </g>
     </g>
     <g id="text_49">
      <!-- 60% -->
      <g transform="translate(24.698438 327.479377)scale(0.1 -0.1)">
       <use xlink:href="#DejaVuSans-54"/>
       <use x="63.623047" xlink:href="#DejaVuSans-48"/>
       <use x="127.246094" xlink:href="#DejaVuSans-37"/>
      </g>
     </g>
    </g>
    <g id="ytick_21">
     <g id="line2d_51">
      <g>
       <use style="stroke:#000000;stroke-width:0.8;" x="53.925" xlink:href="#m59b092a48f" y="293.221175"/>
      </g>
     </g>
     <g id="text_50">
      <!-- 70% -->
      <g transform="translate(24.698438 297.020393)scale(0.1 -0.1)">
       <use xlink:href="#DejaVuSans-55"/>
       <use x="63.623047" xlink:href="#DejaVuSans-48"/>
       <use x="127.246094" xlink:href="#DejaVuSans-37"/>
      </g>
     </g>
    </g>
    <g id="text_51">
     <!-- Validation accuracy -->
     <g transform="translate(18.61875 416.639063)rotate(-90)scale(0.1 -0.1)">
      <use xlink:href="#DejaVuSans-86"/>
      <use x="60.658203" xlink:href="#DejaVuSans-97"/>
      <use x="121.9375" xlink:href="#DejaVuSans-108"/>
      <use x="149.720703" xlink:href="#DejaVuSans-105"/>
      <use x="177.503906" xlink:href="#DejaVuSans-100"/>
      <use x="240.980469" xlink:href="#DejaVuSans-97"/>
      <use x="302.259766" xlink:href="#DejaVuSans-116"/>
      <use x="341.46875" xlink:href="#DejaVuSans-105"/>
      <use x="369.251953" xlink:href="#DejaVuSans-111"/>
      <use x="430.433594" xlink:href="#DejaVuSans-110"/>
      <use x="493.8125" xlink:href="#DejaVuSans-32"/>
      <use x="525.599609" xlink:href="#DejaVuSans-97"/>
      <use x="586.878906" xlink:href="#DejaVuSans-99"/>
      <use x="641.859375" xlink:href="#DejaVuSans-99"/>
      <use x="696.839844" xlink:href="#DejaVuSans-117"/>
      <use x="760.21875" xlink:href="#DejaVuSans-114"/>
      <use x="801.332031" xlink:href="#DejaVuSans-97"/>
      <use x="862.611328" xlink:href="#DejaVuSans-99"/>
      <use x="917.591797" xlink:href="#DejaVuSans-121"/>
     </g>
    </g>
   </g>
   <g id="line2d_52">
    <path clip-path="url(#p21cff05a81)" d="M 77.410227 453.618182 
L 82.154718 447.861432 
L 86.899208 448.074648 
L 91.643698 447.465467 
L 96.388189 440.368522 
L 101.132679 444.023603 
L 105.877169 438.754196 
L 110.62166 439.028327 
L 115.36615 430.926241 
L 120.11064 430.134307 
L 124.855131 423.311498 
L 129.599621 422.885065 
L 134.344112 422.51956 
L 139.088602 409.117607 
L 143.833092 409.60495 
L 148.577583 400.985061 
L 153.322073 398.121914 
L 158.066563 390.050287 
L 162.811054 393.888112 
L 167.555544 402.751676 
L 172.300034 392.060578 
L 177.044525 373.389218 
L 181.789015 377.227052 
L 186.533506 379.176423 
L 191.277996 366.231358 
L 196.022486 365.439421 
L 200.766977 378.110363 
L 205.511467 365.195754 
L 210.255957 354.900615 
L 215.000448 357.002289 
L 219.744938 360.474608 
L 224.489428 352.707568 
L 229.233919 357.946511 
L 233.978409 335.772377 
L 238.722899 347.803675 
L 243.46739 342.35152 
L 248.21188 331.569029 
L 252.956371 342.717016 
L 257.700861 337.508536 
L 262.445351 336.716599 
L 267.189842 344.057215 
L 271.934332 342.503804 
L 276.678822 333.579329 
L 281.423313 328.888648 
L 286.167803 325.538148 
L 290.912293 335.041367 
L 295.656784 330.16792 
L 300.401274 330.076546 
L 305.145764 322.888231 
L 309.890255 326.451924 
L 314.634745 320.238295 
L 319.379236 333.305189 
L 324.123726 319.781408 
L 328.868216 321.548031 
L 333.612707 317.25331 
L 338.357197 314.085577 
L 343.101687 315.090726 
L 347.846178 313.720063 
L 352.590668 319.568196 
L 357.335158 316.18725 
L 362.079649 314.999352 
L 366.824139 308.42021 
L 371.568629 308.237462 
L 376.31312 307.536898 
L 381.05761 304.886962 
L 385.802101 307.597808 
L 390.546591 303.699064 
L 395.291081 308.877097 
L 400.035572 304.67375 
L 404.780062 307.6892 
L 409.524552 300.226745 
L 414.269043 306.470838 
L 419.013533 296.541196 
L 423.758023 302.115207 
L 428.502514 308.663886 
L 433.247004 302.145653 
L 437.991494 296.90671 
L 442.735985 301.079593 
L 447.480475 291.576392 
L 452.224966 297.790021 
L 456.969456 306.501284 
L 461.713946 301.292805 
L 466.458437 302.572076 
L 471.202927 297.607273 
L 475.947417 300.226745 
L 480.691908 288.987367 
L 485.436398 299.739393 
L 490.180888 287.708095 
L 494.925379 289.261507 
L 499.669869 292.246492 
L 504.41436 295.657902 
L 509.15885 286.946621 
L 513.90334 287.951771 
L 518.647831 290.814919 
L 523.392321 284.32715 
L 528.136811 292.581542 
L 532.881302 285.606421 
L 537.625792 283.108788 
L 542.370282 287.342599 
L 547.114773 281.981818 
" style="fill:none;stroke:#0000ff;stroke-linecap:square;stroke-width:1.5;"/>
   </g>
   <g id="line2d_53">
    <path clip-path="url(#p21cff05a81)" d="M 77.410227 450.755039 
L 82.154718 447.861432 
L 86.899208 443.292584 
L 91.643698 443.840846 
L 96.388189 440.581739 
L 101.132679 435.830134 
L 105.877169 420.417886 
L 110.62166 419.717331 
L 115.36615 406.680893 
L 120.11064 401.228728 
L 124.855131 395.563361 
L 129.599621 388.314119 
L 134.344112 381.826359 
L 139.088602 383.44068 
L 143.833092 378.01898 
L 148.577583 368.058901 
L 153.322073 368.089356 
L 158.066563 367.297418 
L 162.811054 357.093663 
L 167.555544 361.297001 
L 172.300034 353.712718 
L 177.044525 347.895049 
L 181.789015 351.793792 
L 186.533506 350.484056 
L 191.277996 363.368211 
L 196.022486 350.301308 
L 200.766977 355.93622 
L 205.511467 341.40728 
L 210.255957 335.620075 
L 215.000448 339.33607 
L 219.744938 333.944843 
L 224.489428 328.218548 
L 229.233919 330.350668 
L 233.978409 327.517984 
L 238.722899 326.969722 
L 243.46739 332.208665 
L 248.21188 328.249012 
L 252.956371 325.538148 
L 257.700861 333.487955 
L 262.445351 322.675019 
L 267.189842 329.10186 
L 271.934332 328.340386 
L 276.678822 323.253727 
L 281.423313 323.284191 
L 286.167803 319.111308 
L 290.912293 324.472089 
L 295.656784 322.279041 
L 300.401274 326.6956 
L 305.145764 319.690034 
L 309.890255 322.279041 
L 314.634745 311.405195 
L 319.379236 316.58321 
L 324.123726 311.313803 
L 328.868216 309.699481 
L 333.612707 315.090726 
L 338.357197 310.308671 
L 343.101687 307.719646 
L 347.846178 308.663886 
L 352.590668 311.983903 
L 357.335158 311.009217 
L 362.079649 304.795588 
L 366.824139 305.161102 
L 371.568629 303.181266 
L 376.31312 301.536481 
L 381.05761 300.957755 
L 385.802101 304.460538 
L 390.546591 299.221595 
L 395.291081 302.115207 
L 400.035572 299.708947 
L 404.780062 299.008383 
L 409.524552 300.835917 
L 414.269043 300.318119 
L 419.013533 294.805036 
L 423.758023 311.618407 
L 428.502514 299.191131 
L 433.247004 297.089457 
L 437.991494 293.83035 
L 442.735985 292.70338 
L 447.480475 294.926874 
L 452.224966 291.728676 
L 456.969456 292.36833 
L 461.713946 289.352881 
L 466.458437 294.77459 
L 471.202927 291.180414 
L 475.947417 295.292388 
L 480.691908 289.078759 
L 485.436398 291.941888 
L 490.180888 285.088624 
L 494.925379 287.007549 
L 499.669869 286.824783 
L 504.41436 289.474719 
L 509.15885 290.936757 
L 513.90334 285.697814 
L 518.647831 288.195447 
L 523.392321 286.093773 
L 528.136811 286.215611 
L 532.881302 288.469569 
L 537.625792 282.31685 
L 542.370282 284.540362 
L 547.114773 282.773738 
" style="fill:none;stroke:#ff0000;stroke-linecap:square;stroke-width:1.5;"/>
   </g>
   <g id="patch_15">
    <path d="M 53.925 462.2 
L 53.925 273.4 
" style="fill:none;stroke:#000000;stroke-linecap:square;stroke-linejoin:miter;stroke-width:0.8;"/>
   </g>
   <g id="patch_16">
    <path d="M 570.6 462.2 
L 570.6 273.4 
" style="fill:none;stroke:#000000;stroke-linecap:square;stroke-linejoin:miter;stroke-width:0.8;"/>
   </g>
   <g id="patch_17">
    <path d="M 53.925 462.2 
L 570.6 462.2 
" style="fill:none;stroke:#000000;stroke-linecap:square;stroke-linejoin:miter;stroke-width:0.8;"/>
   </g>
   <g id="patch_18">
    <path d="M 53.925 273.4 
L 570.6 273.4 
" style="fill:none;stroke:#000000;stroke-linecap:square;stroke-linejoin:miter;stroke-width:0.8;"/>
   </g>
   <g id="text_52">
    <!-- Training with 60% of weights watermarked -->
    <g transform="translate(184.119375 267.4)scale(0.12 -0.12)">
     <use xlink:href="#DejaVuSans-84"/>
     <use x="46.333984" xlink:href="#DejaVuSans-114"/>
     <use x="87.447266" xlink:href="#DejaVuSans-97"/>
     <use x="148.726562" xlink:href="#DejaVuSans-105"/>
     <use x="176.509766" xlink:href="#DejaVuSans-110"/>
     <use x="239.888672" xlink:href="#DejaVuSans-105"/>
     <use x="267.671875" xlink:href="#DejaVuSans-110"/>
     <use x="331.050781" xlink:href="#DejaVuSans-103"/>
     <use x="394.527344" xlink:href="#DejaVuSans-32"/>
     <use x="426.314453" xlink:href="#DejaVuSans-119"/>
     <use x="508.101562" xlink:href="#DejaVuSans-105"/>
     <use x="535.884766" xlink:href="#DejaVuSans-116"/>
     <use x="575.09375" xlink:href="#DejaVuSans-104"/>
     <use x="638.472656" xlink:href="#DejaVuSans-32"/>
     <use x="670.259766" xlink:href="#DejaVuSans-54"/>
     <use x="733.882812" xlink:href="#DejaVuSans-48"/>
     <use x="797.505859" xlink:href="#DejaVuSans-37"/>
     <use x="892.525391" xlink:href="#DejaVuSans-32"/>
     <use x="924.3125" xlink:href="#DejaVuSans-111"/>
     <use x="985.494141" xlink:href="#DejaVuSans-102"/>
     <use x="1020.699219" xlink:href="#DejaVuSans-32"/>
     <use x="1052.486328" xlink:href="#DejaVuSans-119"/>
     <use x="1134.273438" xlink:href="#DejaVuSans-101"/>
     <use x="1195.796875" xlink:href="#DejaVuSans-105"/>
     <use x="1223.580078" xlink:href="#DejaVuSans-103"/>
     <use x="1287.056641" xlink:href="#DejaVuSans-104"/>
     <use x="1350.435547" xlink:href="#DejaVuSans-116"/>
     <use x="1389.644531" xlink:href="#DejaVuSans-115"/>
     <use x="1441.744141" xlink:href="#DejaVuSans-32"/>
     <use x="1473.53125" xlink:href="#DejaVuSans-119"/>
     <use x="1555.318359" xlink:href="#DejaVuSans-97"/>
     <use x="1616.597656" xlink:href="#DejaVuSans-116"/>
     <use x="1655.806641" xlink:href="#DejaVuSans-101"/>
     <use x="1717.330078" xlink:href="#DejaVuSans-114"/>
     <use x="1756.693359" xlink:href="#DejaVuSans-109"/>
     <use x="1854.105469" xlink:href="#DejaVuSans-97"/>
     <use x="1915.384766" xlink:href="#DejaVuSans-114"/>
     <use x="1956.498047" xlink:href="#DejaVuSans-107"/>
     <use x="2010.783203" xlink:href="#DejaVuSans-101"/>
     <use x="2072.306641" xlink:href="#DejaVuSans-100"/>
    </g>
   </g>
   <g id="legend_3">
    <g id="patch_19">
     <path d="M 60.925 310.75625 
L 170.101562 310.75625 
Q 172.101562 310.75625 172.101562 308.75625 
L 172.101562 280.4 
Q 172.101562 278.4 170.101562 278.4 
L 60.925 278.4 
Q 58.925 278.4 58.925 280.4 
L 58.925 308.75625 
Q 58.925 310.75625 60.925 310.75625 
z
" style="fill:#ffffff;opacity:0.8;stroke:#cccccc;stroke-linejoin:miter;"/>
    </g>
    <g id="line2d_54">
     <path d="M 62.925 286.498437 
L 82.925 286.498437 
" style="fill:none;stroke:#0000ff;stroke-linecap:square;stroke-width:1.5;"/>
    </g>
    <g id="line2d_55"/>
    <g id="text_53">
     <!-- Honest training -->
     <g transform="translate(90.925 289.998437)scale(0.1 -0.1)">
      <use xlink:href="#DejaVuSans-72"/>
      <use x="75.195312" xlink:href="#DejaVuSans-111"/>
      <use x="136.376953" xlink:href="#DejaVuSans-110"/>
      <use x="199.755859" xlink:href="#DejaVuSans-101"/>
      <use x="261.279297" xlink:href="#DejaVuSans-115"/>
      <use x="313.378906" xlink:href="#DejaVuSans-116"/>
      <use x="352.587891" xlink:href="#DejaVuSans-32"/>
      <use x="384.375" xlink:href="#DejaVuSans-116"/>
      <use x="423.583984" xlink:href="#DejaVuSans-114"/>
      <use x="464.697266" xlink:href="#DejaVuSans-97"/>
      <use x="525.976562" xlink:href="#DejaVuSans-105"/>
      <use x="553.759766" xlink:href="#DejaVuSans-110"/>
      <use x="617.138672" xlink:href="#DejaVuSans-105"/>
      <use x="644.921875" xlink:href="#DejaVuSans-110"/>
      <use x="708.300781" xlink:href="#DejaVuSans-103"/>
     </g>
    </g>
    <g id="line2d_56">
     <path d="M 62.925 301.176562 
L 82.925 301.176562 
" style="fill:none;stroke:#ff0000;stroke-linecap:square;stroke-width:1.5;"/>
    </g>
    <g id="line2d_57"/>
    <g id="text_54">
     <!-- Transfer attack -->
     <g transform="translate(90.925 304.676562)scale(0.1 -0.1)">
      <use xlink:href="#DejaVuSans-84"/>
      <use x="46.333984" xlink:href="#DejaVuSans-114"/>
      <use x="87.447266" xlink:href="#DejaVuSans-97"/>
      <use x="148.726562" xlink:href="#DejaVuSans-110"/>
      <use x="212.105469" xlink:href="#DejaVuSans-115"/>
      <use x="264.205078" xlink:href="#DejaVuSans-102"/>
      <use x="299.410156" xlink:href="#DejaVuSans-101"/>
      <use x="360.933594" xlink:href="#DejaVuSans-114"/>
      <use x="402.046875" xlink:href="#DejaVuSans-32"/>
      <use x="433.833984" xlink:href="#DejaVuSans-97"/>
      <use x="495.113281" xlink:href="#DejaVuSans-116"/>
      <use x="534.322266" xlink:href="#DejaVuSans-116"/>
      <use x="573.53125" xlink:href="#DejaVuSans-97"/>
      <use x="634.810547" xlink:href="#DejaVuSans-99"/>
      <use x="689.791016" xlink:href="#DejaVuSans-107"/>
     </g>
    </g>
   </g>
  </g>
  <g id="axes_4">
   <g id="patch_20">
    <path d="M 624.525 462.2 
L 1141.2 462.2 
L 1141.2 273.4 
L 624.525 273.4 
z
" style="fill:#ffffff;"/>
   </g>
   <g id="matplotlib.axis_7">
    <g id="xtick_19">
     <g id="line2d_58">
      <g>
       <use style="stroke:#000000;stroke-width:0.8;" x="643.265737" xlink:href="#m03ead9c3ba" y="462.2"/>
      </g>
     </g>
     <g id="text_55">
      <!-- 0 -->
      <g transform="translate(640.084487 476.798437)scale(0.1 -0.1)">
       <use xlink:href="#DejaVuSans-48"/>
      </g>
     </g>
    </g>
    <g id="xtick_20">
     <g id="line2d_59">
      <g>
       <use style="stroke:#000000;stroke-width:0.8;" x="738.155544" xlink:href="#m03ead9c3ba" y="462.2"/>
      </g>
     </g>
     <g id="text_56">
      <!-- 20 -->
      <g transform="translate(731.793044 476.798437)scale(0.1 -0.1)">
       <use xlink:href="#DejaVuSans-50"/>
       <use x="63.623047" xlink:href="#DejaVuSans-48"/>
      </g>
     </g>
    </g>
    <g id="xtick_21">
     <g id="line2d_60">
      <g>
       <use style="stroke:#000000;stroke-width:0.8;" x="833.045351" xlink:href="#m03ead9c3ba" y="462.2"/>
      </g>
     </g>
     <g id="text_57">
      <!-- 40 -->
      <g transform="translate(826.682851 476.798437)scale(0.1 -0.1)">
       <use xlink:href="#DejaVuSans-52"/>
       <use x="63.623047" xlink:href="#DejaVuSans-48"/>
      </g>
     </g>
    </g>
    <g id="xtick_22">
     <g id="line2d_61">
      <g>
       <use style="stroke:#000000;stroke-width:0.8;" x="927.935158" xlink:href="#m03ead9c3ba" y="462.2"/>
      </g>
     </g>
     <g id="text_58">
      <!-- 60 -->
      <g transform="translate(921.572658 476.798437)scale(0.1 -0.1)">
       <use xlink:href="#DejaVuSans-54"/>
       <use x="63.623047" xlink:href="#DejaVuSans-48"/>
      </g>
     </g>
    </g>
    <g id="xtick_23">
     <g id="line2d_62">
      <g>
       <use style="stroke:#000000;stroke-width:0.8;" x="1022.824966" xlink:href="#m03ead9c3ba" y="462.2"/>
      </g>
     </g>
     <g id="text_59">
      <!-- 80 -->
      <g transform="translate(1016.462466 476.798437)scale(0.1 -0.1)">
       <use xlink:href="#DejaVuSans-56"/>
       <use x="63.623047" xlink:href="#DejaVuSans-48"/>
      </g>
     </g>
    </g>
    <g id="xtick_24">
     <g id="line2d_63">
      <g>
       <use style="stroke:#000000;stroke-width:0.8;" x="1117.714773" xlink:href="#m03ead9c3ba" y="462.2"/>
      </g>
     </g>
     <g id="text_60">
      <!-- 100 -->
      <g transform="translate(1108.171023 476.798437)scale(0.1 -0.1)">
       <use xlink:href="#DejaVuSans-49"/>
       <use x="63.623047" xlink:href="#DejaVuSans-48"/>
       <use x="127.246094" xlink:href="#DejaVuSans-48"/>
      </g>
     </g>
    </g>
    <g id="text_61">
     <!-- Epochs -->
     <g transform="translate(864.946875 490.476562)scale(0.1 -0.1)">
      <use xlink:href="#DejaVuSans-69"/>
      <use x="63.183594" xlink:href="#DejaVuSans-112"/>
      <use x="126.660156" xlink:href="#DejaVuSans-111"/>
      <use x="187.841797" xlink:href="#DejaVuSans-99"/>
      <use x="242.822266" xlink:href="#DejaVuSans-104"/>
      <use x="306.201172" xlink:href="#DejaVuSans-115"/>
     </g>
    </g>
   </g>
   <g id="matplotlib.axis_8">
    <g id="ytick_22">
     <g id="line2d_64">
      <g>
       <use style="stroke:#000000;stroke-width:0.8;" x="624.525" xlink:href="#m59b092a48f" y="456.800134"/>
      </g>
     </g>
     <g id="text_62">
      <!-- 10% -->
      <g transform="translate(595.298437 460.599353)scale(0.1 -0.1)">
       <use xlink:href="#DejaVuSans-49"/>
       <use x="63.623047" xlink:href="#DejaVuSans-48"/>
       <use x="127.246094" xlink:href="#DejaVuSans-37"/>
      </g>
     </g>
    </g>
    <g id="ytick_23">
     <g id="line2d_65">
      <g>
       <use style="stroke:#000000;stroke-width:0.8;" x="624.525" xlink:href="#m59b092a48f" y="425.295662"/>
      </g>
     </g>
     <g id="text_63">
      <!-- 20% -->
      <g transform="translate(595.298437 429.094881)scale(0.1 -0.1)">
       <use xlink:href="#DejaVuSans-50"/>
       <use x="63.623047" xlink:href="#DejaVuSans-48"/>
       <use x="127.246094" xlink:href="#DejaVuSans-37"/>
      </g>
     </g>
    </g>
    <g id="ytick_24">
     <g id="line2d_66">
      <g>
       <use style="stroke:#000000;stroke-width:0.8;" x="624.525" xlink:href="#m59b092a48f" y="393.791191"/>
      </g>
     </g>
     <g id="text_64">
      <!-- 30% -->
      <g transform="translate(595.298437 397.59041)scale(0.1 -0.1)">
       <use xlink:href="#DejaVuSans-51"/>
       <use x="63.623047" xlink:href="#DejaVuSans-48"/>
       <use x="127.246094" xlink:href="#DejaVuSans-37"/>
      </g>
     </g>
    </g>
    <g id="ytick_25">
     <g id="line2d_67">
      <g>
       <use style="stroke:#000000;stroke-width:0.8;" x="624.525" xlink:href="#m59b092a48f" y="362.28672"/>
      </g>
     </g>
     <g id="text_65">
      <!-- 40% -->
      <g transform="translate(595.298437 366.085939)scale(0.1 -0.1)">
       <use xlink:href="#DejaVuSans-52"/>
       <use x="63.623047" xlink:href="#DejaVuSans-48"/>
       <use x="127.246094" xlink:href="#DejaVuSans-37"/>
      </g>
     </g>
    </g>
    <g id="ytick_26">
     <g id="line2d_68">
      <g>
       <use style="stroke:#000000;stroke-width:0.8;" x="624.525" xlink:href="#m59b092a48f" y="330.782249"/>
      </g>
     </g>
     <g id="text_66">
      <!-- 50% -->
      <g transform="translate(595.298437 334.581467)scale(0.1 -0.1)">
       <use xlink:href="#DejaVuSans-53"/>
       <use x="63.623047" xlink:href="#DejaVuSans-48"/>
       <use x="127.246094" xlink:href="#DejaVuSans-37"/>
      </g>
     </g>
    </g>
    <g id="ytick_27">
     <g id="line2d_69">
      <g>
       <use style="stroke:#000000;stroke-width:0.8;" x="624.525" xlink:href="#m59b092a48f" y="299.277777"/>
      </g>
     </g>
     <g id="text_67">
      <!-- 60% -->
      <g transform="translate(595.298437 303.076996)scale(0.1 -0.1)">
       <use xlink:href="#DejaVuSans-54"/>
       <use x="63.623047" xlink:href="#DejaVuSans-48"/>
       <use x="127.246094" xlink:href="#DejaVuSans-37"/>
      </g>
     </g>
    </g>
    <g id="text_68">
     <!-- Validation accuracy -->
     <g transform="translate(589.21875 416.639063)rotate(-90)scale(0.1 -0.1)">
      <use xlink:href="#DejaVuSans-86"/>
      <use x="60.658203" xlink:href="#DejaVuSans-97"/>
      <use x="121.9375" xlink:href="#DejaVuSans-108"/>
      <use x="149.720703" xlink:href="#DejaVuSans-105"/>
      <use x="177.503906" xlink:href="#DejaVuSans-100"/>
      <use x="240.980469" xlink:href="#DejaVuSans-97"/>
      <use x="302.259766" xlink:href="#DejaVuSans-116"/>
      <use x="341.46875" xlink:href="#DejaVuSans-105"/>
      <use x="369.251953" xlink:href="#DejaVuSans-111"/>
      <use x="430.433594" xlink:href="#DejaVuSans-110"/>
      <use x="493.8125" xlink:href="#DejaVuSans-32"/>
      <use x="525.599609" xlink:href="#DejaVuSans-97"/>
      <use x="586.878906" xlink:href="#DejaVuSans-99"/>
      <use x="641.859375" xlink:href="#DejaVuSans-99"/>
      <use x="696.839844" xlink:href="#DejaVuSans-117"/>
      <use x="760.21875" xlink:href="#DejaVuSans-114"/>
      <use x="801.332031" xlink:href="#DejaVuSans-97"/>
      <use x="862.611328" xlink:href="#DejaVuSans-99"/>
      <use x="917.591797" xlink:href="#DejaVuSans-121"/>
     </g>
    </g>
   </g>
   <g id="line2d_70">
    <path clip-path="url(#p6591b10522)" d="M 648.010227 453.618182 
L 652.754718 447.443304 
L 657.499208 439.504179 
L 662.243698 436.1332 
L 666.988189 433.014256 
L 671.732679 440.984891 
L 676.477169 437.456387 
L 681.22166 435.503109 
L 685.96615 429.233721 
L 690.71064 423.688934 
L 695.455131 427.658499 
L 700.199621 410.079003 
L 704.944112 418.112643 
L 709.688602 405.573862 
L 714.433092 400.533146 
L 719.177583 392.594025 
L 723.922073 395.68146 
L 728.666563 391.617384 
L 733.411054 378.196478 
L 738.155544 389.223042 
L 742.900034 386.041088 
L 747.644525 372.966732 
L 752.389015 371.86408 
L 757.133506 377.345857 
L 761.877996 373.344792 
L 766.622486 361.530617 
L 771.366977 374.447443 
L 776.111467 358.600694 
L 780.855957 357.750073 
L 785.600448 362.003178 
L 790.344938 355.8283 
L 795.089428 359.766365 
L 799.833919 345.620857 
L 804.578409 350.189003 
L 809.322899 356.710431 
L 814.06739 349.684932 
L 818.81188 338.973409 
L 823.556371 354.158568 
L 828.300861 338.280308 
L 833.045351 329.774107 
L 837.789842 334.342253 
L 842.534332 340.517131 
L 847.278822 330.624719 
L 852.023313 327.096234 
L 856.767803 324.0403 
L 861.512293 327.568785 
L 866.256784 328.230395 
L 871.001274 328.324905 
L 875.745764 313.738337 
L 880.490255 323.78826 
L 885.234745 321.960998 
L 889.979236 332.514991 
L 894.723726 325.363482 
L 899.468216 321.519937 
L 904.212707 312.950726 
L 908.957197 325.142951 
L 913.701687 317.424352 
L 918.446178 307.09088 
L 923.190668 315.534089 
L 927.935158 315.56558 
L 932.679649 317.329842 
L 937.424139 306.744329 
L 942.168629 312.887707 
L 946.91312 307.626469 
L 951.65761 324.0403 
L 956.402101 307.279919 
L 961.146591 302.428233 
L 965.891081 304.917086 
L 970.635572 318.747534 
L 975.380062 312.541156 
L 980.124552 299.65583 
L 984.869043 295.182204 
L 989.613533 286.108913 
L 994.358023 305.956718 
L 999.102514 307.122389 
L 1003.847004 302.113173 
L 1008.591494 296.284856 
L 1013.335985 293.449452 
L 1018.080475 291.24413 
L 1022.824966 292.409801 
L 1027.569456 289.007317 
L 1032.313946 293.764493 
L 1037.058437 293.732983 
L 1041.802927 297.513527 
L 1046.547417 290.078478 
L 1051.291908 284.974751 
L 1056.036398 294.993164 
L 1060.780888 287.999175 
L 1065.525379 283.242 
L 1070.269869 288.755277 
L 1075.01436 284.911732 
L 1079.75885 301.420073 
L 1084.50334 288.377236 
L 1089.247831 283.305019 
L 1093.992321 287.022544 
L 1098.736811 289.605907 
L 1103.481302 283.399529 
L 1108.225792 284.596691 
L 1112.970282 282.580409 
L 1117.714773 281.981818 
" style="fill:none;stroke:#0000ff;stroke-linecap:square;stroke-width:1.5;"/>
   </g>
   <g id="line2d_71">
    <path clip-path="url(#p6591b10522)" d="M 648.010227 443.662769 
L 652.754718 437.550902 
L 657.499208 441.898517 
L 662.243698 439.346659 
L 666.988189 435.755145 
L 671.732679 435.377094 
L 676.477169 425.547697 
L 681.22166 427.280444 
L 685.96615 420.443975 
L 690.71064 408.566786 
L 695.455131 411.276174 
L 700.199621 391.459864 
L 704.944112 389.254551 
L 709.688602 386.734189 
L 714.433092 378.385508 
L 719.177583 378.637538 
L 723.922073 382.638613 
L 728.666563 379.519669 
L 733.411054 375.392584 
L 738.155544 384.875426 
L 742.900034 370.918949 
L 747.644525 375.077534 
L 752.389015 382.229053 
L 757.133506 362.475748 
L 761.877996 375.644615 
L 766.622486 363.420879 
L 771.366977 368.020535 
L 776.111467 355.54476 
L 780.855957 360.490966 
L 785.600448 357.529542 
L 790.344938 359.860875 
L 795.089428 356.332371 
L 799.833919 333.838183 
L 804.578409 344.990766 
L 809.322899 346.376958 
L 814.06739 339.85554 
L 818.81188 342.879964 
L 823.556371 342.060853 
L 828.300861 342.438903 
L 833.045351 342.785454 
L 837.789842 355.450249 
L 842.534332 334.153223 
L 847.278822 336.011995 
L 852.023313 324.197811 
L 856.767803 331.63287 
L 861.512293 337.587217 
L 866.256784 330.750739 
L 871.001274 333.082072 
L 875.745764 327.726315 
L 880.490255 330.530209 
L 885.234745 315.84913 
L 889.979236 325.773033 
L 894.723726 331.223309 
L 899.468216 334.247743 
L 904.212707 322.622589 
L 908.957197 332.672521 
L 913.701687 315.94364 
L 918.446178 310.650893 
L 923.190668 332.01092 
L 927.935158 323.441709 
L 932.679649 318.905064 
L 937.424139 313.990358 
L 942.168629 313.108237 
L 946.91312 309.453713 
L 951.65761 315.439579 
L 956.402101 318.022943 
L 961.146591 300.25442 
L 965.891081 307.97302 
L 970.635572 319.314615 
L 975.380062 312.950726 
L 980.124552 310.430363 
L 984.869043 309.894792 
L 989.613533 308.918142 
L 994.358023 316.258681 
L 999.102514 318.274983 
L 1003.847004 301.483092 
L 1008.591494 305.547167 
L 1013.335985 299.340789 
L 1018.080475 304.444516 
L 1022.824966 297.608038 
L 1027.569456 298.679198 
L 1032.313946 303.499375 
L 1037.058437 303.404864 
L 1041.802927 302.239193 
L 1046.547417 301.640622 
L 1051.291908 297.954588 
L 1056.036398 298.143609 
L 1060.780888 294.772634 
L 1065.525379 300.00238 
L 1070.269869 291.49617 
L 1075.01436 304.602027 
L 1079.75885 301.042031 
L 1084.50334 294.237063 
L 1089.247831 293.102902 
L 1093.992321 294.898654 
L 1098.736811 305.043087 
L 1103.481302 301.798133 
L 1108.225792 289.007317 
L 1112.970282 295.560245 
L 1117.714773 291.52768 
" style="fill:none;stroke:#ff0000;stroke-linecap:square;stroke-width:1.5;"/>
   </g>
   <g id="patch_21">
    <path d="M 624.525 462.2 
L 624.525 273.4 
" style="fill:none;stroke:#000000;stroke-linecap:square;stroke-linejoin:miter;stroke-width:0.8;"/>
   </g>
   <g id="patch_22">
    <path d="M 1141.2 462.2 
L 1141.2 273.4 
" style="fill:none;stroke:#000000;stroke-linecap:square;stroke-linejoin:miter;stroke-width:0.8;"/>
   </g>
   <g id="patch_23">
    <path d="M 624.525 462.2 
L 1141.2 462.2 
" style="fill:none;stroke:#000000;stroke-linecap:square;stroke-linejoin:miter;stroke-width:0.8;"/>
   </g>
   <g id="patch_24">
    <path d="M 624.525 273.4 
L 1141.2 273.4 
" style="fill:none;stroke:#000000;stroke-linecap:square;stroke-linejoin:miter;stroke-width:0.8;"/>
   </g>
   <g id="text_69">
    <!-- Training with 70% of weights watermarked -->
    <g transform="translate(754.719375 267.4)scale(0.12 -0.12)">
     <use xlink:href="#DejaVuSans-84"/>
     <use x="46.333984" xlink:href="#DejaVuSans-114"/>
     <use x="87.447266" xlink:href="#DejaVuSans-97"/>
     <use x="148.726562" xlink:href="#DejaVuSans-105"/>
     <use x="176.509766" xlink:href="#DejaVuSans-110"/>
     <use x="239.888672" xlink:href="#DejaVuSans-105"/>
     <use x="267.671875" xlink:href="#DejaVuSans-110"/>
     <use x="331.050781" xlink:href="#DejaVuSans-103"/>
     <use x="394.527344" xlink:href="#DejaVuSans-32"/>
     <use x="426.314453" xlink:href="#DejaVuSans-119"/>
     <use x="508.101562" xlink:href="#DejaVuSans-105"/>
     <use x="535.884766" xlink:href="#DejaVuSans-116"/>
     <use x="575.09375" xlink:href="#DejaVuSans-104"/>
     <use x="638.472656" xlink:href="#DejaVuSans-32"/>
     <use x="670.259766" xlink:href="#DejaVuSans-55"/>
     <use x="733.882812" xlink:href="#DejaVuSans-48"/>
     <use x="797.505859" xlink:href="#DejaVuSans-37"/>
     <use x="892.525391" xlink:href="#DejaVuSans-32"/>
     <use x="924.3125" xlink:href="#DejaVuSans-111"/>
     <use x="985.494141" xlink:href="#DejaVuSans-102"/>
     <use x="1020.699219" xlink:href="#DejaVuSans-32"/>
     <use x="1052.486328" xlink:href="#DejaVuSans-119"/>
     <use x="1134.273438" xlink:href="#DejaVuSans-101"/>
     <use x="1195.796875" xlink:href="#DejaVuSans-105"/>
     <use x="1223.580078" xlink:href="#DejaVuSans-103"/>
     <use x="1287.056641" xlink:href="#DejaVuSans-104"/>
     <use x="1350.435547" xlink:href="#DejaVuSans-116"/>
     <use x="1389.644531" xlink:href="#DejaVuSans-115"/>
     <use x="1441.744141" xlink:href="#DejaVuSans-32"/>
     <use x="1473.53125" xlink:href="#DejaVuSans-119"/>
     <use x="1555.318359" xlink:href="#DejaVuSans-97"/>
     <use x="1616.597656" xlink:href="#DejaVuSans-116"/>
     <use x="1655.806641" xlink:href="#DejaVuSans-101"/>
     <use x="1717.330078" xlink:href="#DejaVuSans-114"/>
     <use x="1756.693359" xlink:href="#DejaVuSans-109"/>
     <use x="1854.105469" xlink:href="#DejaVuSans-97"/>
     <use x="1915.384766" xlink:href="#DejaVuSans-114"/>
     <use x="1956.498047" xlink:href="#DejaVuSans-107"/>
     <use x="2010.783203" xlink:href="#DejaVuSans-101"/>
     <use x="2072.306641" xlink:href="#DejaVuSans-100"/>
    </g>
   </g>
   <g id="legend_4">
    <g id="patch_25">
     <path d="M 631.525 310.75625 
L 740.701563 310.75625 
Q 742.701563 310.75625 742.701563 308.75625 
L 742.701563 280.4 
Q 742.701563 278.4 740.701563 278.4 
L 631.525 278.4 
Q 629.525 278.4 629.525 280.4 
L 629.525 308.75625 
Q 629.525 310.75625 631.525 310.75625 
z
" style="fill:#ffffff;opacity:0.8;stroke:#cccccc;stroke-linejoin:miter;"/>
    </g>
    <g id="line2d_72">
     <path d="M 633.525 286.498437 
L 653.525 286.498437 
" style="fill:none;stroke:#0000ff;stroke-linecap:square;stroke-width:1.5;"/>
    </g>
    <g id="line2d_73"/>
    <g id="text_70">
     <!-- Honest training -->
     <g transform="translate(661.525 289.998437)scale(0.1 -0.1)">
      <use xlink:href="#DejaVuSans-72"/>
      <use x="75.195312" xlink:href="#DejaVuSans-111"/>
      <use x="136.376953" xlink:href="#DejaVuSans-110"/>
      <use x="199.755859" xlink:href="#DejaVuSans-101"/>
      <use x="261.279297" xlink:href="#DejaVuSans-115"/>
      <use x="313.378906" xlink:href="#DejaVuSans-116"/>
      <use x="352.587891" xlink:href="#DejaVuSans-32"/>
      <use x="384.375" xlink:href="#DejaVuSans-116"/>
      <use x="423.583984" xlink:href="#DejaVuSans-114"/>
      <use x="464.697266" xlink:href="#DejaVuSans-97"/>
      <use x="525.976562" xlink:href="#DejaVuSans-105"/>
      <use x="553.759766" xlink:href="#DejaVuSans-110"/>
      <use x="617.138672" xlink:href="#DejaVuSans-105"/>
      <use x="644.921875" xlink:href="#DejaVuSans-110"/>
      <use x="708.300781" xlink:href="#DejaVuSans-103"/>
     </g>
    </g>
    <g id="line2d_74">
     <path d="M 633.525 301.176562 
L 653.525 301.176562 
" style="fill:none;stroke:#ff0000;stroke-linecap:square;stroke-width:1.5;"/>
    </g>
    <g id="line2d_75"/>
    <g id="text_71">
     <!-- Transfer attack -->
     <g transform="translate(661.525 304.676562)scale(0.1 -0.1)">
      <use xlink:href="#DejaVuSans-84"/>
      <use x="46.333984" xlink:href="#DejaVuSans-114"/>
      <use x="87.447266" xlink:href="#DejaVuSans-97"/>
      <use x="148.726562" xlink:href="#DejaVuSans-110"/>
      <use x="212.105469" xlink:href="#DejaVuSans-115"/>
      <use x="264.205078" xlink:href="#DejaVuSans-102"/>
      <use x="299.410156" xlink:href="#DejaVuSans-101"/>
      <use x="360.933594" xlink:href="#DejaVuSans-114"/>
      <use x="402.046875" xlink:href="#DejaVuSans-32"/>
      <use x="433.833984" xlink:href="#DejaVuSans-97"/>
      <use x="495.113281" xlink:href="#DejaVuSans-116"/>
      <use x="534.322266" xlink:href="#DejaVuSans-116"/>
      <use x="573.53125" xlink:href="#DejaVuSans-97"/>
      <use x="634.810547" xlink:href="#DejaVuSans-99"/>
      <use x="689.791016" xlink:href="#DejaVuSans-107"/>
     </g>
    </g>
   </g>
  </g>
 </g>
 <defs>
  <clipPath id="p4b4bcf445e">
   <rect height="188.8" width="516.675" x="53.925" y="26.8"/>
  </clipPath>
  <clipPath id="pdec7d89916">
   <rect height="188.8" width="516.675" x="624.525" y="26.8"/>
  </clipPath>
  <clipPath id="p21cff05a81">
   <rect height="188.8" width="516.675" x="53.925" y="273.4"/>
  </clipPath>
  <clipPath id="p6591b10522">
   <rect height="188.8" width="516.675" x="624.525" y="273.4"/>
  </clipPath>
 </defs>
</svg>
